<?xml version="1.0" encoding="utf-8"?>
<!-- Generator: Adobe Illustrator 26.0.0, SVG Export Plug-In . SVG Version: 6.00 Build 0)  -->
<svg version="1.1" id="Capa_1" xmlns="http://www.w3.org/2000/svg" xmlns:xlink="http://www.w3.org/1999/xlink" x="0px" y="0px"
	 viewBox="0 0 76 76" style="enable-background:new 0 0 76 76;" xml:space="preserve">
<style type="text/css">
	.st0{fill:#0D4AAD;}
	.st1{fill:#FFFFFF;}
	.st2{fill:#FEFEFE;}
	.st3{fill:#ECECEC;}
</style>
<g id="sXoIWF" transform="translate(-4244.148 -817.336)">
	<g id="Grupo_138047" transform="translate(4244.148 817.336)">
		<path id="Trazado_152042" class="st0" d="M2.9,52.4c-1-2.4-1.8-4.9-2.2-7.5c-0.5-2.9-0.7-5.8-0.6-8.7c0.2-4.7,1.3-9.2,3.2-13.5
			c1.4-3.3,3.3-6.3,5.6-9c0.8-1,1.6-1.9,2.5-2.7c1.6-0.1,3.2,0,4.8-0.1c0.3,0,0.6,0,0.9-0.1c0.2,0,0.3-0.2,0.2-0.3
			c0-0.1-0.1-0.2-0.3-0.2c-0.2-0.1-0.4-0.1-0.7-0.1c-1,0-2,0-3,0c-0.3,0.1-0.7,0-0.9-0.2c5.8-5.4,13.2-8.8,21.1-9.7
			C41-0.7,48.6,0.7,55.4,4.2c4,2,7.5,4.7,10.5,8c2.5,2.7,4.5,5.7,6.1,8.9c-0.5,0.3-1,0.2-1.5,0.2c-0.3,0-0.6,0-1,0
			c-0.2,0-0.6,0.1-0.6,0.4c0,0.3,0.3,0.3,0.6,0.4c0.5,0,0.9,0,1.4,0c0.5,0,1,0,1.6,0.1c1.5,3.2,2.5,6.5,3,10
			c0.4,2.7,0.5,5.5,0.4,8.2c0,0.2,0.1,0.5-0.1,0.6c-0.3-0.2-0.7-0.2-1.1-0.2c-1.4,0-2.8,0-4.1,0c-0.3,0-0.8-0.1-0.9,0.3
			s0.5,0.4,0.8,0.4c1.4,0,2.8,0,4.2,0c0.3-0.1,0.7,0,1,0.2C75.1,49,72.3,56,67.7,61.6c-0.3,0.1-0.5,0.1-0.8,0.1c-2.9,0-5.8,0-8.7,0
			c-0.2,0-0.4,0-0.6,0c-0.6-0.1-0.7-0.3-0.4-0.7c0.6-1,0.9-2.1,0.8-3.3c0-1.8,0-1.8,1.8-1.8c1,0,2,0,2.9,0c0.2,0,0.4,0,0.5,0
			c0.2,0,0.5-0.1,0.5-0.4c0-0.3-0.3-0.3-0.5-0.3c-0.6-0.1-1.2,0-1.7,0c-0.8,0-1.6,0-2.4,0c-1,0-1.1-0.2-1.2-1.1c0-1,0-2.1,0-3.1V32
			c0-0.3,0-0.6,0-0.9c0-0.5,0.2-0.9,0.8-0.9c0.2,0,0.3,0,0.4-0.1c0.2,0,0.4-0.1,0.4-0.4c0-0.3-0.3-0.3-0.4-0.3
			C58,29.3,58,29.3,58,28c0-4.3,0-8.5,0-12.8c0-0.6,0-1.1-0.2-1.6c-0.4-1.5-1.8-2.5-3.4-2.3c-0.1,0-0.2,0-0.3,0
			c-0.5,0-1.1-0.1-1.7-0.1c-9.6,0-19.2,0-28.8,0c-0.4,0-0.9,0-1.3-0.1c-0.1,0-0.2-0.1-0.2-0.2c0.1-0.8-0.4-0.8-1-0.8
			c-0.5,0-1,0-1.5,0c-0.2,0-0.5,0-0.5,0.3c0,0.3,0.2,0.4,0.5,0.4c0.3,0,0.7,0.1,1,0.1c0.3,0,0.6-0.1,0.8,0.3
			c-0.1,0.1-0.2,0.3-0.3,0.3c-1.1,0.8-1.8,2.1-1.6,3.5c0,5.4,0,10.8,0,16.2c0.1,0.4,0,0.9-0.2,1.2c-0.3,0.2-0.7,0.3-1,0.2
			c-1.3,0-2.5,0-3.8,0c-0.2,0-0.5,0-0.7,0.1c-0.1,0-0.2,0.1-0.3,0.2c0,0.2,0.1,0.3,0.2,0.3c0.3,0.1,0.5,0.1,0.8,0.1
			c1.2,0,2.5,0,3.7,0c0.4-0.1,0.7,0,1,0.2c0.2,0.4,0.2,0.9,0.2,1.3c0,7.5,0,15.1,0,22.6c0,0.7,0,1.4,0.2,2c0.1,0.5,0.3,0.9,0.6,1.2
			c0.2,0.2,0.4,0.4,0,0.6c-0.3,0.1-0.6,0.1-1,0.1c-3.4,0-6.8,0-10.1,0c-0.3,0-0.6,0-0.9-0.1c-2.1-2.5-3.7-5.3-5-8.3
			c0.4-0.4,0.8-0.2,1.3-0.2c0.5,0,1,0,1.6,0c0.2,0,0.6,0,0.6-0.4s-0.3-0.4-0.6-0.4C5.1,52.3,4,52.3,2.9,52.4z"/>
		<path id="Trazado_152043" class="st0" d="M8.3,61.6c0.2-0.2,0.5-0.1,0.8-0.1c3.8,0,7.6,0,11.4,0c0.1,0,0.2,0,0.3,0
			c1.2,0.5,2.5,0.7,3.8,0.5c9.4,0,18.8,0,28.2,0c0.8,0.1,1.5-0.1,2.2-0.5c0.9-0.6,1.4-1.5,1.5-2.5c0-0.3,0-0.6,0-0.8
			c0-14.4,0-28.7,0-43.1c0.1-1-0.2-2-0.8-2.8c-0.4-0.4-0.9-0.6-1.2-1.1c1.6-0.3,3.2,0.6,3.6,2.2c0.1,0.5,0.2,1.1,0.2,1.6
			c0,4.4,0,8.8,0,13.3c0,1.1,0,1,1.1,1c0.3,0,0.6-0.1,0.7,0.3c0.1,0.2,0.1,0.5-0.1,0.7c-0.2,0.2-0.4,0.3-0.7,0.2c-0.8-0.1-1,0.3-1,1
			c0,7.5,0,15,0,22.5c0,1,0,1,1,1c1.4,0,2.7,0,4.1,0c0.4,0,0.9,0,0.9,0.5c0,0.6-0.5,0.7-1,0.7c-1.4,0-2.9,0-4.3,0
			c-0.6,0-0.7,0.1-0.7,0.7c0.1,0.9,0,1.8-0.1,2.6c-0.1,0.7-0.5,1.4-1,2c0.2,0.3,0.4,0.1,0.6,0.1c3.1,0,6.1,0,9.2,0
			c0.3,0,0.6-0.1,0.8,0.1c-5.6,7-13.5,11.9-22.3,13.6c-3.5,0.7-7.1,0.9-10.6,0.6C24.4,75,14.8,69.8,8.3,61.6L8.3,61.6z"/>
		<path id="Trazado_152044" class="st1" d="M75.8,41.7c-1.8,0-3.7,0-5.5,0c-0.5,0-0.9,0-0.9-0.6s0.5-0.6,0.9-0.6c1.6,0,3.3,0,4.9,0
			c0.3,0,0.7,0,0.7,0.5C75.8,41.3,75.8,41.5,75.8,41.7z"/>
		<path id="Trazado_152045" class="st1" d="M12.4,9.9c1.5,0,3,0,4.4,0c0.4,0,0.8,0.1,0.8,0.5c0,0.4-0.3,0.7-0.7,0.7
			c-1.8,0-3.6,0-5.3,0c-0.1,0-0.2-0.1-0.2-0.1C11.6,10.6,12,10.3,12.4,9.9z"/>
		<path id="Trazado_152046" class="st1" d="M2.9,52.4c0-0.3,0.3-0.3,0.5-0.3c0.9,0,1.9,0,2.8,0c0.4,0,0.9,0.1,0.9,0.6
			c0,0.6-0.4,0.6-0.9,0.6c-1,0-1.9,0-2.9,0C3.1,53.1,3,52.8,2.9,52.4z"/>
		<path id="Trazado_152047" class="st1" d="M72.5,22.2c-1.1,0.2-2.3,0.2-3.5,0.1c-0.3,0-0.5-0.2-0.4-0.5c0,0,0,0,0,0
			c0-0.4,0.3-0.7,0.7-0.6c0.9,0,1.8,0,2.7,0C72.3,21.4,72.4,21.8,72.5,22.2z"/>
		<path id="Trazado_152048" class="st2" d="M19.6,60c-0.2-0.5-0.3-1.1-0.3-1.7c0-8.2,0-16.4,0-24.6c-0.3-0.4-0.3-0.9,0-1.2
			c0-5.8,0-11.6,0-17.4c-0.2-1.6,0.7-3.2,2.1-4c0.2-0.2,0.5-0.3,0.7-0.2c10.3,0,20.6,0,30.9,0c0.4-0.1,0.9,0,1.3,0.2
			c0.2,0.1,0.4,0.4,0.4,0.7c0,0.2,0,0.4,0,0.6c0,14.7,0,29.4,0,44.1c0,0.9-0.3,1.9-0.9,2.6c-0.6,0.7-1.5,1.1-2.5,1.1
			c-0.9,0-1.8,0-2.6,0c-9.2,0-18.5,0-27.7,0C20.5,60.3,20,60.2,19.6,60z"/>
		<path id="Trazado_152049" class="st3" d="M19.6,60c10.5,0,20.9,0,31.4,0c1.9,0,3.4-1.6,3.4-3.5c-0.1-14.8,0-29.5,0-44.3
			c0.1-0.4,0-0.8-0.1-1.1l0.2,0c1.4,0.5,2.3,1.8,2.2,3.2c0,14.8,0,29.7,0,44.5c0,1.8-1.5,3.3-3.3,3.4c0,0-0.1,0-0.1,0
			c-10.1,0-20.3,0-30.4,0c-0.8,0-1.6-0.3-2.3-0.8C20.2,61,19.6,60.7,19.6,60z"/>
		<path id="Trazado_152050" class="st1" d="M47.6,4.7c1.2,0,2.4,0,3.5,0c0.4,0,0.8,0.1,0.8,0.6c0,0.5-0.4,0.6-0.8,0.6
			c-2.3,0-4.7,0-7,0c-0.5,0-0.8-0.2-0.8-0.7s0.4-0.6,0.8-0.6C45.3,4.7,46.5,4.7,47.6,4.7z"/>
		<path id="Trazado_152051" class="st1" d="M19.3,32.6l0,1.2c-1.6,0-3.2,0-4.8,0c-0.2,0-0.4,0-0.6,0c-0.4-0.1-0.7-0.2-0.6-0.7
			s0.4-0.5,0.7-0.5C15.8,32.6,17.5,32.6,19.3,32.6z"/>
		<path id="Trazado_152052" class="st1" d="M39.1,4.7c0.6,0,1.2,0,1.7,0c0.4,0,0.7,0.1,0.8,0.6S41.3,5.8,41,5.8c-1.2,0-2.5,0-3.7,0
			c-0.3,0-0.6-0.2-0.6-0.5c0,0,0-0.1,0-0.1c0-0.3,0.3-0.6,0.6-0.6c0,0,0,0,0,0C38,4.7,38.5,4.7,39.1,4.7z"/>
		<path id="Trazado_152053" class="st1" d="M66.4,41.7c-0.5,0-0.9,0-1.4,0c-0.3,0-0.6-0.2-0.6-0.5c0,0,0,0,0-0.1
			c0-0.3,0.2-0.6,0.5-0.6c0,0,0.1,0,0.1,0c0.9,0,1.8,0,2.7,0c0.3,0,0.6,0.2,0.6,0.6c0,0.3-0.2,0.6-0.6,0.6c0,0-0.1,0-0.1,0
			C67.3,41.7,66.8,41.7,66.4,41.7z"/>
		<path id="Trazado_152054" class="st1" d="M10.4,33.8c-0.4,0-0.9,0-1.3,0c-0.4,0-0.7-0.2-0.7-0.7s0.4-0.5,0.8-0.5
			c0.9,0,1.7,0,2.6,0c0.3,0,0.6,0.1,0.6,0.4c0.1,0.3-0.1,0.6-0.4,0.7C11.3,33.8,10.8,33.8,10.4,33.8z"/>
		<path id="Trazado_152055" class="st1" d="M22.2,11l-0.7,0.2c-0.6,0-1.2,0-1.8,0c-0.4,0-0.8-0.2-0.8-0.7c0-0.5,0.4-0.5,0.8-0.5
			c0.7,0,1.3,0,2,0c0.3-0.1,0.6,0.1,0.8,0.3C22.6,10.6,22.3,10.8,22.2,11z"/>
		<path id="Trazado_152056" class="st1" d="M66,22.3c-0.5,0-1.1,0.1-1.1-0.5c0-0.7,0.7-0.6,1.2-0.7c0.4-0.1,0.8,0.2,0.9,0.6
			c0,0.3-0.1,0.5-0.4,0.6c0,0,0,0,0,0C66.4,22.3,66.2,22.3,66,22.3z"/>
		<path id="Trazado_152057" class="st1" d="M62.6,29.2c0.4,0,0.9,0.1,0.9,0.6c0,0.6-0.5,0.6-0.9,0.6s-0.8-0.1-0.8-0.6
			C61.7,29.3,62.1,29.2,62.6,29.2z"/>
		<path id="Trazado_152058" class="st1" d="M8.9,53.4c-0.4,0-0.8,0-0.8-0.5s0.4-0.7,0.9-0.7c0.5,0,0.8,0.2,0.8,0.7
			C9.8,53.3,9.3,53.4,8.9,53.4z"/>
		<path id="Trazado_152059" class="st3" d="M38,32c-3.7,0-7.3,0-11,0c-0.5,0-1,0-1.2-0.5c-0.4-0.9,0-1.6,1.1-1.6c2.5,0,5,0,7.5,0
			c4.9,0,9.8,0,14.7,0c1,0,1.4,0.3,1.3,1.1c-0.1,0.7-0.4,1-1.2,1C45.4,32,41.7,32,38,32z"/>
		<path id="Trazado_152060" class="st3" d="M38,35.6c3.7,0,7.4,0,11.1,0c0.9,0,1.3,0.3,1.2,1.1c0,0.5-0.4,1-0.9,1c0,0-0.1,0-0.1,0
			c-0.1,0-0.3,0-0.4,0c-7.3,0-14.7,0-22,0c-0.5,0-1,0-1.3-0.6c-0.4-0.9,0.1-1.5,1.2-1.5C30.6,35.6,34.3,35.6,38,35.6z"/>
		<path id="Trazado_152061" class="st3" d="M38,43.4c-3.7,0-7.4,0-11.1,0c-0.5,0-1-0.1-1.2-0.6c-0.4-0.9,0.1-1.5,1.1-1.5
			c2.5,0,5,0,7.5,0c4.9,0,9.8,0,14.7,0c1,0,1.4,0.3,1.3,1.1c-0.1,0.7-0.4,1-1.2,1C45.4,43.4,41.7,43.4,38,43.4z"/>
		<path id="Trazado_152062" class="st3" d="M38,49.1c-3.7,0-7.4,0-11.1,0c-0.4,0.1-0.8-0.1-1.1-0.4c-0.2-0.3-0.3-0.8-0.2-1.2
			c0.2-0.4,0.5-0.6,0.9-0.6c0.1,0,0.3,0,0.4,0c7.4,0,14.7,0,22.1,0c1,0,1.5,0.4,1.3,1.2c-0.1,0.7-0.6,0.9-1.3,0.9
			C45.4,49.1,41.7,49.1,38,49.1z"/>
		<path id="Trazado_152063" class="st3" d="M38,54.9c-3.7,0-7.3,0-11,0c-0.4,0.1-0.9-0.1-1.1-0.4C25.5,54,25.5,53.3,26,53
			c0.2-0.2,0.4-0.2,0.7-0.2c0.1,0,0.3,0,0.4,0h22c1,0,1.4,0.3,1.4,1c0,0.8-0.4,1.1-1.3,1.1C45.4,54.9,41.7,54.9,38,54.9z"/>
	</g>
	<path id="Trazado_152069" class="st0" d="M4267.4,839.8v1.5h-0.9v-4.3h1.6c0.4,0,0.8,0.1,1.2,0.4c0.3,0.3,0.4,0.6,0.4,1
		c0,0.4-0.1,0.7-0.4,1c-0.3,0.3-0.7,0.4-1.2,0.4L4267.4,839.8z M4267.4,839.1h0.8c0.2,0,0.4-0.1,0.5-0.2c0.1-0.1,0.2-0.3,0.2-0.5
		c0-0.2-0.1-0.4-0.2-0.5c-0.1-0.1-0.3-0.2-0.5-0.2h-0.8V839.1z M4272,838.9l-0.3,0c-0.1,0-0.2,0-0.3,0.1c-0.1,0.1-0.1,0.1-0.2,0.2
		v2.1h-0.8v-3.2h0.8l0,0.5c0.1-0.2,0.2-0.3,0.3-0.4c0.1-0.1,0.3-0.1,0.4-0.1c0,0,0.1,0,0.1,0c0,0,0.1,0,0.1,0L4272,838.9z
		 M4273.3,841.3h-0.9v-3.2h0.9V841.3z M4273.3,837.4h-0.9v-0.6h0.9V837.4z M4274.8,838.2l0,0.5c0.1-0.2,0.2-0.3,0.4-0.4
		c0.2-0.1,0.3-0.1,0.5-0.1c0.3,0,0.6,0.1,0.8,0.3c0.2,0.3,0.3,0.6,0.3,1v1.9h-0.9v-1.9c0-0.2,0-0.3-0.1-0.5
		c-0.1-0.1-0.2-0.2-0.4-0.1c-0.1,0-0.2,0-0.3,0.1c-0.1,0-0.2,0.1-0.2,0.2v2.3h-0.9v-3.2H4274.8z M4278.7,840.7c0.1,0,0.3,0,0.4-0.1
		c0.1-0.1,0.1-0.2,0.1-0.4h0.8l0,0c0,0.3-0.1,0.6-0.4,0.8c-0.3,0.2-0.6,0.3-0.9,0.3c-0.4,0-0.8-0.1-1.1-0.5
		c-0.3-0.3-0.4-0.7-0.4-1.1v-0.1c0-0.4,0.1-0.8,0.4-1.2c0.3-0.3,0.7-0.5,1.1-0.5c0.3,0,0.7,0.1,0.9,0.3c0.2,0.2,0.4,0.5,0.3,0.9l0,0
		h-0.8c0-0.1,0-0.3-0.1-0.4c-0.1-0.1-0.2-0.2-0.4-0.2c-0.2,0-0.4,0.1-0.5,0.3c-0.1,0.2-0.1,0.4-0.1,0.7v0.1c0,0.2,0,0.5,0.1,0.7
		C4278.3,840.6,4278.5,840.7,4278.7,840.7z M4281.4,841.3h-0.9v-3.2h0.9V841.3z M4281.4,837.4h-0.9v-0.6h0.9V837.4z M4284.9,839.8
		c0,0.4-0.1,0.8-0.3,1.1c-0.2,0.3-0.6,0.4-0.9,0.4c-0.2,0-0.3,0-0.4-0.1c-0.1-0.1-0.2-0.2-0.3-0.3v1.5h-0.9v-4.4h0.8l0.1,0.4
		c0.1-0.1,0.2-0.2,0.3-0.3c0.1-0.1,0.3-0.1,0.5-0.1c0.4,0,0.7,0.2,0.9,0.5C4284.8,838.9,4285,839.3,4284.9,839.8L4284.9,839.8z
		 M4284.1,839.8c0-0.3,0-0.5-0.1-0.7c-0.1-0.2-0.3-0.3-0.5-0.3c-0.1,0-0.2,0-0.3,0.1c-0.1,0.1-0.2,0.1-0.2,0.2v1.4
		c0.1,0.1,0.1,0.2,0.2,0.2c0.1,0,0.2,0.1,0.3,0.1c0.2,0,0.4-0.1,0.5-0.2C4284.1,840.3,4284.1,840.1,4284.1,839.8L4284.1,839.8z
		 M4286.4,841.3h-0.9v-3.2h0.9V841.3z M4286.4,837.4h-0.9v-0.6h0.9V837.4z M4286.9,839.7c0-0.4,0.1-0.8,0.4-1.2
		c0.3-0.3,0.7-0.5,1.1-0.5c0.4,0,0.8,0.1,1.1,0.5c0.3,0.3,0.4,0.7,0.4,1.2v0.1c0,0.4-0.1,0.8-0.4,1.2c-0.3,0.3-0.7,0.5-1.1,0.4
		c-0.4,0-0.8-0.1-1.1-0.4C4287.1,840.6,4286.9,840.2,4286.9,839.7L4286.9,839.7z M4287.8,839.8c0,0.2,0,0.5,0.2,0.7
		c0.1,0.2,0.3,0.3,0.5,0.3c0.2,0,0.4-0.1,0.5-0.3c0.1-0.2,0.2-0.5,0.2-0.7v-0.1c0-0.2,0-0.5-0.2-0.7c-0.1-0.2-0.3-0.3-0.5-0.3
		c-0.2,0-0.4,0.1-0.5,0.3C4287.8,839.2,4287.8,839.5,4287.8,839.8L4287.8,839.8z"/>
	<path id="Trazado_152068" class="st0" d="M4293.5,838.3c0.3,0,0.7-0.1,0.9-0.3c0.2-0.2,0.3-0.6,0.3-0.9c0-0.3-0.1-0.6-0.3-0.8
		c-0.2-0.2-0.5-0.3-0.9-0.3c-0.3,0-0.6,0.1-0.8,0.3c-0.2,0.2-0.3,0.5-0.3,0.7h-1.7l0,0c0-0.6,0.3-1.3,0.8-1.6c0.6-0.4,1.3-0.7,2-0.7
		c0.8,0,1.5,0.2,2.1,0.6c0.5,0.4,0.8,1.1,0.8,1.8c0,0.4-0.1,0.8-0.3,1.1c-0.2,0.3-0.6,0.6-0.9,0.8c0.4,0.1,0.8,0.4,1,0.8
		c0.2,0.4,0.4,0.8,0.4,1.2c0,0.7-0.3,1.4-0.8,1.8c-0.6,0.5-1.4,0.7-2.2,0.7c-0.7,0-1.4-0.2-2-0.6c-0.6-0.4-0.9-1.1-0.8-1.8l0,0h1.7
		c0,0.3,0.1,0.6,0.3,0.8c0.2,0.2,0.5,0.3,0.9,0.3c0.3,0,0.7-0.1,0.9-0.3c0.2-0.2,0.4-0.5,0.4-0.9c0-0.4-0.1-0.7-0.3-1
		c-0.3-0.2-0.6-0.4-1-0.3h-0.9v-1.3H4293.5z"/>
</g>
</svg>
