<svg xmlns="http://www.w3.org/2000/svg" width="48" height="48" viewBox="0 0 48 48">
  <g id="Grupo_140192" data-name="Grupo 140192" transform="translate(-770 -4228)">
    <circle id="Elipse_5011" data-name="Elipse 5011" cx="24" cy="24" r="24" transform="translate(770 4228)" fill="#fff"/>
    <g id="Grupo_139898" data-name="Grupo 139898" transform="translate(262.385 1425.621)">
      <path id="Trazado_152621" data-name="Trazado 152621" d="M566.058,2833.985c.018.115.032.239.058.359.131.6.256,1.2.4,1.8a.349.349,0,0,1-.253.49,6.105,6.105,0,0,0-2.426,1.773,6.315,6.315,0,0,0,2.186,9.821,18.911,18.911,0,0,0,2.008.659v2.517h-1.223v1.253h2.479v1.274h-4.383v1.263h1.88v2.559h1.276v2.52l-1.647-.481-.534,1.065a6.161,6.161,0,0,0,3.917.59,6.394,6.394,0,0,0,4.6-3.453.719.719,0,0,1,.423-.3,1.89,1.89,0,0,0,1.475-2.091,6.179,6.179,0,0,0-.4-1.108,1.9,1.9,0,0,0,.011-2.4.366.366,0,0,1,.037-.33c.406-.559.8-1.128,1.253-1.651a11.3,11.3,0,0,0,2.491-10.8,10.139,10.139,0,0,0-1.579-3.324l-1.032.712c.115.182.212.333.305.485a9.8,9.8,0,0,1,1.462,4.646,10.1,10.1,0,0,1-2.608,7.457,22.452,22.452,0,0,0-1.393,1.833.5.5,0,0,1-.483.268c-.817-.02-1.634-.007-2.47-.007v1.258h.4c.629,0,1.257-.006,1.886,0a1.343,1.343,0,0,1,.524.089.564.564,0,0,1,.327.667.6.6,0,0,1-.628.515c-.4.022-.811.005-1.22.005v1.263c.393,0,.762-.011,1.131,0,.469.017.748.278.734.661s-.287.605-.741.616c-.372.009-.744,0-1.116,0h-1.287v1.275h1.136a4.689,4.689,0,0,1-3.678,2.419v-2.451h1.225v-1.257H568.1v-1.281h3.745v-1.254h-1.245v-2.546h-1.249v-2.544c2.144-.523,3.3-1.132,4.057-2.139l-.9-.8a5.155,5.155,0,0,1-7.4.189,5.09,5.09,0,0,1-.354-6.8,4.924,4.924,0,0,1,3.083-1.808,5.11,5.11,0,0,1,4.667,1.6l.922-.83c-.068-.078-.114-.137-.167-.189a6.271,6.271,0,0,0-4.433-1.924c-.338-.008-.8.1-.981-.074-.215-.209-.188-.667-.265-1.017a.4.4,0,0,1,0-.091,7.529,7.529,0,0,1,2.879.094l.27-1.2A8.871,8.871,0,0,0,566.058,2833.985Z" transform="translate(-37.368 -17.84)" fill="#fff"/>
      <path id="Trazado_152622" data-name="Trazado 152622" d="M632.909,2811.432l-5.163.738.184,1.254,2.662-.374a.619.619,0,0,1-.051.133c-1.179,1.519-2.356,3.04-3.547,4.549a.56.56,0,0,1-.392.152c-1.141.012-2.283.007-3.424.007h-.4v1.259c1.473,0,2.921-.007,4.368.007a.679.679,0,0,0,.607-.3q1.77-2.3,3.559-4.589c.083-.105.173-.205.333-.393v2.706h1.263Z" transform="translate(-81.888 -1.512)" fill="#fff"/>
      <path id="Trazado_152624" data-name="Trazado 152624" d="M512.972,2851.577l-1.357.037v-1.309h1.226c.045.461.084.869.122,1.277Z" transform="translate(0 -30.148)"/>
      <path id="Trazado_152625" data-name="Trazado 152625" d="M549.081,2809.379q0,.661-.009,1.321l.015-.017h-1.242l.013.017-.008-1.322Z" transform="translate(-26.687)"/>
      <path id="Trazado_152626" data-name="Trazado 152626" d="M550.97,2842.148l-.584,1.111a8.959,8.959,0,0,1-4.774-7.227h-1.233a9.7,9.7,0,0,0,.918,3.644,11.067,11.067,0,0,0,1.774,2.638c.487.557.894,1.183,1.352,1.766a.533.533,0,0,0,.354.192c.831.017,1.664.009,2.521.009v1.256c-.67,0-1.332,0-1.994,0a4.42,4.42,0,0,0-.613.028.591.591,0,0,0-.541.6.609.609,0,0,0,.553.633,6.687,6.687,0,0,0,.68.034v1.247c-.174,0-.338-.007-.5,0-.469.025-.747.282-.731.666s.288.607.743.613c.731.009,1.462,0,2.193,0,.063,0,.125.011.212.021v1.218h-1.226l.611.891-.965.867c-.319-.51-.614-.994-.924-1.468-.075-.116-.19-.268-.3-.286a1.9,1.9,0,0,1-1.187-3.085.3.3,0,0,0,.029-.087,1.961,1.961,0,0,1,.094-2.627c-.388-.5-.758-1.039-1.186-1.524a13.174,13.174,0,0,1-1.873-2.62,11.37,11.37,0,0,1-1.281-4.745,10.839,10.839,0,0,1,2.077-7.128,11.165,11.165,0,0,1,9.661-4.837,11.283,11.283,0,0,1,7.676,3.273l-.884.846-1.781-1.394-.643,1.11c3.213,2.25,4.678,5.3,4.038,9.188a8.609,8.609,0,0,1-4.618,6.289l-.6-1.124a7.736,7.736,0,0,0,3.315-3.4l-2.193-1.134.427-1.6c-.442,0-.8-.019-1.15.013-.087.008-.2.17-.23.28a3.7,3.7,0,0,1-2.2,2.56,3.594,3.594,0,0,1-4.067-.711,3.531,3.531,0,0,1-1.081-3.781,3.757,3.757,0,0,1,6.47-1.523,5.37,5.37,0,0,1,.847,1.567c.1.245.185.349.449.329.292-.022.586-.005.964-.005l-.473-1.644,1.081-.541a6.381,6.381,0,0,1,.48,4.4l1.144.588a7.539,7.539,0,0,0-.427-5.437,7.876,7.876,0,0,0-3.942-3.8l1.256-2.2a9.829,9.829,0,0,0-8.589.109,10.059,10.059,0,0,0-5.769,8.491h1.283a8.961,8.961,0,0,1,4.769-7.229l.587,1.114a7.667,7.667,0,0,0,0,13.55Zm3.531-4.243a2.538,2.538,0,1,0-2.544-2.538A2.545,2.545,0,0,0,554.5,2837.905Z" transform="translate(-23.171 -10.735)"/>
      <path id="Trazado_152627" data-name="Trazado 152627" d="M566.058,2833.985a8.871,8.871,0,0,1,4.668-.139l-.27,1.2a7.529,7.529,0,0,0-2.879-.094.4.4,0,0,0,0,.091c.077.35.05.808.265,1.017.181.176.643.066.981.074a6.271,6.271,0,0,1,4.433,1.924c.052.052.1.111.167.189l-.922.83a5.11,5.11,0,0,0-4.667-1.6,4.924,4.924,0,0,0-3.083,1.808,5.09,5.09,0,0,0,.354,6.8,5.155,5.155,0,0,0,7.4-.189l.9.8c-.754,1.007-1.914,1.616-4.057,2.139v2.544h1.249v2.546h1.245v1.254H568.1v1.281h2.482v1.257h-1.225c0,.852,0,1.652,0,2.452a4.69,4.69,0,0,0,3.678-2.419h-1.136v-1.275h1.287c.372,0,.744.007,1.116,0,.453-.011.727-.245.741-.616s-.265-.645-.734-.661c-.369-.014-.739,0-1.131,0v-1.263c.409,0,.816.017,1.22-.005a.6.6,0,0,0,.628-.515.564.564,0,0,0-.327-.667,1.343,1.343,0,0,0-.524-.089c-.629-.01-1.257,0-1.886,0h-.4v-1.258c.836,0,1.653-.012,2.47.007a.5.5,0,0,0,.483-.268,22.452,22.452,0,0,1,1.393-1.833,10.1,10.1,0,0,0,2.608-7.457,9.8,9.8,0,0,0-1.462-4.646c-.093-.152-.19-.3-.305-.485l1.032-.712a10.139,10.139,0,0,1,1.579,3.324,11.3,11.3,0,0,1-2.491,10.8c-.45.523-.846,1.092-1.253,1.651a.366.366,0,0,0-.037.33,1.9,1.9,0,0,1-.011,2.4,6.179,6.179,0,0,1,.4,1.108,1.89,1.89,0,0,1-1.475,2.091.719.719,0,0,0-.423.3,6.394,6.394,0,0,1-4.6,3.453,6.161,6.161,0,0,1-3.917-.59l.534-1.065,1.647.481v-2.52h-1.276v-2.559h-1.88v-1.263h4.383v-1.274h-2.479V2851.4h1.223v-2.517a18.911,18.911,0,0,1-2.008-.659,6.315,6.315,0,0,1-2.186-9.821,6.105,6.105,0,0,1,2.426-1.773.349.349,0,0,0,.253-.49c-.147-.6-.272-1.2-.4-1.8C566.09,2834.224,566.076,2834.1,566.058,2833.985Z" transform="translate(-37.368 -17.84)"/>
      <path id="Trazado_152629" data-name="Trazado 152629" d="M644.322,2868.668v-1.284h1.3v1.284l.01-.011h-1.32Z" transform="translate(-97.749 -42.728)"/>
      <path id="Trazado_152630" data-name="Trazado 152630" d="M645.623,2876.883v1.278h-1.3v-1.279l-.01.011h1.32Z" transform="translate(-97.749 -49.725)"/>
      <path id="Trazado_152631" data-name="Trazado 152631" d="M525.024,2887.842h-1.276v-1.3h1.276l-.011-.01v1.32Z" transform="translate(-8.937 -56.834)"/>
      <path id="Trazado_152632" data-name="Trazado 152632" d="M533.22,2886.542H534.5v1.3H533.22l.011.009v-1.319Z" transform="translate(-15.915 -56.834)"/>
      <path id="Trazado_152633" data-name="Trazado 152633" d="M521.3,2850.169l1.229.086v1.256h-1.249l.012.012.017-1.362Z" transform="translate(-7.118 -30.042)"/>
      <path id="Trazado_152634" data-name="Trazado 152634" d="M544.359,2815.439H543.1v-1.273l1.264.062-.013-.018v1.241Z" transform="translate(-23.19 -3.527)"/>
      <path id="Trazado_152635" data-name="Trazado 152635" d="M552.5,2814.213l1.283-.065v1.277H552.5l.015.013V2814.2Z" transform="translate(-30.116 -3.513)"/>
      <path id="Trazado_152636" data-name="Trazado 152636" d="M549.071,2819v1.265h-1.214V2819l-.012.012h1.241Z" transform="translate(-26.688 -7.086)"/>
      <path id="Trazado_152637" data-name="Trazado 152637" d="M632.341,2907.282v-1.274h1.214v1.275l.015-.014h-1.242Z" transform="translate(-88.921 -71.18)"/>
      <path id="Trazado_152638" data-name="Trazado 152638" d="M628.82,2912.027h-1.271v-1.215h1.271l-.013-.013q0,.621,0,1.242Z" transform="translate(-85.401 -74.709)"/>
      <path id="Trazado_152639" data-name="Trazado 152639" d="M636.982,2910.811h1.287v1.214h-1.288l.016.015V2910.8Z" transform="translate(-92.349 -74.708)"/>
      <path id="Trazado_152640" data-name="Trazado 152640" d="M633.553,2915.459v1.287H632.34v-1.287l-.013.014h1.242Z" transform="translate(-88.92 -78.142)"/>
      <path id="Trazado_152641" data-name="Trazado 152641" d="M517.834,2846.884l-1.27.086v-1.258h1.261c0,.4,0,.79,0,1.181Z" transform="translate(-3.646 -26.765)"/>
      <path id="Trazado_152642" data-name="Trazado 152642" d="M517.646,2855.176v1.235h-1.3c.037-.437.073-.856.11-1.275l-.007.005,1.208.046Z" transform="translate(-3.486 -33.706)"/>
      <path id="Trazado_152643" data-name="Trazado 152643" d="M649.288,2872.226H650.5v1.219h-1.215l.01.01q0-.62,0-1.24Z" transform="translate(-101.414 -46.287)"/>
      <path id="Trazado_152644" data-name="Trazado 152644" d="M528.564,2883.168v-1.217h1.218v1.216l.011-.009h-1.24Z" transform="translate(-12.477 -53.459)"/>
      <path id="Trazado_152645" data-name="Trazado 152645" d="M529.782,2891.507v1.218h-1.218v-1.218l-.011.01h1.24Z" transform="translate(-12.477 -60.498)"/>
      <path id="Trazado_152646" data-name="Trazado 152646" d="M640.938,2873.444h-1.22v-1.218h1.22l-.01-.011v1.24Z" transform="translate(-94.364 -46.287)"/>
    </g>
  </g>
</svg>
