<svg xmlns="http://www.w3.org/2000/svg" width="76" height="75.966" viewBox="0 0 76 75.966">
  <g id="sXoIWF" transform="translate(-4244.148 -817.336)">
    <g id="Grupo_138047" data-name="Grupo 138047" transform="translate(4244.148 817.336)">
      <path id="Trazado_152042" data-name="Trazado 152042" d="M4247.044,869.783a34.443,34.443,0,0,1-2.243-7.529,36.246,36.246,0,0,1-.6-8.674,38.309,38.309,0,0,1,3.157-13.518,38.768,38.768,0,0,1,5.605-9.047,19.724,19.724,0,0,1,2.511-2.691c1.6-.131,3.205-.026,4.809-.061a2.294,2.294,0,0,0,.89-.1.321.321,0,0,0,.234-.344c-.022-.135-.141-.2-.265-.236a2.3,2.3,0,0,0-.671-.067c-1,0-2.007.006-3.009-.006a1.171,1.171,0,0,1-.921-.222,37.575,37.575,0,0,1,21.089-9.668,37.589,37.589,0,0,1,21.921,3.914,36.857,36.857,0,0,1,10.542,8.019,37.5,37.5,0,0,1,6.1,8.9c-.468.35-1.009.162-1.517.2-.322.026-.648-.014-.97.029-.248.033-.552.074-.561.383-.009.339.317.334.555.353.473.037.946,0,1.419.018a7.626,7.626,0,0,1,1.562.057,36.646,36.646,0,0,1,3.019,9.994,44.641,44.641,0,0,1,.429,8.223c0,.221.053.455-.125.643a2.694,2.694,0,0,0-1.087-.247c-1.378.01-2.757-.007-4.134.012-.326,0-.849-.107-.862.35s.511.38.835.385c1.4.023,2.807,0,4.209.013a1.345,1.345,0,0,1,1,.216,37.406,37.406,0,0,1-8.113,19.9,3.753,3.753,0,0,1-.821.088c-2.913-.005-5.827,0-8.74,0a3.721,3.721,0,0,1-.6-.028c-.57-.094-.7-.283-.361-.738a5.136,5.136,0,0,0,.8-3.3c-.021-1.828,0-1.828,1.843-1.83.979,0,1.959,0,2.938,0a3.025,3.025,0,0,0,.525-.031c.223-.04.494-.07.5-.355.007-.317-.293-.3-.5-.322-.575-.057-1.154-.022-1.732-.026-.8-.005-1.607.011-2.411-.006-.979-.021-1.147-.184-1.164-1.143-.018-1.03,0-2.059,0-3.089V849.355c0-.3,0-.6.011-.9.015-.528.234-.86.8-.891a2.587,2.587,0,0,0,.448-.06c.2-.047.413-.116.405-.366-.01-.271-.256-.266-.447-.3-1.211-.24-1.216-.24-1.217-1.5q0-6.4,0-12.809a6.752,6.752,0,0,0-.156-1.646,2.977,2.977,0,0,0-3.352-2.253,1.346,1.346,0,0,1-.292.019,15.588,15.588,0,0,0-1.652-.06q-14.4,0-28.8,0a4.55,4.55,0,0,1-1.343-.089c-.086-.044-.223-.087-.211-.185.1-.8-.408-.837-.987-.819-.5.016-1-.014-1.5.014-.221.012-.5.017-.493.332,0,.276.245.357.472.4a9.222,9.222,0,0,0,1.049.052c.277.025.621-.074.75.317a.728.728,0,0,1-.292.339,3.748,3.748,0,0,0-1.608,3.52q0,8.094,0,16.187a2.223,2.223,0,0,1-.175,1.248,1.433,1.433,0,0,1-1,.215c-1.254.01-2.509,0-3.765,0a2.86,2.86,0,0,0-.674.051c-.127.031-.247.084-.27.225-.03.177.091.274.233.342a1.849,1.849,0,0,0,.811.122c1.23.008,2.46,0,3.69.007a1.307,1.307,0,0,1,1,.239,2.557,2.557,0,0,1,.167,1.326q.007,11.317,0,22.635a8.772,8.772,0,0,0,.187,2.015,2.353,2.353,0,0,0,.6,1.244c.159.193.4.445-.021.646a2.95,2.95,0,0,1-.969.089q-5.076,0-10.15,0a3.8,3.8,0,0,1-.895-.094,33.464,33.464,0,0,1-5-8.271c.377-.358.849-.205,1.282-.228.522-.027,1.048.017,1.569-.023.242-.019.563-.03.566-.355s-.316-.363-.557-.371A20.764,20.764,0,0,0,4247.044,869.783Z" transform="translate(-4244.148 -817.336)" fill="#0d4aad"/>
      <path id="Trazado_152043" data-name="Trazado 152043" d="M4299.237,941.023c.223-.244.517-.144.78-.144q5.711-.009,11.422,0a.371.371,0,0,1,.294-.009,7.692,7.692,0,0,0,3.761.522q14.124,0,28.249,0a3.523,3.523,0,0,0,2.161-.505,3.19,3.19,0,0,0,1.458-2.512c.015-.276.016-.552.016-.828q0-21.543,0-43.085a4.268,4.268,0,0,0-.806-2.833c-.351-.437-.93-.607-1.217-1.1a3.074,3.074,0,0,1,3.6,2.231,8.04,8.04,0,0,1,.167,1.637c-.013,4.421-.007,8.841-.007,13.262,0,1.146,0,.969,1.061.97.271,0,.586-.055.707.281a.662.662,0,0,1-.123.7.71.71,0,0,1-.688.213c-.836-.145-.974.255-.972,1,.025,7.485.016,14.97.016,22.455,0,.959,0,.96.993.96,1.356,0,2.714,0,4.07,0,.419,0,.909,0,.922.521.015.573-.467.69-.967.688-1.432-.006-2.863.02-4.295-.013-.551-.013-.749.137-.738.715a13.816,13.816,0,0,1-.062,2.627,3.454,3.454,0,0,1-1.036,1.955c.187.253.431.135.631.135,3.064.009,6.129,0,9.193.011.265,0,.559-.1.783.144a37.753,37.753,0,0,1-22.273,13.624,38.652,38.652,0,0,1-10.6.571,37.676,37.676,0,0,1-26.5-14.195Z" transform="translate(-4290.916 -879.384)" fill="#0d4aad"/>
      <path id="Trazado_152044" data-name="Trazado 152044" d="M4709.908,1086.9c-1.83,0-3.661,0-5.492.009-.452,0-.929-.018-.937-.6s.464-.615.92-.613q2.445.01,4.89,0c.344,0,.68-.023.656.471Q4709.928,1086.534,4709.908,1086.9Z" transform="translate(-4634.091 -1045.159)" fill="#fff"/>
      <path id="Trazado_152045" data-name="Trazado 152045" d="M4320.162,883.175c1.479,0,2.958,0,4.438,0,.384,0,.758.071.8.5.042.447-.3.7-.716.7-1.779.016-3.559,0-5.338-.007-.084,0-.166-.1-.249-.146A5.785,5.785,0,0,1,4320.162,883.175Z" transform="translate(-4307.773 -873.227)" fill="#fff"/>
      <path id="Trazado_152046" data-name="Trazado 152046" d="M4263.313,1162.821c.041-.319.281-.3.509-.3.929,0,1.858-.01,2.786,0,.408.006.881.058.9.58.018.58-.449.626-.909.624-.953,0-1.907.007-2.86.012A2.275,2.275,0,0,1,4263.313,1162.821Z" transform="translate(-4260.418 -1110.374)" fill="#fff"/>
      <path id="Trazado_152047" data-name="Trazado 152047" d="M4702.4,958.083a12.139,12.139,0,0,1-3.46.117.462.462,0,0,1-.433-.523.679.679,0,0,1,.715-.631c.9-.019,1.793,0,2.689,0A3.52,3.52,0,0,1,4702.4,958.083Z" transform="translate(-4629.867 -935.932)" fill="#fff"/>
      <path id="Trazado_152048" data-name="Trazado 152048" d="M4371.143,938.647a3.847,3.847,0,0,1-.277-1.677q0-12.276-.012-24.553a.941.941,0,0,1,.008-1.209c0-5.809.026-11.618-.009-17.427a3.962,3.962,0,0,1,2.118-3.966.563.563,0,0,1,.746-.165q15.426,0,30.851.01a2.287,2.287,0,0,1,1.251.158.765.765,0,0,1,.376.693c.018.2.019.4.019.6q0,22.027,0,44.055a3.6,3.6,0,0,1-.892,2.563,3.332,3.332,0,0,1-2.453,1.145c-.878.022-1.757.008-2.636.008q-13.857,0-27.715,0A2.05,2.05,0,0,1,4371.143,938.647Z" transform="translate(-4351.53 -878.657)" fill="#fefefe"/>
      <path id="Trazado_152049" data-name="Trazado 152049" d="M4373.974,939.929c10.473,0,20.945-.035,31.418.023a3.487,3.487,0,0,0,3.439-3.452c-.052-14.766-.028-29.532-.03-44.3a1.892,1.892,0,0,0-.15-1.1l.156-.022a3.365,3.365,0,0,1,2.249,3.229q.009,22.261,0,44.522a3.321,3.321,0,0,1-3.42,3.352q-15.218,0-30.437.006a3.844,3.844,0,0,1-2.311-.755C4374.578,940.933,4373.957,940.625,4373.974,939.929Z" transform="translate(-4354.361 -879.939)" fill="#ececec"/>
      <path id="Trazado_152050" data-name="Trazado 152050" d="M4535.471,848.232c1.176,0,2.353.005,3.53,0,.446,0,.847.1.837.62-.01.486-.44.577-.82.579-2.329.014-4.657.007-6.985.009-.461,0-.836-.219-.838-.662s.387-.56.821-.551C4533.167,848.247,4534.319,848.232,4535.471,848.232Z" transform="translate(-4487.833 -843.558)" fill="#fff"/>
      <path id="Trazado_152051" data-name="Trazado 152051" d="M4338.186,1032.817l-.009,1.208q-2.4,0-4.807,0a2.473,2.473,0,0,1-.6-.026c-.354-.091-.661-.246-.622-.708s.36-.471.7-.471Q4335.519,1032.82,4338.186,1032.817Z" transform="translate(-4318.854 -1000.266)" fill="#fff"/>
      <path id="Trazado_152052" data-name="Trazado 152052" d="M4489.6,848.246c.576,0,1.152,0,1.729,0,.4,0,.7.136.755.559s-.311.605-.618.615c-1.226.04-2.453.037-3.68.007a.569.569,0,0,1-.6-.636.6.6,0,0,1,.684-.549C4488.446,848.262,4489.023,848.246,4489.6,848.246Z" transform="translate(-4450.469 -843.572)" fill="#fff"/>
      <path id="Trazado_152053" data-name="Trazado 152053" d="M4672.51,1086.9c-.451,0-.9.007-1.355,0a.581.581,0,0,1-.648-.584.566.566,0,0,1,.621-.609c.9-.014,1.807-.018,2.709.007a.6.6,0,1,1-.046,1.194C4673.363,1086.887,4672.937,1086.9,4672.51,1086.9Z" transform="translate(-4606.099 -1045.155)" fill="#fff"/>
      <path id="Trazado_152054" data-name="Trazado 152054" d="M4301.306,1034.028a12.888,12.888,0,0,1-1.346-.01c-.386-.044-.74-.191-.716-.7s.4-.492.756-.491q1.277,0,2.556,0c.3,0,.551.058.6.42a.587.587,0,0,1-.428.7A5.1,5.1,0,0,1,4301.306,1034.028Z" transform="translate(-4290.921 -1000.277)" fill="#fff"/>
      <path id="Trazado_152055" data-name="Trazado 152055" d="M4372.4,884.216l-.746.165c-.6,0-1.205.024-1.8-.018-.417-.029-.8-.182-.76-.728.04-.523.434-.461.78-.463.652,0,1.3.006,1.955,0a.807.807,0,0,1,.789.321C4372.83,883.816,4372.513,883.984,4372.4,884.216Z" transform="translate(-4350.216 -873.223)" fill="#fff"/>
      <path id="Trazado_152056" data-name="Trazado 152056" d="M4674.827,958.179c-.455-.009-1.112.143-1.1-.537.013-.715.681-.638,1.21-.66a.825.825,0,0,1,.928.587.515.515,0,0,1-.44.6A3.2,3.2,0,0,1,4674.827,958.179Z" transform="translate(-4608.834 -935.885)" fill="#fff"/>
      <path id="Trazado_152057" data-name="Trazado 152057" d="M4653.481,1010.875c.443-.022.87.074.856.6-.015.572-.516.583-.949.608s-.8-.1-.808-.573C4652.569,1010.925,4653.018,1010.854,4653.481,1010.875Z" transform="translate(-4590.882 -981.636)" fill="#fff"/>
      <path id="Trazado_152058" data-name="Trazado 152058" d="M4298.383,1163.738c-.388.027-.831-.047-.828-.5s.387-.711.881-.7c.45.008.839.183.837.653C4299.272,1163.713,4298.821,1163.756,4298.383,1163.738Z" transform="translate(-4289.487 -1110.387)" fill="#fff"/>
      <path id="Trazado_152059" data-name="Trazado 152059" d="M4426.02,1016.976q-5.5,0-11,0c-.49,0-.962-.009-1.22-.536-.434-.885.027-1.569,1.092-1.573,2.51-.01,5.021,0,7.531,0q7.344,0,14.687,0c.976,0,1.356.34,1.295,1.128-.055.693-.4.979-1.242.98Q4431.593,1016.98,4426.02,1016.976Z" transform="translate(-4388.037 -985.024)" fill="#ececec"/>
      <path id="Trazado_152060" data-name="Trazado 152060" d="M4426.109,1052.781q5.535,0,11.072,0c.918,0,1.291.343,1.246,1.1a.957.957,0,0,1-.991,1c-.125.008-.251,0-.376,0q-11,0-21.993,0c-.518,0-1.016-.007-1.267-.581-.393-.9.075-1.528,1.163-1.53Q4420.535,1052.775,4426.109,1052.781Z" transform="translate(-4388.055 -1017.214)" fill="#ececec"/>
      <path id="Trazado_152061" data-name="Trazado 152061" d="M4426.056,1092.8q-5.536,0-11.071,0c-.506,0-.956-.067-1.179-.6-.362-.878.09-1.5,1.123-1.506,2.511-.009,5.021,0,7.532,0q7.343,0,14.687,0c.978,0,1.356.338,1.295,1.127-.053.694-.4.98-1.24.981Q4431.63,1092.8,4426.056,1092.8Z" transform="translate(-4388.072 -1049.391)" fill="#ececec"/>
      <path id="Trazado_152062" data-name="Trazado 152062" d="M4426.182,1130.7q-5.536,0-11.072,0a1.2,1.2,0,0,1-1.086-.377,1.227,1.227,0,0,1-.155-1.151.946.946,0,0,1,.9-.58,3.638,3.638,0,0,1,.376,0q11.035,0,22.068,0c1.043,0,1.465.4,1.321,1.244-.123.723-.63.872-1.275.87C4433.563,1130.7,4429.872,1130.7,4426.182,1130.7Z" transform="translate(-4388.165 -1081.571)" fill="#ececec"/>
      <path id="Trazado_152063" data-name="Trazado 152063" d="M4425.977,1168.613q-5.5,0-11,0a1.2,1.2,0,0,1-1.142-.418,1.035,1.035,0,0,1,.821-1.692c.124-.01.251,0,.376,0h21.993c.979,0,1.355.281,1.354.994,0,.791-.354,1.113-1.259,1.114Q4431.549,1168.617,4425.977,1168.613Z" transform="translate(-4388.01 -1113.754)" fill="#ececec"/>
    </g>
    <path id="Trazado_152065" data-name="Trazado 152065" d="M1.248-1.547V0H.393V-4.266H2.024a1.68,1.68,0,0,1,1.157.375A1.257,1.257,0,0,1,3.6-2.9a1.248,1.248,0,0,1-.422.984,1.689,1.689,0,0,1-1.157.372Zm0-.659h.776A.712.712,0,0,0,2.566-2.4a.693.693,0,0,0,.185-.5.725.725,0,0,0-.183-.508.7.7,0,0,0-.543-.2H1.248Zm4.57-.229L5.5-2.443a.57.57,0,0,0-.313.079A.5.5,0,0,0,5-2.142V0H4.151V-3.17h.794l.038.469a1,1,0,0,1,.289-.388.643.643,0,0,1,.409-.139.639.639,0,0,1,.119.01q.054.01.11.025ZM7.163,0H6.308V-3.17h.855Zm0-3.929H6.308V-4.57h.855Zm1.485.759.038.454a1.159,1.159,0,0,1,.39-.378,1.011,1.011,0,0,1,.519-.135.943.943,0,0,1,.75.309,1.465,1.465,0,0,1,.27.977V0H9.756V-1.939a.759.759,0,0,0-.119-.482.437.437,0,0,0-.356-.142.747.747,0,0,0-.335.072.655.655,0,0,0-.239.2V0H7.852V-3.17ZM12.577-.595a.476.476,0,0,0,.354-.133.484.484,0,0,0,.132-.356h.779l.006.018a.992.992,0,0,1-.357.8,1.337,1.337,0,0,1-.914.324,1.351,1.351,0,0,1-1.087-.45,1.709,1.709,0,0,1-.384-1.15v-.088a1.72,1.72,0,0,1,.382-1.15,1.339,1.339,0,0,1,1.083-.453,1.307,1.307,0,0,1,.935.334,1.116,1.116,0,0,1,.343.879L13.843-2h-.779a.633.633,0,0,0-.13-.409.438.438,0,0,0-.362-.163.488.488,0,0,0-.47.265,1.454,1.454,0,0,0-.139.678v.088a1.449,1.449,0,0,0,.139.683A.5.5,0,0,0,12.577-.595ZM15.246,0h-.855V-3.17h.855Zm0-3.929h-.855V-4.57h.855ZM18.809-1.5a1.821,1.821,0,0,1-.325,1.131,1.076,1.076,0,0,1-.908.428,1.015,1.015,0,0,1-.442-.092A.909.909,0,0,1,16.8-.3V1.219h-.853V-3.17h.771l.05.375a1.016,1.016,0,0,1,.338-.321.915.915,0,0,1,.461-.113,1.055,1.055,0,0,1,.914.46,2.053,2.053,0,0,1,.325,1.21Zm-.855-.062a1.534,1.534,0,0,0-.149-.727.487.487,0,0,0-.457-.278.646.646,0,0,0-.33.079.564.564,0,0,0-.215.226V-.87a.524.524,0,0,0,.215.205.725.725,0,0,0,.335.07.492.492,0,0,0,.456-.243,1.284,1.284,0,0,0,.145-.659ZM20.235,0H19.38V-3.17h.855Zm0-3.929H19.38V-4.57h.855Zm.571,2.314a1.7,1.7,0,0,1,.4-1.162,1.379,1.379,0,0,1,1.1-.453,1.393,1.393,0,0,1,1.1.451,1.692,1.692,0,0,1,.4,1.163v.062a1.7,1.7,0,0,1-.4,1.165,1.387,1.387,0,0,1-1.1.45,1.391,1.391,0,0,1-1.1-.45,1.7,1.7,0,0,1-.4-1.165Zm.853.062a1.379,1.379,0,0,0,.152.7.526.526,0,0,0,.492.262.521.521,0,0,0,.485-.264,1.37,1.37,0,0,0,.154-.694v-.062a1.356,1.356,0,0,0-.155-.688.525.525,0,0,0-.489-.267.519.519,0,0,0-.485.268,1.368,1.368,0,0,0-.154.687Z" transform="translate(4266.148 841.32)" fill="#0d4aad"/>
    <path id="Trazado_152064" data-name="Trazado 152064" d="M4.664,0H2.959V-7.043H1.2V-8.35l3.469-.3Z" transform="translate(4290.148 843.32)" fill="#0d4aad"/>
  </g>
</svg>
