<svg xmlns="http://www.w3.org/2000/svg" width="48" height="48" viewBox="0 0 48 48">
  <g id="Grupo_140193" data-name="Grupo 140193" transform="translate(-1016 -4228)">
    <circle id="Elipse_5012" data-name="Elipse 5012" cx="24" cy="24" r="24" transform="translate(1016 4228)" fill="#fff"/>
    <g id="Sh4WNf" transform="translate(57.832 2466.549)">
      <g id="Grupo_139899" data-name="Grupo 139899" transform="translate(966.168 1770.452)">
        <path id="Trazado_152647" data-name="Trazado 152647" d="M966.168,1798.765v-24.481a1.993,1.993,0,0,0,.066-.2,3.22,3.22,0,0,1,6.372.7c.007.333,0,.665,0,1.006h12.85a.3.3,0,0,0,.03-.076c0-.8,0-1.593.007-2.39a3.085,3.085,0,0,1,.405-1.592,2.714,2.714,0,0,1,2.874-1.219,2.638,2.638,0,0,1,2.058,2.334c.044.858.029,1.719.039,2.577,0,.12,0,.241,0,.385h.393c1.269,0,2.537-.006,3.805,0a3.246,3.246,0,0,1,2.646,1.275,4.214,4.214,0,0,1,.671,1.538v20.139a8.085,8.085,0,0,1-.637,1.48,3.131,3.131,0,0,1-2.755,1.352q-12.718-.007-25.435,0c-.1,0-.21,0-.314-.006a3.222,3.222,0,0,1-2.3-1.137A3.685,3.685,0,0,1,966.168,1798.765Zm13.965-10.317v-.38c0-1.143.011-2.287-.006-3.43a.884.884,0,0,1,.42-.812c1.585-1.118,3.157-2.252,4.74-3.374a.439.439,0,0,0,.212-.411c-.009-.955,0-1.909-.005-2.863,0-.09-.015-.179-.024-.292H973.023c-.414,0-.414,0-.414.432q0,9.282,0,18.564a3.178,3.178,0,0,1-.016.408.52.52,0,0,1-1.018.074c-.031-.11-.021-.233-.059-.339a4.567,4.567,0,0,0-.434-1.089,2.062,2.062,0,0,0-2.348-.75,2.147,2.147,0,0,0-1.488,2.045c-.016.64,0,1.28,0,1.92a2.185,2.185,0,0,0,2.369,2.372h25.326a2.188,2.188,0,0,0,2.38-2.393q0-9.424,0-18.847a2.186,2.186,0,0,0-2.375-2.4q-1.856,0-3.712,0c-.11,0-.22.011-.356.019v.346c0,.912.007,1.825,0,2.737a.522.522,0,0,0,.25.49c1.584,1.119,3.158,2.252,4.74,3.373a.8.8,0,0,1,.39.7q-.009,4.138,0,8.275a.807.807,0,0,1-.371.713q-3.625,2.581-7.244,5.17a.621.621,0,0,1-.885.005q-3.622-2.585-7.243-5.17a.82.82,0,0,1-.373-.744c.013-.881,0-1.762.01-2.643a.617.617,0,0,0-.265-.551c-1.93-1.532-3.849-3.078-5.78-4.608a.991.991,0,0,1-.416-.856c.012-1.437,0-2.874.006-4.311a1.627,1.627,0,0,1,.037-.405.522.522,0,0,1,1-.006,1.669,1.669,0,0,1,.039.436c0,1.332.005,2.664,0,4a.526.526,0,0,0,.222.479c.435.328.854.677,1.28,1.018Zm-8.6,5.345v-.36q0-9.231,0-18.463c0-.167-.005-.336-.021-.5a2.147,2.147,0,0,0-4.27.417q0,9.326,0,18.651c0,.077.012.155.019.249A3.333,3.333,0,0,1,971.533,1793.793Zm9.72-8.295c-.022.035-.041.05-.041.066,0,1.2-.009,2.391,0,3.586a.473.473,0,0,0,.176.3c.376.318.77.615,1.149.929a.56.56,0,0,1,.157.8c-.2.262-.512.276-.833.032-.2-.156-.4-.319-.658-.518,0,.625.011,1.187-.006,1.749a.488.488,0,0,0,.243.46q3.255,2.314,6.5,4.643a.347.347,0,0,0,.484,0q3.254-2.342,6.523-4.663a.47.47,0,0,0,.225-.437c-.007-2.223,0-4.447-.005-6.67,0-.088-.011-.176-.019-.287a1.294,1.294,0,0,0-.137.072c-1.323.943-2.648,1.883-3.963,2.837a.559.559,0,0,0-.173.362,8.167,8.167,0,0,1-.13,1.428c-.467,1.553-1,3.088-1.5,4.629a1.081,1.081,0,0,1-2.119-.007c-.424-1.293-.831-2.592-1.279-3.877a4.908,4.908,0,0,1-.349-2.148.43.43,0,0,0-.227-.435c-1.267-.9-2.527-1.8-3.79-2.7C981.405,1785.6,981.328,1785.547,981.253,1785.5Zm6.39,3.727v-.4q0-3.146,0-6.292c0-.536.179-.8.538-.807s.537.26.537.8q0,3.161,0,6.323v.377h1.054v-11.234h-1.054c0,.229,0,.427,0,.626,0,.514,0,1.028-.016,1.541a.482.482,0,0,1-.49.479.5.5,0,0,1-.536-.426,2.308,2.308,0,0,1-.031-.437c0-.594,0-1.188,0-1.784h-1.058v11.235Zm-6.051-4.817,3.882,2.774v-5.547Zm9.3,2.779,3.89-2.779-3.89-2.778Zm-1.115-12.47c0-.6.029-1.185-.007-1.766a1.567,1.567,0,0,0-1.5-1.428,1.548,1.548,0,0,0-1.634,1.27,16.6,16.6,0,0,0-.015,1.924Zm-.19,15.624h-2.8l1.364,4.15.064,0Zm-3-13.484h3.207c0-.28-.01-.531,0-.78.011-.2-.061-.272-.268-.27-.92.01-1.84,0-2.76.006a1.1,1.1,0,0,0-.183.031Z" transform="translate(-966.168 -1770.452)"/>
        <path id="Trazado_152648" data-name="Trazado 152648" d="M1007.631,1815.187c-.513,0-1.026.011-1.539,0-.449-.013-.714-.36-.57-.728a.534.534,0,0,1,.548-.343c1.036,0,2.073,0,3.109,0a.536.536,0,0,1,.592.518.547.547,0,0,1-.57.547c-.523.017-1.047,0-1.57,0Z" transform="translate(-995.814 -1803.374)"/>
        <path id="Trazado_152649" data-name="Trazado 152649" d="M1020.753,1805.372c.544,0,1.089-.014,1.632.005a.5.5,0,0,1,.505.5.53.53,0,0,1-.467.539.82.82,0,0,1-.155.019c-1.015,0-2.03.007-3.045,0-.385,0-.608-.217-.611-.532s.226-.53.634-.537c.5-.008,1,0,1.507,0Z" transform="translate(-1005.714 -1796.774)"/>
        <path id="Trazado_152650" data-name="Trazado 152650" d="M1006.589,1806.482a6.3,6.3,0,0,1-.635-.044.485.485,0,0,1-.427-.531.46.46,0,0,1,.439-.487,10.349,10.349,0,0,1,1.254,0,.459.459,0,0,1,.428.5.472.472,0,0,1-.412.514C1007.021,1806.469,1006.8,1806.467,1006.589,1806.482Z" transform="translate(-995.846 -1796.806)"/>
      </g>
    </g>
  </g>
</svg>
