<svg xmlns="http://www.w3.org/2000/svg" width="221.184" height="215.398" viewBox="0 0 221.184 215.398">
  <g id="Grupo_140182" data-name="Grupo 140182" transform="translate(-284.5 -7189.5)">
    <g id="Grupo_137460" data-name="Grupo 137460" transform="translate(285 7190)">
      <g id="Grupo_78503" data-name="Grupo 78503" transform="translate(0 0)">
        <path id="Trazado_114225" data-name="Trazado 114225" d="M1473.422,532.139c23.574,50.672,63.908,42.715,121.47,15.936s89.572-50.522,66-101.194-93.805-109.085-151.366-82.306S1449.849,481.467,1473.422,532.139Z" transform="translate(-1448.837 -355.32)" fill="none" stroke="#ef3c79" stroke-miterlimit="10" stroke-width="2"/>
        <path id="Trazado_114226" data-name="Trazado 114226" d="M1475,491.7c0,55.887,39.926,65.687,103.412,65.687s102.525-8.024,102.525-63.911S1641.9,355,1578.412,355,1475,435.812,1475,491.7Z" transform="translate(-1475 -355)" fill="#fff" stroke="rgba(0,0,0,0)" stroke-width="1"/>
        <path id="Trazado_114227" data-name="Trazado 114227" d="M1672.817,424.191c0,5.393,3.852,6.338,9.978,6.338s9.893-.774,9.893-6.166S1688.921,411,1682.8,411,1672.817,418.8,1672.817,424.191Z" transform="translate(-1662.347 -361.291)" fill="#00cbae" stroke="rgba(0,0,0,0)" stroke-width="1"/>
        <path id="Trazado_114228" data-name="Trazado 114228" d="M1459.307,453.19c0,5.393,3.853,6.338,9.978,6.338s9.893-.774,9.893-6.167S1475.411,440,1469.285,440,1459.307,447.8,1459.307,453.19Z" transform="translate(-1259.312 -364.549)" fill="#0d4aad" stroke="rgba(0,0,0,0)" stroke-width="1"/>
      </g>
    </g>
    <g id="ZetDvI" transform="translate(-2422.303 4923.981)">
      <g id="Grupo_138050" data-name="Grupo 138050" transform="translate(2732.303 2308.019)">
        <path id="Trazado_152109" data-name="Trazado 152109" d="M2876.8,2445.788c-.438-.53-.245-1.161-.249-1.746-.019-3.406-.07-6.816.022-10.22.036-1.288-.411-1.694-1.6-1.516a3.372,3.372,0,0,1-.494,0q-57.7,0-115.4-.035c-1.6,0-2.2.282-2.114,2.038.164,3.234.057,6.482.037,9.724,0,.584.194,1.216-.253,1.743-.641-.608-.524-1.414-.531-2.167-.027-2.967.01-5.933-.019-8.9-.018-1.811-.18-1.932-1.992-2a66.188,66.188,0,0,1-7.4-.159c-1.38-.518-2.811-.2-4.217-.232-2.4-.058-4.809-.065-7.211,0a3.654,3.654,0,0,1-3.072-1.12v-27.387a2.27,2.27,0,0,1,2.548-1.828c2.143-.008,4.286.012,6.429-.012,1.909-.023,2.045-.146,2.05-2.087.016-7.033,0-14.068.01-21.1a8.2,8.2,0,0,1,.2-2.619.988.988,0,0,1,.41-.477.582.582,0,0,1,.5.344,6.383,6.383,0,0,1,.263,2.6c.01,6.979,0,13.959.009,20.938,0,2.309.081,2.381,2.426,2.388,9.123.024,18.245-.037,27.368.027,3.525-.016,7.051-.068,10.576.017q5.627-.1,11.255,0,15.3-.107,30.6,0c3.418-.057,6.836-.069,10.254,0,3.7-.051,7.409-.069,11.115,0,.213,0,.425.008.638.01,12.536.018,25.072.029,37.609-.061,2.184-.016,2.276-.1,2.278-2.37.01-7.039,0-14.076.01-21.115a4.8,4.8,0,0,1,.363-2.578.41.41,0,0,1,.559-.123,3.835,3.835,0,0,1,.451,2.541q.022,10.554,0,21.108a6.165,6.165,0,0,0,.865,3.779,4.024,4.024,0,0,1,.457,2.4q.013,11.708.006,23.417a8.664,8.664,0,0,1-.432,2.64c2.149.03,4.207-.012,6.262.024.8.015,1.673-.143,2.316.568a63.166,63.166,0,0,1-10.221.141,5.712,5.712,0,0,0-2.722.162,60.761,60.761,0,0,1-7.24.155c-2.011.062-2.142.151-2.157,2.17-.021,2.913.01,5.827-.016,8.74C2877.326,2444.375,2877.444,2445.182,2876.8,2445.788Z" transform="translate(-2732.303 -2316.716)" fill="#d67e4a"/>
        <path id="Trazado_152110" data-name="Trazado 152110" d="M2732.3,2337.344a2.889,2.889,0,0,1,2.906-1.381c11.458.036,22.918.022,34.377.022a1.182,1.182,0,0,1,.436.863,95.105,95.105,0,0,1-.125,12.339c-.618,1.077-1.692.866-2.643.871-6.573.03-13.146.008-19.72.018-1.164,0-2.355-.036-2.9,1.323a4.6,4.6,0,0,0-.311,2.259c0,4.94,0,9.879-.008,14.819a3.028,3.028,0,0,1-.449,2.2l0,0a2.677,2.677,0,0,1-1.863.476c-1.367.014-2.743.1-4.1-.017a16.553,16.553,0,0,0-5.592.85Z" transform="translate(-2732.303 -2311.61)" fill="#ab5e2e"/>
        <path id="Trazado_152111" data-name="Trazado 152111" d="M2732.3,2377.1a5.162,5.162,0,0,1,3.876-1.335c2.558.074,5.12.024,7.68.026,0,8.336-.035,16.671.024,25.007.011,1.388-.412,1.8-1.767,1.736-2.3-.1-4.608.038-6.908-.053a2.849,2.849,0,0,0-2.906,1.347Z" transform="translate(-2732.303 -2316.725)" fill="#c76d36"/>
        <path id="Trazado_152112" data-name="Trazado 152112" d="M2775.121,2345.643q-.019-6.623-.039-13.246.023-10.55.046-21.1c.006-2.665.608-3.261,3.306-3.258q13.184.015,26.371.037a2.45,2.45,0,0,1,1.439,2.542c.06,1.918.019,3.837.024,5.756a21.386,21.386,0,0,0,.409,5.625,3.982,3.982,0,0,1-2.4.389c-5.766.013-11.534,0-17.3.01-2.6.007-2.779.2-2.793,2.833-.007,1.373-.013,2.746,0,4.119.028,2.417.454,2.843,2.93,2.887,1.592.029,3.185.007,4.778.008,3.845,0,7.689-.008,11.534.006a4,4,0,0,1,2.395.41,3.3,3.3,0,0,1,.459,2.2c.02,2.521,0,5.043.009,7.565,0,2.674.007,2.675,2.611,2.683,1.644,0,3.29-.01,4.934.008a3.571,3.571,0,0,1,2.07.376.4.4,0,0,1,.063.555,3.476,3.476,0,0,1-2.223.424c-2.913.019-5.827-.018-8.74.018-2.122.026-2.631.5-2.654,2.646-.055,5.166-.007,10.333-.027,15.5a3.894,3.894,0,0,1-.46,2.544,2.036,2.036,0,0,1-1.239.389c-2.967.064-5.933.074-8.9-.006a2.084,2.084,0,0,1-1.094-.322,3.266,3.266,0,0,1-.544-2.5c-.02-5,.005-10.006-.015-15.01-.012-2.911-.67-3.558-3.624-3.58q-3.71-.027-7.42-.007C2777.689,2346.289,2776.266,2347.024,2775.121,2345.643Z" transform="translate(-2737.8 -2308.022)" fill="#fd646f"/>
        <path id="Trazado_152113" data-name="Trazado 152113" d="M2836.282,2332.413q.028-10.777.055-21.554c0-1.054-.054-2.135,1.282-2.5a2.819,2.819,0,0,1,1.454-.142q12.763-.011,25.527,0c2.136,0,2.846.633,2.923,2.83.1,2.962.083,5.929.009,8.892-.044,1.712-.449,2.075-2.241,2.087-5.654.037-11.308.008-16.963.017a3.732,3.732,0,0,0-2.081.319c-.845.438-.793,1.247-.8,2.006-.026,1.863-.037,3.726,0,5.588.037,1.9.4,2.287,2.362,2.306,5.588.053,11.176.007,16.765.027a4.04,4.04,0,0,1,2.543.434,1.912,1.912,0,0,1,.391,1.221c.006,3.746.2,7.493-.1,11.234a1.559,1.559,0,0,1-.264.525c-1.061.75-2.342.146-3.456.562a2.1,2.1,0,0,0-1.4,1.662c-.154,5.611-.016,11.218-.072,16.823a4.061,4.061,0,0,1-.351,2.405,2.941,2.941,0,0,1-2.048.412c-2.2.018-4.391.009-6.586.006-3.053,0-3.2-.153-3.211-3.292q-.016-7.491,0-14.982c0-1.35-.211-2.536-1.71-3.012a90.184,90.184,0,0,0-9.351-.127,4.325,4.325,0,0,1-2.7-.434,2.735,2.735,0,0,1-.428-1.724q-.042-4.932,0-9.865A2.748,2.748,0,0,1,2836.282,2332.413Z" transform="translate(-2745.603 -2308.041)" fill="#00f1a5"/>
        <path id="Trazado_152114" data-name="Trazado 152114" d="M2909.037,2370.728l-.2-.048c-.842-.641-.63-1.581-.634-2.424-.028-5.046,0-10.092-.017-15.139-.007-2.755-.283-3.03-3-3.038-2.577-.006-5.154,0-7.733-.013-4.057.043-8.114.02-12.171.012a3.2,3.2,0,0,1-2.051-.444,2.574,2.574,0,0,1-.382-1.718q-.023-5.065,0-10.131c0-.64-.087-1.33.516-1.809q17.141.005,34.281.011c2.376,0,2.945.548,2.942,2.87q-.017,16.562-.049,33.124c-3.131-1.207-6.405-.737-9.632-.824A2.87,2.87,0,0,1,2909.037,2370.728Z" transform="translate(-2751.646 -2311.612)" fill="#ab5e2e"/>
        <path id="Trazado_152115" data-name="Trazado 152115" d="M2912.9,2375.843c2.8-.017,5.608-.022,8.412-.056a4.4,4.4,0,0,1,3.087,1.31q.026,11.769.05,23.539c.009,9.714,0,19.427.011,29.141,0,1.192-.175,2.2-1.564,2.487h-9.837c1.348-1.075,1.166-2.191,1.166-3.27q0-11.786.008-23.573a2.928,2.928,0,0,0-.9-2.67c-.608-.472-.426-1.206-.426-1.851Q2912.894,2388.372,2912.9,2375.843Z" transform="translate(-2755.507 -2316.727)" fill="#c76d36"/>
        <path id="Trazado_152116" data-name="Trazado 152116" d="M2867.291,2345.615q0-6.446.005-12.891c1.5-1.708,1.135-3.792,1.136-5.79,0-4.847.374-4.546-4.54-4.55-5.158,0-10.314.015-15.471-.016-.781,0-1.68.221-2.238-.64a3.525,3.525,0,0,1,1.779-.175c5.929-.01,11.859-.039,17.786.02,1.247.012,1.6-.381,1.574-1.6-.078-3.017-.008-6.039-.032-9.058-.016-1.938-.66-2.565-2.558-2.567q-13.423-.013-26.845-.017c.465-.43,1.041-.264,1.571-.265q17.6-.031,35.206-.049c1.1,0,2.1.088,2.543,1.306a2.815,2.815,0,0,1,.145,1.457q.011,16.66,0,33.32c0,1.835-.111,1.962-1.944,1.988-2.144.03-4.289.021-6.433,0A2.03,2.03,0,0,1,2867.291,2345.615Z" transform="translate(-2745.871 -2308.019)" fill="#05e29b"/>
        <path id="Trazado_152117" data-name="Trazado 152117" d="M2811.153,2321.842a1.654,1.654,0,0,1-1.025-1.767c.074-3-.013-6,.05-8.991a4.226,4.226,0,0,0-.99-3.007c2.96-.016,5.92-.056,8.88-.036,1.657.011,2.317.731,2.323,2.463q.034,10.937.041,21.875a2.758,2.758,0,0,1,.474,1.712c.022,3.289.035,6.578-.008,9.866a1.963,1.963,0,0,1-.558,1.655c-2.859.006-5.721-.062-8.576.049-1.379.054-1.651-.471-1.63-1.711.064-3.738.018-7.478.014-11.217a3.9,3.9,0,0,0,1.2-3.387C2811.258,2326.845,2811.444,2324.338,2811.153,2321.842Z" transform="translate(-2742.183 -2308.021)" fill="#fc4755"/>
        <path id="Trazado_152118" data-name="Trazado 152118" d="M2821.983,2349.2q.046-6.617.092-13.234l12.432.016.077,13.259c-.16.818-.863.779-1.42.795-3.225.091-6.453.073-9.679.012a1.521,1.521,0,0,1-1.441-.611A.776.776,0,0,0,2821.983,2349.2Z" transform="translate(-2743.827 -2311.61)" fill="#ab5e2e"/>
        <path id="Trazado_152119" data-name="Trazado 152119" d="M2748.935,2440.884c.418-.515,1-.343,1.528-.346,2.24-.016,4.484.056,6.721-.031,1.256-.049,1.717.285,1.69,1.632-.078,3.987-.008,7.977,0,11.967-.232.809-.888.879-1.568.881-2.2.006-4.392-.016-6.587.01-1.338.015-1.84-.62-1.826-1.928C2748.943,2449.008,2748.927,2444.946,2748.935,2440.884Z" transform="translate(-2734.435 -2325.043)" fill="#c76d36"/>
        <path id="Trazado_152120" data-name="Trazado 152120" d="M2898.1,2454.115c.014-3.991.084-7.982.01-11.971-.025-1.34.422-1.688,1.686-1.637,2.238.089,4.482.016,6.724.031.526,0,1.11-.17,1.529.346.008,4.061-.007,8.122.036,12.182.015,1.3-.477,1.948-1.821,1.931-2.2-.026-4.391,0-6.586-.01C2899,2454.986,2898.346,2454.915,2898.1,2454.115Z" transform="translate(-2753.608 -2325.043)" fill="#c76d36"/>
        <path id="Trazado_152121" data-name="Trazado 152121" d="M2871.621,2345.807c2.742.006,5.488-.064,8.225.048,1.422.059,1.721-.464,1.716-1.785-.046-11.518-.026-23.036-.025-34.553.543.549.312,1.245.315,1.875q.052,10.593.065,21.185.007,6.755.012,13.509a.9.9,0,0,1-.665.435,39.812,39.812,0,0,1-9.446-.146.39.39,0,0,1-.188-.54Z" transform="translate(-2750.201 -2308.211)" fill="#35d5a9"/>
        <path id="Trazado_152122" data-name="Trazado 152122" d="M2819.877,2351.4c3.93.021,7.862.047,11.792.052a2.541,2.541,0,0,0,.749-.248l12.113.124c-.406.817-1.193.652-1.866.672-1.7.05-3.4.047-5.1,0-.877-.023-1.028.176-.914,1.121a83.232,83.232,0,0,1,.147,11,1.507,1.507,0,0,1-.419,1.049,4.559,4.559,0,0,1-2.57.385c-5.443.013-10.885,0-16.328.012-2.506.007-2.692.21-2.705,2.75-.009,1.594-.023,3.189.005,4.782.036,1.976.316,2.281,2.334,2.295,5.607.038,11.215,0,16.823.021a3.78,3.78,0,0,1,2.538.477,3.672,3.672,0,0,1,.414,2.217q.016,9.423,0,18.845a2.961,2.961,0,0,1-.531,2.323l-30.618.048a2.642,2.642,0,0,1-.593-2.145q-.021-11.245,0-22.492a2.716,2.716,0,0,1,.5-2.017q.026-9.122.052-18.245c.008-2.449.526-2.947,3.008-2.96Q2814.291,2351.44,2819.877,2351.4Z" transform="translate(-2741.662 -2313.568)" fill="#7ca0b0"/>
        <path id="Trazado_152123" data-name="Trazado 152123" d="M2771.345,2351.187a6.033,6.033,0,0,0,3.631.092,2.281,2.281,0,0,1,1.965,2.137,86.043,86.043,0,0,1,.033,11.011,1.209,1.209,0,0,1-.355.728,4.418,4.418,0,0,1-2.565.4c-5.443.014-10.885,0-16.328.011-2.519.007-2.707.209-2.721,2.735-.008,1.594-.023,3.189.005,4.783.035,1.986.314,2.3,2.319,2.309,5.607.039,11.215,0,16.823.022a3.874,3.874,0,0,1,2.543.465,3.621,3.621,0,0,1,.421,2.221q.017,9.363-.006,18.727c0,.9.155,1.909-.842,2.5-9.6.009-19.206-.015-28.807.059-1.426.01-1.582-.568-1.578-1.744.025-8.341,0-16.681-.015-25.021a58.459,58.459,0,0,1-.111-7.185c.015-4.088-.163-8.179.1-12.265.269-1.575,1.409-1.727,2.711-1.724q10.518.023,21.036,0C2770.188,2351.441,2770.817,2351.621,2771.345,2351.187Z" transform="translate(-2734.025 -2313.566)" fill="#fdc065"/>
        <path id="Trazado_152124" data-name="Trazado 152124" d="M2895.326,2351.5c3.021-.027,6.043-.107,9.062-.061,1.643.025,2.2.75,2.207,2.594.015,5.608,0,11.217.009,16.825,0,.6.045,1.206.069,1.808-.027,8.237-.112,16.474-.029,24.709.017,1.731-.494,2.034-2.1,2.025-12.247-.067-24.5-.034-36.743-.039-.6,0-1.2-.05-1.8-.077a.514.514,0,0,1,.317-.5,6.577,6.577,0,0,1,2.6-.249q12.18-.014,24.358-.008c2.467,0,2.507-.042,2.51-2.455.007-5.87,0-11.74.006-17.61a6.082,6.082,0,0,1,.24-2.274,4.127,4.127,0,0,0,1.479-3.931,28.185,28.185,0,0,1,0-3.951,3.411,3.411,0,0,0-1.394-3.3,8.724,8.724,0,0,1-.3-3.409C2895.714,2358.226,2896.11,2354.832,2895.326,2351.5Z" transform="translate(-2749.483 -2313.596)" fill="#01bff9"/>
        <path id="Trazado_152125" data-name="Trazado 152125" d="M2840.832,2365.015c0-3.336-.019-6.671-.005-10.006a4.135,4.135,0,0,0-.987-3.359c3.225-.373,6.211.177,9.152-.31a2.287,2.287,0,0,1,2.077,2.636c-.044,5.7.014,11.409-.043,17.112-.012,1.187.25,1.637,1.533,1.6,3.232-.1,6.47-.044,9.706-.051a.39.39,0,0,1-.164.539c-2.093.652-4.242.262-6.363.312-4.61.108-4.141-.52-4.157,4.13-.022,6.414,0,12.828-.013,19.243a3.174,3.174,0,0,1-.565,2.489l-10.186-.053q.01-11.643.017-23.284a3.956,3.956,0,0,0,1.184-3.383c-.069-1.409-.063-2.826,0-4.234A3.867,3.867,0,0,0,2840.832,2365.015Z" transform="translate(-2746.122 -2313.586)" fill="#678c97"/>
        <path id="Trazado_152126" data-name="Trazado 152126" d="M2780.917,2365.006c-.006-3.352-.056-6.7.006-10.055a3.892,3.892,0,0,0-1.631-3.67c2.957-.023,5.914-.093,8.87-.055,2.138.027,2.953.92,2.96,3.05q.03,9.2.037,18.407a2.217,2.217,0,0,1,.5,1.685q.048,11.57.006,23.14a2.5,2.5,0,0,1-.543,1.841l-10.531-.022a3.632,3.632,0,0,0,.314-2.084q.013-10.629.02-21.258a4.218,4.218,0,0,0,1.186-3.436,34.934,34.934,0,0,1,0-3.943A4.438,4.438,0,0,0,2780.917,2365.006Z" transform="translate(-2738.341 -2313.57)" fill="#fcb341"/>
        <path id="Trazado_152127" data-name="Trazado 152127" d="M2792.861,2402.513q.02-13.333.042-26.666l11.165-.011q.025,11.849.051,23.7c0,.987.028,1.974.043,2.96Z" transform="translate(-2740.085 -2316.733)" fill="#c76d36"/>
        <path id="Trazado_152128" data-name="Trazado 152128" d="M2852.649,2402.528c.014-8.166.064-16.333.011-24.5-.009-1.458.308-2,1.876-1.935,3.119.128,6.247.034,9.371.031.592.572.465,1.322.466,2.02q.019,11.13.012,22.26a5.452,5.452,0,0,1-.367,2.091Z" transform="translate(-2747.767 -2316.766)" fill="#c76d36"/>
        <path id="Trazado_152129" data-name="Trazado 152129" d="M2865.674,2399.538q-.022-12.116-.047-24.231c0-.713-.042-1.426-.063-2.138a1.046,1.046,0,0,0,0-.312q0-9.042.014-18.084c0-.577-.212-1.218.3-1.714a2.7,2.7,0,0,1,.546,2.165q.023,20.988,0,41.977a3.288,3.288,0,0,1-.423,2.059,1.243,1.243,0,0,1-.072.233A.9.9,0,0,1,2865.674,2399.538Z" transform="translate(-2749.424 -2313.807)" fill="#40d4bf"/>
        <path id="Trazado_152130" data-name="Trazado 152130" d="M2745.834,2353.458q.007,9.725.014,19.45c-.1.008-.191.014-.286.018q-.005-8.952,0-17.9C2745.559,2354.493,2745.389,2353.916,2745.834,2353.458Z" transform="translate(-2734.002 -2313.858)" fill="#c76d36"/>
        <path id="Trazado_152131" data-name="Trazado 152131" d="M2808.038,2323.869a1.8,1.8,0,0,1,.71,1.726c-.014,2.354-.058,4.71.015,7.061a1.766,1.766,0,0,1-1.732,2.1q-9.554-.03-19.107-.059c-2.727-.008-2.966-.25-2.967-3.029,0-1.922.043-3.845-.014-5.766-.042-1.439.481-2.107,2.008-2.1C2793.979,2323.864,2801.009,2323.855,2808.038,2323.869Z" transform="translate(-2739.067 -2310.048)" fill="#f2eff2"/>
        <path id="Trazado_152132" data-name="Trazado 152132" d="M2866.063,2399.038c-.027-.711-.077-1.421-.078-2.132q-.03-22.034-.051-44.068a1.436,1.436,0,0,1,1.345-1.327,10.314,10.314,0,0,1,3.625-.017l10.3-.033,14.115.025a4.182,4.182,0,0,1,1.019,3.149c-.078,3.457-.027,6.917-.026,10.376-.7.741-1.626.553-2.479.557-5.32.022-10.639,0-15.959.014-2.936.007-3.143.228-3.15,3.221,0,1.426-.027,2.851.01,4.277.051,1.956.385,2.32,2.333,2.333,5.539.037,11.078,0,16.616.026.9,0,1.89-.23,2.63.579,0,7.094-.033,14.187.027,21.28.011,1.345-.336,1.787-1.736,1.778C2885.089,2399.014,2875.576,2399.04,2866.063,2399.038Z" transform="translate(-2749.475 -2313.586)" fill="#01cffa"/>
        <path id="Trazado_152133" data-name="Trazado 152133" d="M2847.25,2323.748l20.271.052c2.267.006,2.458.194,2.463,2.436,0,2.088-.05,4.177.02,6.263a1.9,1.9,0,0,1-1.641,2.246q-9.713-.04-19.426-.08c-2.583-.01-2.735-.152-2.736-2.667,0-2.142.018-4.282-.008-6.423C2846.183,2324.729,2846.376,2324.057,2847.25,2323.748Z" transform="translate(-2746.938 -2310.04)" fill="#f2eff2"/>
        <path id="Trazado_152134" data-name="Trazado 152134" d="M2871.1,2351.467l-3.625.019c1.162-.665,2.42-.16,3.625-.3C2871.1,2351.278,2871.1,2351.372,2871.1,2351.467Z" transform="translate(-2749.673 -2313.559)" fill="#30deaf"/>
        <path id="Trazado_152135" data-name="Trazado 152135" d="M2837.716,2367.031c1.225.089,1.681.772,1.659,1.968q-.066,3.529,0,7.059c.02,1.189-.421,1.886-1.656,1.969q-9.889-.029-19.781-.057c-2.114-.007-2.34-.237-2.345-2.39q-.008-3.049,0-6.1c.005-2.162.228-2.391,2.341-2.4Q2827.824,2367.052,2837.716,2367.031Z" transform="translate(-2743.005 -2315.602)" fill="#f2eff2"/>
        <path id="Trazado_152136" data-name="Trazado 152136" d="M2777.887,2367.039c1.22.155,1.613.924,1.6,2.062-.023,2.292-.01,4.584,0,6.876,0,1.1-.312,1.945-1.593,2.042q-9.879-.025-19.758-.049c-2.243-.006-2.408-.175-2.413-2.476q-.005-2.881,0-5.763c0-2.545.109-2.645,2.739-2.65Q2768.172,2367.063,2777.887,2367.039Z" transform="translate(-2735.312 -2315.603)" fill="#f2eff2"/>
        <path id="Trazado_152137" data-name="Trazado 152137" d="M2897.536,2378.032l-19.6-.06c-2.189-.006-2.448-.262-2.455-2.47-.006-2.031-.009-4.063,0-6.1.011-1.958.361-2.314,2.289-2.322q9.88-.037,19.763-.06a1.62,1.62,0,0,1,1.745,1.888q-.059,3.619,0,7.239A1.6,1.6,0,0,1,2897.536,2378.032Z" transform="translate(-2750.701 -2315.601)" fill="#f2eff2"/>
      </g>
    </g>
  </g>
</svg>
