<svg xmlns="http://www.w3.org/2000/svg" width="48" height="48" viewBox="0 0 48 48">
  <g id="Grupo_140194" data-name="Grupo 140194" transform="translate(-1259 -4235)">
    <circle id="Elipse_5013" data-name="Elipse 5013" cx="24" cy="24" r="24" transform="translate(1259 4235)" fill="#fff"/>
    <g id="nPmDLe" transform="translate(-225.913 1234.833)">
      <g id="Grupo_139900" data-name="Grupo 139900" transform="translate(1496.913 3008.167)">
        <path id="Trazado_152651" data-name="Trazado 152651" d="M1502.332,3039.38a2.936,2.936,0,0,1-1.627-.875,2.77,2.77,0,0,1-.669-1.877c0-.091,0-.182-.007-.274a.184.184,0,0,0-.021-.054,7.8,7.8,0,0,1-1.108-.134,2.593,2.593,0,0,1-1.986-2.685q0-4.876,0-9.751,0-6.384,0-12.768a2.544,2.544,0,0,1,1.49-2.513,3.177,3.177,0,0,1,1.293-.269q8.151-.026,16.3-.011a2.622,2.622,0,0,1,2.77,2.713c0,.121,0,.241,0,.364a8.234,8.234,0,0,1,1.129.133,2.6,2.6,0,0,1,1.993,2.679q.006,3.2,0,6.4,0,8.06,0,16.12a2.614,2.614,0,0,1-1.506,2.542,5.606,5.606,0,0,1-.8.26Zm13.311-30.157c0,.412,0,.8,0,1.181q0,1.2,0,2.407a.5.5,0,0,1-.316.51.519.519,0,0,1-.588-.127c-.088-.084-.174-.171-.26-.257l-.918-.936c-.381.392-.732.744-1.072,1.1a.552.552,0,0,1-1.008-.406c0-.934,0-1.869,0-2.8v-.689h-.3q-5.744,0-11.489,0a1.59,1.59,0,0,0-1.736,1.748q0,11.26,0,22.52a1.591,1.591,0,0,0,1.739,1.747q8.152,0,16.3,0a1.578,1.578,0,0,0,1.728-1.723q.006-11.29-.006-22.581a2,2,0,0,0-.2-.876A1.687,1.687,0,0,0,1515.643,3009.223Zm3.128,3.14v.438q0,10.287,0,20.574a3.012,3.012,0,0,1-.264,1.392,2.631,2.631,0,0,1-2.55,1.5h-14.833a1.628,1.628,0,0,0,1.682,2.077q8.153,0,16.306,0a1.589,1.589,0,0,0,1.74-1.745q0-11.262,0-22.524A1.639,1.639,0,0,0,1518.771,3012.363Zm-4.2-.762v-2.368h-2.033v2.283l.063.042c.17-.184.332-.376.51-.552a.547.547,0,0,1,.895-.008C1514.187,3011.171,1514.349,3011.36,1514.574,3011.6Z" transform="translate(-1496.913 -3008.167)"/>
        <path id="Trazado_152652" data-name="Trazado 152652" d="M1518.466,3069.545l.6-.682.725.779c-.349.35-.733.751-1.136,1.132a.652.652,0,0,0-.216.534c.012.792.006,1.585,0,2.377,0,.559-.173.739-.721.74q-1.89,0-3.779,0c-.533,0-.707-.18-.709-.721q0-1.89,0-3.779c0-.53.185-.708.723-.708,1.26,0,2.52-.01,3.779.009a2.753,2.753,0,0,1,.688.193Zm-1.072,2.586-.073-.044c-.188.2-.368.4-.565.591a.466.466,0,0,1-.683.07c-.371-.353-.705-.745-1.015-1.077l.662-.739.628.7c.353-.358.679-.676.985-1.012.067-.073.061-.212.1-.347H1514.3v3.082h3.09Z" transform="translate(-1510.115 -3057.254)"/>
        <path id="Trazado_152653" data-name="Trazado 152653" d="M1518.419,3031.464l.675-.728.7.786c-.354.353-.74.752-1.142,1.135a.622.622,0,0,0-.214.5c.012.812.007,1.624,0,2.436,0,.534-.177.705-.717.706q-1.9,0-3.806,0c-.5,0-.683-.177-.685-.675q-.007-1.918,0-3.836c0-.5.181-.68.679-.68,1.269,0,2.537,0,3.806,0A.651.651,0,0,1,1518.419,3031.464Zm-1.027,2.552-.079-.055c-.185.2-.362.408-.558.6a.494.494,0,0,1-.711.059c-.367-.343-.7-.719-1.028-1.052l.729-.761.614.7c.332-.336.647-.638.939-.96a1.123,1.123,0,0,0,.134-.373h-3.13v3.073h3.09Z" transform="translate(-1510.113 -3026.419)"/>
        <path id="Trazado_152654" data-name="Trazado 152654" d="M1513.237,3108.671c0-.64,0-1.28,0-1.92,0-.51.191-.693.706-.694q1.9,0,3.809,0c.5,0,.692.193.693.707q0,1.9,0,3.809c0,.5-.185.688-.676.69q-1.935.007-3.87,0c-.474,0-.657-.192-.661-.673C1513.233,3109.951,1513.237,3109.311,1513.237,3108.671Zm1.063-1.557v3.072a.48.48,0,0,0,.1.03c.934,0,1.868,0,2.8.007.2,0,.2-.112.2-.256,0-.883,0-1.767,0-2.65a1.284,1.284,0,0,0-.032-.2Z" transform="translate(-1510.114 -3087.333)"/>
        <path id="Trazado_152655" data-name="Trazado 152655" d="M1556.609,3087.166v1h-5.163v-1Z" transform="translate(-1541.016 -3072.057)"/>
        <path id="Trazado_152656" data-name="Trazado 152656" d="M1551.421,3050.07v-1h5.159v1Z" transform="translate(-1540.996 -3041.246)"/>
        <path id="Trazado_152657" data-name="Trazado 152657" d="M1551.448,3123.485v-1h5.161v1Z" transform="translate(-1541.018 -3100.619)"/>
        <path id="Trazado_152658" data-name="Trazado 152658" d="M1551.452,3038.183h3.076v1.006h-3.076Z" transform="translate(-1541.021 -3032.442)"/>
        <path id="Trazado_152659" data-name="Trazado 152659" d="M1554.531,3077.284h-3.073v-1h3.073Z" transform="translate(-1541.026 -3063.255)"/>
        <path id="Trazado_152660" data-name="Trazado 152660" d="M1551.43,3112.6v-1h3.084v1Z" transform="translate(-1541.003 -3091.824)"/>
        <path id="Trazado_152661" data-name="Trazado 152661" d="M1573.21,3111.558h.989v1.011h-.989Z" transform="translate(-1558.617 -3091.783)"/>
      </g>
    </g>
  </g>
</svg>
