<svg xmlns="http://www.w3.org/2000/svg" width="221.184" height="215.398" viewBox="0 0 221.184 215.398">
  <g id="Grupo_140183" data-name="Grupo 140183" transform="translate(-284.5 -7488.5)">
    <g id="Grupo_137466" data-name="Grupo 137466" transform="translate(285 7489)">
      <g id="Grupo_78503" data-name="Grupo 78503" transform="translate(0 0)">
        <path id="Trazado_114225" data-name="Trazado 114225" d="M1473.422,532.139c23.574,50.672,63.908,42.715,121.47,15.936s89.572-50.522,66-101.194-93.805-109.085-151.366-82.306S1449.849,481.467,1473.422,532.139Z" transform="translate(-1448.837 -355.32)" fill="none" stroke="#ef3c79" stroke-miterlimit="10" stroke-width="2"/>
        <path id="Trazado_114226" data-name="Trazado 114226" d="M1475,491.7c0,55.887,39.926,65.687,103.412,65.687s102.525-8.024,102.525-63.911S1641.9,355,1578.412,355,1475,435.812,1475,491.7Z" transform="translate(-1475 -355)" fill="#fff" stroke="rgba(0,0,0,0)" stroke-width="1"/>
        <path id="Trazado_114227" data-name="Trazado 114227" d="M1672.817,424.191c0,5.393,3.852,6.338,9.978,6.338s9.893-.774,9.893-6.166S1688.921,411,1682.8,411,1672.817,418.8,1672.817,424.191Z" transform="translate(-1662.347 -361.291)" fill="#00cbae" stroke="rgba(0,0,0,0)" stroke-width="1"/>
        <path id="Trazado_114228" data-name="Trazado 114228" d="M1459.307,453.19c0,5.393,3.853,6.338,9.978,6.338s9.893-.774,9.893-6.167S1475.411,440,1469.285,440,1459.307,447.8,1459.307,453.19Z" transform="translate(-1259.312 -364.549)" fill="#0d4aad" stroke="rgba(0,0,0,0)" stroke-width="1"/>
      </g>
    </g>
    <g id="E1hMpL" transform="translate(-1986.883 5248.615)">
      <g id="Grupo_138048" data-name="Grupo 138048" transform="translate(2310.883 2267.385)">
        <path id="Trazado_152070" data-name="Trazado 152070" d="M2367.894,2270.182a18.3,18.3,0,0,1,9.647-.156,37.916,37.916,0,0,1,10.957,4.3c.57.321,1.063.86,1.813.781.2.346-.028.594-.209.831-2.677,3.492-5.185,7.146-9.08,9.471-.866.517-.591.959.116,1.333a3.433,3.433,0,0,0,1.788.47c3.563-.22,6.844-1.06,9.206-4.066a37.507,37.507,0,0,0,4.668-8.224c.754-1.71,1.562-3.392,2.476-5.017.613-1.091,1.377-2.111,2.884-1.965,1.885,1.773,2.01,4.093,1.911,6.437a26.13,26.13,0,0,1-.328,2.764,5.155,5.155,0,0,0-.235,1.4c-.29,1.209.282,1.708,1.43,1.825,1.814.187,3.087-.6,3.926-2.591a37.979,37.979,0,0,1,3.768-7.281,6.759,6.759,0,0,1,3.875-3.112h1.247c3.777,1.487,3.4,4.077,2.975,7.278a37.806,37.806,0,0,1-1.415,5.184.953.953,0,0,1-.357,1.278c3.709-.515,6.327-3.1,9.19-5.236,1.032-.771,2.027-1.592,3.133-2.262a3.3,3.3,0,0,1,2.341-.572c1.49,1.37,1.486,3.113,1.1,4.873-.9,4.133-3.195,7.578-5.579,10.971-1.937,2.755-4.3,5.158-6.411,7.762a2.646,2.646,0,0,1-.725,1.177c-5.192,5-10.7,9.551-17.782,11.6a47.666,47.666,0,0,1-33.677-2.264,16.1,16.1,0,0,1-2.959-1.7c-1.881-1.087-3.458-2.587-5.217-3.845-2.718-3.882-3.417-8.2-3.073-12.86a31.209,31.209,0,0,1,3.742-13.517A12.046,12.046,0,0,1,2367.894,2270.182Z" transform="translate(-2315.84 -2267.385)" fill="#f3dc45"/>
        <path id="Trazado_152071" data-name="Trazado 152071" d="M2404.2,2268.108a4.468,4.468,0,0,0-2.5,2.386c-1.98,3.7-3.434,7.645-5.661,11.236-2.252,3.629-5.523,5.295-9.536,5.88a5.164,5.164,0,0,1-3.728-.764c-.57-.387-1.167-.968-.11-1.51,3.632-1.864,5.927-5.091,8.381-8.157.547-.682,1.074-1.38,1.611-2.07,2.119-3.066,4.426-5.94,7.812-7.725h2.8C2403.544,2267.672,2404.2,2267.472,2404.2,2268.108Z" transform="translate(-2318.185 -2267.385)" fill="#ebc22e"/>
        <path id="Trazado_152072" data-name="Trazado 152072" d="M2421.507,2267.385c-3.656,2.173-5.189,5.878-6.85,9.49a9.274,9.274,0,0,1-1.52,2.827,3.96,3.96,0,0,1-3.857,1c-1.238-.2-1.511-1-1.167-2.11.254-.354.22-.826.479-1.179a19.551,19.551,0,0,1,8.089-9.284,21.705,21.705,0,0,1,2.646-.74Z" transform="translate(-2320.84 -2267.385)" fill="#ebc22e"/>
        <path id="Trazado_152073" data-name="Trazado 152073" d="M2322.7,2370.913c0-1.914.076-3.831-.014-5.741a7.773,7.773,0,0,1,4.705-7.99c1.7-1.235,3.6-.84,5.385-.473,5.173,1.059,10.331,2.2,15.491,3.323,8.448,1.842,16.9,3.645,25.35,5.5a5.9,5.9,0,0,1,3.024,1.1,3.518,3.518,0,0,1,.478,2.241q.016,32.361,0,64.722c0,1.956-.169,2.152-1.466,2.158q-14.19-3.052-28.38-6.105c-6.019-1.3-12.034-2.618-18.058-3.894-4.254-.9-6.506-3.619-6.509-7.985q-.011-13.766-.006-27.532c.333-.586.97-.744,1.492-1.063,2.18-1.332,3.52-3.128,3.414-5.828-.073-1.86-.057-3.727,0-5.589a6.214,6.214,0,0,0-3.78-6.065C2323.409,2371.485,2322.941,2371.362,2322.7,2370.913Z" transform="translate(-2312.092 -2276.508)" fill="#c22430"/>
        <path id="Trazado_152074" data-name="Trazado 152074" d="M2451.22,2390.246q0,13.7-.005,27.4c0,4.525-2.107,7.138-6.56,8.108q-22.7,4.945-45.407,9.866c-.4.088-.821.1-1.233.154-.705.266-.94-.194-1.09-.732a6.378,6.378,0,0,1-.129-1.7q-.005-32.136,0-64.273a3.957,3.957,0,0,1,.452-2.4,3.3,3.3,0,0,1,1.952-.854q21.026-4.64,42.085-9.125c1.741-.374,3.591-.706,5.238.488a7.793,7.793,0,0,1,4.707,7.992c-.087,1.909-.006,3.825,0,5.738a2.51,2.51,0,0,1-1.158.736,6.549,6.549,0,0,0-3.915,5.38,28.743,28.743,0,0,0-.013,6.947,6.376,6.376,0,0,0,4.1,5.563A1.667,1.667,0,0,1,2451.22,2390.246Z" transform="translate(-2319.693 -2276.508)" fill="#d94a54"/>
        <path id="Trazado_152075" data-name="Trazado 152075" d="M2368.4,2308.437a39.943,39.943,0,0,0,16.192,5.5c12.048,1.406,23.317-.393,32.925-8.58,2.049-1.745,4-3.591,6.039-5.345a34.325,34.325,0,0,1,.877,6.7c.46,4.7.687,9.43,1.01,14.147a2.242,2.242,0,0,1,.47,1.442c.04,4.8.023,9.592.01,14.388a3.751,3.751,0,0,1-.152.757,2.883,2.883,0,0,0-.33,1.951,40.857,40.857,0,0,1-.933,9.551c-.327.733-1.043.8-1.686.943-9.422,2.035-18.8,4.289-28.281,6.032a41.54,41.54,0,0,1-13.777-.012c-3.834-.59-7.614-1.555-11.406-2.41-.533-.12-1.177-.1-1.367-.815.2-1.989-.414-3.906-.522-5.868a67.494,67.494,0,0,1,.052-10.7c.306-.6.86-.477,1.364-.429a2.629,2.629,0,0,0,2.747-1.629,6.388,6.388,0,0,0,.109-5.843,2.717,2.717,0,0,0-2.934-1.83c-.516.057-1.061.118-1.32-.521a67.205,67.205,0,0,1-.062-10.835c.1-1.652.117-3.3.207-4.953C2367.665,2309.455,2367.465,2308.658,2368.4,2308.437Z" transform="translate(-2316.662 -2270.73)" fill="#f0cfa4"/>
        <path id="Trazado_152076" data-name="Trazado 152076" d="M2396.078,2367.725a2.707,2.707,0,0,0-.324,1.8q0,32.789.015,65.58c0,.641-.4,1.534.7,1.784a1.616,1.616,0,0,1-1.179.26q-6.207.008-12.413.011a1.654,1.654,0,0,1-1.172-.292c.543-.044,1.055-.111.984-.868-.03-.309,0-.622,0-.933q0-32.707,0-65.414a2.768,2.768,0,0,0-.337-1.946,2.226,2.226,0,0,1,1.86-.534q5.012-.038,10.024,0A2.137,2.137,0,0,1,2396.078,2367.725Z" transform="translate(-2318.146 -2277.616)" fill="#dc636e"/>
        <path id="Trazado_152077" data-name="Trazado 152077" d="M2365.573,2270.5c-.611,1.264-2.009,1.7-2.844,2.793a25.891,25.891,0,0,0-4.831,11.42c-.794,4.486-1.1,9,.537,13.386.5,1.341,1.235,2.595,1.862,3.888a1.233,1.233,0,0,1,.242,1.17c-1.335,5.1-3.311,9.815-7.843,13a10.169,10.169,0,0,1-4.265,1.779,33.339,33.339,0,0,0-6.312,1.575c-.573.212-1.194.431-1.756-.079a126.133,126.133,0,0,1-3.132-15.313,70.63,70.63,0,0,1-.637-11.615,26.4,26.4,0,0,1,1.156-7.325c2.133-6.866,7.456-9.923,14.432-8.274,1.448.342,3.034,1.441,4.237,1.091,1.1-.32,1.694-2.187,2.625-3.274A12.168,12.168,0,0,1,2365.573,2270.5Z" transform="translate(-2313.518 -2267.705)" fill="#ebc22e"/>
        <path id="Trazado_152078" data-name="Trazado 152078" d="M2340.433,2323.03c3.528-.9,7.107-1.631,10.562-2.748a10.132,10.132,0,0,0,4.87-3.959,23.854,23.854,0,0,0,4.5-10.735c1.089.066,1.612.985,2.366,1.56.845.644,1.725,1.243,2.59,1.862a.975.975,0,0,0-.3.842c-.084,5.683-.528,11.361-.284,17.049a1.128,1.128,0,0,1-.219.729,6.609,6.609,0,0,0,.026,7.979.958.958,0,0,1,.181.732c.022,5.311-.354,10.644.842,15.892.116.508.094.944-.562,1.033-.493.465-1.065.3-1.614.179-5.148-1.157-10.317-2.214-15.462-3.381-.694-.157-1.49-.218-1.551-1.205a61.612,61.612,0,0,1-.674-9.753c.012-.648-.1-1.04-.9-1.121a7.843,7.843,0,0,1-7.077-5.67,7.983,7.983,0,0,1,2.212-8.681A6.869,6.869,0,0,0,2340.433,2323.03Z" transform="translate(-2313.588 -2271.302)" fill="#f0b885"/>
        <path id="Trazado_152079" data-name="Trazado 152079" d="M2345.427,2353.595c.756.975,1.937.826,2.947,1.05,5.219,1.154,10.452,2.244,15.679,3.356,5.957,1.15,11.75,3,17.927,3.175,6.417.185,12.528-1.149,18.685-2.528,6.3-1.411,12.62-2.73,18.93-4.1a7.725,7.725,0,0,0,.877-.3c3.665-.733,7.327-1.489,11-2.194a6.487,6.487,0,0,1,7.5,3.689q.244.483.489.966c-3.052-.993-5.954.112-8.856.733-13.358,2.86-26.7,5.8-40.044,8.705l-13.734-.02q-22.147-4.813-44.3-9.619a9.186,9.186,0,0,0-4.606.206,7.225,7.225,0,0,1,5.771-4.857c1.638-.306,3.153.4,4.715.667,1.93.325,3.831.825,5.738,1.275C2344.625,2353.912,2345.062,2354.043,2345.427,2353.595Z" transform="translate(-2312.631 -2276.04)" fill="#dee9ee"/>
        <path id="Trazado_152080" data-name="Trazado 152080" d="M2457.621,2372.527c5.586-1.419,10.808,1.974,10.325,7.418-.2,2.261.282,4.56-.24,6.805a6.292,6.292,0,0,1-5.705,5.1,6.594,6.594,0,0,1-5.389-6.588c-.069-2.065-.11-4.137.014-6.2a6.993,6.993,0,0,1,3.843-6.19C2459.684,2372.907,2458.59,2373.285,2457.621,2372.527Z" transform="translate(-2325.821 -2278.134)" fill="#f0cfa4"/>
        <path id="Trazado_152081" data-name="Trazado 152081" d="M2322,2372.575c3.649,1.078,5.338,3.272,5.371,7,.015,1.659.008,3.318,0,4.977-.015,3.976-1.562,6.085-5.377,7.347h-.608c-3.061-.539-4.635-2.582-5.137-5.44a24.6,24.6,0,0,1,.077-8.937c.461-2.4,3.039-5.142,5.086-4.962Z" transform="translate(-2311.396 -2278.17)" fill="#f0cfa4"/>
        <path id="Trazado_152082" data-name="Trazado 152082" d="M2432.415,2339.819c-.484-.395-.327-.945-.328-1.44q-.012-7.574,0-15.146a8.265,8.265,0,0,1,8.384,7.21,8.35,8.35,0,0,1-6.061,9.144A7.673,7.673,0,0,1,2432.415,2339.819Z" transform="translate(-2323.31 -2273.111)" fill="#f0b886"/>
        <path id="Trazado_152083" data-name="Trazado 152083" d="M2457.064,2372.564h4.055c-.942.8-1.9,1.073-2.564,1.786a7.235,7.235,0,0,0-2.083,5.02c-.02,1.97-.064,3.943.009,5.91.123,3.326,1.983,5.4,4.963,6.613l-4.653.017c-3.384-.923-5.249-2.9-5.514-6.433a28.619,28.619,0,0,1,.183-7.576,6.569,6.569,0,0,1,5.342-5.329A1.856,1.856,0,0,1,2457.064,2372.564Z" transform="translate(-2325.264 -2278.171)" fill="#f0b885"/>
        <path id="Trazado_152084" data-name="Trazado 152084" d="M2320.905,2372.545c-3.816,1.568-5.214,4.548-5.019,8.5.074,1.5-.078,3.012.066,4.5a7.352,7.352,0,0,0,4.926,6.34c-1.141.018-2.283.073-3.423.045a6.53,6.53,0,0,1-6.554-6.664c-.022-2.128-.03-4.258.007-6.385a6.544,6.544,0,0,1,5.881-6.347,13.684,13.684,0,0,1,4.1.013Z" transform="translate(-2310.883 -2278.153)" fill="#f0b886"/>
        <path id="Trazado_152085" data-name="Trazado 152085" d="M2440.44,2273.577c-3.144.875-5.241,3.35-7.794,5.125-1.692,1.176-3.292,2.478-5.355,2.991-.5.125-1.113.481-1.452.092s.1-.951.3-1.416c.646.037.833-.535,1.171-.9,2.344-2.5,4.774-4.906,7.954-6.338C2437.03,2272.339,2438.833,2272.031,2440.44,2273.577Z" transform="translate(-2322.659 -2267.907)" fill="#ebc22e"/>
        <path id="Trazado_152086" data-name="Trazado 152086" d="M2321.565,2372.526l-4.1-.012A6.331,6.331,0,0,1,2321.565,2372.526Z" transform="translate(-2311.558 -2278.131)" fill="#f0cfa4"/>
        <path id="Trazado_152087" data-name="Trazado 152087" d="M2408.393,2278.437l.322.349c-.1.369-.177.759-.588.936A1.726,1.726,0,0,1,2408.393,2278.437Z" transform="translate(-2320.854 -2268.518)" fill="#fcf7dc"/>
        <path id="Trazado_152088" data-name="Trazado 152088" d="M2444.13,2388.873c.01,1.754-1.226,2.242-2.616,2.547q-6.442,1.415-12.891,2.807c-4.148.893-8.3,1.768-12.448,2.654-1.86.4-2.985-.177-3.4-1.745-.353-1.324.572-2.575,2.28-2.948q12.965-2.837,25.939-5.627A2.426,2.426,0,0,1,2444.13,2388.873Z" transform="translate(-2321.324 -2279.598)" fill="#454045"/>
        <path id="Trazado_152089" data-name="Trazado 152089" d="M2415.576,2387.04c-1.67,0-2.726-.844-2.876-2.042a2.429,2.429,0,0,1,2.091-2.658q7.8-1.737,15.618-3.417c3.489-.757,6.979-1.508,10.475-2.231,1.763-.364,2.953.314,3.217,1.759s-.547,2.545-2.3,2.928q-10.841,2.373-21.691,4.7C2418.494,2386.43,2416.874,2386.766,2415.576,2387.04Z" transform="translate(-2321.322 -2278.584)" fill="#454045"/>
        <path id="Trazado_152090" data-name="Trazado 152090" d="M2388.265,2357.317a10.987,10.987,0,0,1-9.659-5.643c-.962-1.594-.659-3.042.659-3.781,1.287-.72,2.473-.275,3.477,1.3,2.842,4.467,8.221,4.445,11.04-.048.968-1.543,2.216-1.979,3.495-1.223,1.249.74,1.533,2.106.631,3.658A10.885,10.885,0,0,1,2388.265,2357.317Z" transform="translate(-2317.77 -2275.606)" fill="#c22430"/>
        <path id="Trazado_152091" data-name="Trazado 152091" d="M2367.646,2338.733a6.644,6.644,0,0,1,.011-9.44c1.965-.785,3.3-.348,4.231,1.5a6.859,6.859,0,0,1,.067,6.283C2371.033,2339.028,2369.684,2339.512,2367.646,2338.733Z" transform="translate(-2316.503 -2273.695)" fill="#454045"/>
        <path id="Trazado_152092" data-name="Trazado 152092" d="M2412.257,2334.282a5.545,5.545,0,0,1-1.3,3.766,2.608,2.608,0,0,1-4.275.009,6.852,6.852,0,0,1,0-8.109,2.616,2.616,0,0,1,4.276-.007A6.493,6.493,0,0,1,2412.257,2334.282Z" transform="translate(-2320.571 -2273.687)" fill="#454045"/>
      </g>
    </g>
  </g>
</svg>
