<svg xmlns="http://www.w3.org/2000/svg" width="221.184" height="215.398" viewBox="0 0 221.184 215.398">
  <g id="Grupo_140184" data-name="Grupo 140184" transform="translate(-284.5 -7797.5)">
    <g id="Grupo_137469" data-name="Grupo 137469" transform="translate(285 7798)">
      <g id="Grupo_78503" data-name="Grupo 78503" transform="translate(0 0)">
        <path id="Trazado_114225" data-name="Trazado 114225" d="M1473.422,532.139c23.574,50.672,63.908,42.715,121.47,15.936s89.572-50.522,66-101.194-93.805-109.085-151.366-82.306S1449.849,481.467,1473.422,532.139Z" transform="translate(-1448.837 -355.32)" fill="none" stroke="#ef3c79" stroke-miterlimit="10" stroke-width="2"/>
        <path id="Trazado_114226" data-name="Trazado 114226" d="M1475,491.7c0,55.887,39.926,65.687,103.412,65.687s102.525-8.024,102.525-63.911S1641.9,355,1578.412,355,1475,435.812,1475,491.7Z" transform="translate(-1475 -355)" fill="#fff" stroke="rgba(0,0,0,0)" stroke-width="1"/>
        <path id="Trazado_114227" data-name="Trazado 114227" d="M1672.817,424.191c0,5.393,3.852,6.338,9.978,6.338s9.893-.774,9.893-6.166S1688.921,411,1682.8,411,1672.817,418.8,1672.817,424.191Z" transform="translate(-1662.347 -361.291)" fill="#00cbae" stroke="rgba(0,0,0,0)" stroke-width="1"/>
        <path id="Trazado_114228" data-name="Trazado 114228" d="M1459.307,453.19c0,5.393,3.853,6.338,9.978,6.338s9.893-.774,9.893-6.167S1475.411,440,1469.285,440,1459.307,447.8,1459.307,453.19Z" transform="translate(-1259.312 -364.549)" fill="#0d4aad" stroke="rgba(0,0,0,0)" stroke-width="1"/>
      </g>
    </g>
    <g id="aRvIt2" transform="translate(-2200.402 5522.903)">
      <g id="Grupo_138049" data-name="Grupo 138049" transform="translate(2520.402 2307.097)">
        <path id="Trazado_152093" data-name="Trazado 152093" d="M2600.872,2452.471c-.1.639-.67.992-.922,1.537h-9.356c.93-2.121.7-4.367.7-6.585q0-38.71,0-77.417c0-1.932.189-3.892-.686-5.72l6.18-.1c3.9-.683,4.519-.176,4.52,3.735q0,40.924,0,81.85A4.655,4.655,0,0,1,2600.872,2452.471Z" transform="translate(-2516.885 -2304.248)" fill="#01bff9"/>
        <path id="Trazado_152094" data-name="Trazado 152094" d="M2591,2364.288a2.466,2.466,0,0,1,1.171,2.33q-.024,42.528,0,85.054a2.666,2.666,0,0,1-1.184,2.339h-6.726a3.007,3.007,0,0,1-1.2-1.548,3.473,3.473,0,0,1-.445-2.107q0-41.487,0-82.973a7.413,7.413,0,0,1,.1-1.456,2.308,2.308,0,0,1,2.725-2.011,13.841,13.841,0,0,1,1.726.274Z" transform="translate(-2517.284 -2304.25)" fill="#01cffa"/>
        <path id="Trazado_152095" data-name="Trazado 152095" d="M2663.448,2431.025a48.082,48.082,0,0,1-9.062,3.2c-.7-.788-.47-1.755-.471-2.655q-.022-25.923-.01-51.844,0-15.335.007-30.669a3.468,3.468,0,0,1,.479-2.516c2.527-.8,5.059-1.579,7.575-2.408.608-.2,1.016.107,1.483.335Z" transform="translate(-2513.713 -2305.244)" fill="#fcb341"/>
        <path id="Trazado_152096" data-name="Trazado 152096" d="M2590.291,2365.181a1.015,1.015,0,0,1-.145.018c-4.032-.068-3.927.395-3.924,4.061q.022,41.22.006,82.442c0,.584-.028,1.167-.043,1.751q-32.139-10.858-64.289-21.691a1.877,1.877,0,0,1-1.494-2.105q.039-41.877.022-83.756c0-1.766.4-2.06,2.126-1.534q24.829,7.584,49.658,15.178c5.347,1.634,10.7,3.249,16.047,4.885C2588.945,2364.641,2589.613,2364.928,2590.291,2365.181Z" transform="translate(-2520.402 -2305.241)" fill="#fdc065"/>
        <path id="Trazado_152097" data-name="Trazado 152097" d="M2657.266,2346.426q0,43.842,0,87.683c-6.52,2.232-13.036,4.483-19.563,6.7q-18.556,6.29-37.122,12.545c-.016-.584-.044-1.167-.044-1.75q0-41.539,0-83.078c0-3.284-.075-3.359-3.316-3.409-.243,0-.484-.032-.727-.047,4.759-1.488,9.511-3,14.277-4.459q12.72-3.9,25.452-7.764c.641.753.435,1.668.436,2.521q.019,26.73.01,53.461c0,.585-.022,1.17.028,1.753.029.333.014.753.38.883s.62-.211.826-.473c.846-1.07,1.7-2.135,2.52-3.221a9.4,9.4,0,0,1,1.127-1.34,2.252,2.252,0,0,1,3.166-.184c.2.144.356.338.554.475.647.444,1.055,1.655,1.88,1.278.648-.3.292-1.427.292-2.185q.021-26.949.022-53.9c0-.9-.248-1.867.469-2.649Z" transform="translate(-2516.589 -2305.126)" fill="#fdc065"/>
        <path id="Trazado_152098" data-name="Trazado 152098" d="M2630.933,2334.393c.014,9.8-6.552,17.346-14.646,18.4a17.314,17.314,0,0,1-19.437-13.579c-.229-1.141-.638-1.421-1.685-1.357-1.262.079-2.534.047-3.8.008-.7-.022-.973.188-1.139.935-1.884,8.467-8.032,13.86-16.632,14.14a17.233,17.233,0,1,1,16.529-20.777c.25,1.142.665,1.407,1.7,1.343a27.617,27.617,0,0,1,3.505,0c.953.063,1.277-.231,1.49-1.221a17.17,17.17,0,0,1,26.029-11.15A16.407,16.407,0,0,1,2630.933,2334.393Z" transform="translate(-2518.616 -2306.528)" fill="#678c97"/>
        <path id="Trazado_152099" data-name="Trazado 152099" d="M2646.031,2349.17q-.019,12.343-.038,24.685-.011,16.653,0,33.3a8.161,8.161,0,0,1-.019,1.168c-.125.845-.54.993-1.16.39-.664-.645-1.3-1.318-1.961-1.964-1.2-1.172-2.121-1.151-3.182.157-1.131,1.395-2.186,2.85-3.288,4.269-.4.512-.695,1.4-1.5,1.1-.741-.282-.543-1.161-.543-1.825q-.008-28.265,0-56.531c0-.388-.008-.778-.012-1.168a1.73,1.73,0,0,1,1.325-1.675c2.865-.861,5.713-1.783,8.561-2.7C2645.081,2348.091,2645.73,2348.2,2646.031,2349.17Z" transform="translate(-2514.694 -2305.035)" fill="#fd646f"/>
        <path id="Trazado_152100" data-name="Trazado 152100" d="M2572.961,2307.125a21.9,21.9,0,0,1,12.805,4.341c1.375,1,1.666,2.282.86,3.374-.782,1.062-2.077,1.114-3.483.142-6.731-4.66-13.424-4.623-20.176.111a2.277,2.277,0,0,1-3.263-.184c-.866-1.054-.7-2.267.6-3.283A20.737,20.737,0,0,1,2572.961,2307.125Z" transform="translate(-2518.459 -2307.095)" fill="#678d97"/>
        <path id="Trazado_152101" data-name="Trazado 152101" d="M2611.057,2307.111a22.567,22.567,0,0,1,12.961,4.184,3.469,3.469,0,0,1,1.365,1.481,1.971,1.971,0,0,1-.7,2.465,2.175,2.175,0,0,1-2.829-.081,18.42,18.42,0,0,0-7.381-3.331,15.838,15.838,0,0,0-12.081,2.585c-.407.265-.778.586-1.187.846a2.235,2.235,0,0,1-3.029-.341,2.118,2.118,0,0,1,.388-3.106,20.45,20.45,0,0,1,9.579-4.364A13.462,13.462,0,0,1,2611.057,2307.111Z" transform="translate(-2516.53 -2307.096)" fill="#678d97"/>
        <path id="Trazado_152102" data-name="Trazado 152102" d="M2535.492,2379.059c0-2.68.038-5.36-.018-8.039-.024-1.169.226-1.582,1.492-1.19q13.508,4.187,27.051,8.271a2.231,2.231,0,0,1,1.876,2.494c-.077,5.212-.024,10.426-.034,15.637,0,1.8-.662,2.306-2.368,1.731-8.986-3.029-17.958-6.094-26.95-9.105a1.393,1.393,0,0,1-1.064-1.615C2535.514,2384.516,2535.492,2381.786,2535.492,2379.059Z" transform="translate(-2519.647 -2303.96)" fill="#f2eff2"/>
        <path id="Trazado_152103" data-name="Trazado 152103" d="M2571.633,2348.2c-6.432-.368-11.585-6.419-11.392-13.372.177-6.342,5.9-12.1,11.988-12.072a4.7,4.7,0,0,1,2.1,1.222,15.02,15.02,0,0,1,4.963,12.9.919.919,0,0,1-.476.84c-.6-.01-.915-.5-1.328-.821a4.153,4.153,0,0,0-4.9-.276,3.842,3.842,0,0,0-1.53,4.363,4.047,4.047,0,0,0,4.086,2.9c.384-.008.775-.133,1.135.1.094,1.6-1.242,2.264-2.157,3.151C2573.479,2347.773,2572.769,2348.574,2571.633,2348.2Z" transform="translate(-2518.406 -2306.312)" fill="#c7eefd"/>
        <path id="Trazado_152104" data-name="Trazado 152104" d="M2610.332,2348.207c-6.407-.272-11.765-6.263-11.646-13.024.115-6.547,5.744-12.389,11.973-12.431,3.2,1.265,4.879,3.94,6.123,6.89a15.343,15.343,0,0,1-4.393,17.737C2611.806,2347.877,2611.219,2348.433,2610.332,2348.207Z" transform="translate(-2516.479 -2306.312)" fill="#c7eefd"/>
        <path id="Trazado_152105" data-name="Trazado 152105" d="M2609.776,2348.21a12.871,12.871,0,0,0,5.907-6.547,15.036,15.036,0,0,0-3.326-17.09c-.7-.662-1.5-1.215-2.253-1.819,6.281-.728,12.653,3.955,13.7,11.18a12.943,12.943,0,0,1-9.884,14.062C2612.575,2348.313,2611.186,2348.746,2609.776,2348.21Z" transform="translate(-2515.924 -2306.316)" fill="#98e5fb"/>
        <path id="Trazado_152106" data-name="Trazado 152106" d="M2578.149,2337.656a12.534,12.534,0,0,0-.706-7.78,15.721,15.721,0,0,0-5.757-7.122,12.8,12.8,0,0,1,3.553,25.3c-1.325.3-2.748.728-4.15.144,2.161-.683,3.465-2.344,4.688-4.1a.605.605,0,0,1,.184-.383,4.881,4.881,0,0,0,2.083-5.8C2578.02,2337.834,2578.091,2337.736,2578.149,2337.656Z" transform="translate(-2517.862 -2306.313)" fill="#98e5fb"/>
        <path id="Trazado_152107" data-name="Trazado 152107" d="M2578.2,2337.045c1.146,3.034.5,4.785-2.372,6.443a4.46,4.46,0,0,1-5.181-1.954,4.282,4.282,0,0,1,.957-5.638,4.4,4.4,0,0,1,5.734.168A12.406,12.406,0,0,1,2578.2,2337.045Z" transform="translate(-2517.917 -2305.703)" fill="#537983"/>
        <path id="Trazado_152108" data-name="Trazado 152108" d="M2613.836,2339.2a4.384,4.384,0,0,1-8.765.225,4.384,4.384,0,0,1,8.765-.225Z" transform="translate(-2516.159 -2305.702)" fill="#537983"/>
      </g>
    </g>
  </g>
</svg>
