<svg xmlns="http://www.w3.org/2000/svg" xmlns:xlink="http://www.w3.org/1999/xlink" width="295" height="291.594" viewBox="0 0 295 291.594">
  <defs>
    <linearGradient id="linear-gradient" x1="0.5" x2="0.5" y2="1" gradientUnits="objectBoundingBox">
      <stop offset="0" stop-color="#00af96"/>
      <stop offset="1" stop-color="#00cbae"/>
    </linearGradient>
  </defs>
  <g id="Grupo_140197" data-name="Grupo 140197" transform="translate(-495 -1101)">
    <rect id="Rect치ngulo_35740" data-name="Rect치ngulo 35740" width="295" height="290" rx="38" transform="translate(495 1101)" fill="#0d4aad"/>
    <rect id="Rect치ngulo_35709" data-name="Rect치ngulo 35709" width="35" height="295" transform="translate(495 1354) rotate(-90)" fill="url(#linear-gradient)"/>
    <path id="Trazado_152845" data-name="Trazado 152845" d="M20.463,23.854H14.12L12.89,28H7.675L14.633,6.672h2.651v.015l.015-.015H19.95L26.923,28H21.708Zm-5.2-3.809H19.32l-1.992-6.621H17.24Zm22.28,5.581a5.21,5.21,0,0,1-1.824,1.985,4.8,4.8,0,0,1-2.585.7,4.693,4.693,0,0,1-3.86-1.729q-1.4-1.729-1.4-5.347V12.15h4.937v9.111a4.806,4.806,0,0,0,.476,2.549,1.666,1.666,0,0,0,1.472.688,4.041,4.041,0,0,0,1.392-.22,2.689,2.689,0,0,0,1.025-.659V12.15h4.951V28H38.144Zm6.65-5.522a10.079,10.079,0,0,1,1.619-5.977,5.278,5.278,0,0,1,4.563-2.271,3.935,3.935,0,0,1,1.985.505,5.249,5.249,0,0,1,1.589,1.443V5.148H58.9V28H54.564l-.337-1.934a5.329,5.329,0,0,1-1.677,1.663,4.185,4.185,0,0,1-2.2.579A5.328,5.328,0,0,1,45.8,26.14a9.372,9.372,0,0,1-1.611-5.728Zm4.951.308a6.582,6.582,0,0,0,.564,3.01,1.971,1.971,0,0,0,1.9,1.077,3.121,3.121,0,0,0,1.37-.286,2.454,2.454,0,0,0,.974-.842v-6.4A2.7,2.7,0,0,0,52.982,16a2.655,2.655,0,0,0-1.348-.337,1.976,1.976,0,0,0-1.9,1.216,7.484,7.484,0,0,0-.586,3.223ZM66.9,28H61.933V12.15H66.9Zm0-19.526H61.933V5.148H66.9Zm8.716-.264v3.94h2.5v3.428h-2.5v7.266a1.777,1.777,0,0,0,.344,1.223,1.2,1.2,0,0,0,.93.374,4.977,4.977,0,0,0,.608-.029,5.263,5.263,0,0,0,.579-.117l.337,3.662a11.952,11.952,0,0,1-1.348.271,10.854,10.854,0,0,1-1.421.081A4.948,4.948,0,0,1,71.93,27a5.755,5.755,0,0,1-1.267-4.131V15.578H68.451V12.15h2.212V8.21ZM85.707,28H80.741V12.15h4.966Zm0-19.526H80.741V5.148h4.966Zm8.965,12.993.293,1.685.088.015.322-1.7L97.47,12.15h5.2L97.514,28H92.489L87.333,12.15h5.215Zm8.613-1.538a8.378,8.378,0,0,1,2.021-5.823,8.215,8.215,0,0,1,11.294,0,8.378,8.378,0,0,1,2.021,5.823v.308a8.372,8.372,0,0,1-2.021,5.83,8.235,8.235,0,0,1-11.294,0,8.372,8.372,0,0,1-2.021-5.83Zm4.951.308a6.553,6.553,0,0,0,.623,3.127,2.215,2.215,0,0,0,2.117,1.135,2.189,2.189,0,0,0,2.08-1.143,6.5,6.5,0,0,0,.63-3.12v-.308a6.521,6.521,0,0,0-.63-3.1,2.206,2.206,0,0,0-2.109-1.165,2.175,2.175,0,0,0-2.087,1.172,6.594,6.594,0,0,0-.623,3.091Z" transform="translate(648 1319)" fill="#12263f"/>
    <g id="Grupo_139940" data-name="Grupo 139940" transform="translate(7.475)">
      <path id="Trazado_152767" data-name="Trazado 152767" d="M1130.707,49.535s-1.226.786-.354,3.233a1.144,1.144,0,0,1,.23.03c-.435,3.462-2.387,10.608-10.781,17.347-3.611,2.9-10.36,5.355-17.953,7.365l-.038-.092c-12.74,3.407-27.968,5.549-34.741,6.4l0,.048c-2,.25-3.171.375-3.171.375s-3.443,4.591-1.8,12.788a12.279,12.279,0,0,0,8.578,9.793s5.192-1.215,12.277-2.729c.8,1.819,2.623,5.507,4.441,6.286.592.254,1.555,1.683,2.726,3.694a2.984,2.984,0,0,0-.318,1.038c-.145,1.885,2.61,9.571,2.61,9.571a7.669,7.669,0,0,0,1.183,2.334c-.385,1.42-1.1,4.064-1.972,7.282-.519-.09-.826-.139-.826-.139l-6.026,22.3a45.193,45.193,0,0,1-8.487-5.337h0c-1-.761-2-1.564-3.007-2.4l-.016-.013c-1-.829-2-1.687-2.983-2.559l-.029-.025c-.978-.866-1.943-1.747-2.886-2.629l-.062-.058c-.93-.872-1.838-1.743-2.714-2.6l-.1-.1q-.637-.627-1.251-1.244l-.014-.014q-.623-.626-1.215-1.237l-.12-.124q-.524-.54-1.022-1.064l-.141-.147q-.534-.563-1.034-1.1l-.123-.134q-.428-.462-.826-.9l-.2-.219c-.292-.325-.575-.642-.842-.946l-.089-.1c-.234-.268-.456-.525-.669-.775l-.185-.218c-.228-.271-.447-.533-.646-.777l-.005-.006a10.494,10.494,0,0,0-1.632-1.6c4.687-4.443,7.635-11.261,6.921-16.768-.528-4.081-2.093-7.905-3.359-11.808.516-1.447.983-2.847,1.378-4.091a26.564,26.564,0,0,0,1.268-10.8c.166-.226,1.286-1.764,2.5-3.666.11-.165.2-.306.263-.416.575-2.167-1.679-3.429-3.582-5.657,2.532-6.01,4.8-11.254,1.1-17.133-4.372-6.955-11.9-7.13-16.018-6.613-2.71-5.345-14.764-4.058-22.587-3.93-7.678.126-12.291,2.3-16.99,14.559-1.272,2.927-2.579,6.475-3.978,10.794-2.781,8.591-8.267,14.068-14.1,18.758-8.871,6.26-18.338,10.919-21.583,21.3a29.7,29.7,0,0,0,1.879,22.229l.906-1.339c.385.88.791,1.719,1.211,2.5l.816-1.366a35.309,35.309,0,0,0,7.821,9.742,68.512,68.512,0,0,0-4.572,11c-3.627,8.421-6.952,16.547-12.749,23.5-10.335,12.4-26.046,48.785-26.046,48.785s.527.383,1.369.967c-.97,1.4-2,2.884-2.908,4.163l-.009.012-.226.319-.072.1-.215.3c-.855,1.2-1.544,2.134-1.867,2.509-3.876,4.5-18.295,26.821-.62,5.684,0,0-11.783,31.421,2.687,1.86,0,0-10.129,31.214,3.514.362,0,0-7.4,21.092,2.237,3.246.011.493.024.986.048,1.479a66.32,66.32,0,0,0,2.248,13.912q.68,2.539,1.515,5.009a99.945,99.945,0,0,0,5.218,12.478q.364.732.733,1.45.738,1.435,1.495,2.812t1.519,2.689q.763,1.313,1.526,2.557.381.622.759,1.226.758,1.208,1.5,2.342c.991,1.511,1.956,2.918,2.874,4.209.688.968,1.348,1.872,1.971,2.7s1.208,1.6,1.747,2.283q.539.687,1.01,1.272.236.293.453.558c.289.354.553.672.788.953q.176.211.331.393c.206.243.382.448.525.613.287.33.442.5.442.5h38.863l-6.2-53.746.233.424h0l.009.016q.226.414.461.837l.02.035c10.239,18.476,31.526,51.195,31.526,51.195h41.344s-.037-.182-.113-.538c-.2-.949-.693-3.137-1.538-6.421q-.317-1.232-.7-2.666c-1.8-6.691-4.741-16.633-9.21-29.061q-1.436-4-3.087-8.325-1.1-2.885-2.3-5.908-.541-1.36-1.1-2.692c-.109-.261-.219-.52-.329-.781q-.42-.992-.846-1.971c-.108-.248-.215-.5-.324-.743q-.567-1.282-1.143-2.541c-.057-.123-.115-.244-.172-.367q-.5-1.08-1.006-2.139c-.133-.28-.267-.557-.4-.835q-.417-.862-.838-1.711c-.13-.262-.26-.526-.39-.786q-.573-1.143-1.151-2.26c-.127-.246-.255-.487-.383-.731q-.411-.786-.824-1.56-.259-.484-.518-.963-.359-.662-.718-1.313c-.172-.313-.344-.627-.516-.936q-.541-.97-1.083-1.917c-.2-.355-.406-.7-.609-1.053-.193-.334-.387-.667-.58-1q-.331-.563-.661-1.116c-.167-.282-.334-.559-.5-.837a182.361,182.361,0,0,0-18.568-25.912l.319-.9h0l2.051-5.779q.911-.169,1.786-.386l.949-4.223c4.525.477,7.3.641,7.3.641l.024-.046.009-.017.071-.137.029-.056.113-.219.044-.086.15-.3.063-.125c.054-.106.109-.218.17-.339l.087-.175.171-.346.123-.251c.062-.127.127-.26.193-.4.043-.087.084-.173.128-.264l.242-.5.139-.293c.087-.184.176-.373.267-.569l.149-.32q.124-.268.253-.549c.061-.132.122-.268.185-.4l.227-.5.223-.5q.122-.275.246-.558l.169-.387c.106-.244.214-.493.322-.746.058-.136.116-.272.175-.411q.166-.391.334-.8l.173-.417c.115-.279.23-.561.347-.849l.161-.4q.153-.383.307-.775.1-.241.189-.485.153-.4.306-.8c.051-.135.1-.268.153-.4q.128-.34.255-.685h0a68.8,68.8,0,0,0,4.231-17.044c1.8-.6,4.193-.07,7.353,2.525.339.279.7.564,1.078.852.358.275.728.554,1.116.837.337.245.681.493,1.039.743.3.248.616.507.94.772l.217.177c.329.268.667.542,1.019.824l.12.1q.487.39,1,.8l.225.178q.563.445,1.155.905l.2.159q.549.425,1.12.862l.18.138q.629.48,1.284.97l.261.195q.639.478,1.3.962l.077.057q.689.5,1.4,1.014l.29.207q.72.516,1.458,1.032l.044.031c.477.333.962.667,1.45,1l.3.2q.751.51,1.517,1.016l.18.117q.709.467,1.428.928l.262.168q.775.494,1.559.978l.276.169q.731.448,1.468.886l.184.109q.795.47,1.595.923l.321.18q.809.456,1.621.894l0,0h0a68.2,68.2,0,0,0,8.068,3.734c17.057,6.444,19.331-41.314,19.331-44.347,0-.694-.881-1.369-2.231-2-.039-.915-.1-1.821-.184-2.72.074-.041.149-.082.225-.121-.2-1.179-.4-2.329-.618-3.439,3.025-1.785,5.691-6.227,5.691-6.227l-3.227-5.229c.037-.652.056-1.348.051-2.1,0-.017,0-.033,0-.05a7.312,7.312,0,0,0,1.314-3.556c0-2.623-1.656-.984-1.656-.984s.966-2.787.276-4.262-2.76.983-2.76.983,1.794-4.426-.414-4.426c-1.392,0-2.565,2.282-3.241,3.969l-.431-.7a14.183,14.183,0,0,0,2.632-5.125h0c.04-.179.07-.359.1-.54q.01-.066.017-.131c.022-.181.04-.363.045-.544v0a5.084,5.084,0,0,0-.014-.539c0-.044-.007-.088-.011-.131a4.64,4.64,0,0,0-.081-.534h0a4.167,4.167,0,0,0-.155-.518q-.023-.063-.048-.126a3.939,3.939,0,0,0-.239-.5v0c-.007-.013-.017-.024-.024-.037a142.813,142.813,0,0,1,14.205-1.913c13.28-.82,26.982,6.726,28.621,8.693a1.7,1.7,0,0,0,.188.192,1.13,1.13,0,0,1-.45.429,3.09,3.09,0,0,1,.554.5c1.671,2.046,8.04-1.251,2.192-30.918S1130.707,49.535,1130.707,49.535Zm-95.792,80.953.127-.194c.071.078.142.155.214.232l-.08.259c-.084-.1-.145-.167-.189-.216C1035.013,130.559,1034.993,130.533,1034.915,130.488Zm68.76-17.609-.054-.015c.2-.358.314-.584.314-.584S1103.833,112.507,1103.675,112.879Z" transform="translate(-423.676 1083.159)" opacity="0.2"/>
      <g id="Grupo_139939" data-name="Grupo 139939" transform="translate(482.508 1090.238)">
        <g id="Grupo_139915" data-name="Grupo 139915" transform="translate(40.622 160.961)">
          <g id="Grupo_139912" data-name="Grupo 139912">
            <path id="Trazado_152721" data-name="Trazado 152721" d="M141.528,280.018l-4.577,12.9a198.877,198.877,0,0,1,32.871,54.507c12.9,32.455,17.06,53.259,17.06,53.259H145.272S122.8,366.148,112.818,347.84l6.241,54.091H79.947S40,357.826,57.479,320.378s38.28-59.084,38.28-59.084Z" transform="translate(-53.055 -261.294)" fill="#4f3961"/>
            <path id="Trazado_152722" data-name="Trazado 152722" d="M213.365,387.316a196.976,196.976,0,0,0-15.856-31.165c-11.217,13.193-25.7,23.423-40.913,32.007,10.1,18.411,32.22,52.416,32.22,52.416h41.608S226.264,419.77,213.365,387.316Z" transform="translate(-96.599 -301.186)" fill="#402d51"/>
            <path id="Trazado_152723" data-name="Trazado 152723" d="M160.047,292.012l4.256-11.994-45.769-18.724a159,159,0,0,0-11.322,13.789C124.236,282.387,142.042,287.719,160.047,292.012Z" transform="translate(-75.831 -261.294)" fill="#402d51"/>
            <path id="Trazado_152724" data-name="Trazado 152724" d="M80.23,397.876c-6.064-13.664-9.816-28.07-9.747-43.085.056-12.163.618-24.314.968-36.47a265.218,265.218,0,0,0-13.973,26.039C40,381.809,79.947,425.914,79.947,425.914H96.075C90.368,416.806,84.605,407.733,80.23,397.876Z" transform="translate(-53.055 -285.277)" fill="#402d51"/>
          </g>
          <g id="Grupo_139913" data-name="Grupo 139913" transform="translate(17.251 28.71)">
            <path id="Trazado_152725" data-name="Trazado 152725" d="M108.6,440.283s-36.933-45.769-22.369-87.793" transform="translate(-82.826 -328.356)" fill="none" stroke="#fff" stroke-linecap="round" stroke-linejoin="round" stroke-width="1.077" stroke-dasharray="12.925" opacity="0.3"/>
            <path id="Trazado_152726" data-name="Trazado 152726" d="M131.975,392.584s-35.783-22.885-27.045-20.8,24.965,17.476,24.965,17.476" transform="translate(-91.544 -336.412)" fill="none" stroke="#fff" stroke-miterlimit="10" stroke-width="1.077" opacity="0.4"/>
            <path id="Trazado_152727" data-name="Trazado 152727" d="M192.145,343.3S170.977,362.873,156.6,369.1l8.5-5s10.818-24.133,10.4-51.594l-7.073-1.664s0,30.374-8.738,49.514" transform="translate(-113.85 -310.841)" fill="none" stroke="#fff" stroke-miterlimit="10" stroke-width="1.077" opacity="0.4"/>
          </g>
          <g id="Grupo_139914" data-name="Grupo 139914" transform="translate(31.537)">
            <path id="Trazado_152728" data-name="Trazado 152728" d="M134.827,267.983l-16.03-6.689a163.249,163.249,0,0,0-11.316,14.038c2.787,1.069,11.558,4.344,22.1,7.394Q132.413,275.429,134.827,267.983Z" transform="translate(-107.481 -261.294)" fill="#251930"/>
            <path id="Trazado_152729" data-name="Trazado 152729" d="M155.938,274.915q-2.369,7.258-5.122,14.387c9.839,2.711,22.275,4.521,31.43,2.233l1.16-5.159Z" transform="translate(-125.705 -267.022)" fill="#251930"/>
            <path id="Trazado_152730" data-name="Trazado 152730" d="M176.128,288.785l-2.67,9.537,7.248,1.526,3.051-9.537Zm3.6,8.223-3.222-.679,1.187-4.238,3.391.678Z" transform="translate(-135.227 -272.855)" fill="#934c4c"/>
          </g>
        </g>
        <g id="Grupo_139926" data-name="Grupo 139926" transform="translate(136.897 22.717)">
          <g id="Grupo_139924" data-name="Grupo 139924" transform="translate(27.322)">
            <g id="Grupo_139922" data-name="Grupo 139922" transform="translate(0 18.05)">
              <g id="Grupo_139916" data-name="Grupo 139916" transform="translate(22.959 63.462)">
                <path id="Trazado_152731" data-name="Trazado 152731" d="M315.472,176.795s-7.667,28.28-9.317,34.55,8.473,26.688,14.577,10.412c5.726-15.271,7.775-29.617,4.969-42.157,0,0,3.2-1.815,3.135-10.725s-12.21-4.29-12.21-4.29l-1.155,3.795Z" transform="translate(-305.976 -163.388)" fill="#ffa288"/>
                <path id="Trazado_152732" data-name="Trazado 152732" d="M333.819,185.977c-.379-2.259-.788-4.422-1.226-6.377,0,0,3.2-1.815,3.135-10.725s-12.21-4.29-12.21-4.29l-1.155,3.795v8.415s3.979-.482,4.177,2.989C329.124,190.116,330.847,187.533,333.819,185.977Z" transform="translate(-312.868 -163.388)" fill="#fc9d9d" opacity="0.5"/>
              </g>
              <g id="Grupo_139919" data-name="Grupo 139919" transform="translate(21.002 49.115)">
                <g id="Grupo_139917" data-name="Grupo 139917">
                  <path id="Trazado_152733" data-name="Trazado 152733" d="M302.6,143.425s2.451,6.3,4.9,7.353,11.206,22.061,15.058,22.061,8.054-7,8.054-7l-10.155-16.458s5.253-6.3,1.4-9.8S302.6,143.425,302.6,143.425Z" transform="translate(-302.599 -138.628)" fill="#fff"/>
                  <path id="Trazado_152734" data-name="Trazado 152734" d="M323.107,144.22a4.569,4.569,0,0,0-1.249-4.647c-3.852-3.5-19.259,3.852-19.259,3.852A28.33,28.33,0,0,0,305.562,149,167.933,167.933,0,0,0,323.107,144.22Z" transform="translate(-302.599 -138.628)" fill="#402d51" opacity="0.1"/>
                </g>
                <g id="Grupo_139918" data-name="Grupo 139918" transform="translate(7.32 7.46)">
                  <path id="Trazado_152735" data-name="Trazado 152735" d="M317.865,174.044s-2.773-7.736-2.627-9.633,3.357-4.962,4.816-4.67,4.087,1.751,3.941,3.357-3.5.584-3.5.584l-.876,2.627s6.131,1.022,5.693,8.174S319.179,178.423,317.865,174.044Z" transform="translate(-315.232 -154.958)" fill="#ffa288"/>
                  <path id="Trazado_152736" data-name="Trazado 152736" d="M332.233,157.276s1.667-5.775,3.889-5.775.417,4.455.417,4.455,2.083-2.475,2.777-.99-.278,4.29-.278,4.29,1.666-1.65,1.666.99-3.472,6.93-4.444,6.105,1.667-5.61,1.667-5.61-2.361,5.115-3.611,4.62,1.806-7.26,1.806-7.26-3.611,6.93-4.722,5.61S332.233,157.276,332.233,157.276Z" transform="translate(-321.888 -151.501)" fill="#ffa288"/>
                </g>
              </g>
              <g id="Grupo_139921" data-name="Grupo 139921">
                <path id="Trazado_152737" data-name="Trazado 152737" d="M268.614,89.668s44.549-4.785,56.264-14.19,10.962-19.6,10.962-19.6,9.633-1.4,15.408,27.314.95,31.395-.7,29.415-15.44-9.574-28.8-8.749-46.311,8.536-46.311,8.536a12.357,12.357,0,0,1-8.633-9.856C265.149,94.288,268.614,89.668,268.614,89.668Z" transform="translate(-266.354 -54.709)" fill="#fff"/>
                <path id="Trazado_152738" data-name="Trazado 152738" d="M282.445,131.044c7.994-1.759,22.836-4.91,33.893-6.587-.123-7.525-2.7-15.124-5.644-22.113-12.822,3.429-28.147,5.585-34.965,6.444C275.313,119.669,277.466,124.4,282.445,131.044Z" transform="translate(-270.276 -74.254)" fill="#4f3961"/>
                <g id="Grupo_139920" data-name="Grupo 139920" transform="translate(68.828)">
                  <path id="Trazado_152739" data-name="Trazado 152739" d="M403,81.775c-5.885-29.857-17.2-27.88-17.2-27.88s-1.234.792-.356,3.254c1.89,0,10.148,6.886,13.821,25.522,3.7,18.752,2.769,28.921.966,29.72a3.115,3.115,0,0,1,.558.5C402.478,114.951,408.887,111.633,403,81.775Z" transform="translate(-385.136 -53.867)" fill="#4f3961"/>
                </g>
              </g>
            </g>
            <g id="Grupo_139923" data-name="Grupo 139923" transform="translate(77.714)">
              <path id="Trazado_152740" data-name="Trazado 152740" d="M420.63,105.939c9.372-13.481,7.561-32.5-2.136-45.265a33.456,33.456,0,0,0-18.023-12.421" transform="translate(-400.471 -33.456)" fill="none" stroke="#fff" stroke-miterlimit="10" stroke-width="4.913" opacity="0.4"/>
              <path id="Trazado_152741" data-name="Trazado 152741" d="M440.208,101.769c12.843-18.475,10.361-44.54-2.927-62.032-6.17-8.121-14.746-14.462-24.7-17.021" transform="translate(-405.564 -22.717)" fill="none" stroke="#fff" stroke-miterlimit="10" stroke-width="4.913" opacity="0.4"/>
            </g>
          </g>
          <g id="Grupo_139925" data-name="Grupo 139925" transform="translate(0 94.938)">
            <path id="Trazado_152742" data-name="Trazado 152742" d="M275.855,194.868l-6.065,22.441c-9.4-4.178-23.856-18.749-28.847-24.892-5.409-6.657-19.556-5.825-19.556-5.825l-2.184,7.073,5.1,37.032s1.248-18.308,12.9-8.738c.949.78,2.045,1.6,3.252,2.447,6.969,5.76,20.608,16.235,32.734,20.816,17.166,6.485,19.455-41.579,19.455-44.631S275.855,194.868,275.855,194.868Z" transform="translate(-219.202 -186.559)" fill="#fff"/>
            <path id="Trazado_152743" data-name="Trazado 152743" d="M261.248,211.937a140.95,140.95,0,0,1-20.306-19.52c-5.409-6.657-19.556-5.825-19.556-5.825l-2.184,7.073,5.1,37.032s1.248-18.308,12.9-8.738c.949.78,2.045,1.6,3.252,2.447,5.439,4.5,14.94,11.862,24.614,17.057C264.76,231.528,263.009,221.723,261.248,211.937Z" transform="translate(-219.202 -186.559)" fill="#402d51" opacity="0.1"/>
          </g>
        </g>
        <g id="Grupo_139931" data-name="Grupo 139931" transform="translate(110.163 44.279)">
          <g id="Grupo_139927" data-name="Grupo 139927" transform="translate(13.887)">
            <path id="Trazado_152744" data-name="Trazado 152744" d="M223.473,60.679s12.758-3.9,19.036,6.085c6.865,10.922-6.709,19.66-4.681,35.107s11.234,21.377-3.433,35.576-23.092-8.27-23.092-8.27Z" transform="translate(-203.033 -59.928)" fill="#402d51"/>
            <path id="Trazado_152745" data-name="Trazado 152745" d="M202.353,115.633l-5.322,29.949s8.426,22.468,23.093,8.27c14.632-14.165,5.506-20.1,3.448-35.468A139.466,139.466,0,0,0,202.353,115.633Z" transform="translate(-197.031 -83.355)" fill="#362647"/>
            <path id="Trazado_152746" data-name="Trazado 152746" d="M239.539,99.6c-1.234,6.432-2.352,12.983-1.434,19.533.881,6.28,4.138,11.955,4.951,18.235,1.19,9.184-7.728,22-17.979,21.537-6.726-.3-11.219-7.114-13.506-12.637" transform="translate(-203.146 -76.61)" fill="none" stroke="#402d51" stroke-miterlimit="10" stroke-width="2.079"/>
          </g>
          <g id="Grupo_139928" data-name="Grupo 139928" transform="translate(0 5.355)">
            <path id="Trazado_152747" data-name="Trazado 152747" d="M206.3,69.247s7.178-.78,11.079,2.653,4.544,6.49,5.773,11.859,6.632,6.6,5.773,9.83c-.509.886-2.809,3.9-2.809,3.9a25.993,25.993,0,0,1-1.248,11.078c-2.029,6.4-5.929,16.852-8.894,17.163s-5.773-3.276-9.206,1.716-8.426,13.263-6.553,14.355-27.15-8.426-27.15-8.426S185.393,119.489,185.393,112s-9.986-10.454-9.05-26.993S206.3,69.247,206.3,69.247Z" transform="translate(-173.066 -69.171)" fill="#ffa288"/>
            <path id="Trazado_152748" data-name="Trazado 152748" d="M261.339,115.413s-4.375.541-4.531-.552,6.865-4.057,7.334-3.589C262.721,113.54,261.339,115.413,261.339,115.413Z" transform="translate(-208.282 -86.856)" fill="#fc9d9d" opacity="0.5"/>
            <path id="Trazado_152749" data-name="Trazado 152749" d="M189.71,137.623,184.6,136.9a8.756,8.756,0,0,1,.8,3.582c0,7.489-12.327,21.377-12.327,21.377s29.022,9.518,27.15,8.426,3.12-9.362,6.553-14.355,6.241-1.4,9.206-1.716C210.617,154.787,189.71,137.623,189.71,137.623Z" transform="translate(-173.066 -97.655)" fill="#ea856f" opacity="0.5"/>
          </g>
          <g id="Grupo_139930" data-name="Grupo 139930" transform="translate(34.718 14.297)">
            <g id="Grupo_139929" data-name="Grupo 139929" transform="translate(6.584 24.599)">
              <path id="Trazado_152750" data-name="Trazado 152750" d="M245.752,132.245c.115-.24,3.108-5.476,6.216-5.18s-.222,13.765-4.588,13.4S244.2,135.5,245.752,132.245Z" transform="translate(-244.343 -127.052)" fill="#db5f5f"/>
              <path id="Trazado_152751" data-name="Trazado 152751" d="M252.94,127.064c-3.108-.3-6.1,4.939-6.216,5.18-.024.05-.047.1-.071.155a6.968,6.968,0,0,1,1.171,7.977,5.07,5.07,0,0,0,.528.082C252.718,140.83,256.049,127.36,252.94,127.064Z" transform="translate(-245.314 -127.052)" fill="#f08675"/>
            </g>
            <path id="Trazado_152752" data-name="Trazado 152752" d="M235.025,102.61s3.256-4.885,4.884-4.663,1.48,4.145,1.48,4.145" transform="translate(-233.841 -90.21)" fill="none" stroke="#251930" stroke-miterlimit="10" stroke-width="2"/>
            <path id="Trazado_152753" data-name="Trazado 152753" d="M232.981,87.6s5.033-5.994,11.323-1.036" transform="translate(-232.981 -84.601)" fill="none" stroke="#251930" stroke-miterlimit="10" stroke-width="3.231"/>
          </g>
        </g>
        <g id="Grupo_139935" data-name="Grupo 139935" transform="translate(23.492 106.038)">
          <g id="Grupo_139932" data-name="Grupo 139932" transform="translate(50.16)">
            <path id="Trazado_152754" data-name="Trazado 152754" d="M166.273,166.51l14.979,6.241-6.553,9.986S184.684,193.66,185,207.7s-10.61,34.639-10.61,34.639-31.518-1.872-55.547-11.234l-6.449-12.586s4.577-39.528,36.719-42.648Z" transform="translate(-111.038 -166.51)" fill="#fff"/>
            <path id="Trazado_152755" data-name="Trazado 152755" d="M157.75,229.617c-14.25-9.5-20.783-24.344-22.764-40.4-20.692,10.592-24.929,38.646-24.929,38.646l7.8,12.794c24.029,9.362,55.547,11.234,55.547,11.234a128.273,128.273,0,0,0,6.235-14.2C171.889,236.438,164.434,234.071,157.75,229.617Z" transform="translate(-110.056 -176.059)" fill="#402d51" opacity="0.1"/>
          </g>
          <g id="Grupo_139934" data-name="Grupo 139934" transform="translate(0 9.329)">
            <g id="Grupo_139933" data-name="Grupo 139933" transform="translate(0 102.545)">
              <path id="Trazado_152756" data-name="Trazado 152756" d="M41.665,359.579s-7.556,11.087-8.894,12.639c-3.9,4.525-18.412,26.993-.624,5.721,0,0-11.859,31.622,2.7,1.872,0,0-10.194,31.414,3.536.365,0,0-8.269,23.561,3.953.052l1.872-2.7s2.912,21.844,3.745-7.073l3.536-3.121Z" transform="translate(-23.492 -359.579)" fill="#ffa288"/>
              <path id="Trazado_152757" data-name="Trazado 152757" d="M55.911,374.483c.053-1.221.1-2.558.144-4.034l3.536-3.121-9.83-7.75s-4.334,6.359-7.019,10.12C47.145,371.253,51.531,372.858,55.911,374.483Z" transform="translate(-31.588 -359.579)" fill="#f08876" opacity="0.5"/>
            </g>
            <path id="Trazado_152758" data-name="Trazado 152758" d="M121.327,182.643s-15.083-1.041-25.486,13.939-12.9,31.206-23.3,43.688-26.213,49.1-26.213,49.1,9.154,6.657,12.483,7.073c7.431.929,33.7-51.178,39.944-62.413S123.72,207.4,127.88,199.078C132.22,190.4,140.571,182.019,121.327,182.643Z" transform="translate(-33.096 -182.61)" fill="#fff"/>
          </g>
        </g>
        <g id="Grupo_139938" data-name="Grupo 139938" transform="translate(66.296 40.275)">
          <g id="Grupo_139936" data-name="Grupo 139936" transform="translate(0)">
            <path id="Trazado_152759" data-name="Trazado 152759" d="M180.764,61.518s.624,10.142-19.036,30.582c-6.793,7.062,14.206,31.959-14.043,35.887-23.561,3.277-30.738,17.788-33.7,23.561,0,0-15.291-11.547-11.39-29.8s28.554-22,34.639-43.533,10.922-24.809,20.44-24.965S182.949,51.22,180.764,61.518Z" transform="translate(-99.294 -53.018)" fill="#4f3961"/>
            <path id="Trazado_152760" data-name="Trazado 152760" d="M159.092,139.271c-.63,2.775-.584,5.709-1.432,8.435-2.719,8.732-12.677,9.138-20.428,9.574-3.414.192-6.768.669-10.167.983-2.384.22-4.939.292-7.134-.83A20.763,20.763,0,0,1,112.5,150.3a32.035,32.035,0,0,1-3.088-5.822,24.944,24.944,0,0,0-6.815,12.122c-3.9,18.256,11.39,29.8,11.39,29.8,2.964-5.773,10.142-20.284,33.7-23.561,20.562-2.86,15.033-16.827,13.12-26.94A7.216,7.216,0,0,0,159.092,139.271Z" transform="translate(-99.294 -87.875)" fill="#402d51"/>
            <path id="Trazado_152761" data-name="Trazado 152761" d="M103.861,143.977a30.24,30.24,0,0,1-2.878-22.227c4.647-18.058,27.9-20.41,34.771-41.626S147.326,55.9,156.233,56.286" transform="translate(-98.479 -54.38)" fill="none" stroke="#4f3961" stroke-miterlimit="10" stroke-width="3.132"/>
            <path id="Trazado_152762" data-name="Trazado 152762" d="M100.613,143.989a29.889,29.889,0,0,1-1.891-22.371c5.565-17.8,29.315-18.876,37.285-39.705S148.9,58.335,157.936,59.2" transform="translate(-97.362 -55.562)" fill="none" stroke="#4f3961" stroke-miterlimit="10" stroke-width="2.107"/>
            <path id="Trazado_152763" data-name="Trazado 152763" d="M188.521,64.482c-.4,21-8.517,16.992-16.163,31.659-7.777,14.92,11.079,34.015-14.511,36.824-24.462,2.685-31.362,16.227-34.327,22" transform="translate(-108.362 -57.839)" fill="none" stroke="#4f3961" stroke-miterlimit="10" stroke-width="5.956"/>
            <path id="Trazado_152764" data-name="Trazado 152764" d="M203.646,102.3s-4.681,13.887-.936,19.036a43.918,43.918,0,0,1,6.241-19.192C212.035,97.035,203.646,102.3,203.646,102.3Z" transform="translate(-141.055 -72.741)" fill="#4f3961"/>
          </g>
          <g id="Grupo_139937" data-name="Grupo 139937" transform="translate(54.259 27.097)">
            <path id="Trazado_152765" data-name="Trazado 152765" d="M196.177,110.468a24.344,24.344,0,0,1,1.8-9.566s-2.7-2.926-5.74.675-.035,13.411,4.129,12.061Z" transform="translate(-190.999 -99.781)" fill="#ffa288"/>
            <path id="Trazado_152766" data-name="Trazado 152766" d="M196.543,113.277s-2.887-1.648-.433-2.609c0,0,2.309-5.767.144-6.454s-2.454,2.472-2.454,2.472" transform="translate(-192.177 -101.604)" fill="none" stroke="#e58484" stroke-miterlimit="10" stroke-width="0.972"/>
          </g>
        </g>
      </g>
    </g>
  </g>
</svg>
