<svg xmlns="http://www.w3.org/2000/svg" width="295" height="290" viewBox="0 0 295 290">
  <g id="Grupo_140198" data-name="Grupo 140198" transform="translate(-810 -1101)">
    <rect id="Rect치ngulo_35741" data-name="Rect치ngulo 35741" width="295" height="290" rx="38" transform="translate(810 1101)" fill="#0d4aad"/>
    <rect id="Rect치ngulo_35710" data-name="Rect치ngulo 35710" width="35" height="295" transform="translate(810 1354) rotate(-90)" fill="#00cbae"/>
    <g id="Grupo_139911" data-name="Grupo 139911" transform="translate(688.856 1021.874)">
      <path id="Trazado_152662" data-name="Trazado 152662" d="M405.206,413.567l-.12,1.121-4.255,1.551-81.779,29.966a8.915,8.915,0,0,1-1.125.329,9.012,9.012,0,0,1-1.763.205,8.878,8.878,0,0,1-3.341-.611l-59.108-23.517c-.035,0-.065-.013-.094-.017-4.31-1.05-4.544-7.14-.38-8.661l10.783-3.949,4.375-1.507,1.963-.674,39.182,22.718a4.857,4.857,0,0,0,1.725.59,4.8,4.8,0,0,0,1.581-.058L400.9,412.808l4.278.754Z" transform="translate(-10.809 -131.114)" opacity="0.2"/>
      <g id="Grupo_139906" data-name="Grupo 139906" transform="translate(240.155 236.81)">
        <path id="Trazado_152663" data-name="Trazado 152663" d="M259.892,378.558c-.517,3.956-2.738,6.928-4.96,6.638s-3.6-3.733-3.087-7.689,2.738-6.928,4.96-6.637S260.408,374.6,259.892,378.558Z" transform="translate(-251.498 -354.656)" fill="#6ecbd0"/>
        <path id="Trazado_152664" data-name="Trazado 152664" d="M311.769,416.962l-55.321-32.078,91.242-14.839,60.287,28.2-92.9,19.253A4.694,4.694,0,0,1,311.769,416.962Z" transform="translate(-253.189 -354.367)" fill="#6ecbd0"/>
        <path id="Trazado_152665" data-name="Trazado 152665" d="M406.152,402.759,406,403.877l-.077.57-.344.07-3.871.8L313.026,423.7a4.621,4.621,0,0,1-1.575.058,4.823,4.823,0,0,1-1.725-.59L268.8,399.433l-14.4-8.349c-2.188-.7-3.307-3.369-2.979-7.005.015-.2.04-.416.067-.628.038-.288.088-.566.139-.838a10.752,10.752,0,0,0,0,1.277c.185,2.97,1.636,5.211,3,5.506l1.865,1.081,14.28,8.282,39.182,22.717a4.857,4.857,0,0,0,1.725.59,4.8,4.8,0,0,0,1.581-.058L401.3,403.764Z" transform="translate(-251.364 -358.88)" fill="#4b9692"/>
        <path id="Trazado_152666" data-name="Trazado 152666" d="M408.215,384.184l-.062.443-1.83,12.753-.122.835-91.577,18.98a4.679,4.679,0,0,1-1.577.049v0l-.04-.007c-.058-.008-.114-.018-.171-.029a4.481,4.481,0,0,1-.458-.1,4.594,4.594,0,0,1-1.058-.447l-53.938-31.276-.331-.194a3.5,3.5,0,0,1-.711-.664c-1.113-1.374-1.663-3.867-1.305-6.606.419-3.209,1.956-5.772,3.709-6.471a2.486,2.486,0,0,1,1.25-.167l0-.026,1.524.135,51.955,30.128a4.705,4.705,0,0,0,3.309.535l87.768-18.19Z" transform="translate(-252.642 -354.802)" fill="#f4e9dc"/>
        <path id="Trazado_152667" data-name="Trazado 152667" d="M315.027,402.082l-1.981,15.163a4.515,4.515,0,0,1-.669-.139,4.594,4.594,0,0,1-1.058-.447l-53.938-31.276-.331-.194a3.5,3.5,0,0,1-.711-.664c-1.113-1.374-1.663-3.867-1.305-6.606.419-3.209,1.956-5.772,3.709-6.471a2.486,2.486,0,0,1,1.25-.167l0-.026,1.524.135,51.955,30.128A4.623,4.623,0,0,0,315.027,402.082Z" transform="translate(-252.642 -354.802)" fill="#ead9c7"/>
        <path id="Trazado_152668" data-name="Trazado 152668" d="M411.494,373.585l-92.9,19.255a4.742,4.742,0,0,1-3.312-.537L278.6,371.03l-18.64-10.808,89.571-14.564c.017,0,.035-.008.058-.01a5.467,5.467,0,0,1,3.149.455l.042.02L376.8,357.359h.006Z" transform="translate(-254.45 -345.585)" fill="#6ecbd0"/>
        <path id="Trazado_152669" data-name="Trazado 152669" d="M376.8,357.359q-6.69,1.692-13.363,3.378-13.149,3.317-26.292,6.638c-4.936,1.243-9.846,2.607-14.741,4.005q-3.676,1.053-7.345,2.117a8.78,8.78,0,0,1-3.054.569c-1.094-.057-2.174-.249-3.263-.319-1.831-.11-3.659-.326-5.483-.49q-7.063-.641-14.12-1.277-5.27-.479-10.538-.951l-18.64-10.808,89.571-14.564c.017,0,.035-.008.058-.01a5.467,5.467,0,0,1,3.149.455l.042.02Z" transform="translate(-254.45 -345.585)" opacity="0.5" style="mix-blend-mode: overlay;isolation: isolate"/>
        <path id="Trazado_152670" data-name="Trazado 152670" d="M349.451,346.29a5.489,5.489,0,0,1,3.207.446l57.84,27.056,1-.206L352.74,346.1a5.489,5.489,0,0,0-3.207-.446l-89.57,14.568.835.484Z" transform="translate(-254.452 -345.585)" opacity="0.5" style="mix-blend-mode: overlay;isolation: isolate"/>
        <path id="Trazado_152671" data-name="Trazado 152671" d="M318.739,399.764a4.7,4.7,0,0,1-3.307-.536L261.6,368.011l-1.631.265,55.321,32.078a4.69,4.69,0,0,0,3.307.536l92.9-19.253-1.623-.759Z" transform="translate(-254.452 -353.637)" fill="#fff" opacity="0.3"/>
        <path id="Trazado_152672" data-name="Trazado 152672" d="M408.67,381.774l-.2,1.55-1.328.277-91.573,18.976a4.648,4.648,0,0,1-1.755.028,4.818,4.818,0,0,1-1.554-.563l-52.266-30.306-1.44-.836-.822-.477-.694-.4a.806.806,0,0,0-.1-.017c-2.073-.271-4.143,2.3-4.831,5.851.017-.263.043-.526.079-.8.517-3.955,2.738-6.928,4.958-6.638v0l.012.006,1.672.97,1.68.975,51.955,30.128a4.706,4.706,0,0,0,3.309.535l87.768-18.19Z" transform="translate(-251.63 -353.776)" fill="#4b9692"/>
        <path id="Trazado_152673" data-name="Trazado 152673" d="M346.907,433.294l92.9-19.253-.221,1.688-92.9,19.254a4.791,4.791,0,0,1-1.579.055l.221-1.688A4.777,4.777,0,0,0,346.907,433.294Z" transform="translate(-285.022 -370.163)" fill="#57adab"/>
        <path id="Trazado_152674" data-name="Trazado 152674" d="M443.237,389.267l-.2,1.55-92.9,19.253a4.649,4.649,0,0,1-1.755.028l.2-1.549a4.653,4.653,0,0,0,1.756-.028Z" transform="translate(-286.196 -361.269)" fill="#57adab"/>
      </g>
      <g id="Grupo_139907" data-name="Grupo 139907" transform="translate(226.526 186.523)">
        <path id="Trazado_152675" data-name="Trazado 152675" d="M239.151,356.131c1.2,3.8.44,7.436-1.7,8.11s-4.842-1.865-6.042-5.669-.44-7.436,1.7-8.11S237.951,352.326,239.151,356.131Z" transform="translate(-230.367 -297.009)" fill="#7c48af"/>
        <path id="Trazado_152676" data-name="Trazado 152676" d="M304.583,348.757l-63.689-5.749,76.468-51.942,66.556.138-76.11,56.643A4.7,4.7,0,0,1,304.583,348.757Z" transform="translate(-233.976 -275.722)" fill="#7c48af"/>
        <path id="Trazado_152677" data-name="Trazado 152677" d="M380.792,291.282l.512,1.624L305.194,349.55a4.693,4.693,0,0,1-3.222.91l-63.692-5.75c-2.409.3-4.662-1.886-5.862-5.691-.087-.276-.159-.547-.228-.82,1.307,3.351,4.028,5.242,5.577,4.887l2.141.2,61.551,5.555a4.7,4.7,0,0,0,3.222-.909Z" transform="translate(-230.851 -275.8)" fill="#533184"/>
        <path id="Trazado_152678" data-name="Trazado 152678" d="M376.007,270.26l.131.427,3.72,12.335.242.808-75.025,55.838a4.655,4.655,0,0,1-1.41.71v0l-.039.011c-.056.017-.112.031-.167.046a4.676,4.676,0,0,1-.459.1,4.614,4.614,0,0,1-1.148.04l-62.1-5.605-.382-.036a3.483,3.483,0,0,1-.926-.3c-1.588-.776-3.138-2.8-3.969-5.439-.973-3.086-.661-6.059.634-7.431a2.485,2.485,0,0,1,1.062-.679l-.008-.024,1.438-.521,59.815,5.4a4.705,4.705,0,0,0,3.226-.91l71.905-53.514Z" transform="translate(-231.467 -268.253)" fill="#f4e9dc"/>
        <path id="Trazado_152679" data-name="Trazado 152679" d="M299.066,353.96l4.6,14.584a4.515,4.515,0,0,1-.665.156,4.611,4.611,0,0,1-1.148.04l-62.1-5.605-.382-.036a3.481,3.481,0,0,1-.926-.3c-1.588-.776-3.138-2.8-3.969-5.439-.973-3.086-.661-6.059.634-7.431a2.485,2.485,0,0,1,1.062-.679l-.008-.024,1.438-.521,59.815,5.4A4.617,4.617,0,0,0,299.066,353.96Z" transform="translate(-231.467 -296.417)" fill="#ead9c7"/>
        <path id="Trazado_152680" data-name="Trazado 152680" d="M376.658,267.262l-25.47,18.951-50.645,37.7a4.679,4.679,0,0,1-3.223.908l-63.69-5.751,36.253-24.631,38.813-26.36a5.492,5.492,0,0,1,3.1-.945Z" transform="translate(-231.368 -267.128)" fill="#7c48af"/>
        <path id="Trazado_152681" data-name="Trazado 152681" d="M308.891,268.686a5.492,5.492,0,0,1,3.1-.949l63.854.133.815-.607-64.862-.135a5.483,5.483,0,0,0-3.1.949l-75.067,50.99.961.087Z" transform="translate(-231.369 -267.128)" opacity="0.5" style="mix-blend-mode: overlay;isolation: isolate"/>
        <path id="Trazado_152682" data-name="Trazado 152682" d="M300.2,322.9a4.692,4.692,0,0,1-3.224.91L235,318.211l-1.367.929,63.689,5.749a4.693,4.693,0,0,0,3.225-.91l76.11-56.643-1.791,0Z" transform="translate(-231.369 -267.202)" fill="#fff" opacity="0.3"/>
        <path id="Trazado_152683" data-name="Trazado 152683" d="M375.388,267.336l.47,1.49-1.088.811L299.748,325.47a4.667,4.667,0,0,1-1.579.766,4.815,4.815,0,0,1-1.647.144l-60.172-5.431-1.659-.151-.946-.085-.8-.074a.828.828,0,0,0-.1.027c-1.994.629-2.788,3.83-1.911,7.343-.1-.246-.183-.5-.265-.755-1.2-3.8-.439-7.437,1.7-8.111v0h.013l1.925.174,1.934.175,59.815,5.4a4.7,4.7,0,0,0,3.226-.91l71.905-53.514Z" transform="translate(-230.101 -267.203)" fill="#533184"/>
        <path id="Trazado_152684" data-name="Trazado 152684" d="M344.5,347.926l76.109-56.644.512,1.624L345.012,349.55a4.786,4.786,0,0,1-1.408.717l-.512-1.624A4.8,4.8,0,0,0,344.5,347.926Z" transform="translate(-270.669 -275.8)" fill="#6b3e9e"/>
        <path id="Trazado_152685" data-name="Trazado 152685" d="M413.254,267.336l.47,1.49-76.11,56.644a4.667,4.667,0,0,1-1.579.766l-.47-1.49a4.661,4.661,0,0,0,1.579-.766Z" transform="translate(-267.967 -267.203)" fill="#6b3e9e"/>
      </g>
      <path id="Trazado_152686" data-name="Trazado 152686" d="M396.966,267.262,371.5,286.213l-60.219,19.605a8.416,8.416,0,0,1-1.6.263,9.115,9.115,0,0,1-1.324-.006,8.869,8.869,0,0,1-3.27-.924l-14.891-10.716,38.813-26.36a5.492,5.492,0,0,1,3.1-.945Z" transform="translate(-25.15 -80.606)" opacity="0.5" style="mix-blend-mode: overlay;isolation: isolate"/>
      <g id="Grupo_139908" data-name="Grupo 139908" transform="translate(220.144 151.184)">
        <ellipse id="Elipse_5016" data-name="Elipse 5016" cx="7.224" cy="4.058" rx="7.224" ry="4.058" transform="matrix(0.078, -0.997, 0.997, 0.078, 0, 34.961)" fill="#e26f7a"/>
        <path id="Trazado_152687" data-name="Trazado 152687" d="M283.08,285.257l-56.9-29.182,90.355-19.525L378.195,261.6l-91.784,24.019A4.7,4.7,0,0,1,283.08,285.257Z" transform="translate(-222.311 -220.811)" fill="#e26f7a"/>
        <path id="Trazado_152688" data-name="Trazado 152688" d="M376.241,268.831l-.133,1.7-91.784,24.02a4.686,4.686,0,0,1-3.328-.364L224.092,265c-2.347-.624-3.616-3.5-3.3-7.472.023-.289.058-.568.1-.847-.044,3.6,1.772,6.369,3.341,6.62l1.913.983,54.991,28.2a4.69,4.69,0,0,0,3.328.363Z" transform="translate(-220.358 -228.04)" fill="#b5475c"/>
        <path id="Trazado_152689" data-name="Trazado 152689" d="M377.509,250.038l-.039.445-1.17,12.83-.079.839-90.476,23.678a4.661,4.661,0,0,1-1.573.13v0l-.04,0c-.058-.005-.115-.012-.172-.02a4.542,4.542,0,0,1-.463-.079,4.61,4.61,0,0,1-1.079-.392l-55.479-28.452-.341-.176a3.478,3.478,0,0,1-.745-.626c-1.182-1.314-1.86-3.776-1.644-6.53.253-3.226,1.656-5.866,3.371-6.654a2.489,2.489,0,0,1,1.24-.231l0-.026,1.529.056,53.439,27.408a4.707,4.707,0,0,0,3.332.364l86.713-22.693Z" transform="translate(-221.589 -223.763)" fill="#f4e9dc"/>
        <path id="Trazado_152690" data-name="Trazado 152690" d="M285.37,272.719l-1.2,15.245a4.677,4.677,0,0,1-1.755-.5l-55.479-28.452-.341-.176a3.478,3.478,0,0,1-.745-.626c-1.182-1.314-1.86-3.776-1.644-6.53.253-3.226,1.656-5.866,3.371-6.654a2.489,2.489,0,0,1,1.24-.231l0-.026,1.529.056,53.439,27.408A4.624,4.624,0,0,0,285.37,272.719Z" transform="translate(-221.589 -223.763)" fill="#ead9c7"/>
        <path id="Trazado_152691" data-name="Trazado 152691" d="M380.431,236.815l-91.786,24.019a4.712,4.712,0,0,1-3.33-.367l-56.9-29.179,23.592-5.1,65.108-14.073a5.476,5.476,0,0,1,3.225.281l18.2,7.4Z" transform="translate(-223.113 -211.995)" fill="#e26f7a"/>
        <path id="Trazado_152692" data-name="Trazado 152692" d="M317.061,212.755a5.49,5.49,0,0,1,3.226.28l59.158,24.036.983-.258L320.337,212.4a5.491,5.491,0,0,0-3.226-.279l-88.7,19.168.859.44Z" transform="translate(-223.112 -211.995)" opacity="0.5" style="mix-blend-mode: overlay;isolation: isolate"/>
        <path id="Trazado_152693" data-name="Trazado 152693" d="M288.733,270.312a4.693,4.693,0,0,1-3.33-.365l-55.376-28.4-1.615.349,56.9,29.182a4.694,4.694,0,0,0,3.33.365l91.785-24.019-1.659-.674Z" transform="translate(-223.112 -222.605)" fill="#fff" opacity="0.3"/>
        <path id="Trazado_152694" data-name="Trazado 152694" d="M377.825,247.616l-.122,1.558-1.312.345-90.471,23.675a4.666,4.666,0,0,1-1.752.119,4.822,4.822,0,0,1-1.581-.483l-53.76-27.57-1.482-.761-.845-.434-.714-.368a.922.922,0,0,0-.1-.012c-2.084-.163-4.019,2.507-4.522,6.094,0-.265.015-.528.037-.8.312-3.977,2.377-7.06,4.61-6.885v0l.012.005,1.72.882,1.729.888,53.439,27.408a4.707,4.707,0,0,0,3.332.364l86.713-22.693Z" transform="translate(-220.509 -222.799)" fill="#b5475c"/>
        <path id="Trazado_152695" data-name="Trazado 152695" d="M319.192,299.655l91.784-24.019-.133,1.7-91.784,24.02a4.777,4.777,0,0,1-1.574.137l.133-1.7A4.777,4.777,0,0,0,319.192,299.655Z" transform="translate(-255.093 -234.844)" fill="#cc5466"/>
        <path id="Trazado_152696" data-name="Trazado 152696" d="M413.119,250.714,413,252.272l-91.783,24.02a4.666,4.666,0,0,1-1.752.119l.122-1.558a4.664,4.664,0,0,0,1.751-.119Z" transform="translate(-255.803 -225.896)" fill="#cc5466"/>
      </g>
      <path id="Trazado_152697" data-name="Trazado 152697" d="M370.017,227.217l-44.966,9.669a19.945,19.945,0,0,1-8.265.095l-3.666-.767-6.291-1.316-8-1.674-8.788-1.838-8.659-1.812-7.613-1.593-5.649-1.182-2.766-.579-.133-.028,65.108-14.073a5.476,5.476,0,0,1,3.225.281Z" transform="translate(-16.185 -60.81)" opacity="0.5" style="mix-blend-mode: overlay;isolation: isolate"/>
      <g id="Grupo_139909" data-name="Grupo 139909" transform="translate(233.366 99.19)">
        <path id="Trazado_152698" data-name="Trazado 152698" d="M249.434,206.009c.751,3.918-.426,7.436-2.627,7.858s-4.593-2.413-5.344-6.332.426-7.436,2.627-7.858S248.684,202.091,249.434,206.009Z" transform="translate(-240.94 -155.562)" fill="#f29c3d"/>
        <path id="Trazado_152699" data-name="Trazado 152699" d="M312.247,211.065l-62.591-13.1,81.979-42.716,66.091,7.861-82.17,47.428A4.692,4.692,0,0,1,312.247,211.065Z" transform="translate(-243.963 -139.625)" fill="#f29c3d"/>
        <path id="Trazado_152700" data-name="Trazado 152700" d="M394.938,167.513l.32,1.672-82.169,47.428a4.69,4.69,0,0,1-3.305.529l-62.595-13.1c-2.428.019-4.411-2.415-5.162-6.333-.054-.285-.094-.563-.131-.842.91,3.48,3.393,5.674,4.972,5.5l2.1.442,60.49,12.661a4.686,4.686,0,0,0,3.305-.529Z" transform="translate(-241.176 -144.029)" fill="#c16f25"/>
        <path id="Trazado_152701" data-name="Trazado 152701" d="M392.034,145.655l.079.44,2.264,12.683.146.83-81,46.753a4.679,4.679,0,0,1-1.483.541v0l-.04.006c-.057.01-.114.018-.171.026a4.566,4.566,0,0,1-.467.046,4.625,4.625,0,0,1-1.145-.093l-61.027-12.774-.376-.079a3.514,3.514,0,0,1-.884-.408c-1.488-.954-2.792-3.15-3.312-5.863-.608-3.178.047-6.095,1.492-7.308a2.489,2.489,0,0,1,1.134-.551l0-.025,1.489-.351,58.784,12.307a4.622,4.622,0,0,0,1.652.047,4.67,4.67,0,0,0,1.658-.577l77.63-44.808Z" transform="translate(-242.073 -136.181)" fill="#f4e9dc"/>
        <path id="Trazado_152702" data-name="Trazado 152702" d="M309.167,210.862l2.876,15.019a4.5,4.5,0,0,1-.679.078,4.625,4.625,0,0,1-1.145-.093l-61.027-12.774-.376-.079a3.514,3.514,0,0,1-.884-.408c-1.488-.954-2.792-3.15-3.312-5.863-.608-3.178.047-6.095,1.492-7.308a2.489,2.489,0,0,1,1.134-.551l0-.025,1.489-.351,58.784,12.307A4.622,4.622,0,0,0,309.167,210.862Z" transform="translate(-242.073 -155.158)" fill="#ead9c7"/>
        <path id="Trazado_152703" data-name="Trazado 152703" d="M393.291,138.576,311.123,186a4.7,4.7,0,0,1-3.308.529l-62.6-13.105,6.74-3.514L325.7,131.5a5.51,5.51,0,0,1,3.187-.585l14.238,1.695Z" transform="translate(-242.369 -130.874)" fill="#f29c3d"/>
        <path id="Trazado_152704" data-name="Trazado 152704" d="M325.819,132.124a5.486,5.486,0,0,1,3.185-.583l63.408,7.543.881-.508-64.408-7.662a5.49,5.49,0,0,0-3.185.583L245.222,173.43l.945.2Z" transform="translate(-242.371 -130.875)" opacity="0.5" style="mix-blend-mode: overlay;isolation: isolate"/>
        <path id="Trazado_152705" data-name="Trazado 152705" d="M310.908,189.083a4.7,4.7,0,0,1-3.308.529l-60.912-12.751-1.466.763,62.592,13.1a4.693,4.693,0,0,0,3.308-.529l82.17-47.427-1.779-.212Z" transform="translate(-242.371 -135.07)" fill="#fff" opacity="0.3"/>
        <path id="Trazado_152706" data-name="Trazado 152706" d="M391.694,142.887l.294,1.534-1.175.68-80.995,46.748a4.664,4.664,0,0,1-1.658.577,4.824,4.824,0,0,1-1.652-.047L247.374,180l-1.631-.342-.93-.195-.786-.166a.887.887,0,0,0-.1.015c-2.053.393-3.213,3.48-2.751,7.072-.066-.256-.124-.513-.176-.781-.75-3.918.427-7.437,2.626-7.858v0l.013,0,1.892.4,1.9.4,58.784,12.307a4.621,4.621,0,0,0,1.652.047,4.669,4.669,0,0,0,1.658-.578l77.63-44.808Z" transform="translate(-240.773 -135.187)" fill="#c16f25"/>
        <path id="Trazado_152707" data-name="Trazado 152707" d="M351.638,214.941l82.17-47.428.32,1.672-82.169,47.428a4.793,4.793,0,0,1-1.481.548l-.32-1.672A4.779,4.779,0,0,0,351.638,214.941Z" transform="translate(-280.046 -144.029)" fill="#db842e"/>
        <path id="Trazado_152708" data-name="Trazado 152708" d="M429.277,142.887l.294,1.534L347.4,191.849a4.663,4.663,0,0,1-1.657.577l-.294-1.534a4.67,4.67,0,0,0,1.658-.578Z" transform="translate(-278.357 -135.187)" fill="#db842e"/>
      </g>
      <path id="Trazado_152709" data-name="Trazado 152709" d="M359.933,134.158l-40.686,27.936a8.974,8.974,0,0,1-2.335,1.772,8.815,8.815,0,0,1-3.266.957l-57.913,5.091L329.473,131.5a5.511,5.511,0,0,1,3.188-.585Z" transform="translate(-12.778 -31.685)" opacity="0.5" style="mix-blend-mode: overlay;isolation: isolate"/>
    </g>
    <path id="Trazado_152844" data-name="Trazado 152844" d="M10.434,24.191h9.155V28H5.483V6.672h4.951Zm18.545,4.116a7.358,7.358,0,0,1-5.647-2.183A7.762,7.762,0,0,1,21.289,20.6v-.557a8.869,8.869,0,0,1,1.926-5.918,6.843,6.843,0,0,1,5.574-2.271,6.419,6.419,0,0,1,4.973,1.919,7.47,7.47,0,0,1,1.765,5.259v2.593H26.445l-.029.088a3.078,3.078,0,0,0,.923,2.014,3.223,3.223,0,0,0,2.314.769,10.031,10.031,0,0,0,2.366-.234,14.913,14.913,0,0,0,2.161-.747l1.187,3.018a9.061,9.061,0,0,1-2.754,1.26A12.709,12.709,0,0,1,28.979,28.308Zm-.19-12.642a2.043,2.043,0,0,0-1.75.754,3.785,3.785,0,0,0-.652,2.043l.029.073h4.277v-.381a3.294,3.294,0,0,0-.432-1.86A1.656,1.656,0,0,0,28.789,15.666ZM44.4,24.5a1.936,1.936,0,0,0,1.509-.549,2.289,2.289,0,0,0,.5-1.589h4.512l.029.088a5.2,5.2,0,0,1-1.794,4.226A6.924,6.924,0,0,1,44.4,28.308a7.012,7.012,0,0,1-5.574-2.234,8.518,8.518,0,0,1-1.956-5.823v-.337A8.545,8.545,0,0,1,38.823,14.1a6.96,6.96,0,0,1,5.552-2.241A6.817,6.817,0,0,1,49.2,13.535a5.785,5.785,0,0,1,1.75,4.592l-.029.088H46.411a3.067,3.067,0,0,0-.513-1.838,1.757,1.757,0,0,0-1.523-.71,2.035,2.035,0,0,0-2,1.15,7.111,7.111,0,0,0-.564,3.1v.337a7.085,7.085,0,0,0,.564,3.12A2.066,2.066,0,0,0,44.4,24.5ZM58.657,8.21v3.94h2.5v3.428h-2.5v7.266A1.777,1.777,0,0,0,59,24.067a1.2,1.2,0,0,0,.93.374,4.977,4.977,0,0,0,.608-.029,5.263,5.263,0,0,0,.579-.117l.337,3.662a11.952,11.952,0,0,1-1.348.271,10.854,10.854,0,0,1-1.421.081A4.948,4.948,0,0,1,54.973,27a5.755,5.755,0,0,1-1.267-4.131V15.578H51.494V12.15h2.212V8.21ZM62.9,19.929a8.378,8.378,0,0,1,2.021-5.823,7.194,7.194,0,0,1,5.64-2.249,7.212,7.212,0,0,1,5.654,2.249,8.378,8.378,0,0,1,2.021,5.823v.308a8.372,8.372,0,0,1-2.021,5.83A7.188,7.188,0,0,1,70.6,28.308a7.243,7.243,0,0,1-5.669-2.241,8.372,8.372,0,0,1-2.021-5.83Zm4.951.308a6.553,6.553,0,0,0,.623,3.127A2.215,2.215,0,0,0,70.6,24.5a2.189,2.189,0,0,0,2.08-1.143,6.5,6.5,0,0,0,.63-3.12v-.308a6.521,6.521,0,0,0-.63-3.1,2.206,2.206,0,0,0-2.109-1.165,2.175,2.175,0,0,0-2.087,1.172,6.594,6.594,0,0,0-.623,3.091Zm19.6,8.071a7.358,7.358,0,0,1-5.647-2.183A7.762,7.762,0,0,1,79.765,20.6v-.557a8.869,8.869,0,0,1,1.926-5.918,6.843,6.843,0,0,1,5.574-2.271,6.419,6.419,0,0,1,4.973,1.919A7.47,7.47,0,0,1,94,19.035v2.593H84.921l-.029.088a3.078,3.078,0,0,0,.923,2.014,3.223,3.223,0,0,0,2.314.769,10.031,10.031,0,0,0,2.366-.234,14.913,14.913,0,0,0,2.161-.747l1.187,3.018a9.061,9.061,0,0,1-2.754,1.26A12.709,12.709,0,0,1,87.456,28.308Zm-.19-12.642a2.043,2.043,0,0,0-1.75.754,3.785,3.785,0,0,0-.652,2.043l.029.073h4.277v-.381a3.294,3.294,0,0,0-.432-1.86A1.656,1.656,0,0,0,87.265,15.666Zm17.095,7.881a1.292,1.292,0,0,0-.667-1.047,7.188,7.188,0,0,0-2.424-.828,9.57,9.57,0,0,1-4.175-1.677,3.8,3.8,0,0,1-1.406-3.127,4.457,4.457,0,0,1,1.758-3.552,7.23,7.23,0,0,1,4.761-1.458,8.175,8.175,0,0,1,5.039,1.414,4.156,4.156,0,0,1,1.787,3.655l-.029.088h-4.8a1.963,1.963,0,0,0-.469-1.421,2.074,2.074,0,0,0-1.538-.483,2.012,2.012,0,0,0-1.3.425,1.332,1.332,0,0,0-.527,1.084,1.29,1.29,0,0,0,.608,1.069,6.877,6.877,0,0,0,2.454.791,9.857,9.857,0,0,1,4.307,1.707,3.914,3.914,0,0,1,1.392,3.215,4.2,4.2,0,0,1-1.9,3.523,8.321,8.321,0,0,1-5.017,1.384,7.524,7.524,0,0,1-5.12-1.641A4.52,4.52,0,0,1,95.292,23l.029-.088H99.8a1.987,1.987,0,0,0,.681,1.626,3,3,0,0,0,1.853.5,2.474,2.474,0,0,0,1.509-.388A1.3,1.3,0,0,0,104.36,23.547Zm13.872.952a1.936,1.936,0,0,0,1.509-.549,2.289,2.289,0,0,0,.5-1.589h4.512l.029.088a5.2,5.2,0,0,1-1.794,4.226,6.924,6.924,0,0,1-4.753,1.633,7.012,7.012,0,0,1-5.574-2.234,8.518,8.518,0,0,1-1.956-5.823v-.337a8.545,8.545,0,0,1,1.948-5.815,6.96,6.96,0,0,1,5.552-2.241,6.817,6.817,0,0,1,4.827,1.677,5.785,5.785,0,0,1,1.75,4.592l-.029.088h-4.512a3.067,3.067,0,0,0-.513-1.838,1.757,1.757,0,0,0-1.523-.71,2.035,2.035,0,0,0-2,1.15,7.111,7.111,0,0,0-.564,3.1v.337a7.085,7.085,0,0,0,.564,3.12A2.066,2.066,0,0,0,118.232,24.5Zm17.329-8.13-1.611-.015a2.744,2.744,0,0,0-1.392.315,1.943,1.943,0,0,0-.806.886V28H126.8V12.15h4.658l.176,2.329a4.779,4.779,0,0,1,1.318-1.934,2.893,2.893,0,0,1,1.919-.688,3.681,3.681,0,0,1,.6.044,4.543,4.543,0,0,1,.557.132Zm7,11.631H137.6V12.15h4.966Zm0-19.526H137.6V5.148h4.966Zm8.716-.264v3.94h2.5v3.428h-2.5v7.266a1.777,1.777,0,0,0,.344,1.223,1.2,1.2,0,0,0,.93.374,4.977,4.977,0,0,0,.608-.029,5.263,5.263,0,0,0,.579-.117l.337,3.662a11.952,11.952,0,0,1-1.348.271,10.854,10.854,0,0,1-1.421.081,4.948,4.948,0,0,1-3.713-1.3,5.755,5.755,0,0,1-1.267-4.131V15.578h-2.212V12.15h2.212V8.21Zm4.248,11.719a8.378,8.378,0,0,1,2.021-5.823,8.215,8.215,0,0,1,11.294,0,8.378,8.378,0,0,1,2.021,5.823v.308a8.372,8.372,0,0,1-2.021,5.83,8.235,8.235,0,0,1-11.294,0,8.372,8.372,0,0,1-2.021-5.83Zm4.951.308a6.553,6.553,0,0,0,.623,3.127,2.215,2.215,0,0,0,2.117,1.135,2.189,2.189,0,0,0,2.08-1.143,6.5,6.5,0,0,0,.63-3.12v-.308a6.521,6.521,0,0,0-.63-3.1,2.206,2.206,0,0,0-2.109-1.165,2.175,2.175,0,0,0-2.087,1.172,6.594,6.594,0,0,0-.623,3.091Zm21.328-3.867-1.611-.015a2.744,2.744,0,0,0-1.392.315,1.943,1.943,0,0,0-.806.886V28h-4.951V12.15H177.7l.176,2.329a4.779,4.779,0,0,1,1.318-1.934,2.893,2.893,0,0,1,1.919-.688,3.681,3.681,0,0,1,.6.044,4.543,4.543,0,0,1,.557.132Z" transform="translate(823 1319)" fill="#12263f"/>
  </g>
</svg>
