<svg xmlns="http://www.w3.org/2000/svg" xmlns:xlink="http://www.w3.org/1999/xlink" width="348.743" height="339.096" viewBox="0 0 348.743 339.096">
  <defs>
    <linearGradient id="linear-gradient" y1="0.5" x2="1" y2="0.5" gradientUnits="objectBoundingBox">
      <stop offset="0" stop-color="#00b99e"/>
      <stop offset="1" stop-color="#00b99e"/>
    </linearGradient>
  </defs>
  <g id="Grupo_140186" data-name="Grupo 140186" transform="translate(-966.757 -2240.637)">
    <path id="Trazado_114225" data-name="Trazado 114225" d="M1767.506,632.922c-37.206,79.972-100.861,67.414-191.707,25.151s-141.366-79.735-104.16-159.707,148.047-172.162,238.892-129.9S1804.71,552.95,1767.506,632.922Z" transform="translate(-491.307 1887.277)" fill="none" stroke="#ef3c79" stroke-miterlimit="10" stroke-width="2"/>
    <path id="Trazado_114226" data-name="Trazado 114226" d="M1800.016,570.743c0,88.2-63.012,103.669-163.208,103.669S1475,661.748,1475,573.545,1536.612,355,1636.808,355,1800.016,482.541,1800.016,570.743Z" transform="translate(-485.016 1886.137)" fill="#cde2df" stroke="rgba(0,0,0,0)" stroke-width="1"/>
    <path id="Trazado_114227" data-name="Trazado 114227" d="M1704.179,431.818c0,8.511-6.08,10-15.748,10s-15.614-1.222-15.614-9.732S1678.764,411,1688.432,411,1704.179,423.307,1704.179,431.818Z" transform="translate(-405.705 1908.589)" fill="#00cbae" stroke="rgba(0,0,0,0)" stroke-width="1"/>
    <path id="Trazado_114228" data-name="Trazado 114228" d="M1490.668,460.818c0,8.511-6.08,10-15.748,10s-15.613-1.222-15.613-9.732S1465.253,440,1474.92,440,1490.668,452.307,1490.668,460.818Z" transform="translate(-491.307 1920.216)" fill="#0d4aad" stroke="rgba(0,0,0,0)" stroke-width="1"/>
    <path id="Trazado_113489" data-name="Trazado 113489" d="M15.526,7.763A7.763,7.763,0,1,0,7.758,15.52,7.764,7.764,0,0,0,15.526,7.763Z" transform="matrix(0.996, -0.087, 0.087, 0.996, 967.072, 2315.908)" opacity="0.5" fill="url(#linear-gradient)"/>
    <path id="Trazado_113490" data-name="Trazado 113490" d="M11.965,5.983a5.983,5.983,0,1,0-5.983,5.984A5.975,5.975,0,0,0,11.965,5.983Z" transform="matrix(0.996, -0.087, 0.087, 0.996, 966.757, 2291.939)" fill="url(#linear-gradient)"/>
    <path id="Trazado_113491" data-name="Trazado 113491" d="M11.828,5.914a5.914,5.914,0,1,0-5.919,5.908A5.917,5.917,0,0,0,11.828,5.914Z" transform="matrix(0.996, -0.087, 0.087, 0.996, 996.9, 2340.934)" fill="url(#linear-gradient)"/>
    <path id="Trazado_113492" data-name="Trazado 113492" d="M12.678,6.339a6.339,6.339,0,1,0-6.345,6.339A6.339,6.339,0,0,0,12.678,6.339Z" transform="matrix(0.996, -0.087, 0.087, 0.996, 994.202, 2314.965)" fill="url(#linear-gradient)"/>
    <path id="Trazado_113493" data-name="Trazado 113493" d="M9.553,4.771A4.777,4.777,0,1,0,4.771,9.543,4.773,4.773,0,0,0,9.553,4.771Z" transform="matrix(0.996, -0.087, 0.087, 0.996, 993.656, 2290.803)" fill="url(#linear-gradient)"/>
    <path id="Trazado_113494" data-name="Trazado 113494" d="M10.4,5.191a5.2,5.2,0,1,0-5.207,5.2A5.2,5.2,0,0,0,10.4,5.191Z" transform="matrix(0.996, -0.087, 0.087, 0.996, 990.958, 2264.834)" opacity="0.5" fill="url(#linear-gradient)"/>
    <path id="Trazado_113495" data-name="Trazado 113495" d="M15.387,7.689a7.694,7.694,0,1,0-7.693,7.693A7.687,7.687,0,0,0,15.387,7.689Z" transform="matrix(0.996, -0.087, 0.087, 0.996, 1020.555, 2337.082)" opacity="0.5" fill="url(#linear-gradient)"/>
    <path id="Trazado_113496" data-name="Trazado 113496" d="M16.238,8.118a8.119,8.119,0,1,0-8.119,8.114A8.118,8.118,0,0,0,16.238,8.118Z" transform="matrix(0.996, -0.087, 0.087, 0.996, 1017.856, 2311.109)" opacity="0.5" fill="url(#linear-gradient)"/>
    <path id="Trazado_113497" data-name="Trazado 113497" d="M9.819,4.909A4.91,4.91,0,1,0,4.91,9.825,4.9,4.9,0,0,0,9.819,4.909Z" transform="matrix(0.996, -0.087, 0.087, 0.996, 1019.094, 2288.438)" opacity="0.5" fill="url(#linear-gradient)"/>
    <path id="Trazado_113498" data-name="Trazado 113498" d="M10.414,5.191a5.207,5.207,0,1,0-5.207,5.2A5.2,5.2,0,0,0,10.414,5.191Z" transform="matrix(0.996, -0.087, 0.087, 0.996, 1016.535, 2262.596)" fill="url(#linear-gradient)"/>
    <path id="Trazado_113499" data-name="Trazado 113499" d="M5.982,2.991A2.991,2.991,0,1,0,3,5.983,2.99,2.99,0,0,0,5.982,2.991Z" transform="matrix(0.996, -0.087, 0.087, 0.996, 1051.231, 2339.113)" fill="url(#linear-gradient)"/>
    <path id="Trazado_113500" data-name="Trazado 113500" d="M11.116,5.557A5.558,5.558,0,1,0,5.558,11.11,5.556,5.556,0,0,0,11.116,5.557Z" transform="matrix(0.996, -0.087, 0.087, 0.996, 1046.218, 2311.198)" fill="url(#linear-gradient)"/>
    <path id="Trazado_113501" data-name="Trazado 113501" d="M13.252,6.62a6.626,6.626,0,1,0-6.621,6.626A6.622,6.622,0,0,0,13.252,6.62Z" transform="matrix(0.996, -0.087, 0.087, 0.996, 1042.817, 2284.646)" opacity="0.5" fill="url(#linear-gradient)"/>
    <path id="Trazado_113502" data-name="Trazado 113502" d="M13.814,6.9a6.907,6.907,0,1,0-6.907,6.913A6.905,6.905,0,0,0,13.814,6.9Z" transform="matrix(0.996, -0.087, 0.087, 0.996, 1040.279, 2258.802)" opacity="0.5" fill="url(#linear-gradient)"/>
    <path id="Trazado_113503" data-name="Trazado 113503" d="M5.983,2.991A2.991,2.991,0,1,0,3,5.983,2.99,2.99,0,0,0,5.983,2.991Z" transform="matrix(0.996, -0.087, 0.087, 0.996, 1076.818, 2336.875)" fill="url(#linear-gradient)"/>
    <path id="Trazado_113504" data-name="Trazado 113504" d="M11.1,5.557A5.552,5.552,0,1,0,5.558,11.11,5.553,5.553,0,0,0,11.1,5.557Z" transform="matrix(0.996, -0.087, 0.087, 0.996, 1071.805, 2308.96)" opacity="0.5" fill="url(#linear-gradient)"/>
    <path id="Trazado_113505" data-name="Trazado 113505" d="M13.252,6.62a6.626,6.626,0,1,0-6.621,6.626A6.629,6.629,0,0,0,13.252,6.62Z" transform="matrix(0.996, -0.087, 0.087, 0.996, 1068.404, 2282.406)" fill="url(#linear-gradient)"/>
    <g id="Grupo_138435" data-name="Grupo 138435" transform="translate(1010.954 2241.137)">
      <g id="Grupo_138062" data-name="Grupo 138062" transform="translate(32.75 117.142)">
        <g id="Grupo_138059" data-name="Grupo 138059">
          <path id="Trazado_152149" data-name="Trazado 152149" d="M391.76,522.339c53.695-1.884,109.232-9.208,137.978-108.151,8.545-29.413,2.986-51.688-6.392-68.47a101.98,101.98,0,0,0-7.5-11.457l0,0q-1.485-1.978-3-3.826c-20.979-25.725-56.166-34.954-87.353-23.584-17.491,6.374-39.929,15.8-59.935,28.063-40.2,24.633-49.625,52.72-62.758,100.9-1.129,4.136-2.255,8.775-3.111,13.7-.458,2.635-.839,5.349-1.1,8.114C295.682,488.432,307.565,525.3,391.76,522.339Z" transform="translate(-298.206 -302.05)" fill="#171612"/>
        </g>
        <g id="Grupo_138061" data-name="Grupo 138061" transform="translate(0.386 32.211)">
          <g id="Grupo_138060" data-name="Grupo 138060">
            <path id="Trazado_152150" data-name="Trazado 152150" d="M303.857,449.229a63.3,63.3,0,0,0,7.707,14.955c10.155,14.548,31.3,32.126,74.361,33.261q2.842.075,5.612.074c16.452,0,30.964-1.985,44.223-6.036a108.132,108.132,0,0,0,37.018-19.536c18.448-14.884,33.652-36.66,49.288-70.6a98.719,98.719,0,0,0,9.519-40.383,88.048,88.048,0,0,0-2.974-23.639,101.986,101.986,0,0,0-7.5-11.457c.665,1.539,1.312,3.147,1.925,4.826,5.625,15.427,9.5,39.967-4,69.258-27.447,59.574-59.277,96.1-133.031,94.165-41.672-1.1-62-17.918-71.713-31.841a58.464,58.464,0,0,1-9.343-21.159C304.5,443.75,304.117,446.464,303.857,449.229Z" transform="translate(-303.857 -325.866)" fill="#5a554d"/>
          </g>
        </g>
      </g>
      <g id="Grupo_138422" data-name="Grupo 138422" transform="translate(0 0)">
        <g id="Grupo_138066" data-name="Grupo 138066" transform="translate(59.881 184.837)">
          <g id="Grupo_138065" data-name="Grupo 138065">
            <g id="Grupo_138064" data-name="Grupo 138064">
              <g id="Grupo_138063" data-name="Grupo 138063">
                <path id="Trazado_152151" data-name="Trazado 152151" d="M443.806,405.654c-2.245,1.612-5.8,3.289-11.112,4.98-30.194,9.607-57.879-5.9-57.879-5.9-1.673-8.269-.638-17.665,2.148-21.1a3.032,3.032,0,0,1-.295-2.682L348.878,352.1c15.8,13.1,35.348,17.38,50.565,26.577h.007c4.385,2.648,8.327,4.983,11.216,6.606,4.408,2.474,10.034,2.717,15.548,1.957,10.746-1.485,21.055-6.78,21.055-6.78s34.605-15.685,41.093-15.162C493.409,365.7,466.262,394.048,443.806,405.654Z" transform="translate(-348.878 -352.101)" fill="#c04d3a"/>
              </g>
            </g>
          </g>
        </g>
        <g id="Grupo_138146" data-name="Grupo 138146" transform="translate(50.477 191.886)">
          <g id="Grupo_138136" data-name="Grupo 138136" transform="translate(0 52.318)">
            <g id="Grupo_138067" data-name="Grupo 138067" transform="translate(47.605 12.909)">
              <path id="Trazado_152152" data-name="Trazado 152152" d="M411.878,410.991s8.908-2.559,11.642-5.451l6.189,14.572-21.069,6.576S408.346,413.886,411.878,410.991Z" transform="translate(-408.634 -405.54)" fill="#eaad8f"/>
            </g>
            <g id="Grupo_138135" data-name="Grupo 138135">
              <g id="Grupo_138069" data-name="Grupo 138069">
                <g id="Grupo_138068" data-name="Grupo 138068">
                  <path id="Trazado_152153" data-name="Trazado 152153" d="M419.107,456.467l27.237-60.457a9.278,9.278,0,0,1,3.717.718c5.284,1.926,12.711,7.233,17.5,10.351.557.368,1.081.7,1.559,1a19.364,19.364,0,0,0,2.021,1.127c4.2,1.892,1.8,5.284,1.8,5.284-8.755,3.415-2.88,14.4-7.653,17.111,0,0-2.033,1.179-8.514,4.035S443.767,445.364,437.729,451c-7.791,7.283-12.683,8.139-15.488,7.474A5.184,5.184,0,0,1,419.107,456.467Z" transform="translate(-419.107 -395.996)" fill="#fff"/>
                </g>
              </g>
              <g id="Grupo_138070" data-name="Grupo 138070">
                <path id="Trazado_152154" data-name="Trazado 152154" d="M436.528,456.467l27.237-60.457a9.278,9.278,0,0,1,3.717.718l-27.82,61.749A5.184,5.184,0,0,1,436.528,456.467Z" transform="translate(-436.528 -395.996)" fill="#f0e8e0"/>
              </g>
              <g id="Grupo_138080" data-name="Grupo 138080" transform="translate(24.459 4.387)">
                <g id="Grupo_138079" data-name="Grupo 138079">
                  <g id="Grupo_138078" data-name="Grupo 138078">
                    <g id="Grupo_138077" data-name="Grupo 138077">
                      <g id="Grupo_138076" data-name="Grupo 138076">
                        <g id="Grupo_138075" data-name="Grupo 138075">
                          <g id="Grupo_138074" data-name="Grupo 138074">
                            <g id="Grupo_138073" data-name="Grupo 138073">
                              <g id="Grupo_138072" data-name="Grupo 138072">
                                <g id="Grupo_138071" data-name="Grupo 138071">
                                  <path id="Trazado_152155" data-name="Trazado 152155" d="M422.438,401.035l.809-1.8a14.549,14.549,0,0,0,8.216,7.611,18.7,18.7,0,0,0,14.967-.914c.557.368,1.081.7,1.559,1-3.261,1.76-9.789,4.26-17.1,1.389A16.088,16.088,0,0,1,422.438,401.035Z" transform="translate(-422.438 -399.239)" fill="#f0e8e0"/>
                                </g>
                              </g>
                            </g>
                          </g>
                        </g>
                      </g>
                    </g>
                  </g>
                </g>
              </g>
              <g id="Grupo_138089" data-name="Grupo 138089" transform="translate(33.703 36.361)">
                <g id="Grupo_138088" data-name="Grupo 138088">
                  <g id="Grupo_138087" data-name="Grupo 138087">
                    <g id="Grupo_138086" data-name="Grupo 138086">
                      <g id="Grupo_138085" data-name="Grupo 138085">
                        <g id="Grupo_138084" data-name="Grupo 138084">
                          <g id="Grupo_138083" data-name="Grupo 138083">
                            <g id="Grupo_138082" data-name="Grupo 138082">
                              <g id="Grupo_138081" data-name="Grupo 138081">
                                <path id="Trazado_152156" data-name="Trazado 152156" d="M433.174,423.523a1.093,1.093,0,0,1,2.072.646l-.764,4.2a1.093,1.093,0,0,1-2.15-.391l.764-4.2A1.134,1.134,0,0,1,433.174,423.523Z" transform="translate(-432.314 -422.88)" fill="#171612"/>
                              </g>
                            </g>
                          </g>
                        </g>
                      </g>
                    </g>
                  </g>
                </g>
              </g>
              <g id="Grupo_138098" data-name="Grupo 138098" transform="translate(38.538 34.025)">
                <g id="Grupo_138097" data-name="Grupo 138097">
                  <g id="Grupo_138096" data-name="Grupo 138096">
                    <g id="Grupo_138095" data-name="Grupo 138095">
                      <g id="Grupo_138094" data-name="Grupo 138094">
                        <g id="Grupo_138093" data-name="Grupo 138093">
                          <g id="Grupo_138092" data-name="Grupo 138092">
                            <g id="Grupo_138091" data-name="Grupo 138091">
                              <g id="Grupo_138090" data-name="Grupo 138090">
                                <path id="Trazado_152157" data-name="Trazado 152157" d="M429.6,421.8a1.093,1.093,0,0,1,2.071.645l-.763,4.2a1.093,1.093,0,1,1-2.151-.391l.764-4.2A1.134,1.134,0,0,1,429.6,421.8Z" transform="translate(-428.739 -421.153)" fill="#171612"/>
                              </g>
                            </g>
                          </g>
                        </g>
                      </g>
                    </g>
                  </g>
                </g>
              </g>
              <g id="Grupo_138107" data-name="Grupo 138107" transform="translate(29.806 39.149)">
                <g id="Grupo_138106" data-name="Grupo 138106">
                  <g id="Grupo_138105" data-name="Grupo 138105">
                    <g id="Grupo_138104" data-name="Grupo 138104">
                      <g id="Grupo_138103" data-name="Grupo 138103">
                        <g id="Grupo_138102" data-name="Grupo 138102">
                          <g id="Grupo_138101" data-name="Grupo 138101">
                            <g id="Grupo_138100" data-name="Grupo 138100">
                              <g id="Grupo_138099" data-name="Grupo 138099">
                                <path id="Trazado_152158" data-name="Trazado 152158" d="M436.056,425.583a1.093,1.093,0,0,1,2.071.645l-.763,4.2a1.093,1.093,0,0,1-2.15-.391l.764-4.2A1.136,1.136,0,0,1,436.056,425.583Z" transform="translate(-435.195 -424.941)" fill="#171612"/>
                              </g>
                            </g>
                          </g>
                        </g>
                      </g>
                    </g>
                  </g>
                </g>
              </g>
              <g id="Grupo_138116" data-name="Grupo 138116" transform="translate(25.995 41.974)">
                <g id="Grupo_138115" data-name="Grupo 138115">
                  <g id="Grupo_138114" data-name="Grupo 138114">
                    <g id="Grupo_138113" data-name="Grupo 138113">
                      <g id="Grupo_138112" data-name="Grupo 138112">
                        <g id="Grupo_138111" data-name="Grupo 138111">
                          <g id="Grupo_138110" data-name="Grupo 138110">
                            <g id="Grupo_138109" data-name="Grupo 138109">
                              <g id="Grupo_138108" data-name="Grupo 138108">
                                <path id="Trazado_152159" data-name="Trazado 152159" d="M438.874,427.674a1.092,1.092,0,0,1,2.071.645l-.763,4.2a1.093,1.093,0,1,1-2.151-.391l.764-4.2A1.092,1.092,0,0,1,438.874,427.674Z" transform="translate(-438.014 -427.03)" fill="#171612"/>
                              </g>
                            </g>
                          </g>
                        </g>
                      </g>
                    </g>
                  </g>
                </g>
              </g>
              <g id="Grupo_138125" data-name="Grupo 138125" transform="translate(22.189 45.213)">
                <g id="Grupo_138124" data-name="Grupo 138124">
                  <g id="Grupo_138123" data-name="Grupo 138123">
                    <g id="Grupo_138122" data-name="Grupo 138122">
                      <g id="Grupo_138121" data-name="Grupo 138121">
                        <g id="Grupo_138120" data-name="Grupo 138120">
                          <g id="Grupo_138119" data-name="Grupo 138119">
                            <g id="Grupo_138118" data-name="Grupo 138118">
                              <g id="Grupo_138117" data-name="Grupo 138117">
                                <path id="Trazado_152160" data-name="Trazado 152160" d="M441.687,430.068a1.093,1.093,0,0,1,2.072.645l-.764,4.2a1.092,1.092,0,1,1-2.149-.392l.763-4.2A1.135,1.135,0,0,1,441.687,430.068Z" transform="translate(-440.828 -429.425)" fill="#171612"/>
                              </g>
                            </g>
                          </g>
                        </g>
                      </g>
                    </g>
                  </g>
                </g>
              </g>
              <g id="Grupo_138134" data-name="Grupo 138134" transform="translate(18.512 48.929)">
                <g id="Grupo_138133" data-name="Grupo 138133">
                  <g id="Grupo_138132" data-name="Grupo 138132">
                    <g id="Grupo_138131" data-name="Grupo 138131">
                      <g id="Grupo_138130" data-name="Grupo 138130">
                        <g id="Grupo_138129" data-name="Grupo 138129">
                          <g id="Grupo_138128" data-name="Grupo 138128">
                            <g id="Grupo_138127" data-name="Grupo 138127">
                              <g id="Grupo_138126" data-name="Grupo 138126">
                                <path id="Trazado_152161" data-name="Trazado 152161" d="M444.407,432.815a1.093,1.093,0,0,1,2.071.646l-.763,4.2a1.093,1.093,0,0,1-2.151-.391l.764-4.2A1.132,1.132,0,0,1,444.407,432.815Z" transform="translate(-443.547 -432.172)" fill="#171612"/>
                              </g>
                            </g>
                          </g>
                        </g>
                      </g>
                    </g>
                  </g>
                </g>
              </g>
            </g>
          </g>
          <g id="Grupo_138139" data-name="Grupo 138139" transform="translate(55.578)">
            <g id="Grupo_138138" data-name="Grupo 138138">
              <g id="Grupo_138137" data-name="Grupo 138137">
                <path id="Trazado_152162" data-name="Trazado 152162" d="M411.99,363.461s21.9-11.818,34.588-2.683c23.2,16.706-16.165,48.847-61.193,64.541s-59.648,13.553-59.648,13.553-9.783-2.691-6.312-18.547c0,0,25.956-9.868,39.461-20.205S381.6,377.116,411.99,363.461Z" transform="translate(-318.679 -357.313)" fill="#c04d3a"/>
              </g>
            </g>
          </g>
          <g id="Grupo_138142" data-name="Grupo 138142" transform="translate(57.755 10.836)">
            <g id="Grupo_138141" data-name="Grupo 138141">
              <g id="Grupo_138140" data-name="Grupo 138140">
                <path id="Trazado_152163" data-name="Trazado 152163" d="M348.31,422.113c9.445-2.271,28.688-11.1,51.479-23.612,17.044-9.361,36.7-21.324,39.588-25.472,1.558-2.242,1.952-4.075,1.167-5.449-1.173-2.057-4.55-2.268-6.089-2.253a.685.685,0,0,0-.679.734h0a.681.681,0,0,0,.684.634c1.513-.009,4.147.249,4.895,1.563.622,1.092-.256,2.771-1.1,3.989-2.326,3.345-18.78,13.882-39.123,25.053-17.518,9.62-40.152,20.84-51.14,23.481Z" transform="translate(-347.991 -365.326)" fill="#7e231a"/>
              </g>
            </g>
          </g>
          <g id="Grupo_138145" data-name="Grupo 138145" transform="translate(53.444 60.542)">
            <g id="Grupo_138144" data-name="Grupo 138144">
              <g id="Grupo_138143" data-name="Grupo 138143">
                <path id="Trazado_152164" data-name="Trazado 152164" d="M415.706,402.44c1.063,8.334,3.223,15.91,7.931,21.72,0,0-4.031,2.9-7.712.82-2.813-1.591-8.237-14.607-6.169-21.556C412.108,402.138,414.138,401.691,415.706,402.44Z" transform="translate(-409.297 -402.076)" fill="#7e231a"/>
              </g>
            </g>
          </g>
        </g>
        <g id="Grupo_138211" data-name="Grupo 138211" transform="translate(26.609 180.127)">
          <g id="Grupo_138200" data-name="Grupo 138200" transform="translate(122.227 65.433)">
            <g id="Grupo_138147" data-name="Grupo 138147" transform="translate(0 10.56)">
              <path id="Trazado_152165" data-name="Trazado 152165" d="M389.733,411.023s-8.717-3.149-11.253-6.218l-7.149,14.126,20.584,7.969S393.063,414.147,389.733,411.023Z" transform="translate(-371.331 -404.805)" fill="#eaad8f"/>
            </g>
            <g id="Grupo_138199" data-name="Grupo 138199" transform="translate(14.871)">
              <g id="Grupo_138149" data-name="Grupo 138149">
                <g id="Grupo_138148" data-name="Grupo 138148">
                  <path id="Trazado_152166" data-name="Trazado 152166" d="M389.106,459.188l-23.137-62.14a9.268,9.268,0,0,0-3.756.467c-5.4,1.569-13.165,6.368-18.149,9.159-.58.33-1.125.629-1.623.89a19.149,19.149,0,0,1-2.091.989c-4.316,1.608-2.153,5.153-2.153,5.153,8.507,3.993,1.911,14.556,6.492,17.584,0,0,1.95,1.312,8.226,4.594s12.328,10.579,17.978,16.609c7.287,7.786,12.112,8.967,14.953,8.491A5.177,5.177,0,0,0,389.106,459.188Z" transform="translate(-337.654 -396.998)" fill="#fff"/>
                </g>
              </g>
              <g id="Grupo_138150" data-name="Grupo 138150" transform="translate(24.558)">
                <path id="Trazado_152167" data-name="Trazado 152167" d="M364.547,459.188l-23.137-62.14a9.268,9.268,0,0,0-3.756.467l23.632,63.469A5.178,5.178,0,0,0,364.547,459.188Z" transform="translate(-337.654 -396.998)" fill="#f0e8e0"/>
              </g>
              <g id="Grupo_138160" data-name="Grupo 138160" transform="translate(4.786 4.544)">
                <g id="Grupo_138159" data-name="Grupo 138159">
                  <g id="Grupo_138158" data-name="Grupo 138158">
                    <g id="Grupo_138157" data-name="Grupo 138157">
                      <g id="Grupo_138156" data-name="Grupo 138156">
                        <g id="Grupo_138155" data-name="Grupo 138155">
                          <g id="Grupo_138154" data-name="Grupo 138154">
                            <g id="Grupo_138153" data-name="Grupo 138153">
                              <g id="Grupo_138152" data-name="Grupo 138152">
                                <g id="Grupo_138151" data-name="Grupo 138151">
                                  <path id="Trazado_152168" data-name="Trazado 152168" d="M378.9,402.2l-.688-1.846a14.55,14.55,0,0,1-8.706,7.045,18.7,18.7,0,0,1-14.872-1.912c-.58.33-1.125.629-1.623.89,3.137,1.975,9.484,4.906,16.973,2.529A16.09,16.09,0,0,0,378.9,402.2Z" transform="translate(-353.015 -400.357)" fill="#f0e8e0"/>
                                </g>
                              </g>
                            </g>
                          </g>
                        </g>
                      </g>
                    </g>
                  </g>
                </g>
              </g>
              <g id="Grupo_138161" data-name="Grupo 138161" transform="translate(16.417 35.757)">
                <path id="Trazado_152169" data-name="Trazado 152169" d="M363.7,424.145a1.093,1.093,0,0,0-2.11.506l.481,4.242a1.092,1.092,0,0,0,2.171-.248l-.481-4.24A1.17,1.17,0,0,0,363.7,424.145Z" transform="translate(-361.586 -423.435)" fill="#171612"/>
              </g>
              <g id="Grupo_138170" data-name="Grupo 138170" transform="translate(11.749 33.103)">
                <g id="Grupo_138169" data-name="Grupo 138169">
                  <g id="Grupo_138168" data-name="Grupo 138168">
                    <g id="Grupo_138167" data-name="Grupo 138167">
                      <g id="Grupo_138166" data-name="Grupo 138166">
                        <g id="Grupo_138165" data-name="Grupo 138165">
                          <g id="Grupo_138164" data-name="Grupo 138164">
                            <g id="Grupo_138163" data-name="Grupo 138163">
                              <g id="Grupo_138162" data-name="Grupo 138162">
                                <path id="Trazado_152170" data-name="Trazado 152170" d="M367.154,422.183a1.093,1.093,0,0,0-2.11.506l.481,4.24a1.093,1.093,0,0,0,2.172-.246l-.482-4.242A1.145,1.145,0,0,0,367.154,422.183Z" transform="translate(-365.037 -421.473)" fill="#171612"/>
                              </g>
                            </g>
                          </g>
                        </g>
                      </g>
                    </g>
                  </g>
                </g>
              </g>
              <g id="Grupo_138179" data-name="Grupo 138179" transform="translate(20.119 38.799)">
                <g id="Grupo_138178" data-name="Grupo 138178">
                  <g id="Grupo_138177" data-name="Grupo 138177">
                    <g id="Grupo_138176" data-name="Grupo 138176">
                      <g id="Grupo_138175" data-name="Grupo 138175">
                        <g id="Grupo_138174" data-name="Grupo 138174">
                          <g id="Grupo_138173" data-name="Grupo 138173">
                            <g id="Grupo_138172" data-name="Grupo 138172">
                              <g id="Grupo_138171" data-name="Grupo 138171">
                                <path id="Trazado_152171" data-name="Trazado 152171" d="M360.964,426.394a1.092,1.092,0,0,0-2.109.506l.481,4.24a1.092,1.092,0,1,0,2.171-.246l-.481-4.24A1.1,1.1,0,0,0,360.964,426.394Z" transform="translate(-358.849 -425.684)" fill="#171612"/>
                              </g>
                            </g>
                          </g>
                        </g>
                      </g>
                    </g>
                  </g>
                </g>
              </g>
              <g id="Grupo_138188" data-name="Grupo 138188" transform="translate(23.733 41.873)">
                <g id="Grupo_138187" data-name="Grupo 138187">
                  <g id="Grupo_138186" data-name="Grupo 138186">
                    <g id="Grupo_138185" data-name="Grupo 138185">
                      <g id="Grupo_138184" data-name="Grupo 138184">
                        <g id="Grupo_138183" data-name="Grupo 138183">
                          <g id="Grupo_138182" data-name="Grupo 138182">
                            <g id="Grupo_138181" data-name="Grupo 138181">
                              <g id="Grupo_138180" data-name="Grupo 138180">
                                <path id="Trazado_152172" data-name="Trazado 152172" d="M358.294,428.667a1.093,1.093,0,0,0-2.11.506l.482,4.24a1.092,1.092,0,1,0,2.171-.246l-.481-4.24A1.089,1.089,0,0,0,358.294,428.667Z" transform="translate(-356.177 -427.957)" fill="#171612"/>
                              </g>
                            </g>
                          </g>
                        </g>
                      </g>
                    </g>
                  </g>
                </g>
              </g>
              <g id="Grupo_138197" data-name="Grupo 138197" transform="translate(27.315 45.358)">
                <g id="Grupo_138196" data-name="Grupo 138196">
                  <g id="Grupo_138195" data-name="Grupo 138195">
                    <g id="Grupo_138194" data-name="Grupo 138194">
                      <g id="Grupo_138193" data-name="Grupo 138193">
                        <g id="Grupo_138192" data-name="Grupo 138192">
                          <g id="Grupo_138191" data-name="Grupo 138191">
                            <g id="Grupo_138190" data-name="Grupo 138190">
                              <g id="Grupo_138189" data-name="Grupo 138189">
                                <path id="Trazado_152173" data-name="Trazado 152173" d="M355.645,431.244a1.093,1.093,0,0,0-2.11.506l.483,4.24a1.092,1.092,0,1,0,2.171-.246l-.482-4.24A1.1,1.1,0,0,0,355.645,431.244Z" transform="translate(-353.528 -430.534)" fill="#171612"/>
                              </g>
                            </g>
                          </g>
                        </g>
                      </g>
                    </g>
                  </g>
                </g>
              </g>
              <g id="Grupo_138198" data-name="Grupo 138198" transform="translate(30.735 49.311)">
                <path id="Trazado_152174" data-name="Trazado 152174" d="M353.117,434.167a1.093,1.093,0,0,0-2.11.506l.482,4.24a1.092,1.092,0,1,0,2.171-.246l-.481-4.241A1.092,1.092,0,0,0,353.117,434.167Z" transform="translate(-351 -433.457)" fill="#171612"/>
              </g>
            </g>
          </g>
          <g id="Grupo_138203" data-name="Grupo 138203">
            <g id="Grupo_138202" data-name="Grupo 138202">
              <g id="Grupo_138201" data-name="Grupo 138201">
                <path id="Trazado_152175" data-name="Trazado 152175" d="M423.566,356.926s-20.725-13.779-34.2-5.846c-24.632,14.508,11.615,50.123,55.015,69.882s58.154,18.968,58.154,18.968,9.988-1.783,7.987-17.89c0,0-24.942-12.206-37.442-23.739S452.58,373.311,423.566,356.926Z" transform="translate(-381.378 -348.619)" fill="#c04d3a"/>
              </g>
            </g>
          </g>
          <g id="Grupo_138205" data-name="Grupo 138205" transform="translate(80.091 79.777)">
            <g id="Grupo_138204" data-name="Grupo 138204">
              <path id="Trazado_152176" data-name="Trazado 152176" d="M389.6,407.6c2.39.786,4.82,1.574,7.328,2.364,9.708,3.057,20.795,6.255,30.835,8.721l.035,1.436c-9.065-2.21-19.7-5.207-31.281-8.851-2.26-.711-4.567-1.461-6.88-2.221Z" transform="translate(-389.603 -407.603)" fill="#7e231a"/>
            </g>
          </g>
          <g id="Grupo_138207" data-name="Grupo 138207" transform="translate(39.592 13.328)">
            <g id="Grupo_138206" data-name="Grupo 138206">
              <path id="Trazado_152177" data-name="Trazado 152177" d="M470.24,423c-9.2-3.126-27.549-13.681-49.1-28.234-16.115-10.885-34.593-24.6-37.085-29-1.347-2.375-1.569-4.236-.663-5.533,1.357-1.939,4.739-1.842,6.27-1.685a.685.685,0,0,1,.609.794h0a.683.683,0,0,1-.74.569c-1.507-.149-4.152-.133-5.018,1.108-.72,1.029,0,2.782.732,4.072,2.01,3.545,17.427,15.546,36.66,28.537,16.562,11.185,38.071,24.435,48.772,28.073Z" transform="translate(-382.85 -358.473)" fill="#7e231a"/>
            </g>
          </g>
          <g id="Grupo_138210" data-name="Grupo 138210" transform="translate(115.937 70.774)">
            <g id="Grupo_138209" data-name="Grupo 138209">
              <g id="Grupo_138208" data-name="Grupo 138208">
                <path id="Trazado_152178" data-name="Trazado 152178" d="M389.459,401.173c-1.823,8.2-4.669,15.547-9.89,20.9,0,0,3.747,3.261,7.6,1.524,2.947-1.326,9.542-13.79,8.12-20.9C393.069,401.2,391.089,400.57,389.459,401.173Z" transform="translate(-379.57 -400.947)" fill="#7e231a"/>
              </g>
            </g>
          </g>
        </g>
        <g id="Grupo_138421" data-name="Grupo 138421">
          <g id="Grupo_138287" data-name="Grupo 138287" transform="translate(0 48.559)">
            <g id="Grupo_138212" data-name="Grupo 138212" transform="translate(10.093 31.327)">
              <path id="Trazado_152179" data-name="Trazado 152179" d="M401.508,276.443a10.89,10.89,0,0,1,15.154,2.752l.145.206,1.129,1.634,1.182,1.68,2.406,3.362q2.414,3.331,4.906,6.6a.236.236,0,0,0,.028.039c.335.437.664.871,1.009,1.309v0c3.011,3.928,6.094,7.772,9.254,11.46,1.9,2.219,3.836,4.393,5.79,6.461.248.261.495.522.745.783,1.393,1.454,2.8,2.852,4.21,4.164a53.76,53.76,0,0,0,5.3,4.408c.41.289.809.555,1.182.787.693-.413,1.476-.925,2.287-1.482.917-.636,1.877-1.338,2.844-2.079q.651-.5,1.3-1.016c.268-.212.536-.423.8-.642,3.235-2.6,6.525-5.52,9.764-8.52q4.2-3.9,8.34-8.024c.331-.325.664-.653.991-.985q1.2-1.2,2.393-2.41,2.9-2.938,5.745-5.932l2.827-3,1.394-1.5,1.327-1.454.112-.123c.243-.261.494-.518.756-.766a16,16,0,1,1,22.045,23.185l-1.665,1.581-1.616,1.517-3.241,2.989q-3.25,2.97-6.549,5.883c-4.408,3.884-8.9,7.711-13.555,11.465-2.877,2.3-5.791,4.581-8.862,6.818-.293.215-.586.427-.882.638-1.649,1.19-3.346,2.368-5.11,3.533-1.355.89-2.756,1.776-4.246,2.651q-1.016.6-2.1,1.189c-.3.166-.614.331-.928.494q-.872.46-1.818.914c-.893.421-1.8.836-2.844,1.246-.02.011-.046.018-.066.028-.272.1-.522.2-.812.307l-.868.307c-.279.1-.625.2-.939.3l-.484.145-.331.092-.456.116a18.722,18.722,0,0,1-3.531.533c-.579.039-1.105.039-1.653.031-.511-.016-1.051-.042-1.527-.095a22.619,22.619,0,0,1-5.054-1.108,27.053,27.053,0,0,1-3.595-1.524l-.149-.074c-1.094-.561-2.068-1.14-2.971-1.722a47.02,47.02,0,0,1-4.711-3.526c-.928-.787-1.807-1.57-2.644-2.362-.465-.437-.913-.871-1.354-1.309-1.151-1.136-2.232-2.272-3.278-3.412a167.178,167.178,0,0,1-11.561-14.366c-3.519-4.838-6.815-9.726-9.987-14.663q-.842-1.313-1.673-2.629c-.173-.268-.342-.54-.511-.807q-1.256-2-2.485-4.013-1.144-1.875-2.27-3.765l-1.125-1.9-1.144-1.973A10.93,10.93,0,0,1,401.508,276.443Zm54.272,46.583c.184.06.283.06.2,0l-.035-.02a.3.3,0,0,0-.059-.028c-.032-.011-.11-.046-.166-.061a2.969,2.969,0,0,0-.476-.11A4.325,4.325,0,0,0,455.781,323.027Z" transform="translate(-396.831 -274.505)" fill="#314fa5"/>
            </g>
            <g id="Grupo_138214" data-name="Grupo 138214" transform="translate(73.648 56.169)">
              <g id="Grupo_138213" data-name="Grupo 138213">
                <path id="Trazado_152180" data-name="Trazado 152180" d="M427.473,311.043a17.155,17.155,0,0,0,4.217,3.9c3.761,2.34,8.353,2.347,11.226-1.34,2.985-3.84,4.026-9.487,4.439-14.2a38.6,38.6,0,0,0,.018-6.522c-.327.331-.66.66-.991.985a36.488,36.488,0,0,1,.035,3.691c-.187,4.686-1.1,9.963-3.469,14.088-1.305,2.28-3.356,4.016-6.1,3.945a10.5,10.5,0,0,1-6.452-2.936,19.661,19.661,0,0,1-2.121-2.244C428.009,310.62,427.741,310.831,427.473,311.043Z" transform="translate(-427.473 -292.872)" fill="#5880eb"/>
              </g>
            </g>
            <g id="Grupo_138216" data-name="Grupo 138216" transform="translate(80.389 90.329)">
              <g id="Grupo_138215" data-name="Grupo 138215">
                <path id="Trazado_152181" data-name="Trazado 152181" d="M427.752,330.724c.314-.162.625-.327.928-.494-.86-2.961-1.509-6.493-.024-9.02,2.6-4.432,8.583-.66,11.48,1.647.3-.211.588-.423.882-.638q-.747-.615-1.542-1.167c-3.018-2.111-8.11-4.705-11.149-1.208C425.853,322.693,426.789,327.3,427.752,330.724Z" transform="translate(-426.747 -318.128)" fill="#5880eb"/>
              </g>
            </g>
            <g id="Grupo_138218" data-name="Grupo 138218" transform="translate(39.429 49.503)">
              <g id="Grupo_138217" data-name="Grupo 138217">
                <path id="Trazado_152182" data-name="Trazado 152182" d="M454.971,298.551c.147,4.649,1.037,10.3,4.915,13.4,3.673,2.928,8.254,1.132,10.947-2.206a13.927,13.927,0,0,0,1.2-1.747c-.25-.261-.5-.522-.745-.783a12.455,12.455,0,0,1-1.93,2.608c-1.754,1.811-4.287,3.162-6.846,2.372a8.129,8.129,0,0,1-4.531-4.394c-2.173-4.351-2.079-9.485-1.895-14.222.057-1.43.119-2.858.158-4.285v0c-.345-.438-.674-.872-1.009-1.309a.236.236,0,0,1-.028-.039C455.168,291.476,454.861,295.015,454.971,298.551Z" transform="translate(-454.947 -287.943)" fill="#5880eb"/>
              </g>
            </g>
            <g id="Grupo_138220" data-name="Grupo 138220" transform="translate(18.575 58.727)">
              <g id="Grupo_138219" data-name="Grupo 138219">
                <path id="Trazado_152183" data-name="Trazado 152183" d="M462.029,295.378c.169.268.338.54.511.807,3.642-1.881,8.632,1.973,11.226,4.423a44.02,44.02,0,0,1,8.2,10.742,73.005,73.005,0,0,1,7.072,19.906c.441.438.889.872,1.354,1.309-1.845-8.86-4.548-17.584-9.595-25.176a37.527,37.527,0,0,0-10.336-10.812C467.954,294.944,464.63,294.111,462.029,295.378Z" transform="translate(-462.029 -294.763)" fill="#5880eb"/>
              </g>
            </g>
            <g id="Grupo_138221" data-name="Grupo 138221" transform="translate(57.415 102.101)">
              <path id="Trazado_152184" data-name="Trazado 152184" d="M440,328.945a27.052,27.052,0,0,0,3.595,1.524,22.62,22.62,0,0,0,5.054,1.108c.476.053,1.016.078,1.527.095.548.008,1.074.008,1.653-.031a18.729,18.729,0,0,0,3.531-.533l.456-.116.331-.092.484-.145c.314-.095.66-.2.939-.3l.868-.307c.289-.1.54-.2.812-.307.02-.011.046-.018.066-.028a20.376,20.376,0,0,0-10.5-2.978A15.865,15.865,0,0,0,440,328.945Z" transform="translate(-440.002 -326.832)" fill="#1c2b74"/>
            </g>
            <g id="Grupo_138223" data-name="Grupo 138223" transform="translate(67.114 78.87)">
              <g id="Grupo_138222" data-name="Grupo 138222">
                <path id="Trazado_152185" data-name="Trazado 152185" d="M444.031,309.78a12.863,12.863,0,0,1,4.451,6.092c.27.774-.956,1.106-1.225.338a11.357,11.357,0,0,0-3.867-5.333c-.642-.487-.011-1.591.641-1.1Z" transform="translate(-443.121 -309.656)" fill="#1c2b74"/>
              </g>
            </g>
            <g id="Grupo_138225" data-name="Grupo 138225" transform="translate(68.805 79.701)">
              <g id="Grupo_138224" data-name="Grupo 138224">
                <path id="Trazado_152186" data-name="Trazado 152186" d="M446.422,312.069a4.486,4.486,0,0,0-3.888-.192c-.743.316-1.392-.779-.641-1.1a5.865,5.865,0,0,1,5.171.192c.722.383.081,1.48-.641,1.1Z" transform="translate(-441.559 -310.27)" fill="#1c2b74"/>
              </g>
            </g>
            <g id="Grupo_138232" data-name="Grupo 138232" transform="translate(95.403 27.64)">
              <g id="Grupo_138231" data-name="Grupo 138231">
                <g id="Grupo_138230" data-name="Grupo 138230">
                  <g id="Grupo_138229" data-name="Grupo 138229">
                    <g id="Grupo_138228" data-name="Grupo 138228">
                      <g id="Grupo_138227" data-name="Grupo 138227">
                        <g id="Grupo_138226" data-name="Grupo 138226">
                          <path id="Trazado_152187" data-name="Trazado 152187" d="M350.016,398.162a51.483,51.483,0,0,0,14.61,10.59q.5.252,1,.481a61.371,61.371,0,0,0,10.106,3.682,78.559,78.559,0,0,0,36.069.863c.445-.091.89-.185,1.331-.284a79.576,79.576,0,0,0,9.706-2.839,68.559,68.559,0,0,0,11.523-5.42c.506-.295,1-.6,1.5-.918a57.706,57.706,0,0,0,5.252-3.717c-3.325-14.83-5.23-22.239-6.058-27.618-.069-.456-.134-.893-.185-1.319-.675-5.226-.241-8.8.925-16.608a171.124,171.124,0,0,1,7.136-27.236c.124-.368.249-.736.38-1.1.321-.933.648-1.873.987-2.806.168-.463.335-.922.506-1.385,1.254-3.422,2.6-6.833,4.017-10.117,6.151-14.341,7.143-30.5-7.658-35.439-9.672-3.224-18.076-5.192-18.076-5.192l-34.028,2.816a84.217,84.217,0,0,0-13.859,2.435c-.379.114-.751.23-1.1.35-9.654,3.222-9.377,8.717-11.553,20.223-2.963,15.663-11.538,30.122-9.422,37.746.081.276.161.553.252.826.107.333.223.66.344.985a39.453,39.453,0,0,0,7.73,11.859c.4.43.637.663.637.663l-.011.1c-.026.254-.054.525-.091.8-.135,1.082-.321,2.361-.561,3.815-.35,2.125-.744,4.268-1.174,6.4-.091.434-.178.868-.273,1.3a244.188,244.188,0,0,1-9.027,32.046Q350.474,396.163,350.016,398.162Z" transform="translate(-350.016 -271.778)" fill="#314fa5"/>
                        </g>
                      </g>
                    </g>
                  </g>
                </g>
              </g>
            </g>
            <g id="Grupo_138234" data-name="Grupo 138234" transform="translate(96.867 48.487)">
              <g id="Grupo_138233" data-name="Grupo 138233">
                <path id="Trazado_152188" data-name="Trazado 152188" d="M428.446,288.189c-.99,6.951-3.376,13.5-6.12,19.932-3,7.022-6.121,14.473-4.827,22.272.166,1-1.365,1.43-1.531.422-1.22-7.352,1.132-14.435,3.974-21.134,3.017-7.114,5.877-14.211,6.974-21.913.143-1.008,1.673-.579,1.531.422Z" transform="translate(-415.638 -287.192)" fill="#1c2b74"/>
              </g>
            </g>
            <g id="Grupo_138249" data-name="Grupo 138249" transform="translate(98.76 31.765)">
              <g id="Grupo_138236" data-name="Grupo 138236" transform="translate(0 9.322)">
                <g id="Grupo_138235" data-name="Grupo 138235">
                  <path id="Trazado_152189" data-name="Trazado 152189" d="M410.206,332.667c.105.333.222.66.342.985,6.48-2.046,11.952-7.358,14.783-13.682,5.4-12.062,2.77-25.475.116-37.869-.141-.667-1.165-.381-1.02.283,2.489,11.623,5.007,24.088.592,35.586C422.447,324.674,416.921,330.553,410.206,332.667Z" transform="translate(-410.206 -281.721)" fill="#5880eb"/>
                </g>
              </g>
              <g id="Grupo_138238" data-name="Grupo 138238" transform="translate(58.78 47.443)">
                <g id="Grupo_138237" data-name="Grupo 138237">
                  <path id="Trazado_152190" data-name="Trazado 152190" d="M357.475,329.529c2.054,12.637,11.7,23.944,22.646,30.014-.072-.456-.135-.893-.188-1.32a45.865,45.865,0,0,1-14.053-12.57c-6.606-9.013-12.584-24.375-.673-31.772,7.425-4.615,15.555-3.162,22.79.5.124-.367.248-.733.379-1.1a30.541,30.541,0,0,0-10-3.2,20.8,20.8,0,0,0-15.362,4.055C358.231,317.9,356.516,323.6,357.475,329.529Z" transform="translate(-357.219 -309.906)" fill="#5880eb"/>
                </g>
              </g>
              <g id="Grupo_138240" data-name="Grupo 138240" transform="translate(6.599 84.895)">
                <g id="Grupo_138239" data-name="Grupo 138239">
                  <path id="Trazado_152191" data-name="Trazado 152191" d="M412.373,340.728a42.106,42.106,0,0,1,6.546,36.469,43.149,43.149,0,0,1-3.32,8.353q.5.252,1,.481a44.492,44.492,0,0,0,4.1-29.49,43.1,43.1,0,0,0-9.476-18.945c-.091.434-.178.868-.273,1.3C411.441,339.5,411.914,340.1,412.373,340.728Z" transform="translate(-410.945 -337.597)" fill="#5880eb"/>
                </g>
              </g>
              <g id="Grupo_138242" data-name="Grupo 138242" transform="translate(58.426 118.78)">
                <g id="Grupo_138241" data-name="Grupo 138241">
                  <path id="Trazado_152192" data-name="Trazado 152192" d="M364.577,381.745c.445-.091.89-.185,1.331-.284a37.977,37.977,0,0,1,19.872-17.752c.628-.245.354-1.265-.284-1.021a39.084,39.084,0,0,0-20.681,18.583C364.734,381.428,364.659,381.584,364.577,381.745Z" transform="translate(-364.577 -362.65)" fill="#5880eb"/>
                </g>
              </g>
              <g id="Grupo_138244" data-name="Grupo 138244" transform="translate(26.536 83.93)">
                <g id="Grupo_138243" data-name="Grupo 138243">
                  <path id="Trazado_152193" data-name="Trazado 152193" d="M394.172,337.974c5.984,3.7,11.2,8.521,14.514,14.8,2.625,4.966,5.8,13.156.821,17.733-5.648,5.2-13.627.755-18.249-3.5-5.257-4.839-10.056-12.223-9.942-19.614a11.727,11.727,0,0,1,4.225-9.121c2.643-1.983,5.781-1.608,8.632-.292.618.285.081,1.2-.534.914-2.859-1.32-5.951-1.424-8.284.941a11.3,11.3,0,0,0-2.961,8.468c.306,6.441,4.308,12.768,8.8,17.178,4.286,4.212,12.258,9.4,17.754,4.094,4.447-4.294,1.048-12.208-1.4-16.683a38.4,38.4,0,0,0-13.909-14c-.578-.358-.047-1.274.534-.914Z" transform="translate(-381.313 -336.883)" fill="#5880eb"/>
                </g>
              </g>
              <g id="Grupo_138246" data-name="Grupo 138246" transform="translate(19.93)">
                <g id="Grupo_138245" data-name="Grupo 138245">
                  <path id="Trazado_152194" data-name="Trazado 152194" d="M367.206,299.388c6.579,11.974,21.336,9.577,31.472,4.022a61.737,61.737,0,0,0,26-27.777c.289-.61-.625-1.15-.914-.533a60.823,60.823,0,0,1-11.494,16.632c-7.877,8.081-19.663,16.217-31.5,15.285a15.981,15.981,0,0,1-13.833-10.724c-2.463-6.512-1.63-13.6-.772-20.338-.381.112-.752.229-1.105.349C364.09,284.033,363.314,292.294,367.206,299.388Z" transform="translate(-364.273 -274.828)" fill="#5880eb"/>
                </g>
              </g>
              <g id="Grupo_138248" data-name="Grupo 138248" transform="translate(29.275 44.139)">
                <g id="Grupo_138247" data-name="Grupo 138247">
                  <path id="Trazado_152195" data-name="Trazado 152195" d="M395.163,307.49c4.6.875,10.946,4,12,9.1.993,4.805-4.4,6.817-8.26,6.585-4.567-.275-10.041-3.145-11.395-7.842-1.315-4.562,3.319-8.058,7.513-7.866.679.03.683,1.089,0,1.058-4.251-.193-8.271,3.641-5.9,7.9,1.983,3.558,6.354,5.641,10.322,5.712,4.152.073,8.748-2.85,5.783-7.386-2.252-3.448-6.414-5.5-10.351-6.246-.668-.127-.385-1.147.281-1.02Z" transform="translate(-387.281 -307.463)" fill="#5880eb"/>
                </g>
              </g>
            </g>
            <g id="Grupo_138251" data-name="Grupo 138251" transform="translate(171.7 53.2)">
              <g id="Grupo_138250" data-name="Grupo 138250">
                <path id="Trazado_152196" data-name="Trazado 152196" d="M357.88,365.053c2.978,11.074,5.434,22.2,7.4,33.521.506-.295,1-.6,1.5-.918-1.946-11.151-4.377-22.114-7.314-33.03-4.159-15.455,14.519-72.3,14.709-72.873a.819.819,0,1,0-1.555-.514C371.839,293.6,353.6,349.123,357.88,365.053Z" transform="translate(-357.229 -290.676)" fill="#1c2b74"/>
              </g>
            </g>
            <g id="Grupo_138257" data-name="Grupo 138257" transform="translate(103.843 144.847)">
              <g id="Grupo_138256" data-name="Grupo 138256">
                <g id="Grupo_138255" data-name="Grupo 138255">
                  <g id="Grupo_138254" data-name="Grupo 138254">
                    <g id="Grupo_138253" data-name="Grupo 138253">
                      <g id="Grupo_138252" data-name="Grupo 138252">
                        <path id="Trazado_152197" data-name="Trazado 152197" d="M389.37,369.589a70.069,70.069,0,0,0,23.117,3.012,106.736,106.736,0,0,0,23.522-3.2.837.837,0,1,0-.449-1.614,105.086,105.086,0,0,1-23.147,3.136c-11.649.246-27.751-1.677-38.3-12.244a.838.838,0,0,0-1.186,1.185A40.672,40.672,0,0,0,389.37,369.589Z" transform="translate(-372.679 -358.437)" fill="#1c2b74"/>
                      </g>
                    </g>
                  </g>
                </g>
              </g>
            </g>
            <g id="Grupo_138264" data-name="Grupo 138264" transform="translate(106.832 104.115)">
              <g id="Grupo_138263" data-name="Grupo 138263">
                <g id="Grupo_138262" data-name="Grupo 138262">
                  <g id="Grupo_138261" data-name="Grupo 138261">
                    <g id="Grupo_138260" data-name="Grupo 138260">
                      <g id="Grupo_138259" data-name="Grupo 138259">
                        <g id="Grupo_138258" data-name="Grupo 138258">
                          <path id="Trazado_152198" data-name="Trazado 152198" d="M384.512,329.851c-.026.254-.058.522-.093.806a44.868,44.868,0,0,0,18.164-.2,41.327,41.327,0,0,1,26.028,3.86.7.7,0,0,0,.354.1.715.715,0,0,0,.358-1.336,42.07,42.07,0,0,0-27.017-4.025c-7.5,1.462-13.752,1.233-18.423.039.4.43.638.663.638.663Z" transform="translate(-383.884 -328.321)" fill="#1c2b74"/>
                        </g>
                      </g>
                    </g>
                  </g>
                </g>
              </g>
            </g>
            <g id="Grupo_138270" data-name="Grupo 138270" transform="translate(122.486 39.025)">
              <g id="Grupo_138269" data-name="Grupo 138269">
                <g id="Grupo_138268" data-name="Grupo 138268">
                  <g id="Grupo_138267" data-name="Grupo 138267">
                    <g id="Grupo_138266" data-name="Grupo 138266">
                      <g id="Grupo_138265" data-name="Grupo 138265">
                        <path id="Trazado_152199" data-name="Trazado 152199" d="M388.664,294.533c8.729,0,26.54-12.5,27.294-13.034a.717.717,0,1,0-.826-1.171c-.181.128-18.191,12.772-26.467,12.772-7.918,0-9.673-8.649-9.689-8.737a.717.717,0,0,0-1.408.27C377.585,284.731,379.575,294.533,388.664,294.533Z" transform="translate(-377.553 -280.196)" fill="#1c2b74"/>
                      </g>
                    </g>
                  </g>
                </g>
              </g>
            </g>
            <g id="Grupo_138286" data-name="Grupo 138286">
              <g id="Grupo_138271" data-name="Grupo 138271">
                <path id="Trazado_152200" data-name="Trazado 152200" d="M477.334,285.651s4.761,11.614,11.245,12.842c5.459,1.035,12.82-8.682,12.82-8.682,2.759-4.672,2.894-7.178,3.073-12.041s-7.95-8.437-7.95-8.437-9.2-17.112-12.373-17.96,3.621,16.148,3.621,16.148a3.114,3.114,0,0,0-2.984-.1c-2.39,1.06-7.592,5.676-9.551,9.086C473.479,279.559,477.334,285.651,477.334,285.651Z" transform="translate(-474.777 -251.342)" fill="#eaad8f"/>
              </g>
              <g id="Grupo_138273" data-name="Grupo 138273" transform="translate(14.384 18.86)">
                <g id="Grupo_138272" data-name="Grupo 138272">
                  <path id="Trazado_152201" data-name="Trazado 152201" d="M489.019,275.434c-3.725-.793-8.46-1.442-11.415-4.072-1.093-.972-2.167-2.673-1.4-4.145.742-1.427,2.758-1.615,4.136-1.915.663-.145.945.872.281,1.017-1.421.31-3.668.417-3.457,2.309.193,1.741,2.087,2.735,3.534,3.379a43.264,43.264,0,0,0,8.6,2.412c.664.141.383,1.159-.281,1.017Z" transform="translate(-475.945 -265.287)" fill="#b4665e"/>
                </g>
              </g>
              <g id="Grupo_138275" data-name="Grupo 138275" transform="translate(2.698 22.981)">
                <g id="Grupo_138274" data-name="Grupo 138274">
                  <path id="Trazado_152202" data-name="Trazado 152202" d="M498.042,269.088a30.209,30.209,0,0,1-12.34,9.526c-.625.264-.9-.757-.281-1.017a28.885,28.885,0,0,0,11.71-9.042c.409-.532,1.327-.007.912.533Z" transform="translate(-485.073 -268.333)" fill="#b4665e"/>
                </g>
              </g>
              <g id="Grupo_138277" data-name="Grupo 138277" transform="translate(12.221 29.728)">
                <g id="Grupo_138276" data-name="Grupo 138276">
                  <path id="Trazado_152203" data-name="Trazado 152203" d="M484.328,273.449a12.782,12.782,0,0,1,4.815,11.529c-.066.669-1.123.676-1.056,0a11.835,11.835,0,0,0-4.505-10.782c-.528-.429.223-1.171.747-.747Z" transform="translate(-483.402 -273.322)" fill="#b4665e"/>
                </g>
              </g>
              <g id="Grupo_138279" data-name="Grupo 138279" transform="translate(7.625 17.38)">
                <g id="Grupo_138278" data-name="Grupo 138278">
                  <path id="Trazado_152204" data-name="Trazado 152204" d="M491.753,272.238c-1.373-2.586-2.843-5.256-5.113-7.167-.521-.438.23-1.181.747-.747,2.334,1.967,3.865,4.722,5.278,7.381.318.6-.594,1.135-.912.533Z" transform="translate(-486.464 -264.193)" fill="#b4665e"/>
                </g>
              </g>
              <g id="Grupo_138281" data-name="Grupo 138281" transform="translate(4.21 20.746)">
                <g id="Grupo_138280" data-name="Grupo 138280">
                  <path id="Trazado_152205" data-name="Trazado 152205" d="M494.293,274.993a28.867,28.867,0,0,0-5.169-7.4c-.468-.492.277-1.24.747-.747a29.729,29.729,0,0,1,5.333,7.617c.291.61-.618,1.147-.91.533Z" transform="translate(-488.975 -266.681)" fill="#b4665e"/>
                </g>
              </g>
              <g id="Grupo_138283" data-name="Grupo 138283" transform="translate(0.585 24.843)">
                <g id="Grupo_138282" data-name="Grupo 138282">
                  <path id="Trazado_152206" data-name="Trazado 152206" d="M497.478,275.654l.149.229-.912.533a15.327,15.327,0,0,0-4.147-5.823c-.514-.446.235-1.19.747-.747a15.911,15.911,0,0,1,4.312,6.036.528.528,0,0,1-.912.533l-.149-.229c-.371-.571.542-1.1.912-.533Z" transform="translate(-492.396 -269.71)" fill="#b4665e"/>
                </g>
              </g>
              <g id="Grupo_138285" data-name="Grupo 138285" transform="translate(12.892 16.173)">
                <g id="Grupo_138284" data-name="Grupo 138284">
                  <path id="Trazado_152207" data-name="Trazado 152207" d="M485.971,263.535a13.288,13.288,0,0,1,2,4.108.528.528,0,0,1-1.017.281,12.437,12.437,0,0,0-1.895-3.856c-.389-.559.525-1.087.912-.533Z" transform="translate(-484.965 -263.3)" fill="#b4665e"/>
                </g>
              </g>
            </g>
          </g>
          <g id="Grupo_138327" data-name="Grupo 138327" transform="translate(156.53 83.297)">
            <g id="Grupo_138292" data-name="Grupo 138292" transform="translate(14.859)">
              <g id="Grupo_138291" data-name="Grupo 138291">
                <g id="Grupo_138290" data-name="Grupo 138290">
                  <g id="Grupo_138289" data-name="Grupo 138289">
                    <g id="Grupo_138288" data-name="Grupo 138288">
                      <path id="Trazado_152208" data-name="Trazado 152208" d="M327.353,279.566a14.493,14.493,0,0,1,19.726,3.182c.461.611.882,1.163,1.307,1.747l1.273,1.722c.845,1.15,1.672,2.3,2.5,3.461a.2.2,0,0,0,.022.028c.231.322.465.647.693.971.038.051.072.1.105.151,1.382,1.931,2.725,3.88,4.082,5.831,1.628,2.333,3.2,4.7,4.789,7.074l2.364,3.571,2.329,3.6.046.074q.349.54.688,1.078,2.625,4.122,5.172,8.352c.176.285.35.576.522.866q1.315,2.2,2.6,4.424c1.457,2.54,2.9,5.114,4.306,7.793.7,1.342,1.4,2.708,2.086,4.117.195.4.385.8.58,1.2.134.28.265.564.4.851.357.77.711,1.562,1.062,2.386.331.784.665,1.6,1,2.466s.661,1.788.989,2.843c.133.442.272.9.4,1.4.193.7.375,1.489.544,2.437a21.612,21.612,0,0,1,.314,3.069l0,.237v.275l-.011.544c-.005.216-.014.284-.019.407l-.027.334-.057.671-.038.334-.042.3c-.054.39-.116.783-.189,1.175-.069.358-.145.7-.222,1.054s-.166.66-.25.977l-.129.471-.069.235-.066.215-.28.858c-.092.291-.192.531-.289.8-.192.542-.391,1.022-.592,1.5a45.212,45.212,0,0,1-2.528,5.056c-.155.271-.312.541-.468.807-1.25,2.122-2.535,4.051-3.84,5.888l-.559.78c-.168.227-.331.456-.5.682-1.726,2.352-3.5,4.578-5.292,6.738-.108.135-.22.269-.333.4-.139.165-.277.327-.415.492-3.7,4.377-7.513,8.483-11.434,12.467-.7.707-1.4,1.405-2.106,2.1q-.422.422-.859.844c-1.064,1.05-2.145,2.087-3.223,3.118q-1.58,1.483-3.176,2.95c-.536.487-1.077.966-1.618,1.449l-.824.73-.853.745a9.664,9.664,0,0,1-14.122-13.029l.137-.179,4.843-6.552q.653-.872,1.3-1.749c.2-.273.4-.546.6-.817.986-1.346,1.962-2.7,2.938-4.04,2.815-3.89,5.575-7.792,8.175-11.683.2-.3.406-.613.61-.92l.414-.629q.972-1.459,1.889-2.917c.2-.312.391-.624.584-.936q.84-1.355,1.639-2.694c.638-1.077,1.239-2.152,1.8-3.195s1.075-2.063,1.513-3.026c.314-.7.6-1.388.811-1.976-.092-.206-.2-.44-.315-.687-.2-.426-.434-.894-.684-1.378-.5-.975-1.066-2.033-1.673-3.1s-1.248-2.169-1.914-3.272c-.617-1.028-1.252-2.067-1.9-3.105-.195-.312-.392-.628-.588-.94q-.832-1.329-1.691-2.659c-1.442-2.255-2.927-4.516-4.431-6.775s-3.032-4.523-4.562-6.79l-3.012-4.419-.587-.864-1.037-1.52-4.689-6.8-4.7-6.8-4.653-6.763-.012-.018a14.457,14.457,0,0,1,3.714-20.112Zm33.018,74.882-.005.072-.007.146-.005.082a2.027,2.027,0,0,0,.061-.235,1.872,1.872,0,0,0,.047-.192,1.466,1.466,0,0,1,.024-.149l.007-.038,0-.02v-.038c-.005-.024,0-.062-.011-.042s-.015.005-.019.019a.567.567,0,0,0-.045.141l-.005.038-.015.07C360.384,354.349,360.377,354.4,360.37,354.448Z" transform="translate(-321.087 -277.026)" fill="#314fa5"/>
                    </g>
                  </g>
                </g>
              </g>
            </g>
            <g id="Grupo_138294" data-name="Grupo 138294" transform="translate(45.453 12.681)">
              <g id="Grupo_138293" data-name="Grupo 138293">
                <path id="Trazado_152209" data-name="Trazado 152209" d="M336.969,296.923c2.151,5.808,8.015,11.63,14.492,11.832q-.341-.54-.688-1.078c-5.816-.582-10.959-5.946-12.884-11.21a17.019,17.019,0,0,1-.726-8.943c-.034-.05-.068-.1-.105-.151-.227-.325-.461-.649-.692-.971A18.2,18.2,0,0,0,336.969,296.923Z" transform="translate(-335.861 -286.402)" fill="#5880eb"/>
              </g>
            </g>
            <g id="Grupo_138296" data-name="Grupo 138296" transform="translate(32.505 42.128)">
              <g id="Grupo_138295" data-name="Grupo 138295">
                <path id="Trazado_152210" data-name="Trazado 152210" d="M343.516,310.6l.587.864a8.948,8.948,0,0,1,8.34-1.954c3.867,1.062,6.642,4.623,7.666,8.38,1.366,5.019.047,9.81-2.31,14.216.2.312.394.628.588.94,3.074-5.579,4.712-11.744,1.808-17.848-1.677-3.525-4.892-6.446-8.867-6.947A9.968,9.968,0,0,0,343.516,310.6Z" transform="translate(-343.516 -308.174)" fill="#5880eb"/>
              </g>
            </g>
            <g id="Grupo_138298" data-name="Grupo 138298" transform="translate(47.514 89.434)">
              <g id="Grupo_138297" data-name="Grupo 138297">
                <path id="Trazado_152211" data-name="Trazado 152211" d="M327.827,344.086c.859.269,1.715.515,2.556.738,7.041,1.876,15.957,3.668,21.291,9.052l.559-.78c-4.346-4.275-10.8-6.491-16.649-8-2.255-.582-4.714-1.2-7.172-1.95C328.218,343.462,328.024,343.773,327.827,344.086Z" transform="translate(-327.827 -343.15)" fill="#5880eb"/>
              </g>
            </g>
            <g id="Grupo_138300" data-name="Grupo 138300" transform="translate(32.885 93.916)">
              <g id="Grupo_138299" data-name="Grupo 138299">
                <path id="Trazado_152212" data-name="Trazado 152212" d="M345.854,363.924a12.964,12.964,0,0,0,2.544,1.4c3.292,1.34,6.849.864,9.062-2.084,3.216-4.277,4.527-12.6.72-16.775-.2.307-.407.615-.61.92,3.435,4.062,1.979,12.12-1.416,15.818-2.681,2.923-6.787,1.892-9.7-.095C346.256,363.377,346.055,363.65,345.854,363.924Z" transform="translate(-345.854 -346.464)" fill="#5880eb"/>
              </g>
            </g>
            <g id="Grupo_138302" data-name="Grupo 138302" transform="translate(50.03 107.295)">
              <g id="Grupo_138301" data-name="Grupo 138301">
                <path id="Trazado_152213" data-name="Trazado 152213" d="M332.915,372.953q.436-.422.859-.844a12.385,12.385,0,0,1,5.356-12.9,11.65,11.65,0,0,1,8.184-1.673c.138-.165.276-.327.415-.492.112-.135.224-.269.333-.4a12.63,12.63,0,0,0-9.5,1.714A13.47,13.47,0,0,0,332.915,372.953Z" transform="translate(-332.521 -356.356)" fill="#5880eb"/>
              </g>
            </g>
            <g id="Grupo_138304" data-name="Grupo 138304" transform="translate(63.063 43.386)">
              <g id="Grupo_138303" data-name="Grupo 138303">
                <path id="Trazado_152214" data-name="Trazado 152214" d="M325.42,322.418a10.906,10.906,0,0,0,12.516,5.939c-.134-.287-.265-.571-.4-.851a9.544,9.544,0,0,1-4.1.081,10.175,10.175,0,0,1-7.7-7.344,12.093,12.093,0,0,1,2.228-10.274c-.172-.289-.346-.58-.522-.866C324.554,312.979,323.113,317.494,325.42,322.418Z" transform="translate(-324.276 -309.104)" fill="#5880eb"/>
              </g>
            </g>
            <g id="Grupo_138306" data-name="Grupo 138306" transform="translate(11.514 15.738)">
              <g id="Grupo_138305" data-name="Grupo 138305">
                <path id="Trazado_152215" data-name="Trazado 152215" d="M376.423,312.549a.664.664,0,0,1-.5-.285c-4.343-6.324-16.348-22.381-16.47-22.542a.662.662,0,0,1,1.06-.793c.12.161,12.143,16.24,16.5,22.586a.662.662,0,0,1-.591,1.035Z" transform="translate(-359.323 -288.662)" fill="#1c2b74"/>
              </g>
            </g>
            <g id="Grupo_138309" data-name="Grupo 138309" transform="translate(75.65 71.737)">
              <g id="Grupo_138308" data-name="Grupo 138308">
                <g id="Grupo_138307" data-name="Grupo 138307">
                  <path id="Trazado_152216" data-name="Trazado 152216" d="M326.463,336.628c-.005.215-.015.284-.02.4l-.026.334-.059.671-.035.334-.042.3c-.055.392-.119.784-.188,1.177-.072.357-.147.7-.226,1.052s-.164.663-.25.979l-.13.471-.068.234-.066.215-.279.856c-.093.292-.191.533-.288.8-.193.54-.394,1.02-.594,1.5a45.658,45.658,0,0,1-2.526,5.054q-.235.408-.469.807c-.66-10.594,1.779-17.488,4.413-21.755.192.7.375,1.49.544,2.436a21.263,21.263,0,0,1,.312,3.069l.005.239v.273Z" transform="translate(-321.087 -330.066)" fill="#1c2b74"/>
                </g>
              </g>
            </g>
            <g id="Grupo_138314" data-name="Grupo 138314" transform="translate(53.717 74.029)">
              <g id="Grupo_138313" data-name="Grupo 138313">
                <g id="Grupo_138312" data-name="Grupo 138312">
                  <g id="Grupo_138311" data-name="Grupo 138311">
                    <g id="Grupo_138310" data-name="Grupo 138310">
                      <path id="Trazado_152217" data-name="Trazado 152217" d="M334.535,336.272a.566.566,0,0,1-.308-1.028,21.008,21.008,0,0,1,9.013-3.481.566.566,0,1,1,.1,1.128,20.22,20.22,0,0,0-8.459,3.277A.568.568,0,0,1,334.535,336.272Z" transform="translate(-333.988 -331.76)" fill="#1c2b74"/>
                    </g>
                  </g>
                </g>
              </g>
            </g>
            <g id="Grupo_138319" data-name="Grupo 138319" transform="translate(54.336 72.719)">
              <g id="Grupo_138318" data-name="Grupo 138318">
                <g id="Grupo_138317" data-name="Grupo 138317">
                  <g id="Grupo_138316" data-name="Grupo 138316">
                    <g id="Grupo_138315" data-name="Grupo 138315">
                      <path id="Trazado_152218" data-name="Trazado 152218" d="M338.272,336.119a.594.594,0,0,1-.184-.038.566.566,0,0,1-.325-.732,13.744,13.744,0,0,1,3.212-4.412.566.566,0,1,1,.759.84,12.857,12.857,0,0,0-2.915,3.979A.564.564,0,0,1,338.272,336.119Z" transform="translate(-337.726 -330.792)" fill="#1c2b74"/>
                    </g>
                  </g>
                </g>
              </g>
            </g>
            <g id="Grupo_138326" data-name="Grupo 138326" transform="translate(0 117.019)">
              <g id="Grupo_138325" data-name="Grupo 138325">
                <g id="Grupo_138324" data-name="Grupo 138324">
                  <g id="Grupo_138323" data-name="Grupo 138323">
                    <g id="Grupo_138322" data-name="Grupo 138322">
                      <g id="Grupo_138321" data-name="Grupo 138321">
                        <g id="Grupo_138320" data-name="Grupo 138320">
                          <path id="Trazado_152219" data-name="Trazado 152219" d="M376.812,363.547a49.166,49.166,0,0,0-7.485.488c-3,.545-3.886,1.637-3.886,1.637l-.323,5.548a22.189,22.189,0,0,0-7.03.868c-3.569,1.089-6.112,4.048-7.731,5.218s1.228,2.862,4.179,1.739a23.861,23.861,0,0,1,6.684-1.582,22.237,22.237,0,0,0-5.716,2.663c-2.05,1.558-6.572,4.262-6.135,6.059s4.7-.371,7.738-1.338,4.305-1.854,6.947-2.092a17.2,17.2,0,0,0-4.224,2.727c-1.325,1.4-3.961,3.848-4.588,5.2s2.885,1.711,5.666-.043,3.925-3.944,5.967-3.8a39.753,39.753,0,0,0-2.854,3.33c-1.052,1.453-2.187,5.828-.63,6.295s5.2-4.723,7.774-5.57a130.672,130.672,0,0,0,13.407-5.434,14.894,14.894,0,0,0,7.306-7.536,3.357,3.357,0,0,0-.055-2.821A21.609,21.609,0,0,0,376.812,363.547Z" transform="translate(-349.34 -363.546)" fill="#eaad8f"/>
                        </g>
                      </g>
                    </g>
                  </g>
                </g>
              </g>
            </g>
          </g>
          <g id="Grupo_138329" data-name="Grupo 138329" transform="translate(111.4)">
            <g id="Grupo_138328" data-name="Grupo 138328">
              <path id="Trazado_152220" data-name="Trazado 152220" d="M393.989,222.554s19.192-4.327,26.653,7.92-1.229,31.407-1.229,31.407.693,4.984,10.709,9.033,5.36,20.106-4.973,17.852c0,0-3.677,14.738-14.76,6.427s-27.848-5.967-27.848-5.967-6.253,5.328-13.5,1.7-2.132-9.165-2.132-9.165-7.512,3.38-11.943-3.828c-4.7-7.65,7.866-13.367,8.959-17.272,3.966-14.174-1.581-11.165-7.061-18.993-6.691-9.56,6.032-17.481,11.609-10.379,0,0-8.354-8.361,1.251-14.339C378.5,211.492,393.989,222.554,393.989,222.554Z" transform="translate(-353.919 -215.439)" fill="#171612"/>
            </g>
          </g>
          <g id="Grupo_138418" data-name="Grupo 138418" transform="translate(121.588 12.59)">
            <g id="Grupo_138417" data-name="Grupo 138417">
              <g id="Grupo_138416" data-name="Grupo 138416">
                <g id="Grupo_138332" data-name="Grupo 138332" transform="translate(3.785 24.174)">
                  <g id="Grupo_138331" data-name="Grupo 138331">
                    <g id="Grupo_138330" data-name="Grupo 138330">
                      <path id="Trazado_152221" data-name="Trazado 152221" d="M403.755,242.621s-2.713-.042-3.584,3.335.265,9.28,3.81,8.936S403.755,242.621,403.755,242.621Z" transform="translate(-399.892 -242.621)" fill="#c6695d"/>
                    </g>
                  </g>
                </g>
                <g id="Grupo_138334" data-name="Grupo 138334" transform="translate(0 33.704)">
                  <g id="Grupo_138333" data-name="Grupo 138333">
                    <path id="Trazado_152222" data-name="Trazado 152222" d="M410.769,257.209a7.542,7.542,0,1,0-7.543,7.542A7.55,7.55,0,0,0,410.769,257.209Zm-1.366,0a6.176,6.176,0,1,1-6.177-6.177A6.183,6.183,0,0,1,409.4,257.209Z" transform="translate(-395.684 -249.667)" fill="#fff"/>
                  </g>
                </g>
                <g id="Grupo_138339" data-name="Grupo 138339" transform="translate(12.225 40.301)">
                  <g id="Grupo_138336" data-name="Grupo 138336" transform="translate(2.176 11.492)">
                    <g id="Grupo_138335" data-name="Grupo 138335" transform="translate(0)">
                      <line id="Lnea_252" data-name="Lnea 252" y2="0.003" fill="#eaad8f"/>
                    </g>
                  </g>
                  <g id="Grupo_138338" data-name="Grupo 138338">
                    <g id="Grupo_138337" data-name="Grupo 138337">
                      <path id="Trazado_152223" data-name="Trazado 152223" d="M405.521,278.468s-5.594,8.359-15.787,8.785c-12.949.541-13.844-5.108-13.844-5.108a24.347,24.347,0,0,0,1.554-5.183q.193-1.037.319-2.145a58.7,58.7,0,0,0,.319-6.819q0-.907-.016-1.88v-.076c9.051-1.194,16.683-4.378,22.3-10.4l1.407-.656.947-.445.112.533-.335,1.624C400.888,264.343,401.979,270.916,405.521,278.468Z" transform="translate(-375.89 -254.545)" fill="#eaad8f"/>
                    </g>
                  </g>
                </g>
                <g id="Grupo_138342" data-name="Grupo 138342" transform="translate(14.099 47.572)">
                  <g id="Grupo_138341" data-name="Grupo 138341">
                    <g id="Grupo_138340" data-name="Grupo 138340">
                      <path id="Trazado_152224" data-name="Trazado 152224" d="M400.527,259.921c-2.3,4.028-7.387,11.047-15.784,13a58.7,58.7,0,0,0,.319-6.819q0-.907-.016-1.88c.172.039.35.072.527.1C390.356,265.132,395.84,263.182,400.527,259.921Z" transform="translate(-384.743 -259.921)" fill="#171612"/>
                    </g>
                  </g>
                </g>
                <g id="Grupo_138343" data-name="Grupo 138343" transform="translate(9.913 54.068)">
                  <path id="Trazado_152225" data-name="Trazado 152225" d="M408.2,275.882s-1.182-10.95-2.981-11.154-8.137,6.968-16.33,6.5-9.958-6.278-11.733-3.9-2.313,10.5-2.313,10.5,1.123,7.256,10.34,7.822S406.57,279.008,408.2,275.882Z" transform="translate(-374.845 -264.724)" fill="#314fa5"/>
                </g>
                <g id="Grupo_138345" data-name="Grupo 138345" transform="translate(37.365 55.487)">
                  <g id="Grupo_138344" data-name="Grupo 138344">
                    <path id="Trazado_152226" data-name="Trazado 152226" d="M377.531,266.109c2.153,3.636,2.719,7.931,2.733,12.091a.7.7,0,0,1-1.4,0c-.015-3.918-.514-7.958-2.543-11.385a.7.7,0,0,1,1.208-.706Z" transform="translate(-376.221 -265.772)" fill="#5880eb"/>
                  </g>
                </g>
                <g id="Grupo_138347" data-name="Grupo 138347" transform="translate(33.188 57.906)">
                  <g id="Grupo_138346" data-name="Grupo 138346">
                    <path id="Trazado_152227" data-name="Trazado 152227" d="M381.052,268.025a31.9,31.9,0,0,1,2.182,12.665.7.7,0,0,1-1.4,0A30.9,30.9,0,0,0,379.7,268.4c-.345-.83,1.008-1.193,1.35-.372Z" transform="translate(-379.646 -267.562)" fill="#5880eb"/>
                  </g>
                </g>
                <g id="Grupo_138349" data-name="Grupo 138349" transform="translate(28.273 59.869)">
                  <g id="Grupo_138348" data-name="Grupo 138348">
                    <path id="Trazado_152228" data-name="Trazado 152228" d="M385.4,269.519a78.474,78.474,0,0,1,1.2,12.818.7.7,0,0,1-1.4,0,76.348,76.348,0,0,0-1.155-12.446c-.156-.88,1.193-1.259,1.35-.372Z" transform="translate(-384.036 -269.013)" fill="#5880eb"/>
                  </g>
                </g>
                <g id="Grupo_138351" data-name="Grupo 138351" transform="translate(23.373 60.746)">
                  <g id="Grupo_138350" data-name="Grupo 138350">
                    <path id="Trazado_152229" data-name="Trazado 152229" d="M389.933,270.337q-.022,6.8-.047,13.6a.7.7,0,0,1-1.4,0q.024-6.8.049-13.6a.7.7,0,0,1,1.4,0Z" transform="translate(-388.486 -269.661)" fill="#5880eb"/>
                  </g>
                </g>
                <g id="Grupo_138352" data-name="Grupo 138352" transform="translate(9.359 65.589)">
                  <path id="Trazado_152230" data-name="Trazado 152230" d="M388.452,283.994c.287,0,.58-.005.878-.018,10.074-.4,18.988-9.159,19.363-9.532a.7.7,0,0,0-.993-1c-.088.088-8.906,8.744-18.427,9.125-10.462.411-13.353-7.075-13.471-7.394a.7.7,0,0,0-1.323.484C374.511,275.747,377.645,283.994,388.452,283.994Z" transform="translate(-374.436 -273.242)" fill="#5880eb"/>
                </g>
                <g id="Grupo_138354" data-name="Grupo 138354" transform="translate(16.236 59.583)">
                  <g id="Grupo_138353" data-name="Grupo 138353">
                    <path id="Trazado_152231" data-name="Trazado 152231" d="M395.669,269.665a46.315,46.315,0,0,0-1.9,13.132.7.7,0,0,1-1.4,0,47.643,47.643,0,0,1,1.949-13.5.7.7,0,0,1,1.348.372Z" transform="translate(-392.371 -268.802)" fill="#5880eb"/>
                  </g>
                </g>
                <g id="Grupo_138356" data-name="Grupo 138356" transform="translate(11.325 57.114)">
                  <g id="Grupo_138355" data-name="Grupo 138355">
                    <path id="Trazado_152232" data-name="Trazado 152232" d="M399.421,267.815A33.332,33.332,0,0,0,397,280.151a.7.7,0,0,1-1.4,0,34.383,34.383,0,0,1,2.472-12.708c.331-.825,1.687-.465,1.35.372Z" transform="translate(-395.599 -266.976)" fill="#5880eb"/>
                  </g>
                </g>
                <g id="Grupo_138359" data-name="Grupo 138359" transform="translate(5.143)">
                  <g id="Grupo_138358" data-name="Grupo 138358">
                    <g id="Grupo_138357" data-name="Grupo 138357">
                      <path id="Trazado_152233" data-name="Trazado 152233" d="M415.006,253.411c-.185,4.82-4.492,10.567-10.8,10.5h-.17c-.112.273-.239.541-.373.814-.058.116-.118.237-.178.354a.2.2,0,0,1-.019.032c-4.241,8.038-16.095,12.408-22.412,12.338a14.372,14.372,0,0,1-4.233-.716c-6.634-1.71-7.539-10.8-6.224-17.667a26.317,26.317,0,0,1,.7-2.819l.057-.18s-1.871-9.75-2.234-13.986c-.7-8.211,4.308-16.333,22.291-17.278s21.853,10.343,22.885,16.292c.176.991-.249,6.841-1.265,7.749C414.695,249.775,415.069,251.792,415.006,253.411Z" transform="translate(-369.055 -224.748)" fill="#eaad8f"/>
                    </g>
                  </g>
                </g>
                <g id="Grupo_138371" data-name="Grupo 138371" transform="translate(19.47 24.404)">
                  <g id="Grupo_138364" data-name="Grupo 138364" transform="translate(1.249 0.852)">
                    <g id="Grupo_138363" data-name="Grupo 138363">
                      <g id="Grupo_138362" data-name="Grupo 138362">
                        <g id="Grupo_138361" data-name="Grupo 138361">
                          <g id="Grupo_138360" data-name="Grupo 138360">
                            <path id="Trazado_152234" data-name="Trazado 152234" d="M392.125,245.632c.038,1.242-.454,2.263-1.1,2.282s-1.2-.97-1.233-2.211.454-2.261,1.1-2.282S392.088,244.392,392.125,245.632Z" transform="translate(-389.79 -243.421)" fill="#171612"/>
                          </g>
                        </g>
                      </g>
                    </g>
                  </g>
                  <g id="Grupo_138370" data-name="Grupo 138370">
                    <g id="Grupo_138369" data-name="Grupo 138369">
                      <g id="Grupo_138368" data-name="Grupo 138368">
                        <g id="Grupo_138367" data-name="Grupo 138367">
                          <g id="Grupo_138366" data-name="Grupo 138366">
                            <g id="Grupo_138365" data-name="Grupo 138365">
                              <path id="Trazado_152235" data-name="Trazado 152235" d="M388.2,244.094a.323.323,0,0,1-.147-.138.329.329,0,0,1,.129-.446c.133-.074,3.283-1.772,5.709.327a.329.329,0,0,1-.43.5c-2.083-1.8-4.933-.266-4.961-.25A.329.329,0,0,1,388.2,244.094Z" transform="translate(-388.012 -242.791)" fill="#171612"/>
                            </g>
                          </g>
                        </g>
                      </g>
                    </g>
                  </g>
                </g>
                <g id="Grupo_138382" data-name="Grupo 138382" transform="translate(8.05 25.017)">
                  <g id="Grupo_138375" data-name="Grupo 138375" transform="translate(1.862 0.747)">
                    <g id="Grupo_138374" data-name="Grupo 138374">
                      <g id="Grupo_138373" data-name="Grupo 138373">
                        <g id="Grupo_138372" data-name="Grupo 138372">
                          <path id="Trazado_152236" data-name="Trazado 152236" d="M400.116,246.008c.037,1.242-.456,2.263-1.1,2.282s-1.2-.971-1.235-2.211.456-2.261,1.1-2.282S400.078,244.768,400.116,246.008Z" transform="translate(-397.78 -243.797)" fill="#171612"/>
                        </g>
                      </g>
                    </g>
                  </g>
                  <g id="Grupo_138381" data-name="Grupo 138381">
                    <g id="Grupo_138380" data-name="Grupo 138380">
                      <g id="Grupo_138379" data-name="Grupo 138379">
                        <g id="Grupo_138378" data-name="Grupo 138378">
                          <g id="Grupo_138377" data-name="Grupo 138377">
                            <g id="Grupo_138376" data-name="Grupo 138376">
                              <path id="Trazado_152237" data-name="Trazado 152237" d="M396.693,244.964a.329.329,0,0,1-.1-.578c.122-.091,3.011-2.2,5.7-.449a.329.329,0,1,1-.36.55c-2.309-1.5-4.922.406-4.948.426A.332.332,0,0,1,396.693,244.964Z" transform="translate(-396.463 -243.245)" fill="#171612"/>
                            </g>
                          </g>
                        </g>
                      </g>
                    </g>
                  </g>
                </g>
                <g id="Grupo_138386" data-name="Grupo 138386" transform="translate(35.837 36.899)">
                  <g id="Grupo_138385" data-name="Grupo 138385">
                    <g id="Grupo_138384" data-name="Grupo 138384">
                      <g id="Grupo_138383" data-name="Grupo 138383">
                        <path id="Trazado_152238" data-name="Trazado 152238" d="M381.5,254.293h-.169c-.112.273-.241.541-.375.814-.057.118-.118.237-.177.354a.207.207,0,0,1-.019.034,5.8,5.8,0,0,1-2.4-1.058A4.618,4.618,0,0,1,377.131,253a.652.652,0,0,1,1.142-.629,3.507,3.507,0,0,0,1.5,1.417,4.626,4.626,0,0,0,1.123.4A5.309,5.309,0,0,0,381.5,254.293Z" transform="translate(-377.049 -252.03)" fill="#c6695d"/>
                      </g>
                    </g>
                  </g>
                </g>
                <g id="Grupo_138389" data-name="Grupo 138389" transform="translate(6.679 31.5)" opacity="0.5">
                  <g id="Grupo_138388" data-name="Grupo 138388">
                    <g id="Grupo_138387" data-name="Grupo 138387">
                      <path id="Trazado_152239" data-name="Trazado 152239" d="M402.868,249.615c-.041.716-1.637,1.223-3.719,1.242a26.293,26.293,0,0,1,.7-2.819C401.638,248.336,402.906,248.962,402.868,249.615Z" transform="translate(-399.148 -248.038)" fill="#c6695d"/>
                    </g>
                  </g>
                </g>
                <g id="Grupo_138392" data-name="Grupo 138392" transform="translate(35.425 35.344)">
                  <g id="Grupo_138391" data-name="Grupo 138391">
                    <g id="Grupo_138390" data-name="Grupo 138390">
                      <path id="Trazado_152240" data-name="Trazado 152240" d="M381.19,252.139c-.408.285-.814.573-1.232.847a6.171,6.171,0,1,1-3.472-.715,1.486,1.486,0,0,0,.9-1.382q-.177-.008-.353-.008a7.566,7.566,0,1,0,4.155,1.259Z" transform="translate(-369.492 -250.88)" fill="#fff"/>
                    </g>
                  </g>
                </g>
                <g id="Grupo_138395" data-name="Grupo 138395" transform="translate(14.808 42.089)">
                  <g id="Grupo_138394" data-name="Grupo 138394">
                    <g id="Grupo_138393" data-name="Grupo 138393">
                      <path id="Trazado_152241" data-name="Trazado 152241" d="M395.163,257.114a2.237,2.237,0,0,0,1.369-.606.378.378,0,1,0-.541-.527,1.537,1.537,0,0,1-1.7.223.379.379,0,0,0-.3.7A2.473,2.473,0,0,0,395.163,257.114Z" transform="translate(-393.76 -255.867)" fill="#c6695d"/>
                    </g>
                  </g>
                </g>
                <g id="Grupo_138398" data-name="Grupo 138398" transform="translate(11.585 37.492)">
                  <g id="Grupo_138397" data-name="Grupo 138397">
                    <g id="Grupo_138396" data-name="Grupo 138396">
                      <path id="Trazado_152242" data-name="Trazado 152242" d="M396.4,255.725l.065-.005a4.79,4.79,0,0,0,3.857-2.4.586.586,0,0,0-1.048-.525,3.62,3.62,0,0,1-2.908,1.762l-.053,0a3.554,3.554,0,0,1-3.008-.968.586.586,0,0,0-.913.734A4.7,4.7,0,0,0,396.4,255.725Z" transform="translate(-392.268 -252.468)" fill="#c6695d"/>
                    </g>
                  </g>
                </g>
                <g id="Grupo_138400" data-name="Grupo 138400" transform="translate(11.58 27.141)">
                  <g id="Grupo_138399" data-name="Grupo 138399">
                    <path id="Trazado_152243" data-name="Trazado 152243" d="M397.339,253.176a.546.546,0,0,1-.293-.085l-2.4-1.531a.546.546,0,0,1,.034-.941,7.867,7.867,0,0,0,3.89-5.394.547.547,0,0,1,1.059.273,9.093,9.093,0,0,1-3.655,5.613l1.661,1.059a.546.546,0,0,1-.295,1.006Z" transform="translate(-394.391 -244.815)" fill="#b4665e"/>
                  </g>
                </g>
                <g id="Grupo_138402" data-name="Grupo 138402" transform="translate(18.947 17.173)">
                  <g id="Grupo_138401" data-name="Grupo 138401">
                    <path id="Trazado_152244" data-name="Trazado 152244" d="M386.919,240.341a1.326,1.326,0,0,1-.812-2.475,3.844,3.844,0,0,1,2.682-.316,9.625,9.625,0,0,1,6.652,5.4s-4.484-2.458-7.034-2.643A7.516,7.516,0,0,0,386.919,240.341Z" transform="translate(-385.418 -237.445)" fill="#171612"/>
                  </g>
                </g>
                <g id="Grupo_138404" data-name="Grupo 138404" transform="translate(5.618 17.41)">
                  <g id="Grupo_138403" data-name="Grupo 138403">
                    <path id="Trazado_152245" data-name="Trazado 152245" d="M403.421,240.516a1.327,1.327,0,0,0,.811-2.476,3.844,3.844,0,0,0-2.682-.315c-4.9,1.024-5.217,4.523-5.217,4.523a17.612,17.612,0,0,1,5.6-1.768A7.415,7.415,0,0,1,403.421,240.516Z" transform="translate(-396.333 -237.62)" fill="#171612"/>
                  </g>
                </g>
                <g id="Grupo_138407" data-name="Grupo 138407" transform="translate(21.53 32.353)" opacity="0.5">
                  <g id="Grupo_138406" data-name="Grupo 138406">
                    <g id="Grupo_138405" data-name="Grupo 138405">
                      <path id="Trazado_152246" data-name="Trazado 152246" d="M384.206,249.912c-.046.817,1.949,1.593,4.455,1.734s4.577-.406,4.623-1.223-1.949-1.592-4.457-1.733S384.252,249.1,384.206,249.912Z" transform="translate(-384.205 -248.668)" fill="#c6695d"/>
                    </g>
                  </g>
                </g>
                <g id="Grupo_138411" data-name="Grupo 138411" transform="translate(39.106 27.331)">
                  <g id="Grupo_138410" data-name="Grupo 138410">
                    <g id="Grupo_138409" data-name="Grupo 138409">
                      <g id="Grupo_138408" data-name="Grupo 138408">
                        <path id="Trazado_152247" data-name="Trazado 152247" d="M372.5,253a.652.652,0,0,0,.555-.5c1.041-4.5,6.529-6.258,6.583-6.276a.65.65,0,0,0-.384-1.243c-.256.078-6.255,1.987-7.467,7.225a.651.651,0,0,0,.714.793Z" transform="translate(-371.767 -244.955)" fill="#c6695d"/>
                      </g>
                    </g>
                  </g>
                </g>
                <g id="Grupo_138415" data-name="Grupo 138415" transform="translate(41.576 30.006)">
                  <g id="Grupo_138414" data-name="Grupo 138414">
                    <g id="Grupo_138413" data-name="Grupo 138413">
                      <g id="Grupo_138412" data-name="Grupo 138412">
                        <path id="Trazado_152248" data-name="Trazado 152248" d="M376.722,249.991a.677.677,0,0,0,.238-.078.652.652,0,0,0,.249-.887,4.468,4.468,0,0,0-3.853-2.092.651.651,0,0,0,0,1.3,3.17,3.17,0,0,1,2.716,1.427A.651.651,0,0,0,376.722,249.991Z" transform="translate(-372.706 -246.933)" fill="#c6695d"/>
                      </g>
                    </g>
                  </g>
                </g>
              </g>
            </g>
          </g>
          <g id="Grupo_138420" data-name="Grupo 138420" transform="translate(125.326 11.254)">
            <g id="Grupo_138419" data-name="Grupo 138419">
              <path id="Trazado_152249" data-name="Trazado 152249" d="M393.067,234.915s-1.183,5.053,3,8.149a24.753,24.753,0,0,0,5.585,3.32s-6.434,13.748-1.215,15.981,5.19-13.1,13.34-13.173c0,0,2.957-.495,2.866-5.633s-8.238-20.069-21.644-19.8-25.55,6.373-26.4,15.75,1.247,7.619,1.247,7.619-.728-5.507,5.9-9.349C381.246,234.6,393.067,234.915,393.067,234.915Z" transform="translate(-368.402 -223.76)" fill="#171612"/>
            </g>
          </g>
        </g>
      </g>
      <g id="Grupo_138434" data-name="Grupo 138434" transform="translate(74.535 172.73)">
        <g id="Grupo_138424" data-name="Grupo 138424" transform="translate(5.73 47.319)">
          <g id="Grupo_138423" data-name="Grupo 138423">
            <path id="Trazado_152250" data-name="Trazado 152250" d="M457.543,396.637l6.295-11.972a4.455,4.455,0,0,0-3.991-6.529L360.895,379.2l2.919,15.328Z" transform="translate(-360.895 -378.136)" fill="#171612"/>
          </g>
        </g>
        <g id="Grupo_138426" data-name="Grupo 138426">
          <g id="Grupo_138425" data-name="Grupo 138425">
            <path id="Trazado_152251" data-name="Trazado 152251" d="M376.291,405.6h88.553a3.4,3.4,0,0,0,3.442-3.87l-6.038-54.711a4.431,4.431,0,0,0-4.3-3.87H369.4a3.4,3.4,0,0,0-3.442,3.87l6.038,54.711A4.434,4.434,0,0,0,376.291,405.6Z" transform="translate(-365.932 -343.15)" fill="#fff"/>
          </g>
        </g>
        <g id="Grupo_138428" data-name="Grupo 138428" transform="translate(92.135 4.713)">
          <g id="Grupo_138427" data-name="Grupo 138427">
            <path id="Trazado_152252" data-name="Trazado 152252" d="M375.062,406.73a.727.727,0,0,0,.093-.007.747.747,0,0,0,.649-.833l-7.351-58.6a.747.747,0,0,0-1.482.185l7.351,58.6A.747.747,0,0,0,375.062,406.73Z" transform="translate(-366.966 -346.635)" fill="#171612"/>
          </g>
        </g>
        <g id="Grupo_138431" data-name="Grupo 138431" transform="translate(41.44 24.725)">
          <g id="Grupo_138430" data-name="Grupo 138430">
            <g id="Grupo_138429" data-name="Grupo 138429">
              <path id="Trazado_152253" data-name="Trazado 152253" d="M415.063,368.9a7.8,7.8,0,0,1-7.229,8.457,8.046,8.046,0,0,1-8.456-7.458,7.8,7.8,0,0,1,7.23-8.456A8.046,8.046,0,0,1,415.063,368.9Z" transform="translate(-399.354 -361.431)" fill="#171612"/>
            </g>
          </g>
        </g>
        <g id="Grupo_138433" data-name="Grupo 138433" transform="translate(5.73 57.261)">
          <g id="Grupo_138432" data-name="Grupo 138432">
            <path id="Trazado_152254" data-name="Trazado 152254" d="M369.7,395.44h89.774a3.258,3.258,0,0,0,3.227-3.7l-.855-6.255H365.5l.975,7.137A3.257,3.257,0,0,0,369.7,395.44Z" transform="translate(-365.499 -385.487)" fill="#171612"/>
          </g>
        </g>
      </g>
    </g>
  </g>
</svg>
