<svg xmlns="http://www.w3.org/2000/svg" width="265.721" height="258.776" viewBox="0 0 265.721 258.776">
  <g id="Grupo_140174" data-name="Grupo 140174" transform="translate(-1117.5 -2818.5)">
    <path id="Trazado_114225" data-name="Trazado 114225" d="M1476.283,567.476c28.354,60.945,76.865,51.375,146.1,19.167s107.733-60.765,79.379-121.71-112.825-131.2-182.056-98.993S1447.931,506.531,1476.283,567.476Z" transform="translate(-328.714 2464.192)" fill="none" stroke="#ef3c79" stroke-miterlimit="10" stroke-width="2"/>
    <path id="Trazado_114226" data-name="Trazado 114226" d="M1475,519.414c0,67.218,48.021,79,124.378,79s123.311-9.651,123.311-76.869S1675.736,355,1599.378,355,1475,452.2,1475,519.414Z" transform="translate(-357 2464)" fill="#f6f6f6" stroke="rgba(0,0,0,0)" stroke-width="1"/>
    <path id="Trazado_114227" data-name="Trazado 114227" d="M1672.818,426.865c0,6.486,4.633,7.623,12,7.623s11.9-.931,11.9-7.417S1692.187,411,1684.819,411,1672.818,420.379,1672.818,426.865Z" transform="translate(-542.225 2467.787)" fill="#00cbae" stroke="rgba(0,0,0,0)" stroke-width="1"/>
    <path id="Trazado_114228" data-name="Trazado 114228" d="M1459.307,455.865c0,6.486,4.633,7.623,12,7.623s11.9-.931,11.9-7.417S1478.676,440,1471.308,440,1459.307,449.379,1459.307,455.865Z" transform="translate(-100.764 2469.748)" fill="#0d4aad" stroke="rgba(0,0,0,0)" stroke-width="1"/>
    <g id="Grupo_137506" data-name="Grupo 137506" transform="translate(-1105.284 805.872)">
      <path id="Trazado_151866" data-name="Trazado 151866" d="M2289.741,2136.14c-.446-.392-1-.747-1.175-1.236a7.179,7.179,0,0,1-.2-2.386c-.01-14.185.042-28.371-.027-42.557-.037-7.455,2.173-13.78,8.388-18.342a20.96,20.96,0,0,1,12.8-3.8q36.85-.036,73.7-.034a5.639,5.639,0,0,1,4.431,1.915,100.931,100.931,0,0,0,7.915,7.6c-.093-5.3,1.037-10.563-.834-15.654a16.326,16.326,0,0,0-15.511-10.829q-28.406-.023-56.81-.032c-1.124,0-2.9.55-3.032-1.16h-8.819a3.3,3.3,0,0,1-2.317,1.124c-6.505.1-13.012.04-19.52.054-10.249.024-17.391,7.145-17.392,17.379q-.015,69.1,0,138.2a16.563,16.563,0,0,0,13.562,16.756c3.124.666,3.457.413,3.457-2.722q0-35.317.01-70.636a14.821,14.821,0,0,1,.231-3.267,1.842,1.842,0,0,1,1.144-1.109Z" transform="translate(0.804 0.614)" fill="#00cbae"/>
      <path id="Trazado_151867" data-name="Trazado 151867" d="M2409.282,2110.4c-4.315,0-8.629.035-12.942-.01-10.587-.108-17.878-7.425-17.921-18-.032-8.336-.007-16.673-.007-25.008v-2.631c-.911-.055-1.679-.14-2.446-.141q-36.192-.008-72.383,0c-10.593.01-17.74,7.167-17.76,17.766q-.044,22.156-.01,44.313a5.4,5.4,0,0,1-.075,1.952,3.888,3.888,0,0,1-1.048,1.208v9.474a2.162,2.162,0,0,1,1.012,1.04,6.354,6.354,0,0,1,.11,2.171q0,38.826.014,77.656c.009,8.649,5.3,15.4,13.443,17.135a26.4,26.4,0,0,0,5.452.388q39.7.036,79.4.022c7.31,0,14.621.164,21.931.112,9.387-.066,15.979-5.448,17.771-14.363a14.481,14.481,0,0,0,.221-2.831q.017-53.854.01-107.707V2110.4Zm-99.039,29.307a17.594,17.594,0,0,1,1.916-2.1q12.785-12.806,25.6-25.578a15.922,15.922,0,0,1,2.6-1.6c-1.732-1.442-2.685-2.36-3.766-3.086a3.117,3.117,0,0,0-2.031-.554,5.518,5.518,0,0,1-5.4-1.6c-1.151-1.225-2.408-2.35-3.547-3.585-2.071-2.245-2.163-4.9-.047-7.056q8.6-8.764,17.371-17.368c2.073-2.031,4.732-1.95,6.9.007,1.3,1.174,2.483,2.48,3.745,3.7a5.6,5.6,0,0,1,1.576,5.218,2.965,2.965,0,0,0,.6,2.209q7.121,7.3,14.422,14.422a2.992,2.992,0,0,0,2.214.568,5.546,5.546,0,0,1,5.047,1.455c1.286,1.3,2.64,2.536,3.858,3.9,1.951,2.178,2.012,4.822-.031,6.908q-8.6,8.772-17.37,17.37c-2.151,2.108-4.818,1.984-7.062-.1a29.031,29.031,0,0,1-3.825-3.912c-.766-1.047-1.646-2.656-1.356-3.7.678-2.435-.6-3.632-2.078-4.938-.425-.376-.848-.758-1.359-1.213-.65.615-1.239,1.147-1.8,1.706q-12.8,12.789-25.6,25.579a18.745,18.745,0,0,1-1.93,1.784,6.11,6.11,0,0,1-8.65-8.416Zm72.4,8.263a2.887,2.887,0,0,1-2.259,1.332c-6.5.107-13,.061-19.5.061-6.428,0-12.859-.077-19.284.044-2.184.041-2.792-.772-2.71-2.82a5.277,5.277,0,0,1,3.35-5.144,3,3,0,0,0,1.464-1.745c.691-2.511,2.188-3.963,4.794-3.98q12.27-.082,24.545,0c2.711.017,4.237,1.456,4.944,4.1a2.708,2.708,0,0,0,1.287,1.607C2381.952,2142.615,2383.5,2145.243,2382.643,2147.969Zm-72.174,15.376a7.38,7.38,0,0,1,2.176-.089q21.159,0,42.316,0,21.049,0,42.1,0a6.706,6.706,0,0,1,1.96.055,1.269,1.269,0,1,1,.015,2.423,5.437,5.437,0,0,1-1.954.072q-42.206,0-84.41,0a7.2,7.2,0,0,1-2.174-.109c-.515-.168-.89-.765-1.327-1.172C2309.594,2164.114,2309.961,2163.507,2310.469,2163.345Zm86.9,46.1c-14.185.042-28.37.027-42.555.027q-21.168,0-42.335,0a5.1,5.1,0,0,1-1.74-.051,7.117,7.117,0,0,1-1.567-1.166,9.365,9.365,0,0,1,1.648-1.329,3.752,3.752,0,0,1,1.517-.048q42.556,0,85.111.022c1.184,0,3.149-.614,3.11,1.316S2398.544,2209.443,2397.367,2209.447Zm.848-21.9c-9.649.08-19.3.052-28.951.052h-56.81a6.224,6.224,0,0,1-1.958-.07c-.512-.178-.89-.746-1.327-1.141.412-.436.752-1.026,1.258-1.261a4.344,4.344,0,0,1,1.73-.106q42.771,0,85.542,0c.147,0,.32-.051.434.008.854.452,1.7.926,2.541,1.393C2399.854,2186.807,2399.039,2187.536,2398.215,2187.543Z" transform="translate(6.294 6.769)" fill="#f5e1c5"/>
      <path id="Trazado_151867_-_Contorno" data-name="Trazado 151867 - Contorno" d="M2333.174,2063.1c9.319,0,18.8,0,27.961.006l14.831,0c.574,0,1.125.042,1.707.086.267.02.543.041.83.058l1.409.085v4.043c0,2.533,0,5.109,0,7.6-.005,5.7-.011,11.6.012,17.4a18.482,18.482,0,0,0,1.225,6.714,14.892,14.892,0,0,0,8.491,8.525,18.591,18.591,0,0,0,6.72,1.264c1.47.015,3.046.023,4.96.023,1.282,0,2.588,0,3.85-.006s2.571-.006,3.858-.006h16.531v13.567c0,32.183,0,65.462-.01,98.193a15.886,15.886,0,0,1-.251,3.125,19.2,19.2,0,0,1-6.564,11.37,20.055,20.055,0,0,1-12.668,4.2c-.992.007-2,.01-3.092.01-3.2,0-6.455-.031-9.6-.061-3.033-.029-6.169-.059-9.25-.061-11.664-.007-23.522-.007-34.991-.008-14.555,0-29.607,0-44.41-.015a27.708,27.708,0,0,1-5.763-.421,18.1,18.1,0,0,1-10.64-6.517,19.366,19.366,0,0,1-3.99-12.083c-.019-17.883-.017-36.064-.015-53.646q0-12.005,0-24.01c0-.227.01-.445.02-.655a3.734,3.734,0,0,0-.025-.964.837.837,0,0,0-.242-.229l-.876-.4V2129.2l.48-.445.176-.161a3.424,3.424,0,0,0,.5-.517,3.516,3.516,0,0,0-.008-.7c-.015-.217-.03-.441-.03-.68q0-6.842,0-13.684c0-10.04-.008-20.421.013-30.633a21.564,21.564,0,0,1,1.4-7.785,17.376,17.376,0,0,1,10.081-10.086,21.485,21.485,0,0,1,7.782-1.391C2312.511,2063.1,2321.915,2063.1,2333.174,2063.1Zm43.738,3.049c-.334-.022-.644-.038-.949-.039l-14.829,0c-9.165,0-18.641-.006-27.96-.006-11.258,0-20.66,0-29.59.013a15.371,15.371,0,0,0-16.262,16.269c-.021,10.208-.017,20.588-.013,30.626q0,6.842,0,13.685c0,.138.011.3.023.478a4.4,4.4,0,0,1-.21,2.044h0a3.845,3.845,0,0,1-.936,1.294v8.041a3.465,3.465,0,0,1,.913,1.282,5.307,5.307,0,0,1,.225,2.194c-.009.183-.017.356-.017.512q0,12.005,0,24.011c0,17.582,0,35.762.015,53.643a16.4,16.4,0,0,0,3.351,10.235,15.14,15.14,0,0,0,8.906,5.435,25.4,25.4,0,0,0,5.14.355c14.8.013,29.853.014,44.408.015,11.469,0,23.328,0,34.993.008,3.094,0,6.237.032,9.276.061,3.139.03,6.384.061,9.572.061,1.081,0,2.085,0,3.071-.01a19.526,19.526,0,0,0,6.023-.942,15.121,15.121,0,0,0,4.777-2.586,14.7,14.7,0,0,0,3.471-4.089,18.2,18.2,0,0,0,2.041-5.541,13.148,13.148,0,0,0,.192-2.535c.01-32.732.01-66.01.01-98.193V2111.9h-13.531c-1.283,0-2.588,0-3.851.006s-2.571.006-3.857.006c-1.925,0-3.51-.007-4.991-.023a21.576,21.576,0,0,1-7.8-1.478,17.89,17.89,0,0,1-10.171-10.214,21.461,21.461,0,0,1-1.433-7.8c-.023-5.807-.017-11.709-.012-17.417,0-2.49,0-5.065,0-7.6Zm-30.595,8.026a6.761,6.761,0,0,1,4.531,1.886c.813.734,1.579,1.514,2.32,2.269.477.487.971.99,1.462,1.464a7.066,7.066,0,0,1,2.019,6.508,1.686,1.686,0,0,0,.193.955c4.735,4.853,9.572,9.691,14.379,14.38a1.728,1.728,0,0,0,.8.177,1.362,1.362,0,0,0,.177-.01,10.693,10.693,0,0,1,1.4-.1,6.57,6.57,0,0,1,4.912,1.983c.424.428.867.861,1.3,1.28.871.851,1.772,1.73,2.613,2.67a6.756,6.756,0,0,1,1.865,4.485,6.323,6.323,0,0,1-1.942,4.474c-5.806,5.925-11.657,11.776-17.392,17.392q-.1.1-.2.189c2.727.005,5.5.016,8.3.032a6.3,6.3,0,0,1,4.19,1.426,7.243,7.243,0,0,1,2.194,3.788,1.38,1.38,0,0,0,.453.627,7.8,7.8,0,0,1,3.72,3.36,6.434,6.434,0,0,1,.469,5.007c-.454,1.447-2.441,2.363-3.666,2.382-3.808.063-7.586.071-10.453.071-1.514,0-3.052,0-4.54,0s-3.024-.005-4.536-.005c-1.806,0-3.641-.006-5.416-.012s-3.605-.012-5.406-.012c-3.3,0-5.98.021-8.434.068l-.182,0a4.166,4.166,0,0,1-3.107-1.062,4.364,4.364,0,0,1-.948-3.32,6.756,6.756,0,0,1,4.241-6.456,1.6,1.6,0,0,0,.625-.771c1.149-4.176,4.023-5.069,6.231-5.083,2.5-.017,5.052-.028,7.632-.035q-.15-.128-.3-.264-.308-.286-.621-.571a24.84,24.84,0,0,1-3.394-3.554c-.806-1.1-2.084-3.214-1.59-4.989.4-1.451-.1-2.056-1.628-3.414l-.34-.3c-.265.249-.519.491-.763.735l-10.057,10.05c-5.094,5.091-10.361,10.354-15.543,15.529l-.216.217a17.448,17.448,0,0,1-1.873,1.7,7.61,7.61,0,0,1-10.769-10.49,17,17,0,0,1,1.892-2.109l.182-.181c7.9-7.909,16.848-16.876,25.6-25.58a5.3,5.3,0,0,1,1.05-.79,21.771,21.771,0,0,0-1.993-1.591,1.957,1.957,0,0,0-.9-.324.238.238,0,0,0-.033,0,9.725,9.725,0,0,1-1.673.154,6.735,6.735,0,0,1-5.078-2.207c-.525-.559-1.068-1.091-1.643-1.654-.635-.622-1.291-1.265-1.915-1.942a6.894,6.894,0,0,1-1.991-4.557,6.352,6.352,0,0,1,1.977-4.567c5.887-6,11.738-11.846,17.391-17.388A6.274,6.274,0,0,1,2346.317,2074.176Zm25.708,30.638a4.352,4.352,0,0,1-2.887-1.018c-4.83-4.712-9.691-9.573-14.448-14.448a4.46,4.46,0,0,1-1.011-3.467,4.109,4.109,0,0,0-1.132-3.928c-.52-.5-1.028-1.02-1.52-1.521-.741-.756-1.442-1.47-2.188-2.143a3.83,3.83,0,0,0-2.521-1.113,3.3,3.3,0,0,0-2.325,1.064c-5.639,5.529-11.477,11.365-17.351,17.348a3.389,3.389,0,0,0-1.117,2.422,3.97,3.97,0,0,0,1.2,2.566c.573.622,1.174,1.21,1.809,1.833.571.56,1.161,1.138,1.728,1.741a3.7,3.7,0,0,0,2.893,1.262,6.737,6.737,0,0,0,1.154-.109,3.2,3.2,0,0,1,.552-.047,4.863,4.863,0,0,1,2.572.83,25.943,25.943,0,0,1,2.431,1.939c.424.365.905.779,1.462,1.242l1.616,1.345-1.8,1.091c-.466.283-.867.5-1.22.693a5.384,5.384,0,0,0-1.1.692c-8.752,8.7-17.7,17.665-25.6,25.574l-.188.187a14.54,14.54,0,0,0-1.572,1.733,4.522,4.522,0,0,0-.837,3.025,4.659,4.659,0,0,0,1.342,2.869,4.53,4.53,0,0,0,6.025.448,14.973,14.973,0,0,0,1.55-1.423l.223-.223c5.183-5.175,10.449-10.439,15.543-15.529l10.058-10.051c.4-.4.8-.769,1.22-1.164.2-.184.4-.373.608-.57l1-.947,1.028.917.557.5c.279.25.538.481.8.712,1.465,1.3,3.47,3.075,2.529,6.46a4.767,4.767,0,0,0,1.12,2.416,22.3,22.3,0,0,0,3,3.114q.319.293.636.585a3.987,3.987,0,0,0,2.642,1.223,3.357,3.357,0,0,0,2.349-1.094c5.72-5.6,11.557-11.438,17.348-17.348a3.352,3.352,0,0,0,1.085-2.365,3.823,3.823,0,0,0-1.1-2.492c-.775-.865-1.6-1.671-2.475-2.525-.438-.427-.89-.869-1.332-1.316a3.617,3.617,0,0,0-2.779-1.093,7.828,7.828,0,0,0-1.006.071A4.339,4.339,0,0,1,2372.024,2104.814Zm9.226,42.577a3.4,3.4,0,0,0-.289-2.562,4.791,4.791,0,0,0-2.3-2.039,4.177,4.177,0,0,1-2.126-2.591c-.564-2.111-1.579-2.976-3.5-2.988-4.134-.024-8.236-.036-12.191-.036-4.175,0-8.325.014-12.335.041-1.8.012-2.806.873-3.358,2.878a4.5,4.5,0,0,1-2.3,2.719,3.815,3.815,0,0,0-2.458,3.833c-.037.92.113,1.121.115,1.123h0a1.861,1.861,0,0,0,.943.139h.126c2.473-.047,5.171-.068,8.49-.068,1.806,0,3.641.006,5.416.012s3.6.012,5.406.012c1.514,0,3.053,0,4.541.005s3.024,0,4.535,0c2.855,0,6.618-.008,10.4-.07A2.007,2.007,0,0,0,2381.25,2147.391Zm16.981,14.317a4,4,0,0,1,1.24.172,5.17,5.17,0,0,1,1.63.964c.147.116.286.225.412.311l1.605,1.1-1.476,1.271c-.124.107-.259.24-.4.381a5.145,5.145,0,0,1-1.639,1.211,3.461,3.461,0,0,1-1.352.238c-.244,0-.481-.016-.69-.031-.176-.012-.342-.023-.481-.023h-35.043l-49.368,0c-.155,0-.321.006-.5.012-.2.007-.4.015-.613.015a4.939,4.939,0,0,1-1.529-.21,3.734,3.734,0,0,1-1.587-1.186c-.109-.121-.212-.236-.3-.315l-1.165-1.086,1.154-1.1c.082-.078.182-.193.289-.315a3.627,3.627,0,0,1,1.591-1.2,4.726,4.726,0,0,1,1.437-.2c.232,0,.453.01.667.02.188.008.366.016.529.016l22.094,0h62.318c.148,0,.318-.01.5-.021C2397.77,2161.721,2397.993,2161.708,2398.231,2161.708Zm-87.005,21.775c.193,0,.381.01.547.018.14.007.272.014.384.014,28.5,0,57.484,0,85.512,0l.021,0a2.773,2.773,0,0,1,.3-.018,1.8,1.8,0,0,1,.835.2l.012.006c.676.357,1.349.731,2,1.092l.566.314,2.544,1.406-2.62,1.259c-.192.092-.413.227-.647.37a4.822,4.822,0,0,1-2.448.908c-6.035.05-12,.057-17.032.057l-5.968,0-5.965,0h-56.81c-.144,0-.308.009-.482.019-.209.012-.426.024-.656.024a3.91,3.91,0,0,1-1.31-.2,3.841,3.841,0,0,1-1.54-1.137c-.11-.118-.215-.229-.3-.308l-1.138-1.028,1.053-1.115c.085-.09.182-.21.284-.336a4.084,4.084,0,0,1,1.432-1.255A3.362,3.362,0,0,1,2311.226,2183.483Zm87.791,21.829a3.138,3.138,0,0,1,2.287.819,2.825,2.825,0,0,1,.75,2.121,2.723,2.723,0,0,1-1.073,2.272,3.145,3.145,0,0,1-1.917.543,10.249,10.249,0,0,1-1.056-.071c-.241-.025-.47-.048-.63-.048h-.005c-8.733.026-17.3.03-24.531.03l-18.03,0h-42.335c-.12,0-.269.011-.427.022-.195.014-.416.03-.646.03a3.3,3.3,0,0,1-1.209-.2,5.272,5.272,0,0,1-1.557-1.05c-.138-.122-.269-.237-.389-.331l-1.467-1.14,1.424-1.194c.134-.112.274-.242.422-.379a6.584,6.584,0,0,1,1.518-1.141,2.686,2.686,0,0,1,1.226-.264c.221,0,.427.018.61.034.132.012.258.023.346.023h24.932c22.321,0,41.1,0,60.187.023.159,0,.374-.019.6-.038C2398.342,2205.34,2398.677,2205.311,2399.016,2205.311Z" transform="translate(6.294 6.769)" fill="#0d4aad"/>
      <path id="Trazado_151868" data-name="Trazado 151868" d="M2430.348,2117.022h-14.772c-4.315,0-8.629.035-12.942-.01-10.587-.108-17.878-7.425-17.921-18-.032-8.336-.007-16.673-.007-25.008v-2.631c-.911-.055-1.679-.14-2.446-.141q-36.192-.008-72.383,0c-10.593.01-17.74,7.167-17.76,17.766q-.044,22.156-.01,44.313a5.436,5.436,0,0,1-.073,1.952c-.24.579-.872,1-1.332,1.483-.461-.453-1.133-.831-1.332-1.38a7.179,7.179,0,0,1-.2-2.386c-.01-14.185.042-28.371-.027-42.557-.037-7.455,2.173-13.78,8.388-18.342a20.96,20.96,0,0,1,12.8-3.8q36.85-.036,73.7-.034a5.639,5.639,0,0,1,4.431,1.915,100.931,100.931,0,0,0,7.915,7.6c-.093-5.3,1.037-10.563-.834-15.654a16.326,16.326,0,0,0-15.511-10.829q-28.406-.023-56.81-.032c-1.134,0-2.934.563-3.036-1.2-.116-1.982,1.734-1.521,2.969-1.521q34.437-.016,68.872.006c12.021.01,20.241,8.186,20.366,20.18.085,8.117.159,16.233.364,24.346a4.882,4.882,0,0,0,1.277,3.005c5.769,5.914,11.667,11.7,17.441,17.611a4.8,4.8,0,0,1,1.38,2.969q.1,54.841.041,109.683c-.005,10.4-6.2,18.249-15.947,20.188a27.1,27.1,0,0,1-5.236.347q-50.447.028-100.9.011c-12.55,0-20.009-6.793-21.279-19.328a3.53,3.53,0,0,0-.231-.672c-1.572-.213-3.173-.319-4.725-.657a19.071,19.071,0,0,1-15.17-18.517q-.07-70.089,0-140.175a19.112,19.112,0,0,1,19.039-19c6.871-.086,13.745-.006,20.617-.02,1.157,0,2.469.02,2.321,1.5-.049.493-1.512,1.189-2.338,1.2-6.505.1-13.012.04-19.52.054-10.249.024-17.391,7.145-17.392,17.379q-.015,69.1,0,138.2A16.563,16.563,0,0,0,2285.7,2223.6c3.124.666,3.457.413,3.457-2.722q0-35.317.01-70.636a14.821,14.821,0,0,1,.231-3.267c.109-.474.838-1.147,1.252-1.123a1.968,1.968,0,0,1,1.343,1.136,6.354,6.354,0,0,1,.11,2.171q0,38.826.014,77.656c.009,8.649,5.3,15.4,13.443,17.135a26.4,26.4,0,0,0,5.452.388q39.7.036,79.4.022c7.31,0,14.621.164,21.931.112,9.387-.066,15.979-5.448,17.771-14.363a14.481,14.481,0,0,0,.221-2.831q.017-53.854.01-107.707Zm-2.644-2.715-40.266-40.3c.059-.082-.087.027-.087.134,0,9.13-.238,18.271.116,27.386.25,6.426,6.14,12.431,12.522,12.687C2409.243,2114.583,2418.522,2114.308,2427.7,2114.308Z" transform="translate(0 0.145)" fill="#0d4aad"/>
      <path id="Trazado_151868_-_Contorno" data-name="Trazado 151868 - Contorno" d="M2321.871,2047.481c.249,0,.491.013.725.025.2.011.39.021.554.021,10.571-.005,20.924-.008,30.772-.008,13.089,0,25.908,0,38.1.013a23.735,23.735,0,0,1,8.6,1.538,19.341,19.341,0,0,1,11.153,11.061,23.769,23.769,0,0,1,1.616,8.571l.018,1.737c.077,7.408.156,15.068.346,22.595a3.883,3.883,0,0,0,.993,2.333c2.943,3.017,5.971,6.052,8.9,8.988,2.808,2.816,5.712,5.727,8.541,8.621a5.789,5.789,0,0,1,1.665,3.666c.068,37.309.06,74.765.041,109.684a22.124,22.124,0,0,1-4.535,13.885,20.33,20.33,0,0,1-12.217,7.283,28.124,28.124,0,0,1-5.43.366c-19.332.01-39.736.016-62.376.016-11.939,0-24.54,0-38.521,0-6.5,0-11.729-1.759-15.542-5.225-3.782-3.437-6.041-8.437-6.717-14.862-.289-.035-.579-.068-.863-.1a32.941,32.941,0,0,1-3.326-.493,20.555,20.555,0,0,1-6.389-2.566,20.238,20.238,0,0,1-5.049-4.39,19.7,19.7,0,0,1-4.519-12.536c-.051-50.822-.05-96.674,0-140.177a19.766,19.766,0,0,1,5.873-14.088,20.316,20.316,0,0,1,14.153-5.907c2.2-.028,4.568-.04,7.438-.04,1.909,0,3.849.006,5.725.011s3.813.011,5.719.011l1.747,0h.076a3.561,3.561,0,0,1,2.73.806,2.232,2.232,0,0,1,.511,1.8c-.061.6-.54,1.134-1.426,1.576a4.714,4.714,0,0,1-1.892.526c-3.45.052-6.917.059-9.553.059q-1.9,0-3.8,0-3.087,0-6.175,0a18.269,18.269,0,0,0-6.677,1.217,14.838,14.838,0,0,0-8.51,8.5,18.115,18.115,0,0,0-1.207,6.664c-.011,51-.01,96.207,0,138.2a15.565,15.565,0,0,0,12.77,15.778,10.328,10.328,0,0,0,1.808.278.981.981,0,0,0,.262-.026,5.929,5.929,0,0,0,.177-2q0-11,0-22.009c0-15.938,0-32.419.008-48.628v-.108a15.094,15.094,0,0,1,.256-3.381,2.688,2.688,0,0,1,2.2-1.9l.081,0a2.913,2.913,0,0,1,2.219,1.778,4.838,4.838,0,0,1,.193,1.991c-.009.189-.018.368-.018.536q0,12.017,0,24.034c0,17.574,0,35.747.015,53.62.008,8.177,4.974,14.52,12.652,16.158a25.774,25.774,0,0,0,5.244.366c14.8.013,29.853.014,44.408.015,11.469,0,23.328,0,34.992.008,3.092,0,6.234.032,9.272.061,3.14.03,6.386.061,9.576.061,1.082,0,2.088,0,3.074-.01a20.022,20.022,0,0,0,6.177-.968,15.613,15.613,0,0,0,4.935-2.672,15.2,15.2,0,0,0,3.589-4.227,18.711,18.711,0,0,0,2.1-5.693,13.606,13.606,0,0,0,.2-2.634c.01-32.687.01-65.92.01-98.059v-11.2h-14.026c-1.285,0-2.591,0-3.855.006s-2.572.006-3.859.006c-1.922,0-3.506-.007-4.985-.023a21.081,21.081,0,0,1-7.62-1.442,17.39,17.39,0,0,1-9.891-9.932,20.965,20.965,0,0,1-1.4-7.619c-.023-5.806-.017-11.708-.012-17.415,0-2.49,0-5.065,0-7.6v-1.7c-.528-.04-.989-.073-1.448-.073l-14.822,0c-9.168,0-18.649-.006-27.972-.006-11.257,0-20.658,0-29.587.013a19.007,19.007,0,0,0-6.881,1.222,14.879,14.879,0,0,0-8.655,8.66,19.072,19.072,0,0,0-1.226,6.886c-.021,10.2-.017,20.58-.013,30.614q0,6.849,0,13.7c0,.156.012.33.024.514a3.941,3.941,0,0,1-.173,1.819,4.061,4.061,0,0,1-1.134,1.412c-.146.132-.283.257-.4.377l-.7.74-.727-.714c-.109-.107-.249-.221-.4-.342a3.37,3.37,0,0,1-1.175-1.41,6.6,6.6,0,0,1-.263-2.351c0-.126,0-.252,0-.376,0-4.809,0-9.7,0-14.429.007-9.218.015-18.75-.031-28.123a26.243,26.243,0,0,1,1.931-10.656,20.531,20.531,0,0,1,6.865-8.5,21.857,21.857,0,0,1,13.389-4c11.418-.011,23.027-.013,34.254-.014,12.928,0,26.3,0,39.444-.02h.008a6.644,6.644,0,0,1,5.155,2.231c2.053,2.19,4.1,4.2,6.206,6.092.025-.831.066-1.655.106-2.464.184-3.719.359-7.232-.9-10.653a15.326,15.326,0,0,0-14.573-10.174c-7.432-.006-14.988-.007-22.3-.009-11.312,0-23.009,0-34.515-.024-.175,0-.389.018-.615.037-.268.022-.572.048-.873.048a2.235,2.235,0,0,1-2.545-2.228,2.453,2.453,0,0,1,.584-1.9A2.8,2.8,0,0,1,2321.871,2047.481Zm1.28,2.046c-.219,0-.444-.012-.662-.024s-.423-.022-.618-.022c-.535,0-.645.091-.649.1a.862.862,0,0,0-.042.414.577.577,0,0,0,.058.274h0a.988.988,0,0,0,.49.07c.218,0,.466-.021.706-.041.257-.021.523-.044.778-.044h.007c11.5.02,23.2.022,34.512.024,7.308,0,14.864,0,22.3.009a17.326,17.326,0,0,1,16.449,11.484c1.4,3.8,1.205,7.686,1.019,11.441-.074,1.491-.15,3.033-.124,4.54l.039,2.228-1.69-1.451a101.605,101.605,0,0,1-7.993-7.675,4.647,4.647,0,0,0-3.7-1.6h-.006c-13.148.017-26.517.018-39.446.02-11.226,0-22.835,0-34.252.014a19.933,19.933,0,0,0-12.207,3.611,18.31,18.31,0,0,0-6.211,7.675,24.3,24.3,0,0,0-1.768,9.856c.046,9.379.038,18.914.031,28.135,0,4.729-.008,9.618,0,14.426,0,.133,0,.267,0,.4a5.012,5.012,0,0,0,.144,1.645,1.512,1.512,0,0,0,.359.376,1.892,1.892,0,0,0,.441-.522,2.707,2.707,0,0,0,.026-.92c-.014-.209-.029-.426-.029-.649q0-6.849,0-13.7c0-10.035-.008-20.412.013-30.619a21.06,21.06,0,0,1,1.362-7.605,16.876,16.876,0,0,1,9.8-9.8,20.988,20.988,0,0,1,7.6-1.357c8.929-.009,18.332-.013,29.589-.013,9.323,0,18.8,0,27.972.006l14.823,0c.555,0,1.1.042,1.669.085.269.02.547.041.837.058l.939.057v3.573c0,2.533,0,5.108,0,7.6-.005,5.705-.011,11.6.012,17.405a18.981,18.981,0,0,0,1.26,6.895,15.393,15.393,0,0,0,8.771,8.806,19.086,19.086,0,0,0,6.9,1.3c1.472.015,3.049.023,4.964.023,1.284,0,2.59,0,3.854-.006s2.573-.006,3.86-.006h16.026v13.2c0,32.139,0,65.372-.01,98.059a15.43,15.43,0,0,1-.241,3.027,18.709,18.709,0,0,1-6.389,11.08,17.607,17.607,0,0,1-5.563,3.017,22.024,22.024,0,0,1-6.793,1.069c-.991.007-2,.01-3.089.01-3.2,0-6.451-.031-9.6-.061-3.034-.029-6.172-.059-9.255-.061-11.664-.007-23.523-.007-34.991-.008-14.555,0-29.606,0-44.41-.015a27.307,27.307,0,0,1-5.659-.41,17.61,17.61,0,0,1-10.351-6.337,18.872,18.872,0,0,1-3.884-11.775c-.019-17.875-.017-36.048-.015-53.623q0-12.017,0-24.034c0-.215.01-.427.02-.631a3.422,3.422,0,0,0-.064-1.185,1.265,1.265,0,0,0-.4-.44,1.18,1.18,0,0,0-.289.319,13.754,13.754,0,0,0-.2,2.91v.109c-.007,16.209-.008,32.69-.008,48.627q0,11,0,22.009a7.344,7.344,0,0,1-.325,2.75,2.086,2.086,0,0,1-2.115,1.271,11.4,11.4,0,0,1-2.226-.322,17.578,17.578,0,0,1-14.353-17.733c-.013-41.994-.014-87.2,0-138.2a20.1,20.1,0,0,1,1.346-7.4,16.836,16.836,0,0,1,9.638-9.627,20.26,20.26,0,0,1,7.405-1.356q3.092-.007,6.182,0,1.9,0,3.8,0c2.629,0,6.087-.007,9.523-.058a3.163,3.163,0,0,0,1.36-.508.288.288,0,0,0-.011-.053,2.944,2.944,0,0,0-1.256-.144h-.06l-1.75,0c-1.908,0-3.849-.006-5.725-.011s-3.813-.011-5.719-.011c-2.861,0-5.217.013-7.413.04a18.326,18.326,0,0,0-12.768,5.326,17.78,17.78,0,0,0-5.283,12.672c-.052,43.5-.053,89.353,0,140.173a17.619,17.619,0,0,0,1.077,6.063,17.82,17.82,0,0,0,2.986,5.2,18.242,18.242,0,0,0,4.551,3.957,18.563,18.563,0,0,0,5.769,2.316,30.951,30.951,0,0,0,3.125.46c.5.056,1.013.115,1.521.184l.608.082.2.579c.024.068.052.136.082.208a2.4,2.4,0,0,1,.2.69c.607,5.99,2.655,10.607,6.087,13.727s8.21,4.7,14.2,4.7c13.981,0,26.582,0,38.521,0,22.64,0,43.043-.005,62.374-.016a26.2,26.2,0,0,0,5.041-.328,18.359,18.359,0,0,0,11.037-6.561,20.15,20.15,0,0,0,4.1-12.647c.019-34.918.027-72.373-.041-109.68a3.81,3.81,0,0,0-1.095-2.271c-2.822-2.887-5.722-5.795-8.527-8.607-2.932-2.94-5.965-5.98-8.915-9a5.85,5.85,0,0,1-1.561-3.679c-.19-7.541-.27-15.209-.346-22.624l-.018-1.737c-.12-11.469-7.9-19.181-19.367-19.19-12.192-.009-25.01-.013-38.1-.013C2344.075,2049.52,2333.722,2049.522,2323.151,2049.528Zm64.3,23.449h.612l.252.49,18.488,18.5,21.609,21.629,1.705,1.707H2427.7c-2.737,0-5.533.025-8.237.049-2.724.024-5.542.049-8.32.049-4.331,0-7.89-.062-11.2-.194a12.685,12.685,0,0,1-5.007-1.285,15.157,15.157,0,0,1-4.226-3.043,14.374,14.374,0,0,1-4.248-9.32c-.252-6.49-.2-13.09-.155-19.473.019-2.544.039-5.173.039-7.76l-.222-.222.332-.458a1.261,1.261,0,0,1,.133-.222A1.059,1.059,0,0,1,2387.45,2072.977Zm37.847,40.336-19.91-19.927-17.04-17.055c-.007,1.938-.021,3.881-.035,5.777-.047,6.36-.1,12.937.154,19.38a12.357,12.357,0,0,0,3.675,7.994,12.03,12.03,0,0,0,7.888,3.732c3.282.131,6.815.192,11.119.192,2.769,0,5.582-.025,8.3-.049C2421.37,2113.34,2423.337,2113.322,2425.3,2113.313Z" transform="translate(0 0.145)" fill="#0d4aad"/>
      <path id="Trazado_151869" data-name="Trazado 151869" d="M2341.112,2115.828c-.65.615-1.239,1.147-1.8,1.706q-12.8,12.789-25.6,25.579a18.8,18.8,0,0,1-1.93,1.784,6.11,6.11,0,0,1-8.65-8.416,17.739,17.739,0,0,1,1.916-2.1q12.785-12.806,25.6-25.578a15.917,15.917,0,0,1,2.6-1.6c-1.732-1.442-2.685-2.36-3.766-3.086a3.116,3.116,0,0,0-2.031-.554,5.519,5.519,0,0,1-5.4-1.6c-1.151-1.225-2.408-2.35-3.547-3.585-2.071-2.245-2.163-4.9-.046-7.056q8.6-8.764,17.371-17.368c2.072-2.031,4.732-1.95,6.9.007,1.3,1.174,2.483,2.48,3.745,3.7a5.6,5.6,0,0,1,1.576,5.218,2.967,2.967,0,0,0,.6,2.209q7.121,7.3,14.422,14.422a2.992,2.992,0,0,0,2.213.568,5.546,5.546,0,0,1,5.047,1.455c1.286,1.3,2.64,2.536,3.857,3.9,1.952,2.178,2.012,4.822-.031,6.908q-8.6,8.772-17.37,17.371c-2.151,2.107-4.818,1.982-7.062-.1a29.033,29.033,0,0,1-3.825-3.912c-.766-1.047-1.646-2.656-1.355-3.7.678-2.435-.6-3.632-2.078-4.938C2342.046,2116.665,2341.623,2116.283,2341.112,2115.828Zm4.75-28.754c-4.727,4.71-9.61,9.577-14.357,14.309l15.226,15.2,14.331-14.318Zm-.161-5.55a9.219,9.219,0,0,0-1-1.8c-1.132-1.24-2.348-2.4-3.539-3.589a2.4,2.4,0,0,0-3.822,0q-8.37,8.37-16.739,16.74a2.393,2.393,0,0,0-.042,3.819c1.079,1.091,2.173,2.167,3.25,3.259,1.39,1.413,2.776,1.434,4.183.027q8.211-8.218,16.413-16.446A11.566,11.566,0,0,0,2345.7,2081.523Zm1.175,40.553a10.952,10.952,0,0,0,1.083,1.982c.858.993,1.833,1.885,2.768,2.809,2.232,2.207,2.963,2.207,5.226-.049q6.519-6.5,13.02-13.015c5.391-5.376,5.337-4.553-.172-10.027-1.594-1.585-2.709-1.569-4.309.018q-8.163,8.11-16.264,16.281A13.183,13.183,0,0,0,2346.876,2122.077Z" transform="translate(13.405 9.994)" fill="#0d4aad"/>
      <path id="Trazado_151870" data-name="Trazado 151870" d="M2345.1,2128.663c-6.428,0-12.859-.077-19.284.044-2.184.041-2.792-.772-2.71-2.82a5.277,5.277,0,0,1,3.35-5.144,3,3,0,0,0,1.464-1.745c.691-2.511,2.188-3.963,4.794-3.98q12.27-.082,24.545,0c2.711.017,4.237,1.456,4.944,4.1a2.708,2.708,0,0,0,1.287,1.607c2.682,1.195,4.229,3.823,3.373,6.549a2.887,2.887,0,0,1-2.259,1.332C2358.1,2128.71,2351.6,2128.663,2345.1,2128.663Z" transform="translate(22.075 27.467)" fill="#0d4aad"/>
      <path id="Trazado_151871" data-name="Trazado 151871" d="M2347.658,2152.537h-42.333a6.223,6.223,0,0,1-1.958-.07c-.512-.178-.89-.746-1.328-1.141.412-.436.752-1.026,1.258-1.261a4.345,4.345,0,0,1,1.73-.106q42.771,0,85.542,0c.146,0,.32-.052.434.008.854.452,1.7.926,2.542,1.393-.82.394-1.635,1.123-2.459,1.13-9.649.08-19.3.052-28.951.052Z" transform="translate(13.423 41.827)" fill="#0d4aad"/>
      <path id="Trazado_151872" data-name="Trazado 151872" d="M2347.682,2168.058q-21.168,0-42.335,0a5.1,5.1,0,0,1-1.74-.051,7.117,7.117,0,0,1-1.567-1.166,9.365,9.365,0,0,1,1.648-1.329,3.726,3.726,0,0,1,1.517-.048q42.556,0,85.111.022c1.184,0,3.149-.612,3.11,1.316s-2.011,1.223-3.187,1.227C2376.053,2168.074,2361.868,2168.058,2347.682,2168.058Z" transform="translate(13.424 48.184)" fill="#0d4aad"/>
      <path id="Trazado_151873" data-name="Trazado 151873" d="M2347.832,2134.537q21.049,0,42.1,0a6.706,6.706,0,0,1,1.96.055,1.269,1.269,0,1,1,.015,2.423,5.437,5.437,0,0,1-1.954.072q-42.206,0-84.41,0a7.2,7.2,0,0,1-2.174-.109c-.515-.168-.89-.765-1.327-1.172.429-.408.8-1.015,1.3-1.177a7.38,7.38,0,0,1,2.176-.089Q2326.673,2134.535,2347.832,2134.537Z" transform="translate(13.422 35.486)" fill="#0d4aad"/>
      <path id="Trazado_151874" data-name="Trazado 151874" d="M2417.662,2067.389c-.848.636-1.309,1.057-1.836,1.366-1.822,1.07-3.753,1.973-5.479,3.176a10.937,10.937,0,0,0-4.864,7.5c-.087.569-.743,1.051-1.137,1.573-.473-.466-1.111-.851-1.388-1.414-1.092-2.209-1.9-4.575-3.136-6.69a8.927,8.927,0,0,0-6.2-4.125c-.656-.138-1.208-.766-1.807-1.168.525-.487.973-1.236,1.59-1.419,5.157-1.535,8.845-4.388,9.669-10.082.076-.525.708-.969,1.081-1.45.519.405,1.219.707,1.519,1.236.681,1.2,1.084,2.551,1.745,3.761,1.824,3.341,4.312,5.857,8.293,6.51C2416.295,2066.261,2416.8,2066.832,2417.662,2067.389Zm-18.5.826,5,5.923,6.912-6.279-5.456-5.794Z" transform="translate(50.31 2.684)" fill="#0d4aad"/>
      <path id="Trazado_151875" data-name="Trazado 151875" d="M2399.833,2074.463c-.975.739-1.556,1.194-2.153,1.63a52.457,52.457,0,0,0-5.2,3.883c-.76.715-.871,2.094-1.373,3.124a8.788,8.788,0,0,1-1.11,1.445c-.487-.44-1.136-.793-1.427-1.337-.75-1.407-1.071-3.133-2.07-4.292-1.079-1.25-2.742-1.991-4.135-2.976-.581-.41-1.121-.875-1.68-1.315.56-.467,1.048-1.15,1.692-1.363,3.3-1.091,5.605-3.01,6.264-6.6.1-.531.7-.969,1.064-1.45a6.9,6.9,0,0,1,1.509,1.274c1.035,1.571,1.757,3.395,2.984,4.779.847.954,2.335,1.338,3.53,1.988C2398.3,2073.557,2398.854,2073.9,2399.833,2074.463Zm-13.224.361,3.18,3.857,4.158-3.811-3.413-3.678Z" transform="translate(45.738 7.017)" fill="#0d4aad"/>
      <path id="Trazado_151876" data-name="Trazado 151876" d="M2389.555,2048.128c.809.847,1.347,1.174,1.53,1.641,1.38,3.536,3.125,6.641,7.361,7.33a1.36,1.36,0,0,1,.724,1.133,2.4,2.4,0,0,1-1.03,1.25c-1.4.909-3.09,1.5-4.241,2.644-1.181,1.171-1.845,2.857-2.767,4.3-.392.611-.864,1.172-1.3,1.757a12.958,12.958,0,0,1-1.405-1.7c-.363-.619-.483-1.377-.788-2.037-1.151-2.485-2.7-4.491-5.675-4.949a1.947,1.947,0,0,1-1.223-1.211c-.09-.292.508-1.089.92-1.2,3.885-1.037,6.5-3.2,7.056-7.406A5.778,5.778,0,0,1,2389.555,2048.128Zm-2.964,10.367,3.183,3.805,4.187-3.806-3.558-3.786Z" transform="translate(45.758)" fill="#0d4aad"/>
      <path id="Trazado_151877" data-name="Trazado 151877" d="M2393.368,2106.882c-9.182,0-18.461.275-27.716-.094-6.381-.256-12.272-6.262-12.522-12.687-.354-9.116-.113-18.257-.116-27.387,0-.107.147-.216.087-.134Z" transform="translate(34.337 7.57)" fill="#dcc8ab"/>
      <path id="Trazado_151878" data-name="Trazado 151878" d="M2337.268,2082.815l15.2,15.19-14.331,14.317-15.226-15.2Z" transform="translate(21.999 14.253)" fill="#ffcb00"/>
      <path id="Trazado_151879" data-name="Trazado 151879" d="M2340.565,2080.728a11.58,11.58,0,0,1-1.292,2.009q-8.177,8.252-16.413,16.446c-1.407,1.407-2.793,1.386-4.183-.027-1.076-1.092-2.17-2.168-3.249-3.259a2.393,2.393,0,0,1,.042-3.819q8.372-8.368,16.739-16.74a2.4,2.4,0,0,1,3.822,0c1.191,1.185,2.407,2.349,3.539,3.589A9.206,9.206,0,0,1,2340.565,2080.728Z" transform="translate(18.542 10.789)" fill="#dcc8ab"/>
      <path id="Trazado_151880" data-name="Trazado 151880" d="M2333.806,2113.3a13.147,13.147,0,0,1,1.353-2q8.1-8.172,16.263-16.281c1.6-1.587,2.715-1.6,4.309-.018,5.509,5.474,5.563,4.651.172,10.027q-6.516,6.5-13.02,13.015c-2.263,2.256-2.994,2.256-5.226.049-.935-.924-1.911-1.816-2.768-2.809A10.922,10.922,0,0,1,2333.806,2113.3Z" transform="translate(26.476 18.773)" fill="#dcc8ab"/>
      <path id="Trazado_151881" data-name="Trazado 151881" d="M2397.023,2066.058l6.452-6.15,5.456,5.794-6.912,6.279Z" transform="translate(52.451 4.84)" fill="#f5e1c5"/>
      <path id="Trazado_151882" data-name="Trazado 151882" d="M2384.883,2073.081l3.925-3.631,3.413,3.678-4.158,3.811Z" transform="translate(47.463 8.76)" fill="#f5e1c5"/>
      <path id="Trazado_151883" data-name="Trazado 151883" d="M2384.885,2056.579l3.812-3.787,3.558,3.786-4.187,3.806Z" transform="translate(47.464 1.916)" fill="#f5e1c5"/>
    </g>
  </g>
</svg>
