<svg xmlns="http://www.w3.org/2000/svg" width="295" height="290" viewBox="0 0 295 290">
  <g id="Grupo_140199" data-name="Grupo 140199" transform="translate(-1124 -1101)">
    <rect id="Rectángulo_35742" data-name="Rectángulo 35742" width="295" height="290" rx="38" transform="translate(1124 1101)" fill="#0d4aad"/>
    <g id="Grupo_139958" data-name="Grupo 139958" transform="translate(1159.391 1140.854)">
      <g id="Grupo_139957" data-name="Grupo 139957">
        <g id="Grupo_139953" data-name="Grupo 139953" transform="translate(1.889 10.985)">
          <g id="Grupo_139946" data-name="Grupo 139946" transform="translate(3.563 83.808)">
            <g id="Grupo_139943" data-name="Grupo 139943">
              <path id="Trazado_152771" data-name="Trazado 152771" d="M410,377.084c-11.3-6.021-17.426-13.473-21.439-25.631-.951-2.881-1.469-6.5.75-8.566,2.379-2.218,6.242-1.145,9.107.393a41.113,41.113,0,0,1,13.461,11.6c4.592,6.158,8.44,14.322,16,15.67a3.114,3.114,0,0,0,2.054-.169c1.851-1.026.649-3.814-.522-5.576a25.644,25.644,0,0,1-4.047-10.8,3.934,3.934,0,0,1,.128-2.07,3.275,3.275,0,0,1,2.42-1.671c3.621-.781,7.151,1.48,10.032,3.808,7.339,5.933,17.534,15.775,22.588,23.743" transform="translate(-387.746 -270.467)" fill="#b2cdc1"/>
              <g id="Grupo_139942" data-name="Grupo 139942" transform="translate(9.215)">
                <path id="Trazado_152772" data-name="Trazado 152772" d="M494.91,298.916A52.989,52.989,0,0,1,468.5,280.586c-3.158-4.124-5.759-8.913-6.085-14.1-.183-2.907.941-6.477,3.806-7.008,2.071-.384,4.009,1.039,5.587,2.435A82.078,82.078,0,0,1,495.73,299.1" transform="translate(-406.997 -259.414)" fill="#b2cdc1"/>
                <path id="Trazado_152773" data-name="Trazado 152773" d="M425.332,317.019c-5.356-1.1-10.782-2.233-15.651-4.72s-9.195-6.525-10.807-11.749c-.64-2.07-.784-4.485.467-6.255,1.574-2.227,4.739-2.621,7.44-2.243a23.085,23.085,0,0,1,14.513,8.7,34.08,34.08,0,0,1,6.605,15.821" transform="translate(-398.392 -263.785)" fill="#b2cdc1"/>
                <path id="Trazado_152774" data-name="Trazado 152774" d="M438.624,320.848a34.82,34.82,0,0,1-3.211-9.376c-.923-4.4-1.236-9.364,1.4-13a3.818,3.818,0,0,1,5.584-1.424,10.244,10.244,0,0,1,5.149,7.966,15.133,15.133,0,0,1-2.385,8.624c-1.512,2.625-3.419,5-4.954,7.616" transform="translate(-403.28 -264.383)" fill="#b2cdc1"/>
                <path id="Trazado_152775" data-name="Trazado 152775" d="M445.19,333.828a48.265,48.265,0,0,0-10.345-1.626,16.194,16.194,0,0,0-9.907,2.846,2.6,2.6,0,0,0-1.141,1.5,2.321,2.321,0,0,0,.568,1.729,7.341,7.341,0,0,0,5.727,2.636,16.675,16.675,0,0,0,6.332-1.39c2.746-1.065,5.543-2.521,7.034-5.061" transform="translate(-401.805 -269.2)" fill="#b2cdc1"/>
                <path id="Trazado_152776" data-name="Trazado 152776" d="M462.346,341.42a41.707,41.707,0,0,1-2.482-9.648,14.03,14.03,0,0,1,2.2-9.521,2.037,2.037,0,0,1,.958-.825,1.9,1.9,0,0,1,1.471.3,8.418,8.418,0,0,1,3.545,5.112,15.518,15.518,0,0,1-3.746,14.866" transform="translate(-406.647 -267.744)" fill="#b2cdc1"/>
                <path id="Trazado_152777" data-name="Trazado 152777" d="M408.471,299.235c1.074,4.716,5.064,8.127,8.894,11.08,24.787,19.109,53.519,34.914,70.327,61.314" transform="translate(-399.747 -264.768)" fill="none" stroke="#b2cdc1" stroke-miterlimit="10" stroke-width="0.477"/>
              </g>
            </g>
            <g id="Grupo_139945" data-name="Grupo 139945" transform="translate(0)" style="mix-blend-mode: overlay;isolation: isolate">
              <path id="Trazado_152778" data-name="Trazado 152778" d="M434.239,364.454a14.446,14.446,0,0,1,8.939-9.538c-2.764-2.147-6.057-4.059-9.429-3.332a3.276,3.276,0,0,0-2.42,1.671,3.935,3.935,0,0,0-.128,2.07A25.631,25.631,0,0,0,434.239,364.454Z" transform="translate(-393.578 -271.785)" fill="#b2cdc1"/>
              <path id="Trazado_152779" data-name="Trazado 152779" d="M409.494,372.82a91.877,91.877,0,0,1-11.315-15.242c-2.036-3.623-4.283-8.3-2.894-12.529a7.271,7.271,0,0,1,1.436-2.564c-2.561-1.028-5.475-1.4-7.408.4-2.22,2.07-1.7,5.684-.751,8.566,4.013,12.158,10.141,19.61,21.439,25.631l3.333.048C412,375.7,410.727,374.223,409.494,372.82Z" transform="translate(-387.746 -270.467)" fill="#b2cdc1"/>
              <g id="Grupo_139944" data-name="Grupo 139944" transform="translate(9.215)">
                <path id="Trazado_152780" data-name="Trazado 152780" d="M491.76,287.666c1.335,1.958,2.77,3.834,4.229,5.691a82.391,82.391,0,0,0-9.8-16.991C485.638,279.313,490.686,286.09,491.76,287.666Z" transform="translate(-410.191 -261.693)" fill="#b2cdc1"/>
                <path id="Trazado_152781" data-name="Trazado 152781" d="M468.836,274.672a10.806,10.806,0,0,1,4.635-11.233c-.549-.514-1.1-1.027-1.664-1.526-1.578-1.4-3.516-2.819-5.587-2.435-2.865.531-3.988,4.1-3.806,7.008.326,5.186,2.926,9.975,6.085,14.1a51.865,51.865,0,0,0,5.3,5.916A31.627,31.627,0,0,1,468.836,274.672Z" transform="translate(-406.997 -259.414)" fill="#b2cdc1"/>
                <path id="Trazado_152782" data-name="Trazado 152782" d="M421.836,316.011c-7.819-2.226-15.778-11.282-17.552-19.144a16,16,0,0,1-.329-4.872,6.143,6.143,0,0,0-4.616,2.309c-1.251,1.77-1.106,4.185-.467,6.255,1.613,5.224,5.939,9.263,10.807,11.749s10.295,3.623,15.651,4.72l2.566-.448c-.042-.263-.1-.524-.148-.787A8.786,8.786,0,0,1,421.836,316.011Z" transform="translate(-398.392 -263.795)" fill="#b2cdc1"/>
                <path id="Trazado_152783" data-name="Trazado 152783" d="M447.866,305.056a10.244,10.244,0,0,0-5.149-7.966,6.782,6.782,0,0,0-.864-.4c2.105,5.963,3.228,12.581-.226,18.118a3.932,3.932,0,0,1-4.5,1.824,28.323,28.323,0,0,0,1.82,4.258l1.585.4c1.535-2.611,3.441-4.991,4.954-7.616A15.133,15.133,0,0,0,447.866,305.056Z" transform="translate(-403.6 -264.426)" fill="#b2cdc1"/>
                <path id="Trazado_152784" data-name="Trazado 152784" d="M429.417,337.492a9.131,9.131,0,0,1-2.748-3.235,12.507,12.507,0,0,0-1.731,1.068,2.6,2.6,0,0,0-1.141,1.5,2.321,2.321,0,0,0,.568,1.729,7.34,7.34,0,0,0,5.727,2.636,15.164,15.164,0,0,0,5.4-1.045A14.122,14.122,0,0,1,429.417,337.492Z" transform="translate(-401.805 -269.477)" fill="#b2cdc1"/>
                <path id="Trazado_152785" data-name="Trazado 152785" d="M462.859,325.966a9.928,9.928,0,0,1,4.97.091,7.947,7.947,0,0,0-3.291-4.329,1.9,1.9,0,0,0-1.471-.3,2.038,2.038,0,0,0-.958.825,11.993,11.993,0,0,0-2.031,4.958A8.414,8.414,0,0,1,462.859,325.966Z" transform="translate(-406.686 -267.744)" fill="#b2cdc1"/>
              </g>
            </g>
          </g>
          <g id="Grupo_139951" data-name="Grupo 139951" transform="translate(110.092 75.428)">
            <g id="Grupo_139948" data-name="Grupo 139948">
              <path id="Trazado_152786" data-name="Trazado 152786" d="M589.513,377.084c11.3-6.021,17.426-13.473,21.439-25.631.951-2.881,1.469-6.5-.751-8.566-2.379-2.218-6.241-1.145-9.106.393a41.113,41.113,0,0,0-13.461,11.6c-4.592,6.158-8.44,14.322-16,15.67a3.114,3.114,0,0,1-2.054-.169c-1.85-1.026-.649-3.814.522-5.576a25.644,25.644,0,0,0,4.047-10.8,3.932,3.932,0,0,0-.128-2.07,3.275,3.275,0,0,0-2.42-1.671c-3.621-.781-7.151,1.48-10.032,3.808-7.339,5.933-17.534,15.775-22.587,23.743" transform="translate(-514.607 -262.087)" fill="#b2cdc1"/>
              <g id="Grupo_139947" data-name="Grupo 139947">
                <path id="Trazado_152787" data-name="Trazado 152787" d="M525.11,274.02a29.108,29.108,0,0,0,12.313-12.665,14.607,14.607,0,0,0,1.8-8.243c-.207-1.587-1.189-3.394-2.79-3.379-1.157.011-2.052.982-2.756,1.9a45.091,45.091,0,0,0-8.986,22.569" transform="translate(-512.686 -249.733)" fill="#b2cdc1"/>
                <path id="Trazado_152788" data-name="Trazado 152788" d="M580.9,317.019c5.356-1.1,10.782-2.233,15.651-4.72s9.195-6.525,10.807-11.749c.64-2.07.784-4.485-.467-6.255-1.575-2.227-4.739-2.621-7.44-2.243a23.084,23.084,0,0,0-14.513,8.7,34.082,34.082,0,0,0-6.605,15.821" transform="translate(-519.899 -255.406)" fill="#b2cdc1"/>
                <path id="Trazado_152789" data-name="Trazado 152789" d="M570.2,320.848a34.852,34.852,0,0,0,3.211-9.376c.924-4.4,1.236-9.364-1.4-13a3.818,3.818,0,0,0-5.584-1.424,10.244,10.244,0,0,0-5.149,7.966,15.133,15.133,0,0,0,2.385,8.624c1.512,2.625,3.419,5,4.954,7.616" transform="translate(-517.601 -256.003)" fill="#b2cdc1"/>
                <path id="Trazado_152790" data-name="Trazado 152790" d="M562.3,333.828a48.264,48.264,0,0,1,10.345-1.626,16.194,16.194,0,0,1,9.907,2.846,2.6,2.6,0,0,1,1.141,1.5,2.32,2.32,0,0,1-.568,1.729,7.34,7.34,0,0,1-5.727,2.636,16.675,16.675,0,0,1-6.332-1.39c-2.746-1.065-5.543-2.521-7.034-5.061" transform="translate(-517.743 -260.82)" fill="#b2cdc1"/>
                <path id="Trazado_152791" data-name="Trazado 152791" d="M547.1,341.42a41.7,41.7,0,0,0,2.482-9.648,14.03,14.03,0,0,0-2.2-9.521,2.038,2.038,0,0,0-.958-.825,1.9,1.9,0,0,0-1.472.3,8.418,8.418,0,0,0-3.545,5.112,15.518,15.518,0,0,0,3.746,14.866" transform="translate(-514.857 -259.364)" fill="#b2cdc1"/>
                <path id="Trazado_152792" data-name="Trazado 152792" d="M590.043,299.235c-1.074,4.716-5.064,8.127-8.894,11.08-24.787,19.109-53.519,34.914-70.327,61.314" transform="translate(-510.822 -256.388)" fill="none" stroke="#b2cdc1" stroke-miterlimit="10" stroke-width="0.477"/>
                <path id="Trazado_152793" data-name="Trazado 152793" d="M527.221,267.555c-.513,1.2-1.09,2.359-1.681,3.514a45.277,45.277,0,0,1,3.494-10.194C529.643,262.406,527.635,266.591,527.221,267.555Z" transform="translate(-512.801 -251.231)" fill="#b2cdc1" style="mix-blend-mode: overlay;isolation: isolate"/>
                <path id="Trazado_152794" data-name="Trazado 152794" d="M537.9,258.2a5.937,5.937,0,0,0-3.682-5.569c.241-.335.485-.67.737-1,.7-.919,1.6-1.89,2.756-1.9,1.6-.015,2.583,1.792,2.79,3.379a14.606,14.606,0,0,1-1.8,8.243,28.645,28.645,0,0,1-2.237,3.749A17.378,17.378,0,0,0,537.9,258.2Z" transform="translate(-513.967 -249.733)" fill="#b2cdc1" style="mix-blend-mode: overlay;isolation: isolate"/>
              </g>
            </g>
            <g id="Grupo_139950" data-name="Grupo 139950" transform="translate(26.801 36.58)" style="mix-blend-mode: overlay;isolation: isolate">
              <path id="Trazado_152795" data-name="Trazado 152795" d="M574.708,364.454a14.446,14.446,0,0,0-8.939-9.538c2.764-2.147,6.057-4.059,9.429-3.332a3.276,3.276,0,0,1,2.42,1.671,3.933,3.933,0,0,1,.128,2.07A25.631,25.631,0,0,1,574.708,364.454Z" transform="translate(-545.01 -299.985)" fill="#b2cdc1"/>
              <path id="Trazado_152796" data-name="Trazado 152796" d="M597.351,372.82a91.877,91.877,0,0,0,11.315-15.242c2.036-3.623,4.283-8.3,2.894-12.529a7.271,7.271,0,0,0-1.436-2.564c2.561-1.028,5.476-1.4,7.408.4,2.22,2.07,1.7,5.684.751,8.566-4.013,12.158-10.141,19.61-21.439,25.631l-3.333.048C594.847,375.7,596.118,374.223,597.351,372.82Z" transform="translate(-548.74 -298.667)" fill="#b2cdc1"/>
              <g id="Grupo_139949" data-name="Grupo 139949">
                <path id="Trazado_152797" data-name="Trazado 152797" d="M584.4,316.011c7.819-2.226,15.778-11.282,17.552-19.144a16,16,0,0,0,.329-4.872A6.143,6.143,0,0,1,606.9,294.3c1.251,1.77,1.106,4.185.467,6.255-1.612,5.224-5.939,9.263-10.807,11.749s-10.295,3.623-15.651,4.72l-2.566-.448c.042-.263.1-.524.148-.787A8.786,8.786,0,0,0,584.4,316.011Z" transform="translate(-546.7 -291.995)" fill="#b2cdc1"/>
                <path id="Trazado_152798" data-name="Trazado 152798" d="M561.279,305.056a10.242,10.242,0,0,1,5.149-7.966,6.783,6.783,0,0,1,.864-.4c-2.105,5.963-3.228,12.581.226,18.118a3.931,3.931,0,0,0,4.5,1.824,28.222,28.222,0,0,1-1.819,4.258l-1.585.4c-1.535-2.611-3.442-4.991-4.954-7.616A15.133,15.133,0,0,1,561.279,305.056Z" transform="translate(-544.402 -292.627)" fill="#b2cdc1"/>
                <path id="Trazado_152799" data-name="Trazado 152799" d="M579.582,337.492a9.13,9.13,0,0,0,2.748-3.235,12.5,12.5,0,0,1,1.731,1.068,2.594,2.594,0,0,1,1.141,1.5,2.32,2.32,0,0,1-.568,1.729,7.34,7.34,0,0,1-5.727,2.636,15.165,15.165,0,0,1-5.4-1.045A14.122,14.122,0,0,0,579.582,337.492Z" transform="translate(-546.051 -297.677)" fill="#b2cdc1"/>
                <path id="Trazado_152800" data-name="Trazado 152800" d="M546.756,325.966a9.928,9.928,0,0,0-4.97.091,7.946,7.946,0,0,1,3.291-4.329,1.9,1.9,0,0,1,1.471-.3,2.038,2.038,0,0,1,.958.825,11.993,11.993,0,0,1,2.031,4.958A8.415,8.415,0,0,0,546.756,325.966Z" transform="translate(-541.786 -295.944)" fill="#b2cdc1"/>
              </g>
            </g>
          </g>
          <g id="Grupo_139952" data-name="Grupo 139952" opacity="0.51">
            <path id="Trazado_152801" data-name="Trazado 152801" d="M436.976,280.965a1.923,1.923,0,1,0-1.922,1.922A1.923,1.923,0,0,0,436.976,280.965Z" transform="translate(-390.285 -178.246)" fill="#b2cdc1"/>
            <circle id="Elipse_5017" data-name="Elipse 5017" cx="2.746" cy="2.746" r="2.746" transform="translate(0 143.093)" fill="#b2cdc1"/>
            <circle id="Elipse_5018" data-name="Elipse 5018" cx="4.944" cy="4.944" r="4.944" transform="translate(28.014 34.606)" fill="#b2cdc1"/>
            <circle id="Elipse_5019" data-name="Elipse 5019" cx="2.197" cy="2.197" r="2.197" transform="translate(132.382 49.712)" fill="#b2cdc1"/>
            <path id="Trazado_152802" data-name="Trazado 152802" d="M627.485,325.767a3.57,3.57,0,1,0-3.57,3.57A3.571,3.571,0,0,0,627.485,325.767Z" transform="translate(-415.455 -184.047)" fill="#b2cdc1"/>
            <path id="Trazado_152803" data-name="Trazado 152803" d="M580.253,275.022a1.373,1.373,0,1,0-1.373,1.374A1.373,1.373,0,0,0,580.253,275.022Z" transform="translate(-409.696 -177.52)" fill="#b2cdc1"/>
            <path id="Trazado_152804" data-name="Trazado 152804" d="M509.36,166.435a3.845,3.845,0,1,0-3.845,3.845A3.845,3.845,0,0,0,509.36,166.435Z" transform="translate(-399.5 -162.589)" fill="#b2cdc1"/>
          </g>
        </g>
        <g id="Grupo_139956" data-name="Grupo 139956">
          <g id="Grupo_139954" data-name="Grupo 139954" transform="translate(0 50.39)">
            <circle id="Elipse_5020" data-name="Elipse 5020" cx="13.969" cy="13.969" r="13.969" transform="translate(0 3.312)" fill="none" stroke="#ef3c79" stroke-miterlimit="10" stroke-width="1.078"/>
            <path id="Trazado_152805" data-name="Trazado 152805" d="M384.529,236.259c-2.483,5.588.55,5.22,2.106,4.954a4.327,4.327,0,0,0,1.831-.958c7.73-5.932,12.45-14.941,16.076-23.985.88-2.2,1.707-4.7.721-6.853a2.311,2.311,0,0,0-.926-1.105c-1.245-.681-2.649.53-3.55,1.625" transform="translate(-381.735 -208.115)" fill="none" stroke="#ef3c79" stroke-miterlimit="10" stroke-width="1.078"/>
          </g>
          <g id="Grupo_139955" data-name="Grupo 139955" transform="translate(174.859 16.711)">
            <circle id="Elipse_5021" data-name="Elipse 5021" cx="10.495" cy="10.495" r="10.495" transform="matrix(0.991, -0.132, 0.132, 0.991, 0.029, 2.772)" fill="none" stroke="#ef3c79" stroke-miterlimit="10" stroke-width="0.81"/>
            <path id="Trazado_152806" data-name="Trazado 152806" d="M587.3,172.814c-4.158-1.952-3.929.332-3.754,1.505a3.245,3.245,0,0,0,.692,1.39c4.336,5.9,11.031,9.584,17.768,12.448,1.635.7,3.506,1.355,5.136.647a1.73,1.73,0,0,0,.845-.679c.531-.924-.357-2-1.166-2.692" transform="translate(-583.467 -169.588)" fill="none" stroke="#ef3c79" stroke-miterlimit="10" stroke-width="0.81"/>
          </g>
          <path id="Trazado_152807" data-name="Trazado 152807" d="M439.85,259.97a2.483,2.483,0,1,0-2.483,2.483A2.483,2.483,0,0,0,439.85,259.97Z" transform="translate(-388.632 -164.363)" fill="#d8d3cf" stroke="#ef3c79" stroke-width="1"/>
          <path id="Trazado_152808" data-name="Trazado 152808" d="M451.368,155.631a4.656,4.656,0,1,0-4.657,4.656A4.657,4.657,0,0,0,451.368,155.631Z" transform="translate(-389.596 -150.043)" fill="#d8d3cf" stroke="#ef3c79" stroke-width="1"/>
          <circle id="Elipse_5022" data-name="Elipse 5022" cx="2.173" cy="2.173" r="2.173" transform="translate(166.071 80.087)" fill="#d8d3cf" stroke="#ef3c79" stroke-width="1"/>
          <path id="Trazado_152809" data-name="Trazado 152809" d="M558.031,151.761a1.862,1.862,0,1,0-1.863,1.863A1.863,1.863,0,0,0,558.031,151.761Z" transform="translate(-404.688 -149.898)" fill="#d8d3cf" stroke="#ef3c79" stroke-width="1"/>
        </g>
        <line id="Línea_256" data-name="Línea 256" x2="189.464" transform="translate(13.866 201.884)" fill="none" stroke="#b2cdc1" stroke-linecap="round" stroke-miterlimit="10" stroke-width="2.053"/>
      </g>
    </g>
    <path id="Unión_2" data-name="Unión 2" d="M0,197H12V1H47V197H58L29,247Z" transform="translate(1122.999 1365.997) rotate(-90)" fill="#00cbae"/>
    <path id="Trazado_152843" data-name="Trazado 152843" d="M18.887,19.445H17.51V28H12.559V6.672H17.51v8.35h1.025l4.819-8.35h6.226l-6.709,9.7L30.152,28H23.794ZM36.583,28H31.617V12.15h4.966Zm0-19.526H31.617V5.148h4.966ZM44.17,12.15l.19,2.227a5.738,5.738,0,0,1,1.919-1.853,4.965,4.965,0,0,1,2.549-.667,4.469,4.469,0,0,1,3.64,1.582q1.311,1.582,1.311,5.024V28H48.829V18.449a3.632,3.632,0,0,0-.483-2.146,1.657,1.657,0,0,0-1.406-.637,3.48,3.48,0,0,0-1.421.278,2.837,2.837,0,0,0-1.055.791V28H39.527V12.15ZM63.506,28.308a7.358,7.358,0,0,1-5.647-2.183A7.762,7.762,0,0,1,55.816,20.6v-.557a8.869,8.869,0,0,1,1.926-5.918,6.843,6.843,0,0,1,5.574-2.271,6.419,6.419,0,0,1,4.973,1.919,7.47,7.47,0,0,1,1.765,5.259v2.593H60.972l-.029.088a3.078,3.078,0,0,0,.923,2.014,3.223,3.223,0,0,0,2.314.769,10.031,10.031,0,0,0,2.366-.234,14.913,14.913,0,0,0,2.161-.747l1.187,3.018a9.061,9.061,0,0,1-2.754,1.26A12.709,12.709,0,0,1,63.506,28.308Zm-.19-12.642a2.043,2.043,0,0,0-1.75.754,3.785,3.785,0,0,0-.652,2.043l.029.073H65.22v-.381a3.294,3.294,0,0,0-.432-1.86A1.656,1.656,0,0,0,63.316,15.666Zm17.095,7.881a1.292,1.292,0,0,0-.667-1.047,7.188,7.188,0,0,0-2.424-.828,9.57,9.57,0,0,1-4.175-1.677,3.8,3.8,0,0,1-1.406-3.127A4.457,4.457,0,0,1,73.5,13.315a7.23,7.23,0,0,1,4.761-1.458A8.175,8.175,0,0,1,83.3,13.271a4.156,4.156,0,0,1,1.787,3.655l-.029.088h-4.8a1.963,1.963,0,0,0-.469-1.421,2.074,2.074,0,0,0-1.538-.483,2.012,2.012,0,0,0-1.3.425,1.332,1.332,0,0,0-.527,1.084,1.29,1.29,0,0,0,.608,1.069,6.877,6.877,0,0,0,2.454.791,9.857,9.857,0,0,1,4.307,1.707A3.914,3.914,0,0,1,85.171,23.4a4.2,4.2,0,0,1-1.9,3.523,8.321,8.321,0,0,1-5.017,1.384,7.524,7.524,0,0,1-5.12-1.641A4.52,4.52,0,0,1,71.343,23l.029-.088h4.482a1.987,1.987,0,0,0,.681,1.626,3,3,0,0,0,1.853.5,2.474,2.474,0,0,0,1.509-.388A1.3,1.3,0,0,0,80.411,23.547ZM93.184,8.21v3.94h2.5v3.428h-2.5v7.266a1.777,1.777,0,0,0,.344,1.223,1.2,1.2,0,0,0,.93.374,4.977,4.977,0,0,0,.608-.029,5.263,5.263,0,0,0,.579-.117l.337,3.662a11.952,11.952,0,0,1-1.348.271,10.854,10.854,0,0,1-1.421.081A4.948,4.948,0,0,1,89.5,27a5.755,5.755,0,0,1-1.267-4.131V15.578H86.021V12.15h2.212V8.21Zm11.938,20.1a7.358,7.358,0,0,1-5.647-2.183A7.762,7.762,0,0,1,97.432,20.6v-.557a8.869,8.869,0,0,1,1.926-5.918,6.843,6.843,0,0,1,5.574-2.271,6.419,6.419,0,0,1,4.973,1.919,7.47,7.47,0,0,1,1.765,5.259v2.593h-9.082l-.029.088a3.078,3.078,0,0,0,.923,2.014,3.223,3.223,0,0,0,2.314.769,10.031,10.031,0,0,0,2.366-.234,14.913,14.913,0,0,0,2.161-.747l1.187,3.018a9.061,9.061,0,0,1-2.754,1.26A12.709,12.709,0,0,1,105.123,28.308Zm-.19-12.642a2.043,2.043,0,0,0-1.75.754,3.785,3.785,0,0,0-.652,2.043l.029.073h4.277v-.381a3.294,3.294,0,0,0-.432-1.86A1.656,1.656,0,0,0,104.932,15.666Zm.234-10.312H110.6l.029.088L106.514,9.25h-4.365Zm16.86,18.193a1.292,1.292,0,0,0-.667-1.047,7.188,7.188,0,0,0-2.424-.828,9.57,9.57,0,0,1-4.175-1.677,3.8,3.8,0,0,1-1.406-3.127,4.457,4.457,0,0,1,1.758-3.552,7.23,7.23,0,0,1,4.761-1.458,8.175,8.175,0,0,1,5.039,1.414,4.156,4.156,0,0,1,1.787,3.655l-.029.088h-4.8a1.963,1.963,0,0,0-.469-1.421,2.074,2.074,0,0,0-1.538-.483,2.012,2.012,0,0,0-1.3.425,1.332,1.332,0,0,0-.527,1.084,1.29,1.29,0,0,0,.608,1.069,6.877,6.877,0,0,0,2.454.791,9.857,9.857,0,0,1,4.307,1.707,3.914,3.914,0,0,1,1.392,3.215,4.2,4.2,0,0,1-1.9,3.523,8.321,8.321,0,0,1-5.017,1.384,7.524,7.524,0,0,1-5.12-1.641A4.52,4.52,0,0,1,112.959,23l.029-.088h4.482a1.987,1.987,0,0,0,.681,1.626,3,3,0,0,0,1.853.5,2.474,2.474,0,0,0,1.509-.388A1.3,1.3,0,0,0,122.027,23.547ZM134.3,28h-4.966V12.15H134.3Zm0-19.526h-4.966V5.148H134.3ZM144.117,24.5a1.936,1.936,0,0,0,1.509-.549,2.289,2.289,0,0,0,.5-1.589h4.512l.029.088a5.2,5.2,0,0,1-1.794,4.226,6.924,6.924,0,0,1-4.753,1.633,7.012,7.012,0,0,1-5.574-2.234,8.518,8.518,0,0,1-1.956-5.823v-.337a8.545,8.545,0,0,1,1.948-5.815,6.96,6.96,0,0,1,5.552-2.241,6.817,6.817,0,0,1,4.827,1.677,5.785,5.785,0,0,1,1.75,4.592l-.029.088h-4.512a3.067,3.067,0,0,0-.513-1.838,1.757,1.757,0,0,0-1.523-.71,2.035,2.035,0,0,0-2,1.15,7.111,7.111,0,0,0-.564,3.1v.337a7.085,7.085,0,0,0,.564,3.12A2.066,2.066,0,0,0,144.117,24.5Zm7.91-4.57a8.378,8.378,0,0,1,2.021-5.823,8.215,8.215,0,0,1,11.294,0,8.378,8.378,0,0,1,2.021,5.823v.308a8.372,8.372,0,0,1-2.021,5.83,8.235,8.235,0,0,1-11.294,0,8.372,8.372,0,0,1-2.021-5.83Zm4.951.308a6.553,6.553,0,0,0,.623,3.127,2.215,2.215,0,0,0,2.117,1.135,2.189,2.189,0,0,0,2.08-1.143,6.5,6.5,0,0,0,.63-3.12v-.308a6.521,6.521,0,0,0-.63-3.1,2.206,2.206,0,0,0-2.109-1.165,2.175,2.175,0,0,0-2.087,1.172,6.594,6.594,0,0,0-.623,3.091Z" transform="translate(1134 1319)" fill="#12263f"/>
    <g id="Grupo_139978" data-name="Grupo 139978">
      <path id="Trazado_152842" data-name="Trazado 152842" d="M3548.766-10387.277l-1.736.523-15.956,4.809s-11.152,5.183-3.733,5.774,26.874-.081,30.6,0,18.1.127,29.065,0,14.912-.127,29.037,0,28.448,4.763,28.845,0,5.829-3.857-1.846-8-12.008-7.354-13.553-7.693S3548.766-10387.277,3548.766-10387.277Z" transform="translate(-2331 11700)" opacity="0.2"/>
      <g id="Grupo_139977" data-name="Grupo 139977" transform="translate(1179.713 1117.429)">
        <g id="Grupo_139972" data-name="Grupo 139972">
          <g id="Grupo_139971" data-name="Grupo 139971">
            <g id="Grupo_139968" data-name="Grupo 139968" transform="translate(42.424)">
              <g id="Grupo_139967" data-name="Grupo 139967" transform="translate(13.402)">
                <g id="Grupo_139966" data-name="Grupo 139966">
                  <g id="Grupo_139960" data-name="Grupo 139960" transform="translate(13.084)">
                    <path id="Trazado_152810" data-name="Trazado 152810" d="M483.9,157.308a30.064,30.064,0,0,1,23.392-13,11.575,11.575,0,0,1,5.49.864c2.085,1.005,3.542,2.937,4.94,4.783q5.523,7.292,11.5,14.222a5.588,5.588,0,0,0,2.884,2.132,5.825,5.825,0,0,0,3.352-.733c5.862-2.544,13.074-4.29,18.308-.624,1.1,3.82-2.478,8.179-6.439,7.845-2.958-.249-6.277-2.491-8.54-.57a18.537,18.537,0,0,1,9.209,5.165c-6.883,1.828-4.463,14.571-11.129,17.077-2.83,1.064-6.1-.373-8.985.544-2.659.846-4.285,3.428-6.063,5.579a26.669,26.669,0,0,1-25.826,8.839A226.885,226.885,0,0,0,489.19,164" transform="translate(-483.895 -125.029)" fill="#863c3e"/>
                    <g id="Grupo_139959" data-name="Grupo 139959" transform="translate(7.132 3.632)">
                      <path id="Trazado_152813" data-name="Trazado 152813" d="M497.578,155.228a16.647,16.647,0,0,1,18.439,6.037c3.1,4.423,3.849,10.17,6.968,14.582a16.19,16.19,0,0,0,8.51,6.112c3.849,1.151,8.4,1,11.236,3.847" transform="translate(-493.407 -130.425)" fill="none" stroke="#3e1c1a" stroke-miterlimit="10" stroke-width="0.27"/>
                      <path id="Trazado_152814" data-name="Trazado 152814" d="M498.538,153.78a21.159,21.159,0,0,1,24.667,5.936c2.676,3.389,4.508,7.814,8.429,9.62,3.82,1.759,8.264.4,12.3-.78s8.755-2.045,12.148.439" transform="translate(-493.574 -130.008)" fill="none" stroke="#3e1c1a" stroke-miterlimit="10" stroke-width="0.27"/>
                      <path id="Trazado_152815" data-name="Trazado 152815" d="M494.249,159.981a14.335,14.335,0,0,0,1.837,5.8,6.138,6.138,0,0,0,3.572,3.153c1.586.387,3.556-.618,3.666-2.247" transform="translate(-492.828 -131.39)" fill="none" stroke="#3e1c1a" stroke-miterlimit="10" stroke-width="0.27"/>
                    </g>
                  </g>
                  <g id="Grupo_139963" data-name="Grupo 139963" transform="translate(6.666 25.523)">
                    <path id="Trazado_152817" data-name="Trazado 152817" d="M507.645,176.324a.67.67,0,0,0,.821.507c1.541-.4,5.017-1.632,6.546,2.277,1.544,3.951-1.76,7.234-4.068,7.956-.666.208-2.189.742-2.52,1.356-1.019,1.888-.83,5.4-.855,9.843a52.432,52.432,0,0,0,1.5,12.236,41.488,41.488,0,0,0,9.715,4.162s-21.33,55.7-42.66.3c0,0,11.553-3.259,12.441-4.138.216-6.64.522-16.5.429-16.558-2.36-1.405-10.744-.569-10.1-17.323.593-15.52,11.447-17.182,14.26-17.388C495.528,159.377,503.542,157.869,507.645,176.324Z" transform="translate(-476.126 -153.189)" fill="#ffa288"/>
                    <g id="Grupo_139961" data-name="Grupo 139961" transform="translate(2.741 18.576)">
                      <path id="Trazado_152818" data-name="Trazado 152818" d="M520.371,184.925s-3.724-4.5-5.061,3.136" transform="translate(-485.683 -175.966)" fill="#d66956"/>
                      <path id="Trazado_152819" data-name="Trazado 152819" d="M497.446,184a3.739,3.739,0,1,0,4.482,2.805A3.738,3.738,0,0,0,497.446,184Z" transform="translate(-482.071 -176.018)" fill="#e7786b" opacity="0.63"/>
                      <path id="Trazado_152820" data-name="Trazado 152820" d="M480.066,188.826a3.74,3.74,0,0,0-.483-6.983S479.052,186.245,480.066,188.826Z" transform="translate(-479.444 -175.659)" fill="#e7786b" opacity="0.63"/>
                      <path id="Trazado_152821" data-name="Trazado 152821" d="M489.51,188.189a3.688,3.688,0,0,1-3.786,1.44,3.935,3.935,0,0,1-2.55-2.07" transform="translate(-480.093 -176.653)" fill="none" stroke="#000" stroke-linecap="round" stroke-miterlimit="10" stroke-width="0.539"/>
                      <path id="Trazado_152822" data-name="Trazado 152822" d="M486.758,183.707l.526,2.852-1.507-.023a.366.366,0,0,1-.313-.547Z" transform="translate(-480.483 -175.983)" fill="#d66956"/>
                      <path id="Trazado_152823" data-name="Trazado 152823" d="M494.047,177.584c.649.549-.221-1.718-1.146-2.055a1.673,1.673,0,0,0-2.2.834A5.232,5.232,0,0,1,494.047,177.584Z" transform="translate(-481.402 -174.539)"/>
                      <path id="Trazado_152824" data-name="Trazado 152824" d="M481.606,176.207c-.737.424.523-1.652,1.492-1.82a1.674,1.674,0,0,1,2.018,1.212A5.227,5.227,0,0,0,481.606,176.207Z" transform="translate(-479.782 -174.357)"/>
                      <path id="Trazado_152825" data-name="Trazado 152825" d="M490.756,201.165a24.309,24.309,0,0,0,7.866-.773C496.724,205.525,492.594,205.2,490.756,201.165Z" transform="translate(-481.412 -178.886)" fill="#d66956"/>
                    </g>
                    <path id="Trazado_152826" data-name="Trazado 152826" d="M486.037,154.092c-11.258-4.74-7.773,16.886-7.773,16.886,3.434.419,4.915-2.395,6.007-5.654A5.478,5.478,0,0,1,487.445,162h0a1.688,1.688,0,0,0,1.039-1.84h0a10.921,10.921,0,0,0,7.453,11.063h0a4.787,4.787,0,0,0,6.137-5.771l-.3-1.138,3.522,10.514c1.125,2.046,4.3.035,6.446-.889h0S506.542,143.551,486.037,154.092Z" transform="translate(-476.409 -151.87)" fill="#863c3e"/>
                    <g id="Grupo_139962" data-name="Grupo 139962" transform="translate(5.065 25.921)">
                      <path id="Trazado_152827" data-name="Trazado 152827" d="M491.8,184.135c-.857.294-1.874.6-2.613-.288" transform="translate(-483.463 -183.353)" fill="none" stroke="#000" stroke-linecap="round" stroke-miterlimit="10" stroke-width="0.539"/>
                      <path id="Trazado_152828" data-name="Trazado 152828" d="M484.87,183.537c-.856.294-1.873.6-2.613-.288" transform="translate(-482.257 -183.249)" fill="none" stroke="#000" stroke-linecap="round" stroke-miterlimit="10" stroke-width="0.539"/>
                    </g>
                  </g>
                  <g id="Grupo_139964" data-name="Grupo 139964" transform="translate(0 84.329)">
                    <path id="Trazado_152829" data-name="Trazado 152829" d="M480.943,223.059c-2.667,1.313-9.332,1.876-12.887,3.259,2.074,9.924.444,23.107,1.122,30.984.922,10.712.586,27.97.586,27.97s35.944.781,46.511,1.481c5.807-17.691,12.108-45.59,8.514-59.25l-11.85-4.148C509.908,229.271,481.427,226.716,480.943,223.059Z" transform="translate(-468.056 -223.059)" fill="#ffe8d8"/>
                  </g>
                  <g id="Grupo_139965" data-name="Grupo 139965" transform="translate(20.521 88.91)" opacity="0.38" style="mix-blend-mode: multiply;isolation: isolate">
                    <path id="Trazado_152830" data-name="Trazado 152830" d="M524.047,228.6c3.016,14.432,2.074,42.281-3.452,59.112-5.365-.356-17.273-.732-27.7-1.017C507.914,270.135,520.613,250.744,524.047,228.6Z" transform="translate(-492.898 -228.605)" fill="#d8c7bc"/>
                  </g>
                </g>
              </g>
              <path id="Trazado_152831" data-name="Trazado 152831" d="M510.688,299.26c11.357,13.628,19.17,49.673,19.17,49.673l-78.026-1.878s4.494-35.4,18.812-48.536C470.694,298.618,492.715,297.779,510.688,299.26Z" transform="translate(-451.832 -151.829)" fill="#6e7dd6"/>
              <path id="Trazado_152832" data-name="Trazado 152832" d="M510.688,299.26c11.357,13.628,19.17,49.673,19.17,49.673l-78.026-1.878s4.494-35.4,18.812-48.536C470.694,298.618,492.715,297.779,510.688,299.26Z" transform="translate(-451.832 -151.829)" fill="#6e7dd6" opacity="0.44" style="mix-blend-mode: multiply;isolation: isolate"/>
            </g>
            <g id="Grupo_139969" data-name="Grupo 139969" transform="translate(26.995 187.06)">
              <path id="Trazado_152833" data-name="Trazado 152833" d="M433.7,364.436c-1.423-.247.035-2.888,3.34-3.88,5.289-1.587,13.8-4.577,16.293-7.612,2.88-3.5,5.552-4.873,7.468-5.377a4.568,4.568,0,0,1,4.1.951,5.461,5.461,0,0,0,2.838,1.424,11.318,11.318,0,0,0,2.632-.225l-.61,16.114S440.118,365.552,433.7,364.436Z" transform="translate(-433.154 -347.421)" fill="#ffa288"/>
            </g>
            <path id="Trazado_152834" data-name="Trazado 152834" d="M474.652,359.937s99.131-1.451,99.821-27.092c.637-23.692-38.765-18.063-42.912-17.47-15.537,2.22-57.374,21.6-57.374,21.6Z" transform="translate(-413.296 -154.613)" fill="#6e7dd6"/>
            <path id="Trazado_152835" data-name="Trazado 152835" d="M501.214,327.778,475.143,338.74l.558,23.606s63.738-3.441,78.7-10.923Z" transform="translate(-413.462 -156.944)" fill="#d8c7bc" opacity="0.28" style="mix-blend-mode: multiply;isolation: isolate"/>
            <line id="Línea_257" data-name="Línea 257" x1="2.843" y1="26.333" transform="translate(67.625 178.768)" fill="none" stroke="#fff" stroke-miterlimit="10" stroke-width="1.078"/>
            <path id="Trazado_152836" data-name="Trazado 152836" d="M492.67,358.892s-94.923-3.238-92.134-28.736c2.074-18.96,33.181-15.262,47.993-10.073s45.327,18.961,45.327,18.961Z" transform="translate(-400.475 -154.878)" fill="#6e7dd6"/>
            <g id="Grupo_139970" data-name="Grupo 139970" transform="translate(91.899 184.367)">
              <path id="Trazado_152837" data-name="Trazado 152837" d="M547.756,363.857c1.44-.108.245-2.878-2.948-4.186-5.11-2.093-13.289-5.895-15.478-9.157-2.526-3.767-5.053-5.389-6.912-6.076a4.565,4.565,0,0,0-4.176.548,5.465,5.465,0,0,1-2.964,1.142,11.291,11.291,0,0,1-2.6-.478l-.956,16.1S541.258,364.344,547.756,363.857Z" transform="translate(-511.724 -344.161)" fill="#ffa288"/>
            </g>
            <line id="Línea_258" data-name="Línea 258" x1="1.975" y2="20.639" transform="translate(86.27 182.19)" fill="none" stroke="#fff" stroke-miterlimit="10" stroke-width="1.078"/>
          </g>
        </g>
        <g id="Grupo_139974" data-name="Grupo 139974" transform="translate(77.175 87.267)">
          <g id="Grupo_139973" data-name="Grupo 139973">
            <path id="Trazado_152838" data-name="Trazado 152838" d="M495.312,269.837s.592-3.408,1.185-2.519,2.073,10.517,2.073,10.517Z" transform="translate(-494.146 -233.67)" fill="#d66956"/>
            <path id="Trazado_152839" data-name="Trazado 152839" d="M498.325,289c16.295,2.1,44.039,2.4,45.178-.148,8.148-3.116-.592-35.7-5.925-49.77-2.895-7.638-6.712-11.628-10.813-12.442-7.555-1.185-.181,42.2,2.37,46.215,0,0-5.037-1.185-28.588,4.888,0,0-4.37-13.937-5.481-14.96,0,0-1.629-1.185-1.037,1.037s1.4,22.75,1.926,23.4C497.733,289.445,498.325,289,498.325,289Z" transform="translate(-493.9 -226.616)" fill="#ffa288"/>
          </g>
        </g>
        <g id="Grupo_139976" data-name="Grupo 139976" transform="translate(34.095 86.091)">
          <g id="Grupo_139975" data-name="Grupo 139975">
            <path id="Trazado_152840" data-name="Trazado 152840" d="M493.471,269.837s-.592-3.408-1.185-2.519-2.074,10.517-2.074,10.517Z" transform="translate(-450.178 -232.494)" fill="#d66956"/>
            <path id="Trazado_152841" data-name="Trazado 152841" d="M481.783,288.753c-16.3,2.1-36.123-5.3-37.262-7.85-8.148-3.116,3.59-29.3,10.517-42.66,4.148-8,8.044-12.221,12.146-13.035,11.258-.888-5.036,39.4-5.332,44.142,0,0,2.37,2.962,17.71,8.147,0,0,4.369-13.936,5.48-14.96,0,0,1.63-1.185,1.037,1.037s-1.4,22.75-1.926,23.4C482.376,289.2,481.783,288.753,481.783,288.753Z" transform="translate(-441.749 -225.193)" fill="#ffa288"/>
          </g>
        </g>
      </g>
    </g>
  </g>
</svg>
