<svg xmlns="http://www.w3.org/2000/svg" width="265.721" height="258.776" viewBox="0 0 265.721 258.776">
  <g id="Grupo_140175" data-name="Grupo 140175" transform="translate(-1118.5 -3808.5)">
    <path id="Trazado_114225" data-name="Trazado 114225" d="M1476.283,567.476c28.354,60.945,76.865,51.375,146.1,19.167s107.733-60.765,79.379-121.71-112.825-131.2-182.056-98.993S1447.931,506.531,1476.283,567.476Z" transform="translate(-327.714 3454.192)" fill="none" stroke="#ef3c79" stroke-miterlimit="10" stroke-width="2"/>
    <path id="Trazado_114226" data-name="Trazado 114226" d="M1475,519.414c0,67.218,48.021,79,124.378,79s123.311-9.651,123.311-76.869S1675.736,355,1599.378,355,1475,452.2,1475,519.414Z" transform="translate(-356 3454)" fill="#f6f6f6" stroke="rgba(0,0,0,0)" stroke-width="1"/>
    <path id="Trazado_114227" data-name="Trazado 114227" d="M1672.818,426.865c0,6.486,4.633,7.623,12,7.623s11.9-.931,11.9-7.417S1692.187,411,1684.819,411,1672.818,420.379,1672.818,426.865Z" transform="translate(-541.225 3457.787)" fill="#00cbae" stroke="rgba(0,0,0,0)" stroke-width="1"/>
    <path id="Trazado_114228" data-name="Trazado 114228" d="M1459.307,455.865c0,6.486,4.633,7.623,12,7.623s11.9-.931,11.9-7.417S1478.676,440,1471.308,440,1459.307,449.379,1459.307,455.865Z" transform="translate(-99.764 3459.748)" fill="#0d4aad" stroke="rgba(0,0,0,0)" stroke-width="1"/>
    <g id="Grupo_137507" data-name="Grupo 137507" transform="translate(-1018.398 2904.056)">
      <path id="Trazado_151884" data-name="Trazado 151884" d="M2195.129,944.632c2.781-2.6,4.27-2.6,6.955.1v-3.794c0-5.355,0-5.355-5.394-5.233a3.353,3.353,0,0,1-.436,0c-.8-.1-1.159.156-1.142,1.05C2195.165,939.32,2195.129,941.888,2195.129,944.632Z" transform="translate(19.022 2.551)" fill="#f7a32f"/>
      <path id="Trazado_151885" data-name="Trazado 151885" d="M2201.547,1023.914c1.943,2.216,4.08,4.252,6.572,6.816V1027.2c0-4.843.766-5.588,5.7-5.588h10.857c3.092-.014,4.31-1.235,4.31-4.362V984.242c0-3.122-1.218-4.348-4.319-4.348H2170.8c-3.233,0-4.4,1.193-4.4,4.48v32.579c0,3.558,1.1,4.664,4.658,4.664l-.007,0c8.255.02,16.508.071,24.762-.051A6.815,6.815,0,0,1,2201.547,1023.914Zm-19.729-33.6h15.861c6.374,0,12.751.042,19.122-.036,1.424,0,1.781.357,1.781,1.781-.033,5.216.023,5.216-5.257,5.216-11.509,0-23.025-.035-34.542.044-1.616.009-2.041-.364-2.011-2.02C2176.872,990.317,2176.793,990.317,2181.818,990.317Zm-3.243,20.921c-1.426,0-1.782-.357-1.782-1.781.037-5.213-.021-5.213,5.26-5.213,11.509,0,23.025.036,34.542-.042,1.619-.011,2.036.37,2,2-.1,4.985-.024,4.985-5.048,4.985l-16.075.014C2191.177,1011.2,2184.873,1011.159,2178.575,1011.238Z" transform="translate(2.557 27.911)" fill="#fcc059"/>
      <path id="Trazado_151886" data-name="Trazado 151886" d="M2308.66,966.641h-54.084c-2.955,0-4.194,1.257-4.194,4.248q-.023,16.616,0,33.231c0,2.982,1.246,4.237,4.212,4.237,4.2,0,8.4-.028,12.6,0a3.515,3.515,0,0,1,.953-.008,3.559,3.559,0,0,1,3.091,3.975c.025,1.493,0,2.988,0,5.012,2.553-2.576,4.769-4.666,6.808-6.916a6.3,6.3,0,0,1,5.175-2.109c8.467.088,16.938.031,25.41.031,3.1,0,4.33-1.227,4.33-4.34v.006q.015-16.505,0-33.006C2312.962,967.87,2311.759,966.641,2308.66,966.641ZM2297.3,997.914c-11.509,0-23.025-.036-34.541.043-1.616.011-2.037-.364-2-2,.1-4.985.022-4.985,5.046-4.985h15.861c6.373,0,12.751.042,19.121-.036,1.415-.017,1.8.349,1.773,1.759C2302.528,997.914,2302.585,997.914,2297.3,997.914Zm0-13.9c-11.509,0-23.025-.036-34.541.043-1.624.011-2.037-.375-2-2.016.1-4.985.022-4.985,5.049-4.985h16.071c6.3,0,12.607.046,18.905-.036,1.424,0,1.781.357,1.781,1.781C2302.531,984.015,2302.588,984.015,2297.3,984.015Z" transform="translate(50.714 20.311)" fill="#fe5d7c"/>
      <path id="Trazado_151887" data-name="Trazado 151887" d="M2327.529,1033.1a9.508,9.508,0,0,0-6.288,1.139q-5.7,5.679-11.4,11.353a3.443,3.443,0,0,1-4.116,1.015,3.562,3.562,0,0,1-2.137-3.679c.045-2.752-.082-5.512.045-8.258.079-1.41-.417-1.681-1.7-1.632-2.614.1-5.227.028-7.833.028a10.329,10.329,0,0,1-1.833,0,10.48,10.48,0,0,1-9.542-11.34V988.916a10.5,10.5,0,0,1,11.446-11.485c10.646-.006,21.3-.02,31.945.022,1.282.006,1.855-.132,1.855-1.692-.079-11.954-.05-23.9-.05-35.86,0-2.95-1.263-4.193-4.254-4.193q-52.7.024-105.4-.039c-1.378,0-1.649.373-1.649,1.684.076,5.926,0,11.866.053,17.806.019,2.107-.2,4-2.557,4.7s-3.575-.883-4.672-2.617c-.99-1.567-2.047-3.089-3.222-4.843-1.269,1.9-2.433,3.586-3.484,5.241s-2.38,2.842-4.447,2.219-2.54-2.269-2.521-4.274c.057-6.082-.025-12.171.057-18.253.017-1.353-.332-1.72-1.675-1.663-2.614.113-5.227.035-7.835.035-3.265.014-4.443,1.18-4.443,4.445-.006,18.759.017,37.522-.039,56.284,0,1.506.332,1.9,1.877,1.9q16.409-.092,32.814-.028h.291a10.327,10.327,0,0,1,10.242,10.41q.087,17.388,0,34.773c0,.083,0,.167,0,.252a10.351,10.351,0,0,1-10.514,10.185c-2.963.057-5.937.076-8.9,0-1.133-.042-1.485.274-1.449,1.424.082,2.678-.014,5.364.039,8.041a3.812,3.812,0,0,1-2.125,4.1,3.7,3.7,0,0,1-4.423-1.331c-3.262-3.29-6.65-6.47-9.782-9.882a6.881,6.881,0,0,0-5.836-2.425c-1.838.06-2.194.5-2.194,2.282q.043,34.662.043,69.325c0,4,.976,4.985,4.986,4.985h136.027c4,0,5-1,5-4.985v-69.542q0-10.527,0-21.077C2327.929,1034.256,2328.319,1033.506,2327.529,1033.1Zm-19.168,27.739c1.8-.006,2.278.406,2.225,2.222-.138,4.779-.042,4.779-4.835,4.779h-30.208c-10.874,0-21.732-.039-32.6.044-1.624.009-2.036-.371-2-2,.107-4.986.029-4.986,5.052-5C2266.783,1060.886,2287.572,1060.91,2308.361,1060.839Zm2.236,15.615c0,5.306.05,5.306-5.162,5.306H2300c-1.486,0-2.971-.014-4.455-.019s-2.968,0-4.452.047c-1.172.036-1.4-.36-1.426-1.46-.116-5.523-.149-5.523,5.373-5.523,4.63,0,9.259.06,13.888-.036C2310.309,1074.749,2310.579,1075.147,2310.6,1076.454Zm-27.84,4.443c-.11.806-.427.9-1.086.9-3.9-.031-7.812-.061-11.729,0-1.054.017-1.1-.463-1.141-1.3-.274-5.7-.274-5.7,5.424-5.7h1.739l1.734.036C2283.177,1074.845,2283.531,1075.293,2282.757,1080.9Zm-11.979-37.372h-15.86c-6.374,0-12.749-.043-19.123.036-1.424,0-1.781-.357-1.781-1.781.033-5.216-.024-5.216,5.257-5.216,11.508,0,23.025.035,34.542-.042,1.609-.019,2.036.355,2.01,2.019C2275.72,1043.526,2275.8,1043.526,2270.778,1043.526Zm-.125-13.927h-20.642c-4.779-.011-9.561-.021-14.339.039-1.356.014-1.667-.341-1.667-1.677,0-5.317-.05-5.317,5.155-5.317,11.589,0,23.179.033,34.766-.038,1.531-.008,1.908.373,1.886,1.893C2275.739,1029.6,2275.807,1029.6,2270.654,1029.6ZM2234,1014.034c0-5.306-.049-5.306,5.164-5.306,11.587,0,23.177.036,34.765-.039,1.55-.009,1.894.406,1.874,1.906-.068,5.089,0,5.089-5.167,5.089H2250c-4.779-.008-9.561-.017-14.344.036C2234.276,1015.736,2234,1015.345,2234,1014.034Zm14.052-62.949a16.84,16.84,0,0,1,18.6,3.054c1.068.916,1.474,1.657,0,2.525a5.953,5.953,0,0,0-.815.711c-.927.809-1.742,1.992-2.81,2.329-1.21.389-1.892-1.21-2.927-1.78a10.526,10.526,0,0,0-13.589,2.938,10.357,10.357,0,0,0,1.193,13.634,10.131,10.131,0,0,0,13.635.613c1.293-1.1,1.956-.977,2.928.121a19.013,19.013,0,0,0,1.779,1.591c2.047,1.8,2.095,1.852,0,3.493a16.736,16.736,0,0,1-18.491,2.382l.031-.011a17.248,17.248,0,0,1,.463-31.6Zm-13.685,44.052c1.04-1.046,3.29-.307,5.007-.307,11.509-.024,23.025.019,34.541-.049,1.509-.011,1.92.341,1.9,1.88-.077,5.109-.007,5.109-5.148,5.109h-25.433q-4.779,0-9.56.047c-1.333.017-1.816-.293-1.664-1.66C2234.212,998.448,2233.327,996.184,2234.367,995.136Zm-9.019,65.756h3.476c5.287,0,5.23,0,5.263,5.207,0,1.4-.357,1.822-1.781,1.78-3.543-.1-7.079-.079-10.64,0-1.229.025-1.553-.3-1.56-1.545C2220.042,1060.892,2220.006,1060.892,2225.348,1060.892Zm-7.167,13.924h30.748q5.594.007,11.189-.047c1.424,0,1.781.357,1.781,1.781-.033,5.213.023,5.213-5.26,5.213-13.834,0-27.668-.028-41.5.042-1.621.008-2.038-.37-2.006-2C2213.23,1074.816,2213.152,1074.816,2218.181,1074.816Zm-15.39-.008c3.432,0,3.432,0,3.432,3.521,0,3.433,0,3.433-3.522,3.433-3.433,0-3.433,0-3.433-3.521C2199.267,1074.808,2199.267,1074.808,2202.791,1074.808Zm1.26,13.924h51.067c17.823,0,35.657.025,53.461-.039,1.606,0,2.044.349,2.013,1.994-.1,4.986-.022,4.986-5.046,4.986q-52.046-.047-104.093.042c-1.792,0-2.286-.389-2.233-2.2C2199.36,1088.732,2199.261,1088.732,2204.05,1088.732Zm17.822,20.86c-6.968,0-13.905-.039-20.857.036-1.424,0-1.779-.357-1.779-1.781.036-5.213-.022-5.213,5.26-5.213h11.942c3.042.011,6.082.021,9.124-.036,1.229-.025,1.545.327,1.563,1.564C2227.186,1109.592,2227.214,1109.592,2221.872,1109.592Zm83.9-.025H2272.3c-12.1,0-24.183-.031-36.289.043-1.618.011-2.041-.364-2.009-2,.1-4.986.022-4.986,5.046-4.986q34.66,0,69.321-.046c1.8-.008,2.283.395,2.24,2.2C2310.462,1109.567,2310.562,1109.567,2305.769,1109.567Z" transform="translate(11.408 2.545)" fill="#dcd9ea"/>
      <path id="Trazado_151888" data-name="Trazado 151888" d="M2360.527,979.988c-.219-.006-.436,0-.654,0-3.918-.028-7.834-.085-11.751.036-1.542.046-1.891-.385-1.883-1.9.068-11.663.039-23.324.035-34.99a10.566,10.566,0,0,0-11.751-11.837H2198.07a10.577,10.577,0,0,0-11.751,11.844c0,18.617-.022,37.234.036,55.853,0,1.522-.357,1.942-1.888,1.891-3.917-.121-7.834-.06-11.751-.036a10.377,10.377,0,0,0-10.744,10c-.008.216-.01.433,0,.648q-.056,17.166,0,34.338a10.384,10.384,0,0,0,10.11,10.649c.214.006.428,0,.641,0,3.839.028,7.682.1,11.517-.039,1.712-.06,2.108.431,2.105,2.116q-.09,34.663-.039,69.323c0,8.006,4.02,12.061,11.96,12.061h135.826c8.165,0,12.174-3.97,12.174-12.064v-25.859q0-32.274-.035-64.546c0-1.52.355-1.94,1.887-1.891,3.918.121,7.834.064,11.751.036a10.371,10.371,0,0,0,10.744-9.988c.008-.22.01-.442,0-.662q.071-17.166.011-34.338A10.373,10.373,0,0,0,2360.527,979.988Zm-145.251-41.734a3.375,3.375,0,0,0,.436,0c5.394-.121,5.394-.121,5.394,5.233v3.794c-2.685-2.7-4.173-2.7-6.955-.1,0-2.744.036-5.312-.017-7.88C2214.117,938.409,2214.479,938.158,2215.276,938.254Zm-41.669,111.279.007,0c-3.561,0-4.658-1.106-4.658-4.664v-32.579c0-3.287,1.169-4.48,4.4-4.48h53.862c3.1,0,4.314,1.226,4.32,4.348v33.013c0,3.127-1.218,4.348-4.31,4.362h-10.857c-4.931,0-5.7.744-5.7,5.588v3.526c-2.492-2.565-4.629-4.6-6.572-6.816a6.815,6.815,0,0,0-5.734-2.343C2190.115,1049.6,2181.862,1049.553,2173.607,1049.533Zm165.73-12.154q.014,10.55,0,21.077V1128c0,3.987-1,4.985-5,4.985H2198.306c-4.011,0-4.986-.99-4.986-4.985q0-34.663-.043-69.325c0-1.78.356-2.222,2.194-2.282a6.882,6.882,0,0,1,5.836,2.425c3.132,3.411,6.521,6.591,9.782,9.882a3.7,3.7,0,0,0,4.423,1.331,3.812,3.812,0,0,0,2.126-4.1c-.053-2.677.043-5.363-.039-8.041-.036-1.15.316-1.467,1.449-1.424,2.966.076,5.94.057,8.9,0a10.351,10.351,0,0,0,10.514-10.185c0-.085,0-.168,0-.252q.088-17.383,0-34.773a10.327,10.327,0,0,0-10.242-10.41h-.291q-16.406-.064-32.814.028c-1.545,0-1.88-.4-1.877-1.9.056-18.762.033-37.525.039-56.284,0-3.265,1.178-4.431,4.444-4.445,2.608,0,5.221.079,7.834-.035,1.342-.057,1.692.31,1.675,1.663-.082,6.082,0,12.171-.057,18.253-.019,2,.455,3.651,2.521,4.274s3.4-.563,4.447-2.219,2.215-3.337,3.484-5.241c1.175,1.755,2.232,3.276,3.222,4.843,1.1,1.734,2.315,3.319,4.672,2.617s2.576-2.593,2.557-4.7c-.056-5.94.022-11.88-.053-17.806,0-1.311.271-1.688,1.649-1.684q52.7.064,105.4.039c2.991,0,4.252,1.243,4.255,4.193,0,11.956-.029,23.906.05,35.86,0,1.559-.573,1.7-1.855,1.692-10.648-.042-21.3-.028-31.945-.022a10.5,10.5,0,0,0-11.446,11.485v32.814a10.48,10.48,0,0,0,9.542,11.34,10.327,10.327,0,0,0,1.833,0c2.606,0,5.219.073,7.833-.028,1.285-.049,1.781.222,1.7,1.632-.127,2.746,0,5.506-.046,8.258a3.562,3.562,0,0,0,2.137,3.679,3.444,3.444,0,0,0,4.116-1.015q5.7-5.674,11.4-11.353a9.509,9.509,0,0,1,6.288-1.139C2339.727,1036.051,2339.337,1036.8,2339.337,1037.379Zm24.339-13.058v-.006c0,3.112-1.229,4.337-4.33,4.34-8.471,0-16.944.057-25.41-.031a6.3,6.3,0,0,0-5.175,2.108c-2.04,2.25-4.255,4.34-6.809,6.916,0-2.024.025-3.518,0-5.012a3.565,3.565,0,0,0-4.044-3.967c-4.2-.028-8.4,0-12.6,0-2.966,0-4.209-1.256-4.212-4.237q-.023-16.614,0-33.231c0-2.991,1.239-4.248,4.194-4.248h54.084c3.1,0,4.3,1.229,4.3,4.363Q2363.691,1007.816,2363.676,1024.321Z" transform="translate(0 0)" fill="#0d4aad"/>
      <path id="Trazado_151889" data-name="Trazado 151889" d="M2195.116,1039.94q52.046-.09,104.093-.042c5.024,0,4.942,0,5.046-4.986.031-1.644-.406-2-2.013-1.994-17.8.064-35.638.039-53.461.039h-51.066c-4.79,0-4.69,0-4.832,4.785C2192.83,1039.552,2193.324,1039.94,2195.116,1039.94Z" transform="translate(17.743 58.32)" fill="#0d4aad"/>
      <path id="Trazado_151890" data-name="Trazado 151890" d="M2289.353,1041.744q-34.66.1-69.321.046c-5.024,0-4.945,0-5.046,4.986-.031,1.633.392,2.008,2.009,2,12.106-.074,24.192-.043,36.289-.043h33.473c4.793,0,4.692,0,4.835-4.782C2291.635,1042.139,2291.151,1041.736,2289.353,1041.744Z" transform="translate(30.42 63.382)" fill="#0d4aad"/>
      <path id="Trazado_151891" data-name="Trazado 151891" d="M2219.4,1020.259c-.032,1.63.381,2.011,2,2,10.865-.083,21.722-.044,32.6-.044h30.208c4.793,0,4.7,0,4.835-4.779.054-1.816-.423-2.228-2.224-2.222-20.79.071-41.578.047-62.368.047C2219.427,1015.273,2219.506,1015.273,2219.4,1020.259Z" transform="translate(32.951 48.168)" fill="#0d4aad"/>
      <path id="Trazado_151892" data-name="Trazado 151892" d="M2227.308,977.628l-.031.011a16.736,16.736,0,0,0,18.491-2.382c2.095-1.641,2.047-1.7,0-3.493a19.039,19.039,0,0,1-1.78-1.591c-.972-1.1-1.635-1.223-2.928-.121a10.131,10.131,0,0,1-13.634-.614,10.357,10.357,0,0,1-1.193-13.634,10.527,10.527,0,0,1,13.589-2.938c1.035.57,1.717,2.168,2.927,1.78,1.069-.337,1.884-1.52,2.81-2.329a5.978,5.978,0,0,1,.815-.711c1.474-.869,1.068-1.61,0-2.525a16.839,16.839,0,0,0-18.6-3.054,17.248,17.248,0,0,0-.463,31.6Z" transform="translate(31.69 7.604)" fill="#0d4aad"/>
      <path id="Trazado_151893" data-name="Trazado 151893" d="M2203.73,1031.106c13.834-.071,27.668-.042,41.5-.042,5.284,0,5.227,0,5.26-5.213,0-1.424-.357-1.781-1.781-1.781q-5.594.054-11.189.047h-30.747c-5.029,0-4.951,0-5.052,4.985C2201.692,1030.736,2202.109,1031.114,2203.73,1031.106Z" transform="translate(22.814 53.245)" fill="#0d4aad"/>
      <path id="Trazado_151894" data-name="Trazado 151894" d="M2215.05,978.685c-.152,1.367.331,1.677,1.664,1.66q4.779-.054,9.56-.047h25.433c5.142,0,5.071,0,5.148-5.109.022-1.539-.389-1.891-1.9-1.88-11.516.068-23.032.025-34.541.049-1.717,0-3.967-.74-5.007.307S2215.253,976.977,2215.05,978.685Z" transform="translate(30.366 24.017)" fill="#0d4aad"/>
      <path id="Trazado_151895" data-name="Trazado 151895" d="M2230.983,989.067h20.639c5.164,0,5.1,0,5.167-5.089.02-1.5-.324-1.915-1.874-1.906-11.587.076-23.177.039-34.765.039-5.213,0-5.164,0-5.164,5.306,0,1.311.276,1.7,1.653,1.685C2221.422,989.05,2226.2,989.06,2230.983,989.067Z" transform="translate(30.422 29.161)" fill="#0d4aad"/>
      <path id="Trazado_151896" data-name="Trazado 151896" d="M2254.912,990.918c-11.587.071-23.178.038-34.767.038-5.205,0-5.152,0-5.155,5.317,0,1.336.31,1.691,1.667,1.677,4.778-.06,9.56-.05,14.339-.039h20.642c5.153,0,5.085,0,5.16-5.1C2256.82,991.291,2256.442,990.91,2254.912,990.918Z" transform="translate(30.423 34.234)" fill="#0d4aad"/>
      <path id="Trazado_151897" data-name="Trazado 151897" d="M2254.794,999.762c-11.517.077-23.033.042-34.542.042-5.281,0-5.224,0-5.257,5.216,0,1.424.357,1.781,1.781,1.781,6.374-.079,12.748-.036,19.123-.036h15.86c5.023,0,4.942,0,5.046-4.985C2256.83,1000.118,2256.4,999.743,2254.794,999.762Z" transform="translate(30.427 39.305)" fill="#0d4aad"/>
      <path id="Trazado_151898" data-name="Trazado 151898" d="M2219.219,1041.755c-3.042.057-6.082.047-9.124.036h-11.942c-5.282,0-5.224,0-5.26,5.213,0,1.424.355,1.781,1.779,1.781,6.952-.075,13.89-.036,20.857-.036,5.342,0,5.313,0,5.252-5.43C2220.764,1042.083,2220.448,1041.73,2219.219,1041.755Z" transform="translate(17.751 63.388)" fill="#0d4aad"/>
      <path id="Trazado_151899" data-name="Trazado 151899" d="M2269.64,1024.069c-4.629.1-9.258.036-13.887.036-5.523,0-5.49,0-5.373,5.523.022,1.1.253,1.5,1.425,1.46,1.484-.042,2.966-.05,4.452-.047s2.969.019,4.455.019h5.43c5.213,0,5.163,0,5.163-5.306C2271.285,1024.447,2271.015,1024.049,2269.64,1024.069Z" transform="translate(50.702 53.245)" fill="#0d4aad"/>
      <path id="Trazado_151900" data-name="Trazado 151900" d="M2207.721,1022.236c3.561-.079,7.1-.1,10.64,0,1.424.042,1.781-.381,1.781-1.78-.033-5.207.024-5.207-5.263-5.207H2211.4c-5.342,0-5.306,0-5.241,5.441C2206.168,1021.934,2206.492,1022.262,2207.721,1022.236Z" transform="translate(25.353 48.188)" fill="#0d4aad"/>
      <path id="Trazado_151901" data-name="Trazado 151901" d="M2244.3,1024.094h-1.739c-5.7,0-5.7,0-5.424,5.7.039.834.086,1.314,1.141,1.3,3.917-.061,7.833-.031,11.729,0,.659,0,.976-.1,1.086-.9.774-5.6.42-6.053-5.058-6.053Z" transform="translate(43.073 53.26)" fill="#0d4aad"/>
      <path id="Trazado_151902" data-name="Trazado 151902" d="M2196.346,1031.049c3.522,0,3.522,0,3.522-3.433,0-3.521,0-3.521-3.432-3.521-3.523,0-3.523,0-3.523,3.433C2192.913,1031.049,2192.913,1031.049,2196.346,1031.049Z" transform="translate(17.762 53.26)" fill="#0d4aad"/>
      <path id="Trazado_151903" data-name="Trazado 151903" d="M2297,973.238c-6.3.082-12.6.036-18.905.036h-16.071c-5.027,0-4.95,0-5.049,4.985-.032,1.641.381,2.026,2,2.016,11.516-.079,23.032-.043,34.541-.043,5.284,0,5.227,0,5.26-5.213C2298.779,973.6,2298.422,973.238,2297,973.238Z" transform="translate(54.499 24.094)" fill="#0d4aad"/>
      <path id="Trazado_151904" data-name="Trazado 151904" d="M2297,982.082c-6.369.079-12.748.036-19.121.036h-15.861c-5.024,0-4.947,0-5.046,4.985-.032,1.635.389,2.009,2,2,11.516-.079,23.032-.043,34.541-.043,5.281,0,5.224,0,5.256-5.218C2298.8,982.432,2298.416,982.065,2297,982.082Z" transform="translate(54.499 29.166)" fill="#0d4aad"/>
      <path id="Trazado_151905" data-name="Trazado 151905" d="M2175,993.536c11.516-.079,23.033-.044,34.541-.044,5.281,0,5.224,0,5.257-5.216,0-1.424-.357-1.781-1.781-1.781-6.371.079-12.748.036-19.123.036h-15.861c-5.024,0-4.946,0-5.044,4.985C2172.963,993.173,2173.388,993.546,2175,993.536Z" transform="translate(6.337 31.697)" fill="#0d4aad"/>
      <path id="Trazado_151906" data-name="Trazado 151906" d="M2209.762,1002.328c5.024,0,4.946,0,5.048-4.985.033-1.632-.384-2.013-2-2-11.517.079-23.032.042-34.542.042-5.282,0-5.224,0-5.26,5.213,0,1.424.356,1.781,1.781,1.781,6.3-.079,12.6-.036,18.9-.036Z" transform="translate(6.345 36.771)" fill="#0d4aad"/>
    </g>
  </g>
</svg>
