<svg xmlns="http://www.w3.org/2000/svg" width="417" height="417" viewBox="0 0 417 417">
  <g id="Grupo_140180" data-name="Grupo 140180" transform="translate(-902 -3383)">
    <path id="Trazado_151853" data-name="Trazado 151853" d="M208.5,0C323.651,0,417,93.349,417,208.5S323.651,417,208.5,417,0,323.651,0,208.5,93.349,0,208.5,0Z" transform="translate(902 3383)" fill="#e6d3d9"/>
    <g id="Grupo_137444" data-name="Grupo 137444" transform="translate(976.92 3445.926)">
      <g id="Grupo_137426" data-name="Grupo 137426" transform="translate(0 0)">
        <g id="Grupo_137410" data-name="Grupo 137410" transform="translate(81.12 10.927)">
          <path id="Trazado_151837" data-name="Trazado 151837" d="M244.251,108.874c19.5,3.516,45.151,9.261,46.615,18.65.442,2.838-8.2,17.357-11.42,19.809s-12.429,8.67-18.758,8.41c-4.95-.2-15.288,3.762-19.285,2.439-3.085-1.021-9.385,11.285-43.933,13.83-22.4,1.783-10.171-7.007-22.745-11.168-4.106-1.359-1.25-20.175-4.176-22.048-2.408-1.542,13.293-23.491,15.512-25.347,1.9-1.586,7.971-2.8,11.409-3.572a123.562,123.562,0,0,1,29.784-2.7A114.594,114.594,0,0,1,244.251,108.874Z" transform="translate(-161.19 -101.026)" fill="#ef3c79"/>
        </g>
        <g id="Grupo_137411" data-name="Grupo 137411">
          <path id="Trazado_151838" data-name="Trazado 151838" d="M209.943,388.808h-3.234v-9.741c-1.431-28.872-13.935-40.936-21.262-45.557-8.836-5.572-11.141-6.07-17.983-7.55-1.909-.412-4.284-.925-7.214-1.642-1.307-.32-2.623-.625-3.939-.928-5.551-1.284-11.292-2.612-16.576-5.146-7.682-3.682-13.014-9.573-14.631-16.163-1.677-6.841,1.171-13.925,3.682-20.174.365-.909.727-1.808,1.071-2.7a7.349,7.349,0,0,0-.692-6.573,16.474,16.474,0,0,0-1.175-1.513,14.966,14.966,0,0,1-1.781-2.454,8.57,8.57,0,0,1-.121-7.864,9.115,9.115,0,0,1,2.987-3.252,7.76,7.76,0,0,1-2.093-2.474c-1.55-2.912-1.306-5.835.622-7.447,3.149-2.634,5.823-5.075,6.631-8.267a5.84,5.84,0,0,0,.018-3.073c-3.04-2.038-6.389-4.361-8.792-7.559-2.949-3.924-3.871-8.734-2.407-12.554,1.453-3.795,4.872-6.185,7.619-8.105,2.264-1.584,4.612-3.08,6.882-4.526,6.327-4.029,12.3-7.837,16.8-13.491,3.57-4.484,5.516-9.884,7.579-15.6.836-2.319,1.7-4.717,2.679-7.03,4.879-11.531,12.734-21.355,20.329-30.856,8.521-10.657,24.492-20.7,29.185-23.531,24.068-14.5,43.592-14.973,64.82-14.124,24.394.974,47.881,8.783,66.135,21.986A107.782,107.782,0,0,1,352.6,288.954a233.064,233.064,0,0,0-25.369,25.27c-15.78,17.993-19.359,45.527-8.7,66.956l-2.9,1.44c-11.226-22.572-7.457-51.575,9.165-70.53a236.1,236.1,0,0,1,25.679-25.578,104.547,104.547,0,0,0-7.292-162.989c-17.744-12.834-40.6-20.426-64.369-21.376-25.085-1-41.721.835-63.021,13.663-4.577,2.756-20.142,12.543-28.326,22.78-7.459,9.329-15.172,18.977-19.878,30.1-.943,2.232-1.794,4.588-2.616,6.868-2.06,5.71-4.188,11.616-8.09,16.517-4.839,6.076-11.324,10.209-17.6,14.205-2.241,1.429-4.559,2.905-6.766,4.449-2.928,2.047-5.435,3.958-6.451,6.612-1.278,3.335.181,7.07,1.971,9.453,2.207,2.936,5.412,5.079,8.509,7.152a1.615,1.615,0,0,1,.652.887,9.34,9.34,0,0,1,.164,5.333c-1.132,4.466-4.924,7.637-7.692,9.954-.8.666-.476,2.254.159,3.446a4.673,4.673,0,0,0,3.548,2.392,1.617,1.617,0,0,1,.049,3.211,6.65,6.65,0,0,0-4.461,3.1,5.368,5.368,0,0,0,.075,4.857,12.44,12.44,0,0,0,1.421,1.923,19.1,19.1,0,0,1,1.4,1.82,10.636,10.636,0,0,1,1,9.512c-.348.9-.716,1.813-1.087,2.735-2.443,6.08-4.97,12.367-3.542,18.2,1.386,5.645,6.083,10.755,12.887,14.017,4.964,2.379,10.527,3.666,15.907,4.911,1.329.307,2.657.614,3.978.937,2.889.706,5.142,1.194,7.13,1.624,7.063,1.527,9.706,2.1,19.024,7.975,8.468,5.339,14.73,13.841,18.611,25.267a85.309,85.309,0,0,1,4.159,22.907c0,.027,0,.053,0,.08Z" transform="translate(-122.37 -98.66)" fill="#7c8c9c"/>
        </g>
        <g id="Grupo_137412" data-name="Grupo 137412" transform="translate(52.073 98.546)">
          <path id="Trazado_151839" data-name="Trazado 151839" d="M189.253,195.683a26.7,26.7,0,0,1-10.848-2.3,31.479,31.479,0,0,1-15.552-16.1,1.618,1.618,0,0,1,2.961-1.3,28.21,28.21,0,0,0,13.907,14.45,23.48,23.48,0,0,0,18.678.163,1.618,1.618,0,0,1,1.266,2.978A26.626,26.626,0,0,1,189.253,195.683Z" transform="translate(-162.716 -175.012)" fill="#7c8c9c"/>
        </g>
        <g id="Grupo_137421" data-name="Grupo 137421" transform="translate(93.783 19.573)">
          <g id="Grupo_137416" data-name="Grupo 137416">
            <path id="Trazado_151842" data-name="Trazado 151842" d="M338.809,195.987a21.082,21.082,0,0,0-4.248-4.6,16.639,16.639,0,0,0,5.822-15.093,20.286,20.286,0,0,0-9.872-14.206,23.736,23.736,0,0,0-13.562-3.074,18.059,18.059,0,0,0,2.2-11.892,23.937,23.937,0,0,0-7.308-13.371,38.237,38.237,0,0,0-30.04-9.519A23.811,23.811,0,0,0,267.51,131.8a12.391,12.391,0,0,0-1.567-.4,13.131,13.131,0,0,0-2.686-8.176,21.486,21.486,0,0,0-7.61-6.173,27.485,27.485,0,0,0-15.109-3.112,20.035,20.035,0,0,0-13.509,6.895,15.985,15.985,0,0,0-3.441,12.8,18.981,18.981,0,0,0-14.155-1.9,16.985,16.985,0,0,0-11.646,10.755,16.493,16.493,0,0,0,3.073,15.58c.25.3.514.581.785.857a16.694,16.694,0,0,0-6.517,14.939,17.975,17.975,0,0,0,10.793,14.068c.2.084.407.163.617.239a11.507,11.507,0,0,0,8.1.168,14.966,14.966,0,0,0,2.845,12.113,18.671,18.671,0,0,0,8.485,6.056,20.432,20.432,0,0,0,4.775,1.106,16.934,16.934,0,0,0,9.409-1.491,12.663,12.663,0,0,0,3.141-2.223,18.475,18.475,0,0,0,3.216,9.884,17.642,17.642,0,0,0,8.433,6.491,16.269,16.269,0,0,0,4.071.9,1.306,1.306,0,0,0,.222.243,34.847,34.847,0,0,1,12.61,23.672l.031.383a9.028,9.028,0,0,0,1.165,4.481,5.619,5.619,0,0,0,2.793,2.14,6,6,0,0,0,3.819.112,8.413,8.413,0,0,0,4.437-3.84c.287-.452.555-.914.825-1.377a22.73,22.73,0,0,1,1.246-1.984,20.782,20.782,0,0,0,7.269,4.368c.252.092.508.181.768.265a19.985,19.985,0,0,0,10.321.765,15.252,15.252,0,0,0,9.475-6.4A14.712,14.712,0,0,0,316.14,233.2c.062-.013.124-.021.185-.035a10.182,10.182,0,0,0,7.63-8,14.179,14.179,0,0,0,9.523-1.626,16.946,16.946,0,0,0,6.517-6.811A20.313,20.313,0,0,0,338.809,195.987Zm-56.868,51.065a6.179,6.179,0,0,1-3.118,2.837,3.356,3.356,0,0,1-3.669-1.207,7.045,7.045,0,0,1-.765-3.321l-.031-.394a37.34,37.34,0,0,0-11.81-23.889,14.6,14.6,0,0,0,7.278-3.273,13.348,13.348,0,0,0,.625,3.765,16.858,16.858,0,0,0,7.466,9.067,17.238,17.238,0,0,0,2.988,1.422c.3.11.6.2.9.289a12.98,12.98,0,0,0,2.636,10.769,20.814,20.814,0,0,0-1.729,2.639C282.463,246.193,282.21,246.628,281.941,247.052Zm55.815-31.491a14.563,14.563,0,0,1-5.585,5.865,11.589,11.589,0,0,1-7.882,1.338,1.219,1.219,0,0,0-.181-.019,12.081,12.081,0,0,0-3.6-7.867,10.051,10.051,0,0,0,2.459-8.84,1.294,1.294,0,0,0-1.5-.969,1.187,1.187,0,0,0-.962,1.427,7.63,7.63,0,0,1-3.539,8.072,8.413,8.413,0,0,1-9.117-.7,1.277,1.277,0,0,0-1.767.161,1.2,1.2,0,0,0,.212,1.719,10.388,10.388,0,0,0,2.885,1.589,11.014,11.014,0,0,0,9.125-.671c.112-.065.217-.139.325-.209a9.424,9.424,0,0,1,2.851,8.179,7.854,7.854,0,0,1-5.8,6.15,7.433,7.433,0,0,1-7.8-3.187,1.3,1.3,0,0,0-1.723-.479,1.184,1.184,0,0,0-.449,1.66,9.613,9.613,0,0,0,5,3.986,10.5,10.5,0,0,0,2.905.6,12.35,12.35,0,0,1-1.759,9.285,12.8,12.8,0,0,1-7.949,5.367,17.412,17.412,0,0,1-8.97-.693,17.64,17.64,0,0,1-8.46-5.59,10.7,10.7,0,0,1-2.206-8.867,12.512,12.512,0,0,0,5.9-.587c4.4-1.62,7.056-6.124,6.049-10.252a1.3,1.3,0,0,0-1.515-.942,1.187,1.187,0,0,0-.934,1.446c.715,2.928-1.324,6.276-4.546,7.464-2.96,1.089-6.71.552-10.035-1.435a14.3,14.3,0,0,1-6.345-7.665,10.406,10.406,0,0,1,1.344-9.241,1.209,1.209,0,0,0-.3-1.709,1.275,1.275,0,0,0-1.755.248,11.325,11.325,0,0,0-1.307,2.3,1.167,1.167,0,0,0-.115.185,11.783,11.783,0,0,1-10.742,6.123,14.648,14.648,0,0,1-11.385-6.342,16.607,16.607,0,0,1-2.4-12.792,1.168,1.168,0,0,0-.008-.527c.021-.076.052-.148.072-.223a1.254,1.254,0,0,0-.918-1.5,1.23,1.23,0,0,0-1.526.851,9.194,9.194,0,0,1-4.863,5.68,14.407,14.407,0,0,1-7.994,1.24,16.813,16.813,0,0,1-11.464-6.156,12.158,12.158,0,0,1-1.777-12.044c.017-.039.025-.077.037-.116a12.514,12.514,0,0,0,2.572,1.3l.044.016a16.99,16.99,0,0,0,9.026.458,1.188,1.188,0,0,0,.942-1.44,1.3,1.3,0,0,0-1.511-.951,14.414,14.414,0,0,1-7.638-.354,8.65,8.65,0,0,1-5.243-4.773,5.581,5.581,0,0,1,1.35-6.151,1.19,1.19,0,0,0,.1-1.72,1.291,1.291,0,0,0-1.776-.143,7.9,7.9,0,0,0-2.033,8.814,9.78,9.78,0,0,0,2.013,3.147,1.245,1.245,0,0,0-.756.278c-2.177,1.8-5.661,1.311-7.981.345a15.374,15.374,0,0,1-9.232-12.034,14.262,14.262,0,0,1,5.959-13.047A17.354,17.354,0,0,0,208.02,163a16.592,16.592,0,0,0,8.136.845,1.19,1.19,0,0,0,1.009-1.4,1.292,1.292,0,0,0-1.466-1.014,14.614,14.614,0,0,1-12.909-4.884,14.025,14.025,0,0,1-2.6-13.251,14.55,14.55,0,0,1,9.985-9.209,16.3,16.3,0,0,1,13.9,2.77,1.277,1.277,0,0,0,1.764-.186,1.157,1.157,0,0,0,.252-.634,1.17,1.17,0,0,0,.355-1.249,13.43,13.43,0,0,1,2.575-12.4,17.56,17.56,0,0,1,11.848-6.016,24.826,24.826,0,0,1,13.646,2.832,18.959,18.959,0,0,1,6.711,5.408,10.7,10.7,0,0,1,2.21,6.594,11.55,11.55,0,0,0-2.39.3,11.263,11.263,0,0,0-7.945,6.942,1.239,1.239,0,0,0,.768,1.576h.005a1.239,1.239,0,0,0,1.6-.706,8.95,8.95,0,0,1,6.227-5.441,9.739,9.739,0,0,1,8.283,2.008,9.161,9.161,0,0,1,3.165,7.716,1.267,1.267,0,0,0,1.124,1.367,1.212,1.212,0,0,0,1.38-1.054,11.568,11.568,0,0,0-5.724-11.036,21.553,21.553,0,0,1,12.344-6.229,35.627,35.627,0,0,1,27.829,8.823,21.43,21.43,0,0,1,6.564,11.957,15.316,15.316,0,0,1-3.125,12.07l-.072.014a13.5,13.5,0,0,0-14.481-2.823,1.18,1.18,0,0,0-.6,1.609,1.3,1.3,0,0,0,1.677.623,10.973,10.973,0,0,1,11.878,2.519,10.1,10.1,0,0,1,1.38,11.686,1.219,1.219,0,0,0,.469,1.677,1.416,1.416,0,0,0,.212.1,1.253,1.253,0,0,0,1.506-.511,12.36,12.36,0,0,0-.307-12.708,21.275,21.275,0,0,1,14.053,2.492,17.712,17.712,0,0,1,8.638,12.39,14.2,14.2,0,0,1-5.444,13.312,22.234,22.234,0,0,0-12.876-3.462,1.2,1.2,0,0,0-1.158,1.283,1.286,1.286,0,0,0,1.353,1.156,19.878,19.878,0,0,1,16.948,8.432A18.137,18.137,0,0,1,337.756,215.562Z" transform="translate(-195.033 -113.825)" fill="#fff"/>
          </g>
          <g id="Grupo_137417" data-name="Grupo 137417" transform="translate(44.203 36.897)">
            <path id="Trazado_151843" data-name="Trazado 151843" d="M246.8,150.082a8.077,8.077,0,0,1-1.579,8.535,1.2,1.2,0,0,0,.075,1.727,1.3,1.3,0,0,0,.436.265,1.268,1.268,0,0,0,1.342-.294,10.365,10.365,0,0,0,2.055-11.1,11.424,11.424,0,0,0-9.546-6.773,10.839,10.839,0,0,0-10.155,5.351,1.223,1.223,0,0,0,.523,1.664,1.259,1.259,0,0,0,1.7-.466,8.448,8.448,0,0,1,7.809-4.115A8.9,8.9,0,0,1,246.8,150.082Z" transform="translate(-229.281 -142.413)" fill="#fff"/>
          </g>
          <g id="Grupo_137418" data-name="Grupo 137418" transform="translate(94.147 72.977)">
            <path id="Trazado_151844" data-name="Trazado 151844" d="M276.179,170.4a1.226,1.226,0,0,0-1.5.892,1.256,1.256,0,0,0,.96,1.478,12.614,12.614,0,0,1,8.955,8.165,10.845,10.845,0,0,1-3.111,11.151,10.994,10.994,0,0,1-11.705,1.465,1.252,1.252,0,0,0-1.678.534,1.227,1.227,0,0,0,.594,1.642,12.593,12.593,0,0,0,1.226.519,13.628,13.628,0,0,0,13.263-2.317,13.1,13.1,0,0,0,3.822-13.64A15.057,15.057,0,0,0,276.179,170.4Z" transform="translate(-267.977 -170.367)" fill="#fff"/>
          </g>
          <g id="Grupo_137419" data-name="Grupo 137419" transform="translate(40.725 55.255)">
            <path id="Trazado_151845" data-name="Trazado 151845" d="M279.893,186.954a11.054,11.054,0,0,1-9.479-.336,10.783,10.783,0,0,1-5.568-7.575,10.021,10.021,0,0,1,2.01-7.771,13.093,13.093,0,0,0,4.383,2.672,12.561,12.561,0,0,0,2.922.68c3.578.387,8.027-1.212,9.226-4.941a1.266,1.266,0,0,0-2.406-.781c-.78,2.426-3.97,3.58-6.6,3.3a10.251,10.251,0,0,1-7.664-4.952,9.491,9.491,0,0,1-.293-8.828,1.227,1.227,0,0,0-.583-1.644,1.253,1.253,0,0,0-1.682.523,11.778,11.778,0,0,0,.369,11.1c.195.337.409.663.636.98a12.447,12.447,0,0,0-2.956,8.081,10.051,10.051,0,0,1-11.591.643,9.561,9.561,0,0,1-3.734-11.118,1.265,1.265,0,0,0-2.354-.922,10.793,10.793,0,0,0-.67,4.926,9.95,9.95,0,0,1-5.75,3.167,10.607,10.607,0,0,1-6.646-1.106,4.785,4.785,0,0,1-2.4-2.481,1.3,1.3,0,0,0-1.549-.888,1.185,1.185,0,0,0-.876,1.48,7.084,7.084,0,0,0,3.65,4.017,13.126,13.126,0,0,0,8.313,1.385,12.416,12.416,0,0,0,5.876-2.69,12.146,12.146,0,0,0,4.773,6.243,11.594,11.594,0,0,0,2.39,1.187,12.939,12.939,0,0,0,10.918-1.025,13.446,13.446,0,0,0,6.705,8.481,12.969,12.969,0,0,0,1.629.718,13.683,13.683,0,0,0,10.112-.3,1.18,1.18,0,0,0,.578-1.617A1.3,1.3,0,0,0,279.893,186.954Z" transform="translate(-226.586 -156.636)" fill="#fff"/>
          </g>
          <g id="Grupo_137420" data-name="Grupo 137420" transform="translate(76.602 39.246)">
            <path id="Trazado_151846" data-name="Trazado 151846" d="M254.642,148.274a1.3,1.3,0,0,0,1.766.271,11.41,11.41,0,0,1,13.562.823,10.623,10.623,0,0,1,2.079,13.054,1.217,1.217,0,0,0,.439,1.683,1.4,1.4,0,0,0,.231.11,1.254,1.254,0,0,0,1.495-.493,12.962,12.962,0,0,0-2.57-16.136,13.918,13.918,0,0,0-16.767-1.017A1.187,1.187,0,0,0,254.642,148.274Z" transform="translate(-254.384 -144.233)" fill="#fff"/>
          </g>
        </g>
        <g id="Grupo_137422" data-name="Grupo 137422" transform="translate(28.293 18.629)">
          <path id="Trazado_151847" data-name="Trazado 151847" d="M146.218,169.514l-1.927-.61c.247-.776.5-1.559.769-2.327l1.911.657C146.714,167.986,146.459,168.754,146.218,169.514Zm1.56-4.543-1.9-.7c.281-.758.577-1.528.878-2.287l1.879.746C148.344,163.473,148.055,164.228,147.778,164.971Zm1.775-4.464-1.861-.791c.316-.743.647-1.5.984-2.243l1.842.834C150.188,159.037,149.863,159.778,149.553,160.507Zm1.981-4.377-1.822-.878c.354-.733.719-1.471,1.087-2.194l1.8.918C152.239,154.686,151.88,155.41,151.534,156.13Zm2.182-4.281-1.78-.96c.385-.712.783-1.434,1.187-2.143l1.757,1C154.485,150.442,154.094,151.149,153.717,151.849Zm2.376-4.177-1.733-1.04c.417-.694.849-1.4,1.284-2.086l1.71,1.079C156.927,146.3,156.5,146.991,156.093,147.672Zm2.566-4.064-1.684-1.118c.45-.679.914-1.36,1.377-2.025l1.658,1.156C159.556,142.275,159.1,142.943,158.659,143.608Zm2.748-3.942-1.631-1.194c.478-.653.972-1.313,1.467-1.961l1.606,1.23C162.36,138.378,161.876,139.025,161.406,139.666Zm2.925-3.814-1.576-1.267c.51-.634,1.034-1.27,1.557-1.891l1.546,1.3C165.346,134.606,164.832,135.23,164.331,135.853Zm3.1-3.677-1.518-1.337c.537-.608,1.089-1.22,1.64-1.819l1.486,1.372C168.495,130.978,167.953,131.578,167.427,132.175Zm3.259-3.531-1.455-1.406c.567-.585,1.146-1.172,1.723-1.741l1.421,1.438C171.811,127.494,171.241,128.07,170.686,128.644Zm3.418-3.379-1.387-1.47c.589-.555,1.194-1.114,1.8-1.66l1.353,1.5C175.276,124.172,174.681,124.721,174.1,125.265Zm3.569-3.216-1.318-1.532c.622-.536,1.253-1.065,1.877-1.576l1.282,1.564C178.9,121.006,178.283,121.525,177.673,122.049ZM181.389,119l-1.244-1.593c.648-.507,1.3-1.007,1.949-1.486l1.205,1.622C182.668,118.017,182.025,118.506,181.389,119Zm3.854-2.868-1.168-1.649c.662-.47,1.341-.938,2.017-1.393l1.128,1.679C186.556,115.216,185.892,115.676,185.242,116.135Z" transform="translate(-144.291 -113.093)" fill="#7c8c9c"/>
        </g>
        <g id="Grupo_137423" data-name="Grupo 137423" transform="translate(178.012 170.602)">
          <path id="Trazado_151848" data-name="Trazado 151848" d="M261.026,319.945c-.148-.812-.276-1.637-.378-2.454l2.006-.252c.1.78.219,1.567.361,2.341Zm-.622-4.921c-.058-.817-.1-1.65-.111-2.477l2.023-.037c.014.791.049,1.589.106,2.37Zm1.927-4.889-2.021-.065c.027-.816.074-1.647.139-2.472l2.016.163C262.4,308.553,262.357,309.351,262.331,310.134Zm.382-4.738-2.006-.257c.1-.811.228-1.634.37-2.444l1.992.348C262.932,303.824,262.812,304.615,262.713,305.4Zm.817-4.69-1.975-.434c.176-.8.37-1.608.58-2.4l1.954.516C263.888,299.153,263.7,299.933,263.53,300.706Zm1.215-4.61-1.933-.594c.24-.781.5-1.569.771-2.343l1.908.669C265.227,294.577,264.977,295.339,264.745,296.1Zm1.577-4.506-1.88-.74c.3-.755.614-1.52.943-2.275l1.853.808C266.918,290.116,266.609,290.858,266.322,291.59Zm1.913-4.379-1.824-.875c.351-.731.723-1.47,1.1-2.2l1.791.938C268.935,285.783,268.575,286.5,268.234,287.211Zm2.219-4.237-1.759-1c.4-.7.818-1.418,1.244-2.119l1.728,1.051C271.251,281.591,270.843,282.287,270.453,282.974Zm2.487-4.1-1.7-1.1c.44-.678.9-1.364,1.363-2.039l1.666,1.146C273.818,277.545,273.37,278.216,272.94,278.878Zm2.719-3.952-1.635-1.189c.47-.645.963-1.306,1.466-1.964L277.1,273C276.6,273.647,276.119,274.294,275.66,274.926Zm2.919-3.814L277,269.846q.765-.954,1.553-1.892l1.549,1.3Q279.331,270.175,278.579,271.112Zm3.09-3.687-1.524-1.329q.8-.922,1.625-1.828l1.5,1.358Q282.459,266.518,281.669,267.425Zm3.231-3.571-1.475-1.382q.834-.891,1.683-1.77l1.455,1.406Q285.724,262.975,284.9,263.854Zm3.349-3.471-1.434-1.424q.86-.865,1.729-1.72l1.417,1.443Q289.1,259.528,288.249,260.383ZM291.694,257l-1.4-1.458.426-.408q.668-.639,1.338-1.27l1.387,1.471q-.666.627-1.328,1.26Zm3.517-3.317-1.376-1.482q.891-.829,1.789-1.649l1.366,1.491Q296.1,252.858,295.211,253.682Zm3.569-3.273-1.36-1.5q.9-.817,1.8-1.63l1.354,1.5Q299.676,249.6,298.779,250.409Zm3.6-3.246-1.351-1.5,1.8-1.622,1.351,1.5Zm3.609-3.245-1.353-1.5q.9-.811,1.8-1.624l1.357,1.5Q306.889,243.105,305.986,243.918Zm3.6-3.264-1.363-1.492q.893-.817,1.781-1.638l1.373,1.484Q310.484,239.835,309.587,240.654Zm3.573-3.3-1.384-1.475q.881-.827,1.757-1.661l1.4,1.461Q314.049,236.518,313.16,237.351Zm3.521-3.366-1.411-1.448q.863-.842,1.718-1.7l1.429,1.431Q317.553,233.134,316.681,233.985Z" transform="translate(-260.293 -230.841)" fill="#7c8c9c"/>
        </g>
        <g id="Grupo_137424" data-name="Grupo 137424" transform="translate(40.446 231.831)">
          <path id="Trazado_151849" data-name="Trazado 151849" d="M188.994,317.007c-.19-.782-.381-1.564-.578-2.345l1.961-.494q.3,1.181.583,2.366Zm-1.186-4.676c-.222-.821-.436-1.576-.653-2.312l1.937-.574c.223.75.441,1.522.667,2.358Zm-1.368-4.6c-.256-.773-.52-1.532-.789-2.254l1.9-.7c.276.745.55,1.527.813,2.324Zm-1.666-4.468c-.311-.736-.64-1.465-.978-2.163l1.821-.88c.352.729.7,1.489,1.02,2.257ZM182.7,299c-.389-.7-.8-1.382-1.209-2.029l1.7-1.091c.438.681.867,1.4,1.276,2.137Zm-2.549-3.965c-.471-.635-.968-1.249-1.473-1.828l1.523-1.329c.539.617,1.069,1.273,1.572,1.949Zm-3.083-3.525c-.552-.534-1.141-1.058-1.749-1.556l1.28-1.564c.652.534,1.283,1.094,1.874,1.668Zm-3.623-2.974c-.625-.438-1.289-.87-1.976-1.284l1.045-1.731c.724.438,1.427.894,2.091,1.359Zm-4.037-2.445c-.678-.356-1.4-.71-2.131-1.051l.849-1.835c.767.355,1.514.724,2.223,1.1Zm-4.316-2.006c-.7-.29-1.453-.585-2.226-.874l.707-1.893c.8.3,1.566.6,2.291.9Zm-4.486-1.682q-1.138-.391-2.284-.758l.62-1.926c.776.25,1.551.506,2.322.772Zm-4.587-1.482c-.773-.239-1.546-.472-2.315-.706l.586-1.935c.772.234,1.549.469,2.326.709Z" transform="translate(-153.707 -278.281)" fill="#7c8c9c"/>
        </g>
      </g>
    </g>
  </g>
</svg>
