<svg xmlns="http://www.w3.org/2000/svg" width="265.721" height="258.776" viewBox="0 0 265.721 258.776">
  <g id="Grupo_140176" data-name="Grupo 140176" transform="translate(-1118.5 -4178.5)">
    <path id="Trazado_114225" data-name="Trazado 114225" d="M1476.283,567.476c28.354,60.945,76.865,51.375,146.1,19.167s107.733-60.765,79.379-121.71-112.825-131.2-182.056-98.993S1447.931,506.531,1476.283,567.476Z" transform="translate(-327.714 3824.192)" fill="none" stroke="#ef3c79" stroke-miterlimit="10" stroke-width="2"/>
    <path id="Trazado_114226" data-name="Trazado 114226" d="M1475,519.414c0,67.218,48.021,79,124.378,79s123.311-9.651,123.311-76.869S1675.736,355,1599.378,355,1475,452.2,1475,519.414Z" transform="translate(-356 3824)" fill="#f6f6f6" stroke="rgba(0,0,0,0)" stroke-width="1"/>
    <path id="Trazado_114227" data-name="Trazado 114227" d="M1672.818,426.865c0,6.486,4.633,7.623,12,7.623s11.9-.931,11.9-7.417S1692.187,411,1684.819,411,1672.818,420.379,1672.818,426.865Z" transform="translate(-541.225 3827.787)" fill="#00cbae" stroke="rgba(0,0,0,0)" stroke-width="1"/>
    <path id="Trazado_114228" data-name="Trazado 114228" d="M1459.307,455.865c0,6.486,4.633,7.623,12,7.623s11.9-.931,11.9-7.417S1478.676,440,1471.308,440,1459.307,449.379,1459.307,455.865Z" transform="translate(-99.764 3829.748)" fill="#0d4aad" stroke="rgba(0,0,0,0)" stroke-width="1"/>
    <g id="Grupo_137508" data-name="Grupo 137508" transform="translate(601.97 2882.632)">
      <path id="Trazado_151907" data-name="Trazado 151907" d="M664.08,1331.368c1.624.969,1.952,2.456,1.949,4.247-.037,20.569-.005,41.137-.06,61.706,0,1.595.23,2.207,2.028,2.124,3.7-.171,3.705-.049,3.705-3.734,0-1.286.036-2.573-.008-3.857a3.124,3.124,0,0,1,2.734-3.569c2.026-.173,3.123.67,3.572,2.818a24.711,24.711,0,0,1,.184,4.8c.034,2.758.093,2.834,2.779,2.849,4.687.025,9.373-.039,14.059.028a37.475,37.475,0,0,1,3.85-.029c1.468.051,2.083-.566,2.069-2.04-.031-3.21-.009-6.42-.008-9.63,0-5.586.017-11.172-.008-16.757-.01-2.244-.188-2.389-2.421-2.431-1.154-.022-2.31.041-3.465-.041-4.625.07-9.251.011-13.877.031-2.932.013-2.957.038-2.969,3.05-.01,2.442.023,4.884-.019,7.325a5.454,5.454,0,0,1-.807,3.129c-.708,1.015-1.579,1.719-2.926,1.126-2.008-.328-2.762-1.59-2.749-3.533.031-4.632.014-9.265.007-13.9a6.347,6.347,0,0,1,.759-2.945q7.058-13.893,14.063-27.814c.666-1.32,1.446-2.508,3.107-2.485s2.392,1.234,3.058,2.555q6.885,13.657,13.831,27.284a9.02,9.02,0,0,1,1,4.248c-.026,10.487.021,20.975-.051,31.463-.01,1.551.283,2.087,1.959,2.045,4.95-.123,9.9-.056,14.859-.039,2.908.01,3.938,1.079,3.87,4-.366,15.536-4.633,30.114-10.877,44.2-.286.645-.6,1.276-.864,1.931-.747,1.88-2.041,2.737-4.084,2.251a2.735,2.735,0,0,1-2.088-3.331,12.653,12.653,0,0,1,1.213-3.446c4.793-10.823,8.4-21.989,9.775-33.8.135-1.153.069-2.327.287-3.459.318-1.656-.5-2.043-1.911-2-1.865.052-3.73-.051-5.6-.051q-63.4-.006-126.8.006a4.7,4.7,0,0,0-2.815.361,4.984,4.984,0,0,0-1.326,2.315c-4.635,11.657-9.412,23.256-14.22,34.842-1.125,2.711-.641,3.437,2.364,3.469,2.637.028,5.274-.006,7.911.011,3.317.021,4.431.865,5.08,4.046,1.6,7.816,3.235,15.621,5.07,23.386.711,3.006,1.608,5.96,2.417,8.938,2.059,7.574,7.416,10.532,14.721,11.072a42.182,42.182,0,0,0,10.958-.5c3.584-.676,5.107.485,5.743,4.157,1.242,7.162,2.549,14.313,3.785,21.476.6,3.508.595,3.511,4.073,3.511h60.013c.772,0,1.543-.012,2.314.019,1.349-.017,2.7.024,4.049,0,1.9-.037,2.015-.155,1.735-2.01-.789-5.212-1.6-10.421-2.4-15.632-1.207-7.88-2.434-15.756-3.632-23.638a8.425,8.425,0,0,1,1.444-6.562c3.682-5.119,6.863-10.563,10.035-16.009a5.777,5.777,0,0,1,1.993-2.309c1.076-.615,2.16-.9,3.106.257,1.665,1.768,1.779,2.684.6,4.768q-4.833,8.539-10.308,16.682a3.476,3.476,0,0,0-.589,2.691q3.42,21.768,6.8,43.543c.3,1.937.025,3.566-1.886,4.553H623.531a5.949,5.949,0,0,1-2.024-3.892c-1.329-7.915-2.822-15.8-4.14-23.721-.266-1.6-1.126-1.351-2.16-1.222a37.689,37.689,0,0,1-16.028-1.1c-7.64-2.368-11.849-7.817-13.924-15.352-2.592-9.414-4.65-18.943-6.519-28.516-.351-1.795-.954-2.52-2.913-2.411a35.368,35.368,0,0,1-7.892-.139c-4.588-.774-7.4-5.067-5.805-9.456,2.1-5.778,4.592-11.411,6.9-17.114,3.243-8.023,6.5-16.038,9.674-24.089a3.8,3.8,0,0,1,4.093-2.745c2.634.086,5.274.006,7.911.031.705.007,1.169-.03,1.3-.936.526-3.558,1.137-7.1,1.733-10.65a.951.951,0,0,0-.641-1.2,2.9,2.9,0,0,1-1.643-3c.019-3.345.014-6.69,0-10.036a2.469,2.469,0,0,1,.981-2.383c1.231-.646.973-1.3.5-2.285a14.491,14.491,0,0,1-.539-11.6c3.144-8.675,7.826-16.567,12.618-24.4a5.578,5.578,0,0,1,1.911-1.541h1.544a4.221,4.221,0,0,1,2.426,1.751c4.382,7.2,8.683,14.437,11.761,22.333a17.471,17.471,0,0,1,.357,12.982,2.514,2.514,0,0,0,.342,2.862,3.86,3.86,0,0,1,.725,2.736c.011,3.088,0,6.176,0,9.264a4.124,4.124,0,0,1-1.087,3.189,2.855,2.855,0,0,0-.777,2.661c.392,2.608.908,5.2,1.229,7.816.163,1.331.875,1.807,2.2,1.849,4.277.135,4.275.176,4.275-4.053q0-16.791,0-33.581a22.058,22.058,0,0,1,.059-2.507c.27-2.371,1.423-3.462,3.883-3.7,2.272.784,2.942,1.625,2.991,4.107.082,4.182.025,8.366.027,12.549q.008,12.066,0,24.132c0,2.933.053,2.962,3.054,2.981,4.374.026,8.749-.068,13.12.045,1.47-.039,2.947-.064,4.416,0,1.523.069,2.25-.448,2.178-2.083-.084-1.905-.238-2.161-2.263-2.171-2.37-.012-4.74-.06-7.112-.056-2.162-.479-3.294-1.633-3.279-3.333.017-1.84,1.281-3.126,3.428-3.455a16.247,16.247,0,0,1,2.858-.088c1.606-.055,3.215-.006,4.823-.028,1.032-.014,1.452-.479,1.543-1.521.353-4.077.223-4.252-3.822-4.288a10.2,10.2,0,0,1-2.306-.165c-1.69-.513-2.831-1.548-2.754-3.408a3.2,3.2,0,0,1,2.693-3.247,36.763,36.763,0,0,1,4.576-.109c1.122-.009,1.6-.5,1.6-1.621.016-4.811.241-4.138-3.818-4.193-.827-.012-1.655.031-2.484-.022a11.526,11.526,0,0,1-3.41-.266q-2.9-.825-2.935-3.276c-.026-1.619.876-2.668,2.833-3.3,2.617-.054,5.237-.107,7.855-.069,1.361.02,1.919-.512,1.971-1.916.156-4.252.2-4.249-4-4.277a14.111,14.111,0,0,1-2.1-.092,3.207,3.207,0,0,1-2.758-3,3.169,3.169,0,0,1,2.213-3.405,12.051,12.051,0,0,1,4.767-.447c1.287,0,1.879-.51,1.866-1.832-.026-2.509-.034-5.019,0-7.527.02-1.3-.5-1.883-1.821-1.857-1.542.03-3.087.039-4.632-.011-4.622.081-9.242,0-13.862.04-2.262.018-2.419.176-2.454,2.386-.032,2.053.064,4.11-.042,6.161-.122,2.35-1.178,3.406-3.561,3.7-2.32-.608-3.25-1.57-3.321-3.823q-.177-5.68.005-11.366c.051-1.648.631-3.021,2.455-3.457Z" fill="#0d4aad"/>
      <path id="Trazado_151908" data-name="Trazado 151908" d="M566.956,1382.028a2.934,2.934,0,0,1-2.8-2c-.86-1.861-1.709-3.73-2.485-5.627a11.624,11.624,0,0,0-6.589-6.633c-1.9-.78-3.758-1.64-5.626-2.485a2.973,2.973,0,0,1,.028-5.673c1.752-.79,3.48-1.642,5.267-2.345a11.791,11.791,0,0,0,7-6.97c.7-1.789,1.549-3.518,2.336-5.272a2.993,2.993,0,0,1,5.756.03c.881,1.992,1.811,3.964,2.669,5.966a10.831,10.831,0,0,0,5.82,5.854q3.081,1.352,6.14,2.75a2.975,2.975,0,0,1-.028,5.674c-1.985.9-3.959,1.822-5.965,2.67a10.84,10.84,0,0,0-5.975,5.947c-.882,2.061-1.8,4.106-2.746,6.142A2.91,2.91,0,0,1,566.956,1382.028Z" fill="#0d4aad"/>
      <path id="Trazado_151909" data-name="Trazado 151909" d="M583.745,1405.516c.538-.725,1.307-.337,1.948-.337q67.326-.024,134.654-.031c1.534,0,2.028.2,1.9,1.962-1.027,13.9-5.16,26.92-10.866,39.52-1.246,2.751-1.075,3.578.951,5.149a40.53,40.53,0,0,0-2.7,5.114c-1.963-.73-3.324-.041-4.323,1.728q-5.219,9.234-11.2,17.994a5.263,5.263,0,0,0-.652,4.059q2.207,14.289,4.417,28.577c.669,4.318,1.322,8.639,2.047,12.947.175,1.037-.2,1.194-1.095,1.158-1.8-.071-3.6-.061-5.4-.084a2.989,2.989,0,0,1-1.013-2.212c-2.108-13.414-4.143-26.84-6.236-40.256a6.414,6.414,0,0,1,1.468-4.825c3.676-5.369,7.048-10.924,10.174-16.628,8.512-15.531,15.015-31.751,16.912-49.543.014-.128.038-.255.052-.383.342-3.042.1-3.319-2.99-3.319q-62.262,0-124.524-.017C586.077,1406.089,584.8,1406.428,583.745,1405.516Z" fill="#f4af84"/>
      <path id="Trazado_151910" data-name="Trazado 151910" d="M694.969,1399.308c-5.455.025-10.91.027-16.365.095-1.012.013-1.148-.431-1.132-1.27.04-2.054.046-4.11,0-6.164-.049-2.388-.691-3.125-3.05-3.683a34,34,0,0,0,.013-5.77c2.31-.466,3-1.247,3.035-3.656.042-3.394.05-6.79-.012-10.184-.019-1.064.252-1.432,1.372-1.416,5.377.076,10.756.067,16.133.089a3.282,3.282,0,0,1,.624,2.536q.027,13.441,0,26.884A3.358,3.358,0,0,1,694.969,1399.308Z" fill="#fdce4a"/>
      <path id="Trazado_151911" data-name="Trazado 151911" d="M744.464,1349.927a2.805,2.805,0,0,1-1.836,2.686c-1.748.8-3.49,1.614-5.264,2.351a10.09,10.09,0,0,0-5.668,5.71c-.709,1.716-1.516,3.392-2.271,5.09a2.917,2.917,0,0,1-5.476.044q-1.288-2.793-2.523-5.61a9.325,9.325,0,0,0-5.044-5.035c-1.883-.81-3.741-1.679-5.605-2.533a2.909,2.909,0,0,1,.047-5.473c1.755-.785,3.5-1.6,5.265-2.351a9.862,9.862,0,0,0,5.45-5.414c.751-1.769,1.578-3.506,2.356-5.264a2.91,2.91,0,0,1,2.764-2.018,2.874,2.874,0,0,1,2.788,1.974c.8,1.816,1.667,3.606,2.447,5.432a9.54,9.54,0,0,0,5.166,5.177c1.88.818,3.747,1.666,5.61,2.522A2.778,2.778,0,0,1,744.464,1349.927Z" fill="#0d4aad"/>
      <path id="Trazado_151912" data-name="Trazado 151912" d="M583.745,1405.516l128.953.016c2.775,0,2.943.015,2.708,2.832a104.818,104.818,0,0,1-4.68,22.881c-3.791,12.02-9.349,23.184-15.646,34.043-2.451,4.227-5.172,8.27-7.851,12.337-1.127,1.712-.457,3.257-.237,4.779,1.135,7.835,2.483,15.638,3.7,23.46.837,5.363,1.582,10.741,2.381,16.11a11.552,11.552,0,0,0,.343,1.3c-5.919.023-11.837.063-17.756.066-15.573.01-31.147-.027-46.72.05-1.577.008-2.037-.494-2.281-1.932-1.364-8.045-2.813-16.077-4.242-24.112-.546-3.071-1.677-3.814-4.869-3.216a38.067,38.067,0,0,1-13.812.235c-6.179-1.1-10.506-4.311-12.409-10.606-3.222-10.659-5.318-21.567-7.552-32.448-.757-3.687-1.212-4.118-4.95-4.119-3.024,0-6.05.04-9.073-.015-2.065-.038-2.694-.961-1.926-2.856q7.8-19.272,15.664-38.522C583.538,1405.687,583.659,1405.609,583.745,1405.516Z" fill="#fdc7a1"/>
      <path id="Trazado_151913" data-name="Trazado 151913" d="M633.476,1355.3q-.059-2.835-.117-5.67c2.275-.534,2.909-1.279,2.931-3.561.023-2.572.039-5.146-.013-7.718-.018-.908.241-1.225,1.183-1.214,5.272.058,10.544.058,15.817.078a2.608,2.608,0,0,1,.578,1.972c.032,2.816.04,5.633,0,8.45a2.2,2.2,0,0,1-.93,2.174c-2.515,1.886-2.382,3.954.358,5.54,1.058,1.987.531,4.09.416,6.153-.036.643-.511.951-1.2.957a12.078,12.078,0,0,0-2.661.093c-1.623.463-2.552,1.5-2.323,3.222.247,1.857,1.616,2.445,3.3,2.523.826.039,1.652.07,2.478.1a9.254,9.254,0,0,1-.005,7c-2.917,1.757-2.91,4,.018,5.741a9.337,9.337,0,0,1-.02,7c-.827.028-1.655.044-2.481.086-1.683.086-3.005.692-3.305,2.542-.258,1.6.691,2.693,2.729,3.278.257.021-.057-.019.183.052,1.04.31,2.559-.633,3.109.656a4.865,4.865,0,0,1-.239,4.561c-5.076.023-10.153-.013-15.227.105-1.459.034-1.8-.372-1.791-1.806.06-12.728.005-25.458.065-38.187C636.335,1357.259,635.673,1355.817,633.476,1355.3Z" fill="#fdce4a"/>
      <path id="Trazado_151914" data-name="Trazado 151914" d="M608.47,1370.313c-2.121.022-4.242.022-6.361.078a2.121,2.121,0,0,1-1.689-.723c-2.868-2.915-3.9-6.34-2.574-10.239a69.683,69.683,0,0,1,6.423-13.752c.926-.111,1.192.636,1.5,1.233a89.383,89.383,0,0,1,5.126,11.184,12.534,12.534,0,0,1-.683,10.25A3.562,3.562,0,0,1,608.47,1370.313Z" fill="#fb6240"/>
      <path id="Trazado_151915" data-name="Trazado 151915" d="M694.969,1399.308q0-15.979,0-31.959c1.86-.021,3.721,0,5.578-.082.959-.04,1.183.35,1.181,1.235q-.033,14.826,0,29.654c0,.88-.218,1.284-1.181,1.243C698.688,1399.318,696.828,1399.333,694.969,1399.308Z" fill="#fba129"/>
      <path id="Trazado_151916" data-name="Trazado 151916" d="M608.47,1370.313c4.263-5.647,2.775-11.321-.028-16.926-1.306-2.61-2.273-5.417-4.173-7.71l3.27-5.954c3.861,6.8,7.918,13.229,10.005,20.587,1.032,3.64-.269,6.818-2.907,9.471a1.927,1.927,0,0,1-1.541.6C611.554,1370.342,610.012,1370.335,608.47,1370.313Z" fill="#dd5039"/>
      <path id="Trazado_151917" data-name="Trazado 151917" d="M610.78,1399.3c-3.967.027-7.934.03-11.9.1-.978.017-1.145-.248-.97-1.212q.891-4.905,1.56-9.849c.137-1.009.42-1.421,1.509-1.38,2.62.1,5.245.071,7.867.094,1.339,2.419,1.228,5.165,1.678,7.774C610.775,1396.283,611.461,1397.773,610.78,1399.3Z" fill="#fcac52"/>
      <path id="Trazado_151918" data-name="Trazado 151918" d="M693.044,1361.425H679.322c1.651-3.26,3.225-6.315,4.74-9.4.354-.722.919-.57,1.464-.573.962-.006,1.925.034,2.887.055a2.1,2.1,0,0,1,1.078,1.052q1.8,3.517,3.519,7.072C693.287,1360.207,693.581,1360.819,693.044,1361.425Z" fill="#fdc7a1"/>
      <path id="Trazado_151919" data-name="Trazado 151919" d="M652.921,1349.812c.7-1.4.3-2.9.34-4.344.065-2.749.016-5.5.015-8.252,1.925-.019,3.851,0,5.773-.077.945-.039,1.192.312,1.18,1.214-.044,3.338-.061,6.678.007,10.015.022,1.1-.462,1.229-1.373,1.233A28.876,28.876,0,0,0,652.921,1349.812Z" fill="#fca129"/>
      <path id="Trazado_151920" data-name="Trazado 151920" d="M610.78,1399.3q-.968-6.126-1.934-12.251c1.79-.023,3.584.018,5.368-.093,1.017-.064,1.34.385,1.475,1.264q.772,5.02,1.6,10.033c.136.819-.06,1.171-.951,1.138C614.487,1399.326,612.633,1399.329,610.78,1399.3Z" fill="#df9249"/>
      <path id="Trazado_151921" data-name="Trazado 151921" d="M611.164,1381.132c-4.286.021-8.573.021-12.859.079-.849.012-1.04-.269-1.084-1.088-.211-3.957-.241-3.963,3.772-3.953,3.391.01,6.781.041,10.172.062A4.844,4.844,0,0,1,611.164,1381.132Z" fill="#dfdfdf"/>
      <path id="Trazado_151922" data-name="Trazado 151922" d="M693.044,1361.425c-.669-2.927-2.509-5.32-3.668-8.025-.277-.648-.64-1.261-.963-1.89,2.041-.011,4.342-.616,6.051.132,1.74.762,2.038,3.34,3.02,5.093.8,1.433,1.489,2.931,2.372,4.69Z" fill="#f4af84"/>
      <path id="Trazado_151923" data-name="Trazado 151923" d="M649.834,1362.555a1.622,1.622,0,0,1,.489-.263c2.957-.368,2.958-.364,2.958-3.329q0-1.806,0-3.611c1.865.005,3.731.052,5.594,0,.951-.027,1.419.181,1.361,1.263a45.567,45.567,0,0,0,0,4.631c.049,1.032-.337,1.319-1.329,1.3C655.88,1362.5,652.857,1362.547,649.834,1362.555Z" fill="#faa129"/>
      <path id="Trazado_151924" data-name="Trazado 151924" d="M653.284,1375.4q0-3.5.005-7c1.923-.031,3.849-.025,5.77-.108.967-.042,1.2.373,1.167,1.249-.052,1.54-.081,3.087.008,4.623.063,1.1-.438,1.261-1.364,1.236C657.009,1375.354,655.146,1375.4,653.284,1375.4Z" fill="#fca129"/>
      <path id="Trazado_151925" data-name="Trazado 151925" d="M653.282,1388.14q.009-3.5.02-7c1.859.011,3.719.062,5.577.016.929-.023,1.419.143,1.353,1.237-.112,1.847.593,4.236-.317,5.407-.97,1.248-3.469.273-5.295.406A10.209,10.209,0,0,1,653.282,1388.14Z" fill="#fca229"/>
      <path id="Trazado_151926" data-name="Trazado 151926" d="M653.278,1399.315c0-.316.006-.631,0-.947a12.479,12.479,0,0,0-.106-3.385c-.443-1.441-2.105-.114-2.949-.937,2.956-.014,5.912-.008,8.867-.055.818-.014,1.222.238,1.121,1.092a1.024,1.024,0,0,0,0,.192c.207,4.109.207,4.113-3.855,4.106C655.332,1399.379,654.3,1399.338,653.278,1399.315Z" fill="#fba129"/>
      <path id="Trazado_151927" data-name="Trazado 151927" d="M611.164,1381.132v-4.9c1.088-.022,2.176-.06,3.264-.062,3.765-.008,3.729-.005,3.539,3.86-.046.931-.327,1.218-1.233,1.181C614.88,1381.137,613.021,1381.153,611.164,1381.132Z" fill="#c4c3c8"/>
      <path id="Trazado_151928" data-name="Trazado 151928" d="M689.562,1341.017l2.242,4.56h-4.272C687.849,1344.029,688.79,1342.857,689.562,1341.017Z" fill="#3b4f53"/>
      <path id="Trazado_151929" data-name="Trazado 151929" d="M576.62,1362.457a17.259,17.259,0,0,0-9.632,9.661,17.4,17.4,0,0,0-9.681-9.657,17.217,17.217,0,0,0,9.64-9.687A17.489,17.489,0,0,0,576.62,1362.457Z" fill="#fdce4a"/>
      <path id="Trazado_151930" data-name="Trazado 151930" d="M718.82,1349.931a15.9,15.9,0,0,0,7.837-7.859,15.554,15.554,0,0,0,7.883,7.771,15.662,15.662,0,0,0-7.815,7.972A15.723,15.723,0,0,0,718.82,1349.931Z" fill="#fdce4a"/>
      <path id="Trazado_151931" data-name="Trazado 151931" d="M667.9,1435.948c-.1,1.344-2.038,2.781-2.038,2.781s-3.955,1.84-5.967,2.676a11.219,11.219,0,0,0-6.218,6.235c-.856,2-1.788,3.976-2.671,5.969a2.913,2.913,0,0,1-5.481.008c-.884-1.993-1.823-3.962-2.672-5.97a11.176,11.176,0,0,0-6.209-6.24c-2.011-.839-3.975-1.79-5.967-2.674a2.938,2.938,0,0,1,0-5.581c1.935-.853,3.851-1.752,5.8-2.577a11.461,11.461,0,0,0,6.375-6.339c.818-1.951,1.743-3.857,2.592-5.794a2.947,2.947,0,0,1,5.643,0c.827,1.877,1.742,3.718,2.514,5.617a11.555,11.555,0,0,0,6.628,6.59c1.9.776,3.745,1.675,5.62,2.505A3.132,3.132,0,0,1,667.9,1435.948Z" fill="#0d4aad"/>
      <path id="Trazado_151932" data-name="Trazado 151932" d="M648.227,1445.522a17.339,17.339,0,0,0-9.61-9.566,17.522,17.522,0,0,0,9.525-9.367c4.459,6.46,4.459,6.46,9.544,9.35a24.789,24.789,0,0,0-5.6,3.77A22.957,22.957,0,0,0,648.227,1445.522Z" fill="#fca129"/>
    </g>
  </g>
</svg>
