<svg xmlns="http://www.w3.org/2000/svg" xmlns:xlink="http://www.w3.org/1999/xlink" width="348.743" height="340.262" viewBox="0 0 348.743 340.262">
  <defs>
    <linearGradient id="linear-gradient" y1="0.5" x2="1" y2="0.5" gradientUnits="objectBoundingBox">
      <stop offset="0" stop-color="#00b99e"/>
      <stop offset="1" stop-color="#00b99e"/>
    </linearGradient>
    <clipPath id="clip-path">
      <path id="Trazado_152525" data-name="Trazado 152525" d="M1408.226,523.179c0,75.547,100.976,86.394,186.8,86.394s138.591-10.847,138.591-86.394c0-52.656-8.727-124.325-53.342-180.683-19.366-24.464-59.245-55.665-85.248-55.665-45.615,0-78.4,49.869-126.951,101.618-10.583,11.279-69.112-7.522-75.752,5.565-10.046,19.8,39.695,31.171,45.109,59.6C1442.7,481.274,1408.226,510.053,1408.226,523.179Z" transform="translate(-1411.739 -269.826)" fill="#f6f6f6" stroke="rgba(0,0,0,0)" stroke-width="1"/>
    </clipPath>
  </defs>
  <g id="Grupo_140188" data-name="Grupo 140188" transform="translate(-966.757 -3205.471)">
    <path id="Trazado_114225" data-name="Trazado 114225" d="M1767.506,632.922c-37.206,79.972-100.861,67.414-191.707,25.151s-141.366-79.735-104.16-159.707,148.047-172.162,238.892-129.9S1804.71,552.95,1767.506,632.922Z" transform="translate(-491.307 2853.277)" fill="none" stroke="#ef3c79" stroke-miterlimit="10" stroke-width="2"/>
    <path id="Trazado_114226" data-name="Trazado 114226" d="M1800.016,570.743c0,88.2-63.012,103.669-163.208,103.669S1475,661.748,1475,573.545,1536.612,355,1636.808,355,1800.016,482.541,1800.016,570.743Z" transform="translate(-485.016 2852.137)" fill="#cde2df" stroke="rgba(0,0,0,0)" stroke-width="1"/>
    <path id="Trazado_114227" data-name="Trazado 114227" d="M1704.179,431.818c0,8.511-6.08,10-15.748,10s-15.614-1.222-15.614-9.732S1678.764,411,1688.432,411,1704.179,423.307,1704.179,431.818Z" transform="translate(-405.705 2874.589)" fill="#00cbae" stroke="rgba(0,0,0,0)" stroke-width="1"/>
    <path id="Trazado_114228" data-name="Trazado 114228" d="M1490.668,460.818c0,8.511-6.08,10-15.748,10s-15.613-1.222-15.613-9.732S1465.253,440,1474.92,440,1490.668,452.307,1490.668,460.818Z" transform="translate(-491.307 2886.216)" fill="#0d4aad" stroke="rgba(0,0,0,0)" stroke-width="1"/>
    <path id="Trazado_113489" data-name="Trazado 113489" d="M15.526,7.763A7.763,7.763,0,1,0,7.758,15.52,7.764,7.764,0,0,0,15.526,7.763Z" transform="matrix(0.996, -0.087, 0.087, 0.996, 967.072, 3281.908)" opacity="0.5" fill="url(#linear-gradient)"/>
    <path id="Trazado_113490" data-name="Trazado 113490" d="M11.965,5.983a5.983,5.983,0,1,0-5.983,5.984A5.975,5.975,0,0,0,11.965,5.983Z" transform="matrix(0.996, -0.087, 0.087, 0.996, 966.757, 3257.939)" fill="url(#linear-gradient)"/>
    <path id="Trazado_113491" data-name="Trazado 113491" d="M11.828,5.914a5.914,5.914,0,1,0-5.919,5.908A5.917,5.917,0,0,0,11.828,5.914Z" transform="matrix(0.996, -0.087, 0.087, 0.996, 996.9, 3306.934)" fill="url(#linear-gradient)"/>
    <path id="Trazado_113492" data-name="Trazado 113492" d="M12.678,6.339a6.339,6.339,0,1,0-6.345,6.339A6.339,6.339,0,0,0,12.678,6.339Z" transform="matrix(0.996, -0.087, 0.087, 0.996, 994.202, 3280.965)" fill="url(#linear-gradient)"/>
    <path id="Trazado_113493" data-name="Trazado 113493" d="M9.553,4.771A4.777,4.777,0,1,0,4.771,9.543,4.773,4.773,0,0,0,9.553,4.771Z" transform="matrix(0.996, -0.087, 0.087, 0.996, 993.656, 3256.803)" fill="url(#linear-gradient)"/>
    <path id="Trazado_113494" data-name="Trazado 113494" d="M10.4,5.191a5.2,5.2,0,1,0-5.207,5.2A5.2,5.2,0,0,0,10.4,5.191Z" transform="matrix(0.996, -0.087, 0.087, 0.996, 990.958, 3230.834)" opacity="0.5" fill="url(#linear-gradient)"/>
    <path id="Trazado_113495" data-name="Trazado 113495" d="M15.387,7.689a7.694,7.694,0,1,0-7.693,7.693A7.687,7.687,0,0,0,15.387,7.689Z" transform="matrix(0.996, -0.087, 0.087, 0.996, 1020.555, 3303.082)" opacity="0.5" fill="url(#linear-gradient)"/>
    <path id="Trazado_113496" data-name="Trazado 113496" d="M16.238,8.118a8.119,8.119,0,1,0-8.119,8.114A8.118,8.118,0,0,0,16.238,8.118Z" transform="matrix(0.996, -0.087, 0.087, 0.996, 1017.856, 3277.109)" opacity="0.5" fill="url(#linear-gradient)"/>
    <path id="Trazado_113497" data-name="Trazado 113497" d="M9.819,4.909A4.91,4.91,0,1,0,4.91,9.825,4.9,4.9,0,0,0,9.819,4.909Z" transform="matrix(0.996, -0.087, 0.087, 0.996, 1019.094, 3254.438)" opacity="0.5" fill="url(#linear-gradient)"/>
    <path id="Trazado_113498" data-name="Trazado 113498" d="M10.414,5.191a5.207,5.207,0,1,0-5.207,5.2A5.2,5.2,0,0,0,10.414,5.191Z" transform="matrix(0.996, -0.087, 0.087, 0.996, 1016.535, 3228.596)" fill="url(#linear-gradient)"/>
    <path id="Trazado_113499" data-name="Trazado 113499" d="M5.982,2.991A2.991,2.991,0,1,0,3,5.983,2.99,2.99,0,0,0,5.982,2.991Z" transform="matrix(0.996, -0.087, 0.087, 0.996, 1051.231, 3305.113)" fill="url(#linear-gradient)"/>
    <path id="Trazado_113500" data-name="Trazado 113500" d="M11.116,5.557A5.558,5.558,0,1,0,5.558,11.11,5.556,5.556,0,0,0,11.116,5.557Z" transform="matrix(0.996, -0.087, 0.087, 0.996, 1046.218, 3277.198)" fill="url(#linear-gradient)"/>
    <path id="Trazado_113501" data-name="Trazado 113501" d="M13.252,6.62a6.626,6.626,0,1,0-6.621,6.626A6.622,6.622,0,0,0,13.252,6.62Z" transform="matrix(0.996, -0.087, 0.087, 0.996, 1042.817, 3250.646)" opacity="0.5" fill="url(#linear-gradient)"/>
    <path id="Trazado_113502" data-name="Trazado 113502" d="M13.814,6.9a6.907,6.907,0,1,0-6.907,6.913A6.905,6.905,0,0,0,13.814,6.9Z" transform="matrix(0.996, -0.087, 0.087, 0.996, 1040.279, 3224.802)" opacity="0.5" fill="url(#linear-gradient)"/>
    <path id="Trazado_113503" data-name="Trazado 113503" d="M5.983,2.991A2.991,2.991,0,1,0,3,5.983,2.99,2.99,0,0,0,5.983,2.991Z" transform="matrix(0.996, -0.087, 0.087, 0.996, 1076.818, 3302.875)" fill="url(#linear-gradient)"/>
    <path id="Trazado_113504" data-name="Trazado 113504" d="M11.1,5.557A5.552,5.552,0,1,0,5.558,11.11,5.553,5.553,0,0,0,11.1,5.557Z" transform="matrix(0.996, -0.087, 0.087, 0.996, 1071.805, 3274.96)" opacity="0.5" fill="url(#linear-gradient)"/>
    <path id="Trazado_113505" data-name="Trazado 113505" d="M13.252,6.62a6.626,6.626,0,1,0-6.621,6.626A6.629,6.629,0,0,0,13.252,6.62Z" transform="matrix(0.996, -0.087, 0.087, 0.996, 1068.404, 3248.406)" fill="url(#linear-gradient)"/>
    <g id="Grupo_139582" data-name="Grupo 139582" transform="translate(987.514 3188.467)" clip-path="url(#clip-path)">
      <g id="Grupo_139581" data-name="Grupo 139581" transform="translate(-20.512 24.48)">
        <g id="Grupo_139333" data-name="Grupo 139333" transform="translate(94.071 107.39)">
          <g id="Grupo_139324" data-name="Grupo 139324">
            <g id="Grupo_139323" data-name="Grupo 139323">
              <path id="Trazado_152445" data-name="Trazado 152445" d="M619.9,149.324a16.9,16.9,0,0,0-22.174,8.918l-.074.174-4.371,10.246-4.365,10.347c-2.923,6.889-5.842,13.75-8.815,20.52-2.589,5.852-5.2,11.655-7.9,17.26-.21.427-.414.844-.622,1.268v0c-.214.44-.427.882-.646,1.323-1.359,2.741-2.719,5.451-4.124,8.027-.284-.724-.557-1.457-.826-2.2-1.639-4.482-3.151-9.214-4.593-14.055-.176-.588-.353-1.182-.525-1.778-.445-1.5-.882-3.01-1.312-4.527q-1.489-5.278-2.942-10.649l-.594-2.194-.464-1.722-.39-1.448-.733-2.676-.362-1.327c-.117-.423-.251-.906-.358-1.249l-.3-.95a12.363,12.363,0,0,0-24.126,3.279l-.065,1.605-.043,1.526c-.022,1.017-.05,2.025-.05,3.031-.015,2.01.018,4.014.065,6.022.115,4,.334,8.017.681,12.035a183.636,183.636,0,0,0,2.817,20.253q.256,1.281.533,2.57.176.807.362,1.615c.488,2.079,1.008,4.176,1.611,6.3s1.293,4.265,2.078,6.458,1.7,4.426,2.793,6.746a52.75,52.75,0,0,0,4.12,7.27l.668.958.737.978.371.488.414.5.839,1a36.455,36.455,0,0,0,4.268,4.118l.08.061.148.117.31.236.51.371.121.089c.4.286.863.585,1.336.867l.033.019a22.336,22.336,0,0,0,3.155,1.578,21.575,21.575,0,0,0,4.625,1.318c.46.083.919.143,1.373.195s.887.084,1.323.1a23.619,23.619,0,0,0,6.635-.64,25.876,25.876,0,0,0,4.844-1.726,30.8,30.8,0,0,0,6.063-3.823,41.612,41.612,0,0,0,3.8-3.446l.031-.033c.362-.371.715-.742,1.049-1.1a61,61,0,0,0,4.232-5.132c.353-.473.7-.941,1.03-1.41.442-.616.869-1.225,1.28-1.832.585-.859,1.147-1.707,1.689-2.552,1.216-1.895,2.353-3.754,3.421-5.62,2.125-3.721,4.083-7.377,5.9-11.052s3.541-7.316,5.159-10.981,3.188-7.327,4.677-11q4.482-11.01,8.277-22.128,1.915-5.559,3.665-11.172c.581-1.874,1.16-3.749,1.7-5.636l.817-2.845c.282-.965.523-1.88.807-2.923A16.9,16.9,0,0,0,619.9,149.324Z" transform="translate(-529.128 -147.966)" fill="#314fa5"/>
            </g>
          </g>
          <g id="Grupo_139325" data-name="Grupo 139325" transform="translate(3.567 42.321)">
            <path id="Trazado_152446" data-name="Trazado 152446" d="M554.378,172.492c-7.405,10.276-14.272,20.953-19.437,32.547-1.225,2.752-2.351,5.553-3.359,8.4q-.278-1.289-.533-2.57.766-2.049,1.615-4.055c5.438-12.932,13.037-24.726,21.25-36.047Z" transform="translate(-531.05 -170.77)" fill="#5880eb"/>
          </g>
          <g id="Grupo_139326" data-name="Grupo 139326" transform="translate(21.239 61.413)">
            <path id="Trazado_152447" data-name="Trazado 152447" d="M545.1,197.326a67.882,67.882,0,0,0-3.114,23.017c.3,7.526,1.754,14.955,2.218,22.465-.473-.282-.937-.581-1.336-.867l-.121-.089c-.148-2.055-.366-4.1-.6-6.128-.932-7.958-2.051-15.858-1.345-23.887a70.313,70.313,0,0,1,10.282-30.78q.259.894.525,1.778A68.4,68.4,0,0,0,545.1,197.326Z" transform="translate(-540.572 -181.057)" fill="#5880eb"/>
          </g>
          <g id="Grupo_139327" data-name="Grupo 139327" transform="translate(32.68 106.836)">
            <path id="Trazado_152448" data-name="Trazado 152448" d="M571.856,214.3c-.334.362-.687.733-1.049,1.1l-.031.033c-1.908-4.528-5.466-8.9-10.8-8.478-6.18.483-9.317,8.088-10.8,13.149a35.855,35.855,0,0,0-1.063,4.862c-.455-.052-.913-.111-1.373-.195a35.868,35.868,0,0,1,1.583-6.564c1.68-4.9,4.588-11.007,10.1-12.4,5.414-1.373,10.458,2.63,12.818,7.182C571.457,213.421,571.667,213.855,571.856,214.3Z" transform="translate(-546.737 -205.532)" fill="#5880eb"/>
          </g>
          <g id="Grupo_139328" data-name="Grupo 139328" transform="translate(42.457 68.823)">
            <path id="Trazado_152449" data-name="Trazado 152449" d="M573.889,223.454c-.412.607-.839,1.216-1.28,1.832a52.071,52.071,0,0,0-20.6-38.964v0c.208-.423.412-.841.622-1.268A53.587,53.587,0,0,1,573.889,223.454Z" transform="translate(-552.005 -185.05)" fill="#5880eb"/>
          </g>
          <g id="Grupo_139330" data-name="Grupo 139330" transform="translate(37.248 79.303)">
            <g id="Grupo_139329" data-name="Grupo 139329">
              <path id="Trazado_152450" data-name="Trazado 152450" d="M558.952,209.211a.8.8,0,0,1-.779-.585c-1.652-6.089-8.765-16.59-8.838-16.7a.791.791,0,0,1,1.308-.889c.3.44,7.334,10.825,9.057,17.171a.793.793,0,0,1-.557.971A.851.851,0,0,1,558.952,209.211Z" transform="translate(-549.198 -190.697)" fill="#1c2b74"/>
            </g>
          </g>
          <g id="Grupo_139332" data-name="Grupo 139332" transform="translate(40.08 83.738)">
            <g id="Grupo_139331" data-name="Grupo 139331">
              <path id="Trazado_152451" data-name="Trazado 152451" d="M558.463,197.95a.789.789,0,0,1-.535-.193h0a18.838,18.838,0,0,0-6.629-3.12.79.79,0,1,1,.432-1.52,19.882,19.882,0,0,1,7.234,3.448.788.788,0,0,1,.076,1.114A.778.778,0,0,1,558.463,197.95Z" transform="translate(-550.724 -193.086)" fill="#1c2b74"/>
            </g>
          </g>
        </g>
        <g id="Grupo_139520" data-name="Grupo 139520" transform="translate(140.352 0)">
          <g id="Grupo_139426" data-name="Grupo 139426" transform="translate(0 97.005)">
            <g id="Grupo_139340" data-name="Grupo 139340">
              <g id="Grupo_139339" data-name="Grupo 139339">
                <g id="Grupo_139338" data-name="Grupo 139338">
                  <g id="Grupo_139337" data-name="Grupo 139337">
                    <g id="Grupo_139336" data-name="Grupo 139336">
                      <g id="Grupo_139335" data-name="Grupo 139335">
                        <g id="Grupo_139334" data-name="Grupo 139334">
                          <path id="Trazado_152452" data-name="Trazado 152452" d="M554.58,359.572c2.134,9.385,29.091,19.3,57.068,22.755,26.366,3.248,52.479,1.563,66.06-1.85s6.707-26.6,4.506-44.474c-1.986-16.142-3.792-28.749-3.792-28.749-4.354-19.472-6.837-29.082-7.908-36.036-.089-.579-.171-1.136-.237-1.68-.857-6.655-.3-11.2,1.182-21.144,1.316-8.815,4.617-21.543,9.085-34.675.156-.466.314-.934.481-1.4.408-1.19.826-2.385,1.258-3.576.21-.588.427-1.173.642-1.761,1.6-4.358,3.315-8.7,5.113-12.88,7.836-18.26,9.1-38.831-9.745-45.116-12.316-4.107-23.011-6.614-23.011-6.614l-43.324,3.591a106.87,106.87,0,0,0-17.644,3.1c-.484.143-.958.291-1.407.445-12.291,4.1-11.937,11.1-14.708,25.743-3.775,19.943-14.687,38.35-11.993,48.054.1.351.2.705.319,1.05.135.423.284.841.436,1.255,2.619,6.945,7.835,12.952,9.84,15.1.512.547.813.844.813.844,0,.041-.009.082-.013.13-.031.325-.072.666-.117,1.024-.171,1.375-.41,3.007-.714,4.857-.445,2.706-.948,5.432-1.5,8.142-.113.553-.225,1.1-.347,1.657-4.174,19.962-10.539,38.678-11.492,40.8-3.136,13.37-5.913,26.528-7.615,37.481-.069.449-.135.9-.2,1.34C554.115,347.055,553.571,355.129,554.58,359.572Z" transform="translate(-554.066 -142.37)" fill="#314fa5"/>
                        </g>
                      </g>
                    </g>
                  </g>
                </g>
              </g>
            </g>
            <g id="Grupo_139342" data-name="Grupo 139342" transform="translate(10.051 26.544)">
              <g id="Grupo_139341" data-name="Grupo 139341">
                <path id="Trazado_152453" data-name="Trazado 152453" d="M575.788,157.943c-1.26,8.847-4.3,17.191-7.793,25.374-3.818,8.942-7.793,18.427-6.145,28.354.212,1.273-1.737,1.821-1.949.538-1.553-9.359,1.44-18.377,5.057-26.906,3.844-9.057,7.483-18.091,8.879-27.9.184-1.282,2.132-.737,1.951.538Z" transform="translate(-559.482 -156.673)" fill="#1c2b74"/>
              </g>
            </g>
            <g id="Grupo_139357" data-name="Grupo 139357" transform="translate(1.554 5.256)">
              <g id="Grupo_139344" data-name="Grupo 139344" transform="translate(10.907 11.868)">
                <g id="Grupo_139343" data-name="Grupo 139343">
                  <path id="Trazado_152454" data-name="Trazado 152454" d="M560.78,216.456c.135.423.284.841.436,1.255,8.249-2.606,15.216-9.368,18.82-17.419,6.869-15.356,3.526-32.433.148-48.21-.18-.85-1.483-.486-1.3.358,3.168,14.8,6.375,30.668.755,45.306C576.366,206.28,569.33,213.765,560.78,216.456Z" transform="translate(-560.78 -151.597)" fill="#5880eb"/>
                </g>
              </g>
              <g id="Grupo_139346" data-name="Grupo 139346" transform="translate(85.74 60.399)">
                <g id="Grupo_139345" data-name="Grupo 139345">
                  <path id="Trazado_152455" data-name="Trazado 152455" d="M601.428,202.729c2.615,16.089,14.89,30.483,28.829,38.211-.089-.579-.171-1.136-.237-1.68a58.367,58.367,0,0,1-17.889-16c-8.411-11.475-16.022-31.032-.859-40.449,9.454-5.876,19.8-4.025,29.015.633.156-.466.314-.934.481-1.4a38.913,38.913,0,0,0-12.727-4.076,26.484,26.484,0,0,0-19.557,5.163C602.39,187.925,600.207,195.185,601.428,202.729Z" transform="translate(-601.103 -177.747)" fill="#5880eb"/>
                </g>
              </g>
              <g id="Grupo_139348" data-name="Grupo 139348" transform="translate(0 108.079)">
                <g id="Grupo_139347" data-name="Grupo 139347">
                  <path id="Trazado_152456" data-name="Trazado 152456" d="M554.9,284.716c6.347.4,12.835-2.88,17.477-7.4,12.83-12.507,17.948-32.433,14.246-49.756a54.887,54.887,0,0,0-12.067-24.117c-.113.553-.225,1.1-.347,1.657q.944,1.139,1.821,2.327a53.633,53.633,0,0,1,8.333,46.432A51.216,51.216,0,0,1,571.682,276.1c-4.38,4.363-10.53,7.63-16.577,7.273C555.037,283.825,554.97,284.276,554.9,284.716Z" transform="translate(-554.903 -203.438)" fill="#5880eb"/>
                </g>
              </g>
              <g id="Grupo_139350" data-name="Grupo 139350" transform="translate(80.406 151.218)">
                <g id="Grupo_139349" data-name="Grupo 139349">
                  <path id="Trazado_152457" data-name="Trazado 152457" d="M630.1,228.032a47.516,47.516,0,0,0-27.551,61.157c.3.815-1,1.167-1.3.358a48.853,48.853,0,0,1,28.493-62.816c.809-.314,1.16.989.358,1.3Z" transform="translate(-598.228 -226.683)" fill="#5880eb"/>
                </g>
              </g>
              <g id="Grupo_139352" data-name="Grupo 139352" transform="translate(44.691 106.851)">
                <g id="Grupo_139351" data-name="Grupo 139351">
                  <path id="Trazado_152458" data-name="Trazado 152458" d="M595.355,204.166c7.616,4.716,14.255,10.848,18.475,18.835,3.342,6.323,7.383,16.747,1.047,22.575-7.191,6.616-17.349.961-23.234-4.456-6.692-6.161-12.8-15.56-12.657-24.971.067-4.306,1.843-8.96,5.378-11.612,3.365-2.524,7.36-2.047,10.99-.371.785.362.1,1.524-.681,1.162-3.639-1.68-7.576-1.811-10.547,1.2a14.386,14.386,0,0,0-3.769,10.779c.39,8.2,5.484,16.256,11.2,21.871,5.456,5.362,15.606,11.97,22.6,5.213,5.662-5.469,1.336-15.543-1.776-21.242-4.124-7.548-10.454-13.329-17.709-17.822-.737-.455-.059-1.62.681-1.162Z" transform="translate(-578.984 -202.776)" fill="#5880eb"/>
                </g>
              </g>
              <g id="Grupo_139354" data-name="Grupo 139354" transform="translate(36.281)">
                <g id="Grupo_139353" data-name="Grupo 139353">
                  <path id="Trazado_152459" data-name="Trazado 152459" d="M578.188,176.468c8.374,15.244,27.163,12.193,40.067,5.122a78.611,78.611,0,0,0,33.107-35.362c.368-.778-.8-1.464-1.164-.679a77.491,77.491,0,0,1-14.634,21.174c-10.027,10.289-25.034,20.645-40.1,19.459-8.294-.651-14.7-5.961-17.612-13.654-3.135-8.288-2.075-17.315-.984-25.891-.484.143-.958.291-1.407.445C574.22,156.92,573.232,167.437,578.188,176.468Z" transform="translate(-574.452 -145.202)" fill="#5880eb"/>
                </g>
              </g>
              <g id="Grupo_139356" data-name="Grupo 139356" transform="translate(48.178 56.192)">
                <g id="Grupo_139355" data-name="Grupo 139355">
                  <path id="Trazado_152460" data-name="Trazado 152460" d="M590.9,175.514c5.853,1.115,13.936,5.089,15.278,11.592,1.264,6.119-5.6,8.678-10.515,8.383-5.814-.349-12.783-4-14.505-9.983-1.674-5.809,4.226-10.259,9.565-10.016.863.041.869,1.388,0,1.349-5.412-.249-10.53,4.634-7.507,10.057,2.526,4.532,8.09,7.184,13.141,7.271,5.287.093,11.137-3.626,7.362-9.4-2.867-4.389-8.164-7-13.177-7.951-.852-.163-.49-1.462.358-1.3Z" transform="translate(-580.863 -175.48)" fill="#5880eb"/>
                </g>
              </g>
            </g>
            <g id="Grupo_139359" data-name="Grupo 139359" transform="translate(105.322 32.546)">
              <g id="Grupo_139358" data-name="Grupo 139358">
                <path id="Trazado_152461" data-name="Trazado 152461" d="M627.8,343.509a1.044,1.044,0,0,1-1.039-.959,486.715,486.715,0,0,0-15.112-87.957c-5.456-20.279,17.766-90.971,18.757-93.97a1.044,1.044,0,0,1,1.982.655c-.241.729-24.019,73.1-18.726,92.773a488.636,488.636,0,0,1,15.179,88.33,1.042,1.042,0,0,1-.956,1.125C627.855,343.507,627.825,343.509,627.8,343.509Z" transform="translate(-610.816 -159.907)" fill="#1c2b74"/>
              </g>
            </g>
            <g id="Grupo_139365" data-name="Grupo 139365" transform="translate(23.032 173.555)">
              <g id="Grupo_139364" data-name="Grupo 139364">
                <g id="Grupo_139363" data-name="Grupo 139363">
                  <g id="Grupo_139362" data-name="Grupo 139362">
                    <g id="Grupo_139361" data-name="Grupo 139361">
                      <g id="Grupo_139360" data-name="Grupo 139360">
                        <path id="Trazado_152462" data-name="Trazado 152462" d="M590.8,256.426a89.224,89.224,0,0,0,29.172-5.452,135.941,135.941,0,0,0,27.22-13.132,1.067,1.067,0,1,0-1.18-1.778,133.644,133.644,0,0,1-26.788,12.911c-14.006,4.885-34.259,8.893-51.194.254a1.067,1.067,0,0,0-.969,1.9A51.762,51.762,0,0,0,590.8,256.426Z" transform="translate(-566.476 -235.886)" fill="#1c2b74"/>
                      </g>
                    </g>
                  </g>
                </g>
              </g>
            </g>
            <g id="Grupo_139371" data-name="Grupo 139371" transform="translate(18.932 149.219)">
              <g id="Grupo_139370" data-name="Grupo 139370">
                <g id="Grupo_139369" data-name="Grupo 139369">
                  <g id="Grupo_139368" data-name="Grupo 139368">
                    <g id="Grupo_139367" data-name="Grupo 139367">
                      <g id="Grupo_139366" data-name="Grupo 139366">
                        <path id="Trazado_152463" data-name="Trazado 152463" d="M585.517,236.97a89.2,89.2,0,0,0,29.43,3.836,136.05,136.05,0,0,0,29.946-4.072,1.067,1.067,0,0,0-.574-2.054,133.714,133.714,0,0,1-29.468,3.994c-14.83.314-35.328-2.136-48.763-15.587a1.068,1.068,0,0,0-1.511,1.509A51.78,51.78,0,0,0,585.517,236.97Z" transform="translate(-564.267 -222.774)" fill="#1c2b74"/>
                      </g>
                    </g>
                  </g>
                </g>
              </g>
            </g>
            <g id="Grupo_139412" data-name="Grupo 139412" transform="translate(0.835 198.214)">
              <g id="Grupo_139376" data-name="Grupo 139376">
                <g id="Grupo_139375" data-name="Grupo 139375">
                  <g id="Grupo_139374" data-name="Grupo 139374">
                    <g id="Grupo_139373" data-name="Grupo 139373">
                      <g id="Grupo_139372" data-name="Grupo 139372">
                        <path id="Trazado_152464" data-name="Trazado 152464" d="M637.632,270.639a299.652,299.652,0,0,0,46.777-3.66,1.067,1.067,0,0,0-.373-2.1,298.366,298.366,0,0,1-47.41,3.625c-24.084-.087-57.59-3.48-80.441-19.143a1.067,1.067,0,0,0-1.206,1.759c23.308,15.975,57.282,19.431,81.677,19.518Z" transform="translate(-554.516 -249.174)" fill="#1c2b74"/>
                      </g>
                    </g>
                  </g>
                </g>
              </g>
              <g id="Grupo_139381" data-name="Grupo 139381" transform="translate(118.4 16.891)">
                <g id="Grupo_139380" data-name="Grupo 139380">
                  <g id="Grupo_139379" data-name="Grupo 139379">
                    <g id="Grupo_139378" data-name="Grupo 139378">
                      <g id="Grupo_139377" data-name="Grupo 139377">
                        <path id="Trazado_152465" data-name="Trazado 152465" d="M619.38,282.487a1.067,1.067,0,0,0,1.038-.826c2-8.554,2.03-21.76,2.032-22.319a1.067,1.067,0,0,0-1.067-1.067h0a1.066,1.066,0,0,0-1.067,1.065c0,.134-.035,13.524-1.975,21.836a1.068,1.068,0,0,0,.8,1.282A1.094,1.094,0,0,0,619.38,282.487Z" transform="translate(-618.313 -258.275)" fill="#1c2b74"/>
                      </g>
                    </g>
                  </g>
                </g>
              </g>
              <g id="Grupo_139386" data-name="Grupo 139386" transform="translate(103.198 19.33)">
                <g id="Grupo_139385" data-name="Grupo 139385">
                  <g id="Grupo_139384" data-name="Grupo 139384">
                    <g id="Grupo_139383" data-name="Grupo 139383">
                      <g id="Grupo_139382" data-name="Grupo 139382">
                        <path id="Trazado_152466" data-name="Trazado 152466" d="M611.189,282.713a1.065,1.065,0,0,0,1.037-.826c2-8.563,1.8-20.736,1.793-21.248a1.054,1.054,0,0,0-1.086-1.049,1.067,1.067,0,0,0-1.047,1.086c0,.124.2,12.423-1.737,20.726a1.066,1.066,0,0,0,.8,1.281A1,1,0,0,0,611.189,282.713Z" transform="translate(-610.122 -259.589)" fill="#1c2b74"/>
                      </g>
                    </g>
                  </g>
                </g>
              </g>
              <g id="Grupo_139391" data-name="Grupo 139391" transform="translate(82.949 20.341)">
                <g id="Grupo_139390" data-name="Grupo 139390">
                  <g id="Grupo_139389" data-name="Grupo 139389">
                    <g id="Grupo_139388" data-name="Grupo 139388">
                      <g id="Grupo_139387" data-name="Grupo 139387">
                        <path id="Trazado_152467" data-name="Trazado 152467" d="M600.28,283.336a1.067,1.067,0,0,0,1.037-.824c2-8.563,1.817-20.812,1.808-21.33a1.066,1.066,0,1,0-2.132.035c0,.124.184,12.5-1.754,20.81a1.066,1.066,0,0,0,.8,1.281A1.1,1.1,0,0,0,600.28,283.336Z" transform="translate(-599.211 -260.134)" fill="#1c2b74"/>
                      </g>
                    </g>
                  </g>
                </g>
              </g>
              <g id="Grupo_139396" data-name="Grupo 139396" transform="translate(63.767 19.331)">
                <g id="Grupo_139395" data-name="Grupo 139395">
                  <g id="Grupo_139394" data-name="Grupo 139394">
                    <g id="Grupo_139393" data-name="Grupo 139393">
                      <g id="Grupo_139392" data-name="Grupo 139392">
                        <path id="Trazado_152468" data-name="Trazado 152468" d="M589.944,282.713a1.068,1.068,0,0,0,1.063-1c.544-8.806,1.982-20.806,2-20.925a1.067,1.067,0,1,0-2.118-.256c-.015.121-1.46,12.182-2.01,21.051a1.07,1.07,0,0,0,1,1.13Z" transform="translate(-588.875 -259.59)" fill="#1c2b74"/>
                      </g>
                    </g>
                  </g>
                </g>
              </g>
              <g id="Grupo_139401" data-name="Grupo 139401" transform="translate(44.917 16.891)">
                <g id="Grupo_139400" data-name="Grupo 139400">
                  <g id="Grupo_139399" data-name="Grupo 139399">
                    <g id="Grupo_139398" data-name="Grupo 139398">
                      <g id="Grupo_139397" data-name="Grupo 139397">
                        <path id="Trazado_152469" data-name="Trazado 152469" d="M579.852,281.7l.072,0a1.066,1.066,0,0,0,.993-1.136c-.49-7.342,1.963-20.9,1.988-21.033a1.067,1.067,0,1,0-2.1-.384c-.1.566-2.526,13.956-2.017,21.56A1.067,1.067,0,0,0,579.852,281.7Z" transform="translate(-578.718 -258.275)" fill="#1c2b74"/>
                      </g>
                    </g>
                  </g>
                </g>
              </g>
              <g id="Grupo_139406" data-name="Grupo 139406" transform="translate(24.199 12.154)">
                <g id="Grupo_139405" data-name="Grupo 139405">
                  <g id="Grupo_139404" data-name="Grupo 139404">
                    <g id="Grupo_139403" data-name="Grupo 139403">
                      <g id="Grupo_139402" data-name="Grupo 139402">
                        <path id="Trazado_152470" data-name="Trazado 152470" d="M568.622,279.212a1.067,1.067,0,0,0,1.067-1.065c0-7.943,1.969-21.066,1.99-21.2a1.066,1.066,0,1,0-2.108-.319c-.083.544-2.015,13.414-2.015,21.515A1.066,1.066,0,0,0,568.622,279.212Z" transform="translate(-567.555 -255.722)" fill="#1c2b74"/>
                      </g>
                    </g>
                  </g>
                </g>
              </g>
              <g id="Grupo_139411" data-name="Grupo 139411" transform="translate(6.658 6.431)">
                <g id="Grupo_139410" data-name="Grupo 139410">
                  <g id="Grupo_139409" data-name="Grupo 139409">
                    <g id="Grupo_139408" data-name="Grupo 139408">
                      <g id="Grupo_139407" data-name="Grupo 139407">
                        <path id="Trazado_152471" data-name="Trazado 152471" d="M559.168,274.388a1.067,1.067,0,0,0,1.067-1.063c.031-8.539,2.589-19.262,2.615-19.37a1.067,1.067,0,0,0-2.075-.5c-.108.447-2.641,11.076-2.672,19.862a1.068,1.068,0,0,0,1.062,1.071Z" transform="translate(-558.103 -252.639)" fill="#1c2b74"/>
                      </g>
                    </g>
                  </g>
                </g>
              </g>
            </g>
            <g id="Grupo_139419" data-name="Grupo 139419" transform="translate(22.739 97.363)">
              <g id="Grupo_139418" data-name="Grupo 139418">
                <g id="Grupo_139417" data-name="Grupo 139417">
                  <g id="Grupo_139416" data-name="Grupo 139416">
                    <g id="Grupo_139415" data-name="Grupo 139415">
                      <g id="Grupo_139414" data-name="Grupo 139414">
                        <g id="Grupo_139413" data-name="Grupo 139413">
                          <path id="Trazado_152472" data-name="Trazado 152472" d="M567.116,196.779c-.031.325-.074.666-.119,1.026,6.082,1.36,13.912,1.539,23.124-.26,18.162-3.545,32.984,4.833,33.137,4.914a.9.9,0,0,0,.451.122.91.91,0,0,0,.457-1.7,53.54,53.54,0,0,0-34.395-5.126c-9.55,1.863-17.508,1.57-23.453.05.51.549.811.844.811.844Z" transform="translate(-566.318 -194.832)" fill="#1c2b74"/>
                        </g>
                      </g>
                    </g>
                  </g>
                </g>
              </g>
            </g>
            <g id="Grupo_139425" data-name="Grupo 139425" transform="translate(42.667 14.498)">
              <g id="Grupo_139424" data-name="Grupo 139424">
                <g id="Grupo_139423" data-name="Grupo 139423">
                  <g id="Grupo_139422" data-name="Grupo 139422">
                    <g id="Grupo_139421" data-name="Grupo 139421">
                      <g id="Grupo_139420" data-name="Grupo 139420">
                        <path id="Trazado_152473" data-name="Trazado 152473" d="M591.2,168.435c11.113,0,33.788-15.916,34.747-16.6a.912.912,0,1,0-1.052-1.49c-.23.163-23.159,16.259-33.7,16.259-10.081,0-12.316-11.011-12.336-11.124a.913.913,0,0,0-1.793.345C577.1,155.956,579.63,168.435,591.2,168.435Z" transform="translate(-577.056 -150.182)" fill="#1c2b74"/>
                      </g>
                    </g>
                  </g>
                </g>
              </g>
            </g>
          </g>
          <g id="Grupo_139428" data-name="Grupo 139428" transform="translate(28.554)">
            <g id="Grupo_139427" data-name="Grupo 139427">
              <path id="Trazado_152474" data-name="Trazado 152474" d="M620.465,99.158s24.432-5.506,33.929,10.085-1.565,39.985-1.565,39.985.882,6.343,13.635,11.5,6.822,25.6-6.332,22.727c0,0-4.68,18.765-18.791,8.183s-35.453-7.6-35.453-7.6-7.96,6.783-17.186,2.171-2.713-11.668-2.713-11.668-9.561,4.3-15.2-4.874c-5.987-9.74,10.014-17.017,11.4-21.988,5.048-18.045-2.012-14.214-8.988-24.18-8.52-12.171,7.678-22.254,14.776-13.214,0,0-10.636-10.645,1.594-18.254C600.748,85.075,620.465,99.158,620.465,99.158Z" transform="translate(-569.451 -90.101)" fill="#171612"/>
            </g>
          </g>
          <g id="Grupo_139517" data-name="Grupo 139517" transform="translate(41.524 16.027)">
            <g id="Grupo_139516" data-name="Grupo 139516">
              <g id="Grupo_139515" data-name="Grupo 139515">
                <g id="Grupo_139431" data-name="Grupo 139431" transform="translate(4.819 30.776)">
                  <g id="Grupo_139430" data-name="Grupo 139430">
                    <g id="Grupo_139429" data-name="Grupo 139429">
                      <path id="Trazado_152475" data-name="Trazado 152475" d="M583.953,115.32s-3.452-.054-4.562,4.244.338,11.816,4.849,11.377S583.953,115.32,583.953,115.32Z" transform="translate(-579.036 -115.32)" fill="#c6695d"/>
                    </g>
                  </g>
                </g>
                <g id="Grupo_139433" data-name="Grupo 139433" transform="translate(0 42.908)">
                  <g id="Grupo_139432" data-name="Grupo 139432">
                    <path id="Trazado_152476" data-name="Trazado 152476" d="M586.042,141.06a9.6,9.6,0,1,1,9.6-9.6A9.613,9.613,0,0,1,586.042,141.06Zm0-17.466a7.863,7.863,0,1,0,7.863,7.865A7.872,7.872,0,0,0,586.042,123.594Z" transform="translate(-576.44 -121.857)" fill="#fff"/>
                  </g>
                </g>
                <g id="Grupo_139438" data-name="Grupo 139438" transform="translate(15.563 51.308)">
                  <g id="Grupo_139435" data-name="Grupo 139435" transform="translate(2.771 14.63)">
                    <g id="Grupo_139434" data-name="Grupo 139434">
                      <line id="Línea_254" data-name="Línea 254" y2="0.004" fill="#eaad8f"/>
                    </g>
                  </g>
                  <g id="Grupo_139437" data-name="Grupo 139437">
                    <g id="Grupo_139436" data-name="Grupo 139436">
                      <path id="Trazado_152477" data-name="Trazado 152477" d="M622.55,156.84s-7.123,10.64-20.1,11.184c-16.486.689-17.625-6.5-17.625-6.5a30.861,30.861,0,0,0,1.979-6.6c.163-.88.3-1.787.406-2.73a74.9,74.9,0,0,0,.406-8.682c0-.768-.005-1.568-.02-2.392v-.1c11.523-1.52,21.239-5.573,28.384-13.234l1.791-.833,1.206-.568.143.677-.427,2.069C616.652,138.856,618.039,147.226,622.55,156.84Z" transform="translate(-584.826 -126.383)" fill="#eaad8f"/>
                    </g>
                  </g>
                </g>
                <g id="Grupo_139441" data-name="Grupo 139441" transform="translate(17.948 60.565)">
                  <g id="Grupo_139440" data-name="Grupo 139440">
                    <g id="Grupo_139439" data-name="Grupo 139439">
                      <path id="Trazado_152478" data-name="Trazado 152478" d="M606.207,131.371c-2.925,5.128-9.406,14.064-20.1,16.551a74.921,74.921,0,0,0,.406-8.682c0-.768-.006-1.568-.021-2.392.219.048.445.089.672.128C593.256,138.006,600.24,135.523,606.207,131.371Z" transform="translate(-586.111 -131.371)" fill="#171612"/>
                    </g>
                  </g>
                </g>
                <g id="Grupo_139442" data-name="Grupo 139442" transform="translate(12.618 68.835)">
                  <path id="Trazado_152479" data-name="Trazado 152479" d="M625.707,150.034s-1.505-13.943-3.8-14.2-10.358,8.871-20.79,8.275-12.679-7.993-14.938-4.964-2.945,13.366-2.945,13.366,1.429,9.239,13.166,9.959S623.629,154.013,625.707,150.034Z" transform="translate(-583.239 -135.827)" fill="#314fa5"/>
                </g>
                <g id="Grupo_139444" data-name="Grupo 139444" transform="translate(47.568 70.641)">
                  <g id="Grupo_139443" data-name="Grupo 139443">
                    <path id="Trazado_152480" data-name="Trazado 152480" d="M603.74,137.229c2.741,4.627,3.461,10.1,3.482,15.393a.891.891,0,0,1-1.782,0c-.019-4.989-.655-10.133-3.238-14.494a.891.891,0,0,1,1.538-.9Z" transform="translate(-602.071 -136.8)" fill="#5880eb"/>
                  </g>
                </g>
                <g id="Grupo_139446" data-name="Grupo 139446" transform="translate(42.25 73.721)">
                  <g id="Grupo_139445" data-name="Grupo 139445">
                    <path id="Trazado_152481" data-name="Trazado 152481" d="M601,139.049a40.584,40.584,0,0,1,2.776,16.124.891.891,0,0,1-1.782,0,39.3,39.3,0,0,0-2.713-15.649c-.44-1.058,1.284-1.52,1.718-.475Z" transform="translate(-599.206 -138.46)" fill="#5880eb"/>
                  </g>
                </g>
                <g id="Grupo_139448" data-name="Grupo 139448" transform="translate(35.994 76.22)">
                  <g id="Grupo_139447" data-name="Grupo 139447">
                    <path id="Trazado_152482" data-name="Trazado 152482" d="M597.569,140.45a100.013,100.013,0,0,1,1.533,16.319.891.891,0,0,1-1.781,0,97.163,97.163,0,0,0-1.47-15.845c-.2-1.121,1.518-1.6,1.719-.473Z" transform="translate(-595.834 -139.806)" fill="#5880eb"/>
                  </g>
                </g>
                <g id="Grupo_139450" data-name="Grupo 139450" transform="translate(29.755 77.336)">
                  <g id="Grupo_139449" data-name="Grupo 139449">
                    <path id="Trazado_152483" data-name="Trazado 152483" d="M594.316,141.268l-.061,17.321a.891.891,0,0,1-1.782,0q.03-8.66.061-17.321a.891.891,0,0,1,1.782,0Z" transform="translate(-592.473 -140.408)" fill="#5880eb"/>
                  </g>
                </g>
                <g id="Grupo_139451" data-name="Grupo 139451" transform="translate(11.914 83.503)">
                  <path id="Trazado_152484" data-name="Trazado 152484" d="M600.7,157.419q.548,0,1.117-.022c12.824-.514,24.175-11.662,24.652-12.136a.9.9,0,0,0-1.264-1.271c-.113.111-11.339,11.132-23.46,11.618-13.318.523-17-9.007-17.15-9.413a.9.9,0,0,0-1.683.616C582.955,146.918,586.945,157.419,600.7,157.419Z" transform="translate(-582.86 -143.73)" fill="#5880eb"/>
                </g>
                <g id="Grupo_139453" data-name="Grupo 139453" transform="translate(20.669 75.856)">
                  <g id="Grupo_139452" data-name="Grupo 139452">
                    <path id="Trazado_152485" data-name="Trazado 152485" d="M591.775,140.708a58.97,58.97,0,0,0-2.416,16.72.891.891,0,0,1-1.781,0,60.658,60.658,0,0,1,2.481-17.193.891.891,0,0,1,1.716.473Z" transform="translate(-587.577 -139.61)" fill="#5880eb"/>
                  </g>
                </g>
                <g id="Grupo_139455" data-name="Grupo 139455" transform="translate(14.416 72.712)">
                  <g id="Grupo_139454" data-name="Grupo 139454">
                    <path id="Trazado_152486" data-name="Trazado 152486" d="M589.074,138.985a42.377,42.377,0,0,0-3.084,15.7.891.891,0,0,1-1.782,0,43.747,43.747,0,0,1,3.149-16.18c.421-1.05,2.145-.592,1.717.475Z" transform="translate(-584.208 -137.916)" fill="#5880eb"/>
                  </g>
                </g>
                <g id="Grupo_139458" data-name="Grupo 139458" transform="translate(6.547)">
                  <g id="Grupo_139457" data-name="Grupo 139457">
                    <g id="Grupo_139456" data-name="Grupo 139456">
                      <path id="Trazado_152487" data-name="Trazado 152487" d="M638.469,135.229c-.238,6.136-5.72,13.451-13.756,13.366H624.5c-.141.347-.306.687-.475,1.036-.074.148-.15.3-.227.453a.445.445,0,0,1-.024.041c-5.4,10.233-20.491,15.8-28.534,15.706a18.287,18.287,0,0,1-5.389-.911c-8.446-2.177-9.6-13.745-7.925-22.49a33.811,33.811,0,0,1,.9-3.589c.026-.076.048-.152.074-.23,0,0-2.383-12.412-2.845-17.805-.891-10.452,5.484-20.793,28.378-22s27.82,13.169,29.134,20.741c.223,1.264-.316,8.711-1.609,9.866C638.072,130.6,638.549,133.166,638.469,135.229Z" transform="translate(-579.968 -98.737)" fill="#eaad8f"/>
                    </g>
                  </g>
                </g>
                <g id="Grupo_139470" data-name="Grupo 139470" transform="translate(25.406 31.207)">
                  <g id="Grupo_139463" data-name="Grupo 139463" transform="translate(1.622 1.107)">
                    <g id="Grupo_139462" data-name="Grupo 139462">
                      <g id="Grupo_139461" data-name="Grupo 139461">
                        <g id="Grupo_139460" data-name="Grupo 139460">
                          <g id="Grupo_139459" data-name="Grupo 139459">
                            <path id="Trazado_152488" data-name="Trazado 152488" d="M594.039,119.022c.048,1.611-.592,2.938-1.429,2.964s-1.555-1.262-1.6-2.873.59-2.938,1.427-2.964S593.991,117.409,594.039,119.022Z" transform="translate(-591.004 -116.149)" fill="#171612"/>
                          </g>
                        </g>
                      </g>
                    </g>
                  </g>
                  <g id="Grupo_139469" data-name="Grupo 139469">
                    <g id="Grupo_139468" data-name="Grupo 139468">
                      <g id="Grupo_139467" data-name="Grupo 139467">
                        <g id="Grupo_139466" data-name="Grupo 139466">
                          <g id="Grupo_139465" data-name="Grupo 139465">
                            <g id="Grupo_139464" data-name="Grupo 139464">
                              <path id="Trazado_152489" data-name="Trazado 152489" d="M590.375,117.244a.421.421,0,0,1-.193-.18.427.427,0,0,1,.167-.579c.173-.1,4.265-2.3,7.416.425a.427.427,0,0,1-.559.646c-2.7-2.342-6.408-.345-6.445-.325A.424.424,0,0,1,590.375,117.244Z" transform="translate(-590.13 -115.552)" fill="#171612"/>
                            </g>
                          </g>
                        </g>
                      </g>
                    </g>
                  </g>
                </g>
                <g id="Grupo_139481" data-name="Grupo 139481" transform="translate(10.571 32.005)">
                  <g id="Grupo_139474" data-name="Grupo 139474" transform="translate(2.419 0.971)">
                    <g id="Grupo_139473" data-name="Grupo 139473">
                      <g id="Grupo_139472" data-name="Grupo 139472">
                        <g id="Grupo_139471" data-name="Grupo 139471">
                          <path id="Trazado_152490" data-name="Trazado 152490" d="M586.473,119.378c.048,1.611-.59,2.938-1.427,2.964s-1.555-1.262-1.6-2.873.592-2.94,1.429-2.964S586.425,117.765,586.473,119.378Z" transform="translate(-583.44 -116.505)" fill="#171612"/>
                        </g>
                      </g>
                    </g>
                  </g>
                  <g id="Grupo_139480" data-name="Grupo 139480">
                    <g id="Grupo_139479" data-name="Grupo 139479">
                      <g id="Grupo_139478" data-name="Grupo 139478">
                        <g id="Grupo_139477" data-name="Grupo 139477">
                          <g id="Grupo_139476" data-name="Grupo 139476">
                            <g id="Grupo_139475" data-name="Grupo 139475">
                              <path id="Trazado_152491" data-name="Trazado 152491" d="M582.435,118.215a.444.444,0,0,1-.215-.152.429.429,0,0,1,.089-.6c.158-.119,3.91-2.858,7.4-.583a.426.426,0,1,1-.466.714c-3-1.954-6.4.527-6.429.553A.431.431,0,0,1,582.435,118.215Z" transform="translate(-582.136 -115.982)" fill="#171612"/>
                            </g>
                          </g>
                        </g>
                      </g>
                    </g>
                  </g>
                </g>
                <g id="Grupo_139485" data-name="Grupo 139485" transform="translate(45.623 46.977)">
                  <g id="Grupo_139484" data-name="Grupo 139484">
                    <g id="Grupo_139483" data-name="Grupo 139483">
                      <g id="Grupo_139482" data-name="Grupo 139482">
                        <path id="Trazado_152492" data-name="Trazado 152492" d="M606.691,126.931h-.215c-.143.347-.306.689-.477,1.036-.072.15-.148.3-.227.453a.152.152,0,0,1-.024.041,7.367,7.367,0,0,1-3.053-1.346,5.9,5.9,0,0,1-1.568-1.835.829.829,0,0,1,1.453-.8,4.452,4.452,0,0,0,1.91,1.8,6.04,6.04,0,0,0,1.429.509A7.377,7.377,0,0,0,606.691,126.931Z" transform="translate(-601.023 -124.05)" fill="#c6695d"/>
                      </g>
                    </g>
                  </g>
                </g>
                <g id="Grupo_139488" data-name="Grupo 139488" transform="translate(8.502 40.104)" opacity="0.5">
                  <g id="Grupo_139487" data-name="Grupo 139487">
                    <g id="Grupo_139486" data-name="Grupo 139486">
                      <path id="Trazado_152493" data-name="Trazado 152493" d="M585.757,122.352c-.052.911-2.084,1.559-4.736,1.583a33.78,33.78,0,0,1,.9-3.589C584.193,120.725,585.805,121.521,585.757,122.352Z" transform="translate(-581.021 -120.346)" fill="#c6695d"/>
                    </g>
                  </g>
                </g>
                <g id="Grupo_139491" data-name="Grupo 139491" transform="translate(45.1 44.996)">
                  <g id="Grupo_139490" data-name="Grupo 139490">
                    <g id="Grupo_139489" data-name="Grupo 139489">
                      <path id="Trazado_152494" data-name="Trazado 152494" d="M615.632,124.585c-.52.364-1.037.731-1.568,1.078a7.858,7.858,0,1,1-4.419-.909,1.894,1.894,0,0,0,1.147-1.759c-.148-.007-.3-.013-.449-.013a9.636,9.636,0,1,0,5.289,1.6Z" transform="translate(-600.741 -122.982)" fill="#fff"/>
                    </g>
                  </g>
                </g>
                <g id="Grupo_139494" data-name="Grupo 139494" transform="translate(18.851 53.584)">
                  <g id="Grupo_139493" data-name="Grupo 139493">
                    <g id="Grupo_139492" data-name="Grupo 139492">
                      <path id="Trazado_152495" data-name="Trazado 152495" d="M588.384,129.2a2.886,2.886,0,0,0,1.745-.77.482.482,0,0,0-.69-.674,1.957,1.957,0,0,1-2.166.286.482.482,0,1,0-.384.883A3.137,3.137,0,0,0,588.384,129.2Z" transform="translate(-586.598 -127.609)" fill="#c6695d"/>
                    </g>
                  </g>
                </g>
                <g id="Grupo_139497" data-name="Grupo 139497" transform="translate(14.749 47.732)">
                  <g id="Grupo_139496" data-name="Grupo 139496">
                    <g id="Grupo_139495" data-name="Grupo 139495">
                      <path id="Trazado_152496" data-name="Trazado 152496" d="M589.654,128.6l.082-.006a6.1,6.1,0,0,0,4.911-3.062.746.746,0,0,0-1.334-.668,4.611,4.611,0,0,1-3.7,2.244l-.069.006a4.52,4.52,0,0,1-3.829-1.234.746.746,0,1,0-1.162.935A5.986,5.986,0,0,0,589.654,128.6Z" transform="translate(-584.387 -124.456)" fill="#c6695d"/>
                    </g>
                  </g>
                </g>
                <g id="Grupo_139499" data-name="Grupo 139499" transform="translate(14.743 34.554)">
                  <g id="Grupo_139498" data-name="Grupo 139498">
                    <path id="Trazado_152497" data-name="Trazado 152497" d="M588.135,128a.705.705,0,0,1-.373-.108l-3.057-1.951a.695.695,0,0,1,.043-1.2c2.52-1.36,4.094-3.543,4.953-6.869a.7.7,0,1,1,1.347.349,11.58,11.58,0,0,1-4.653,7.145l2.114,1.349a.694.694,0,0,1-.375,1.281Z" transform="translate(-584.384 -117.355)" fill="#b4665e"/>
                  </g>
                </g>
                <g id="Grupo_139501" data-name="Grupo 139501" transform="translate(24.12 21.864)">
                  <g id="Grupo_139500" data-name="Grupo 139500">
                    <path id="Trazado_152498" data-name="Trazado 152498" d="M591.347,114.206a1.69,1.69,0,0,1-1.034-3.153,4.9,4.9,0,0,1,3.415-.4,12.265,12.265,0,0,1,8.47,6.872s-5.709-3.129-8.956-3.365A9.425,9.425,0,0,0,591.347,114.206Z" transform="translate(-589.437 -110.518)" fill="#171612"/>
                  </g>
                </g>
                <g id="Grupo_139503" data-name="Grupo 139503" transform="translate(7.153 22.165)">
                  <g id="Grupo_139502" data-name="Grupo 139502">
                    <path id="Trazado_152499" data-name="Trazado 152499" d="M589.315,114.366a1.689,1.689,0,0,0,1.036-3.151,4.9,4.9,0,0,0-3.415-.4c-6.239,1.3-6.642,5.759-6.642,5.759a22.452,22.452,0,0,1,7.128-2.251A9.416,9.416,0,0,1,589.315,114.366Z" transform="translate(-580.294 -110.68)" fill="#171612"/>
                  </g>
                </g>
                <g id="Grupo_139506" data-name="Grupo 139506" transform="translate(27.408 41.189)" opacity="0.5">
                  <g id="Grupo_139505" data-name="Grupo 139505">
                    <g id="Grupo_139504" data-name="Grupo 139504">
                      <path id="Trazado_152500" data-name="Trazado 152500" d="M591.209,122.514c-.058,1.039,2.481,2.028,5.673,2.207s5.827-.516,5.885-1.555-2.481-2.027-5.674-2.207S591.269,121.475,591.209,122.514Z" transform="translate(-591.208 -120.931)" fill="#c6695d"/>
                    </g>
                  </g>
                </g>
                <g id="Grupo_139510" data-name="Grupo 139510" transform="translate(49.784 34.796)">
                  <g id="Grupo_139509" data-name="Grupo 139509">
                    <g id="Grupo_139508" data-name="Grupo 139508">
                      <g id="Grupo_139507" data-name="Grupo 139507">
                        <path id="Trazado_152501" data-name="Trazado 152501" d="M604.2,127.731a.827.827,0,0,0,.705-.637c1.327-5.731,8.312-7.965,8.383-7.988a.829.829,0,0,0-.49-1.583c-.325.1-7.964,2.53-9.508,9.2a.829.829,0,0,0,.62.995A.853.853,0,0,0,604.2,127.731Z" transform="translate(-603.265 -117.486)" fill="#c6695d"/>
                      </g>
                    </g>
                  </g>
                </g>
                <g id="Grupo_139514" data-name="Grupo 139514" transform="translate(52.93 38.202)">
                  <g id="Grupo_139513" data-name="Grupo 139513">
                    <g id="Grupo_139512" data-name="Grupo 139512">
                      <g id="Grupo_139511" data-name="Grupo 139511">
                        <path id="Trazado_152502" data-name="Trazado 152502" d="M610.073,123.213a.83.83,0,0,0,.62-1.229,5.693,5.693,0,0,0-4.905-2.663.829.829,0,1,0,0,1.657,4.025,4.025,0,0,1,3.456,1.817A.83.83,0,0,0,610.073,123.213Z" transform="translate(-604.96 -119.321)" fill="#c6695d"/>
                      </g>
                    </g>
                  </g>
                </g>
              </g>
            </g>
          </g>
          <g id="Grupo_139519" data-name="Grupo 139519" transform="translate(46.283 14.326)">
            <g id="Grupo_139518" data-name="Grupo 139518">
              <path id="Trazado_152503" data-name="Trazado 152503" d="M610.4,112.024s-1.505,6.432,3.825,10.372a31.548,31.548,0,0,0,7.11,4.228s-8.192,17.5-1.546,20.344S626.4,130.3,636.775,130.2c0,0,3.764-.631,3.649-7.171s-10.488-25.55-27.556-25.2-32.528,8.114-33.606,20.053,1.585,9.7,1.585,9.7-.924-7.011,7.511-11.9C595.356,111.618,610.4,112.024,610.4,112.024Z" transform="translate(-579.004 -97.82)" fill="#171612"/>
            </g>
          </g>
        </g>
        <g id="Grupo_139541" data-name="Grupo 139541" transform="translate(0 101.034)">
          <g id="Grupo_139540" data-name="Grupo 139540">
            <g id="Grupo_139530" data-name="Grupo 139530" transform="translate(32.978 0.094)">
              <g id="Grupo_139522" data-name="Grupo 139522" transform="translate(0 0)">
                <g id="Grupo_139521" data-name="Grupo 139521" transform="translate(0)">
                  <rect id="Rectángulo_35735" data-name="Rectángulo 35735" width="35.461" height="284.477" transform="translate(0 33.044) rotate(-68.724)" fill="#e59f3f"/>
                </g>
              </g>
              <g id="Grupo_139529" data-name="Grupo 139529" transform="translate(2.215 5.692)">
                <g id="Grupo_139524" data-name="Grupo 139524" transform="translate(0 19.46)">
                  <g id="Grupo_139523" data-name="Grupo 139523">
                    <rect id="Rectángulo_35736" data-name="Rectángulo 35736" width="2.364" height="284.477" transform="translate(0 2.203) rotate(-68.724)" fill="#b56d25"/>
                  </g>
                </g>
                <g id="Grupo_139526" data-name="Grupo 139526" transform="translate(3.79 9.729)">
                  <g id="Grupo_139525" data-name="Grupo 139525" transform="translate(0 0)">
                    <rect id="Rectángulo_35737" data-name="Rectángulo 35737" width="2.364" height="284.477" transform="translate(0 2.203) rotate(-68.724)" fill="#b56d25"/>
                  </g>
                </g>
                <g id="Grupo_139528" data-name="Grupo 139528" transform="translate(7.578 0)">
                  <g id="Grupo_139527" data-name="Grupo 139527" transform="translate(0)">
                    <rect id="Rectángulo_35738" data-name="Rectángulo 35738" width="2.364" height="284.476" transform="translate(0 2.203) rotate(-68.724)" fill="#b56d25"/>
                  </g>
                </g>
              </g>
            </g>
            <g id="Grupo_139532" data-name="Grupo 139532" transform="translate(284.204 97.919)">
              <g id="Grupo_139531" data-name="Grupo 139531" transform="translate(0 0)">
                <rect id="Rectángulo_35739" data-name="Rectángulo 35739" width="35.461" height="14.876" transform="translate(0 33.044) rotate(-68.724)" fill="#171612"/>
              </g>
            </g>
            <g id="Grupo_139534" data-name="Grupo 139534" transform="translate(298.066 103.318)">
              <g id="Grupo_139533" data-name="Grupo 139533">
                <path id="Trazado_152504" data-name="Trazado 152504" d="M663.192,235.872l3.946,1.535a17.73,17.73,0,0,0,22.956-10.089h0a17.731,17.731,0,0,0-10.089-22.956l-3.944-1.535Z" transform="translate(-663.192 -202.827)" fill="#c04d3a"/>
              </g>
            </g>
            <g id="Grupo_139539" data-name="Grupo 139539">
              <g id="Grupo_139536" data-name="Grupo 139536" transform="translate(0 0)">
                <g id="Grupo_139535" data-name="Grupo 139535">
                  <path id="Trazado_152505" data-name="Trazado 152505" d="M495.11,128.768l-12.867,33.044-18.365-18.453-3.821-3.838-10.792-10.846,15.638.032,6.09.012Z" transform="translate(-449.265 -128.674)" fill="#eaad8f"/>
                </g>
              </g>
              <g id="Grupo_139538" data-name="Grupo 139538" transform="translate(0.001)">
                <g id="Grupo_139537" data-name="Grupo 139537">
                  <path id="Trazado_152506" data-name="Trazado 152506" d="M464.9,128.707a18.458,18.458,0,0,1-1.283,5.558,12.8,12.8,0,0,1-3.561,5.256l-10.793-10.847Z" transform="translate(-449.265 -128.674)" fill="#171612"/>
                </g>
              </g>
            </g>
          </g>
        </g>
        <g id="Grupo_139550" data-name="Grupo 139550" transform="translate(58.245 133.825)">
          <g id="Grupo_139543" data-name="Grupo 139543" transform="translate(24.831 7.087)">
            <g id="Grupo_139542" data-name="Grupo 139542">
              <path id="Trazado_152507" data-name="Trazado 152507" d="M541.266,184.226s-4.9,6.967-10.059,4.289-7.487-16.2-7.982-21,7.665,3.114,9.07,7.964,3.962,5.779,3.962,5.779Z" transform="translate(-523.203 -166.028)" fill="#eaad8f"/>
            </g>
          </g>
          <g id="Grupo_139545" data-name="Grupo 139545" transform="translate(7.026 0.162)">
            <g id="Grupo_139544" data-name="Grupo 139544">
              <path id="Trazado_152508" data-name="Trazado 152508" d="M531.672,180.494s-4.9,6.967-10.059,4.291-7.487-16.2-7.982-21,7.665,3.114,9.07,7.962,3.962,5.781,3.962,5.781Z" transform="translate(-513.609 -162.297)" fill="#eaad8f"/>
            </g>
          </g>
          <g id="Grupo_139547" data-name="Grupo 139547">
            <g id="Grupo_139546" data-name="Grupo 139546">
              <path id="Trazado_152509" data-name="Trazado 152509" d="M525.781,178.284s-4.332,6.154-8.886,3.79-6.614-14.307-7.052-18.548,6.77,2.75,8.012,7.034,3.5,5.106,3.5,5.106Z" transform="translate(-509.824 -162.21)" fill="#eaad8f"/>
            </g>
          </g>
          <g id="Grupo_139549" data-name="Grupo 139549" transform="translate(16.199 3.281)">
            <g id="Grupo_139548" data-name="Grupo 139548">
              <path id="Trazado_152510" data-name="Trazado 152510" d="M536.617,182.175s-4.9,6.969-10.061,4.291-7.487-16.2-7.982-21,7.665,3.112,9.07,7.962,3.964,5.779,3.964,5.779Z" transform="translate(-518.552 -163.978)" fill="#eaad8f"/>
            </g>
          </g>
        </g>
        <g id="Grupo_139580" data-name="Grupo 139580" transform="translate(188.962 104.658)">
          <g id="Grupo_139557" data-name="Grupo 139557" transform="translate(42.038 76.358)">
            <g id="Grupo_139556" data-name="Grupo 139556">
              <g id="Grupo_139555" data-name="Grupo 139555">
                <g id="Grupo_139554" data-name="Grupo 139554">
                  <g id="Grupo_139553" data-name="Grupo 139553">
                    <g id="Grupo_139552" data-name="Grupo 139552">
                      <g id="Grupo_139551" data-name="Grupo 139551">
                        <path id="Trazado_152511" data-name="Trazado 152511" d="M602.909,187.638Z" transform="translate(-602.909 -187.638)" fill="#87363e"/>
                      </g>
                    </g>
                  </g>
                </g>
              </g>
            </g>
          </g>
          <g id="Grupo_139559" data-name="Grupo 139559" transform="translate(49.874)">
            <g id="Grupo_139558" data-name="Grupo 139558">
              <path id="Trazado_152512" data-name="Trazado 152512" d="M704.251,219.029a27.441,27.441,0,0,0-.393-3.424,31.414,31.414,0,0,0-1.448-5.289A43.6,43.6,0,0,0,698.865,203c-.362-.6-.724-1.188-1.091-1.754-.282-.445-.566-.872-.854-1.294-.57-.854-1.145-1.667-1.72-2.452-1.67-2.272-3.359-4.333-5.057-6.28-.358-.408-.711-.813-1.067-1.212q-.668-.752-1.336-1.488c-1.8-1.954-3.61-3.819-5.434-5.62h0c-.4-.4-.789-.789-1.188-1.178-.334-.325-.664-.644-1-.965-2.583-2.45-5.163-4.831-7.8-7.108-5.243-4.588-10.612-8.875-16.077-12.991q-1.044-.785-2.092-1.559c-.408-.3-.817-.6-1.225-.895q-2.478-1.809-4.989-3.554-2.1-1.47-4.241-2.886l-2.162-1.416-1.095-.709-1.154-.729a15.716,15.716,0,0,0-18.735,25.116l.213.189,7.121,6.241,7.225,6.3q4.412,3.864,8.732,7.745c.343.31.687.616,1.03.928q2.2,1.99,4.371,3.981c2.277,2.125,4.556,4.226,6.722,6.366,2.181,2.106,4.268,4.226,6.241,6.327-1.407-.059-2.839-.165-4.3-.273-2.975-.232-6.013-.551-9.09-.928h0c-.859-.1-1.726-.208-2.589-.325h-.006c-2.19-.282-4.4-.594-6.611-.919q-4.677-.688-9.4-1.442l-4.723-.757-2.351-.366-1.165-.191c-.375-.056-.8-.126-1.1-.158l-1.045-.115a11.492,11.492,0,0,0-6.366,21.7l1.253.631,1.188.575c.256.121.51.245.761.366.442.213.878.423,1.314.622.1.052.195.093.292.139,1.583.729,3.17,1.425,4.766,2.106q4.794,2.018,9.715,3.78a162.285,162.285,0,0,0,20.474,5.922l.334.069,1.5.306h.006c3,.594,6.087,1.11,9.32,1.453.247.028.5.05.748.074.464.05.932.093,1.4.134a67.56,67.56,0,0,0,7.912.228c.5-.019,1-.043,1.513-.071.356-.022.714-.046,1.08-.074a43.7,43.7,0,0,0,7.618-1.225c.971-.26,1.954-.553,2.988-.919.417-.148.844-.31,1.286-.492.05-.019.1-.037.152-.059.4-.169.767-.306,1.179-.507l1.215-.585c.139-.065.284-.143.432-.223.269-.148.548-.31.817-.458l.421-.241.2-.121.154-.093.2-.126.421-.278a23.307,23.307,0,0,0,3.433-2.76,22.074,22.074,0,0,0,5.462-8.639,23.119,23.119,0,0,0,1.076-4.71A25.33,25.33,0,0,0,704.251,219.029Z" transform="translate(-607.131 -146.494)" fill="#314fa5"/>
            </g>
          </g>
          <g id="Grupo_139560" data-name="Grupo 139560" transform="translate(95.263 11.709)">
            <path id="Trazado_152513" data-name="Trazado 152513" d="M661.369,177.5c-7.745,1.526-15.821.3-22.308-5.039a20.455,20.455,0,0,1-7.071-19.657c.408.3.816.594,1.225.895a19.346,19.346,0,0,0,7.776,18.509c5.763,4.2,12.577,5.228,19.19,4.115C660.58,176.71,660.974,177.095,661.369,177.5Z" transform="translate(-631.588 -152.803)" fill="#5880eb"/>
          </g>
          <g id="Grupo_139561" data-name="Grupo 139561" transform="translate(86.581 42.889)">
            <path id="Trazado_152514" data-name="Trazado 152514" d="M673.214,171.44a42.365,42.365,0,0,1-7.795.724c-7.609.056-15.153-1.522-22.768-1.119a29.993,29.993,0,0,0-11.436,2.632,18.639,18.639,0,0,0-3.276,1.977c-.343-.312-.687-.618-1.03-.928a20.191,20.191,0,0,1,4.835-2.8c6.731-2.793,14.16-2.522,21.278-1.928,6.323.533,12.837,1.318,19.125.236C672.5,170.627,672.856,171.031,673.214,171.44Z" transform="translate(-626.91 -169.604)" fill="#5880eb"/>
          </g>
          <g id="Grupo_139562" data-name="Grupo 139562" transform="translate(132.505 53.457)">
            <path id="Trazado_152515" data-name="Trazado 152515" d="M653.051,201.989a49.364,49.364,0,0,0,2,13.238l-.421.241c-.269.148-.548.31-.817.458a50.607,50.607,0,0,1-2.149-13.938,51.907,51.907,0,0,1,7.155-26.691c.288.421.572.848.854,1.294A50.419,50.419,0,0,0,653.051,201.989Z" transform="translate(-651.655 -175.298)" fill="#5880eb"/>
          </g>
          <g id="Grupo_139563" data-name="Grupo 139563" transform="translate(112.185 73.626)">
            <path id="Trazado_152516" data-name="Trazado 152516" d="M660.2,208c-.442.182-.868.343-1.286.492-2.1-6.741-4.862-13.347-9.738-18.475-1.123-1.178-2.576-2.524-4.334-2.375-2.329.2-2.891,1.912-2.849,4a39.347,39.347,0,0,0,1.238,8.045,51.588,51.588,0,0,0,4,11.018c-.51.028-1.017.052-1.513.07a52.917,52.917,0,0,1-4.6-14.671c-.585-3.73-1.416-10.783,4.551-9.86,2.678.418,4.621,2.771,6.208,4.77a40.366,40.366,0,0,1,4.775,7.758A71.408,71.408,0,0,1,660.2,208Z" transform="translate(-640.706 -186.166)" fill="#5880eb"/>
          </g>
          <g id="Grupo_139564" data-name="Grupo 139564" transform="translate(59.405 76.309)">
            <path id="Trazado_152517" data-name="Trazado 152517" d="M650.665,207.652l-1.5-.306c-1.971-7.024-6.282-13.19-13.329-16.48a18.869,18.869,0,0,0-16.694-.019,18.094,18.094,0,0,0-5.558,4.482c-.436-.2-.872-.408-1.314-.622a20.124,20.124,0,0,1,22.155-5.92C643.154,191.942,648.466,199.263,650.665,207.652Z" transform="translate(-612.267 -187.612)" fill="#5880eb"/>
          </g>
          <g id="Grupo_139565" data-name="Grupo 139565" transform="translate(88.966 64.085)">
            <path id="Trazado_152518" data-name="Trazado 152518" d="M648.511,214.95c-.473-.041-.941-.083-1.4-.134a47.805,47.805,0,0,0-17.479-32.626q-.715-.585-1.433-1.166c.863.117,1.73.223,2.589.325h0c.627.514,1.249,1.045,1.852,1.587a48.372,48.372,0,0,1,8.194,9.693A49.742,49.742,0,0,1,648.511,214.95Z" transform="translate(-628.195 -181.025)" fill="#5880eb"/>
          </g>
          <g id="Grupo_139570" data-name="Grupo 139570" transform="translate(0 54.816)">
            <g id="Grupo_139566" data-name="Grupo 139566" transform="translate(21.35)">
              <path id="Trazado_152519" data-name="Trazado 152519" d="M626.161,183.2s-12.982-3.66-21.588-5.239c-5.924-1.088-10.53-3.086-12.566-1.065s9.252,7.045,10.265,7.49S626.161,183.2,626.161,183.2Z" transform="translate(-591.762 -176.031)" fill="#eaad8f"/>
            </g>
            <g id="Grupo_139569" data-name="Grupo 139569" transform="translate(0 6.633)">
              <g id="Grupo_139568" data-name="Grupo 139568">
                <g id="Grupo_139567" data-name="Grupo 139567">
                  <path id="Trazado_152520" data-name="Trazado 152520" d="M644.9,186.823c1.31,6.4-3.114,12.5-9.467,14.019a30,30,0,0,0-9.463,3.712c-6.021,4.122-10.63,12.063-16.072,13.587s-5.911-.1-3.261-4.2,8.44-11.12,8.44-11.12-10.285,6.924-12.935,11.028-7.023,4.573-6.739-.67,10.029-15.229,13.475-17.265c0,0-7.446,2.634-11.217,8.071s-5.668,8.673-8.09,9.821-4.263-3.4,1.2-10.855,9.272-11.26,13.323-13.231a49.008,49.008,0,0,0-9.4,1.971c-5.755,1.709-9.613,8.342-13.156,7.754-3.623-.6,1.16-8.047,5.633-10.972s7.477-5.434,14.188-6.72,13.167-2.285,17.369-2.092,19.236-1.078,23.915,2.782A7.491,7.491,0,0,1,644.9,186.823Z" transform="translate(-580.258 -179.605)" fill="#eaad8f"/>
                </g>
              </g>
            </g>
          </g>
          <g id="Grupo_139572" data-name="Grupo 139572" transform="translate(63.074 28.276)">
            <g id="Grupo_139571" data-name="Grupo 139571">
              <path id="Trazado_152521" data-name="Trazado 152521" d="M636.42,181.159a.737.737,0,0,1-1,.052c-.147-.121-14.843-12.29-20.956-18.219a.735.735,0,1,1,1.024-1.054c6.071,5.889,20.723,18.021,20.869,18.141a.736.736,0,0,1,.1,1.036Z" transform="translate(-614.244 -161.73)" fill="#1c2b74"/>
            </g>
          </g>
          <g id="Grupo_139574" data-name="Grupo 139574" transform="translate(60.953 31.93)">
            <g id="Grupo_139573" data-name="Grupo 139573">
              <path id="Trazado_152522" data-name="Trazado 152522" d="M620.246,164.879a.724.724,0,0,1-.568.289l-5.828.126a.735.735,0,0,1-.032-1.47l5.827-.126a.736.736,0,0,1,.75.72A.724.724,0,0,1,620.246,164.879Z" transform="translate(-613.101 -163.699)" fill="#1c2b74"/>
            </g>
          </g>
          <g id="Grupo_139579" data-name="Grupo 139579" transform="translate(105.888 60.342)">
            <g id="Grupo_139576" data-name="Grupo 139576" transform="translate(0 4.03)">
              <g id="Grupo_139575" data-name="Grupo 139575">
                <path id="Trazado_152523" data-name="Trazado 152523" d="M650.772,183.268a.734.734,0,0,1-.82.2c-4.473-1.739-11.672-.173-11.744-.156a.735.735,0,0,1-.319-1.435c.314-.07,7.713-1.678,12.594.219a.735.735,0,0,1,.29,1.167Z" transform="translate(-637.313 -181.179)" fill="#1c2b74"/>
              </g>
            </g>
            <g id="Grupo_139578" data-name="Grupo 139578" transform="translate(4.295)">
              <g id="Grupo_139577" data-name="Grupo 139577">
                <path id="Trazado_152524" data-name="Trazado 152524" d="M646.883,180.226a.739.739,0,0,1-.531.252c-.134.006-3.06.165-5.369,3.78a.736.736,0,0,1-1.24-.792c2.758-4.311,6.412-4.454,6.566-4.458a.734.734,0,0,1,.753.716A.726.726,0,0,1,646.883,180.226Z" transform="translate(-639.628 -179.008)" fill="#1c2b74"/>
              </g>
            </g>
          </g>
        </g>
      </g>
    </g>
  </g>
</svg>
