<svg xmlns="http://www.w3.org/2000/svg" width="265.694" height="254.872" viewBox="0 0 265.694 254.872">
  <g id="Grupo_138046" data-name="Grupo 138046" transform="translate(-1117.02 -4859.5)">
    <path id="Trazado_114225" data-name="Trazado 114225" d="M1688.79,562.666c-27.7,59.547-75.1,50.2-142.745,18.727s-105.26-59.371-77.558-118.917,110.236-128.191,177.878-96.722S1716.492,503.119,1688.79,562.666Z" transform="translate(-341.502 4507.123)" fill="none" stroke="#fff" stroke-miterlimit="10" stroke-width="2"/>
    <path id="Trazado_114226" data-name="Trazado 114226" d="M1475,515.642c0,65.675,46.919,77.191,121.524,77.191s120.481-9.43,120.481-75.105S1671.13,355,1596.524,355,1475,449.966,1475,515.642Z" transform="translate(-336.5 4505)" fill="#e6d3d9" stroke="rgba(0,0,0,0)" stroke-width="1"/>
    <path id="Trazado_114227" data-name="Trazado 114227" d="M1672.818,426.5c0,6.337,4.527,7.448,11.726,7.448s11.626-.91,11.626-7.247-4.427-15.7-11.626-15.7S1672.818,420.164,1672.818,426.5Z" transform="translate(-522.013 4507.415)" fill="#00cbae" stroke="rgba(0,0,0,0)" stroke-width="1"/>
    <path id="Trazado_114228" data-name="Trazado 114228" d="M1459.307,455.5c0,6.337,4.527,7.448,11.726,7.448s11.626-.91,11.626-7.247-4.427-15.7-11.626-15.7S1459.307,449.164,1459.307,455.5Z" transform="translate(-100.445 4518.666)" fill="#0d4aad" stroke="rgba(0,0,0,0)" stroke-width="1"/>
    <g id="Grupo_138045" data-name="Grupo 138045" transform="translate(798.204 4751.055)">
      <g id="Grupo_88854" data-name="Grupo 88854" transform="translate(346.888 137.893)">
        <g id="Grupo_88823" data-name="Grupo 88823" transform="translate(172.072 0)">
          <g id="Grupo_88822" data-name="Grupo 88822" transform="translate(0.534)">
            <path id="Trazado_121928" data-name="Trazado 121928" d="M363.845,185.857c.268-6.394,2.23-14.179,5.531-21.918s7.56-14.543,11.991-19.161c4.753-4.956,9.273-6.874,12.724-5.4s5.195,6.06,4.909,12.923c-.266,6.394-2.232,14.179-5.532,21.916s-7.558,14.543-11.99,19.163c-4.753,4.954-9.273,6.874-12.724,5.4S363.56,192.718,363.845,185.857Zm8.152-20.8c-6.807,15.96-6.583,29.2-2.126,31.1s14.169-7.1,20.977-23.062,6.583-29.2,2.126-31.1S378.805,149.1,372,165.058Z" transform="translate(-349.166 -138.893)" fill="#fff"/>
            <path id="Trazado_121929" data-name="Trazado 121929" d="M391.414,190.358c-5.633-3.04-11.771-8.215-17.281-14.57s-9.765-13.166-11.977-19.171c-2.372-6.445-2.119-11.349.716-13.807s7.727-2.015,13.767,1.246c5.633,3.042,11.771,8.215,17.281,14.572s9.765,13.164,11.977,19.17c2.372,6.445,2.119,11.347-.716,13.805-2.415,2.094-6.317,2.083-11.155.02Q392.76,191.085,391.414,190.358Zm-26.674-45.394c-1.849,1.6-1.817,5.491.09,10.668,2.1,5.692,6.164,12.187,11.456,18.289s11.144,11.051,16.481,13.931c4.855,2.62,8.7,3.2,10.548,1.6,3.663-3.176-.18-15.848-11.546-28.959-5.29-6.1-11.144-11.049-16.481-13.929q-1.266-.684-2.433-1.181C369.156,143.808,366.265,143.641,364.739,144.964Z" transform="translate(-351.769 -137.023)" fill="#fff"/>
            <path id="Trazado_121930" data-name="Trazado 121930" d="M355.664,163.163c-.189-3.748,3.175-7.325,9.469-10.072,5.865-2.562,13.722-4.2,22.126-4.626s16.384.426,22.476,2.386c6.54,2.1,10.242,5.326,10.429,9.073S416.99,167.252,410.7,170c-5.865,2.561-13.722,4.2-22.126,4.626s-16.384-.427-22.476-2.386q-1.457-.471-2.722-1.011C358.534,169.166,355.824,166.354,355.664,163.163Zm53.2-9.6c-5.773-1.859-13.4-2.659-21.462-2.254s-15.57,1.963-21.129,4.39c-5.055,2.207-7.885,4.875-7.763,7.319s3.205,4.814,8.458,6.5c5.773,1.858,13.4,2.658,21.462,2.254,17.328-.869,29.135-6.868,28.892-11.71-.1-2.018-2.225-3.988-5.92-5.565Q410.233,154.006,408.863,153.566Z" transform="translate(-355.657 -131.36)" fill="#fff"/>
          </g>
          <path id="Trazado_121931" data-name="Trazado 121931" d="M370.249,156.062a7.08,7.08,0,1,0,9.289-3.735A7.079,7.079,0,0,0,370.249,156.062Z" transform="translate(-343.974 -128.657)" fill="#fff"/>
          <path id="Trazado_121932" data-name="Trazado 121932" d="M362.568,143.111a4.16,4.16,0,1,0,5.459-2.194A4.16,4.16,0,0,0,362.568,143.111Z" transform="translate(-317.317 -137.549)" fill="#fff"/>
          <path id="Trazado_121933" data-name="Trazado 121933" d="M387.582,154.47a4.16,4.16,0,1,0,5.459-2.194A4.16,4.16,0,0,0,387.582,154.47Z" transform="translate(-387.248 -128.51)" fill="#fff"/>
          <path id="Trazado_121934" data-name="Trazado 121934" d="M359.827,163.471a4.16,4.16,0,1,0,5.459-2.194A4.16,4.16,0,0,0,359.827,163.471Z" transform="translate(-309.654 -121.35)" fill="#fff"/>
        </g>
        <g id="Grupo_88825" data-name="Grupo 88825" transform="translate(0 71.651)">
          <g id="Grupo_88824" data-name="Grupo 88824" transform="translate(0.227)">
            <path id="Trazado_121935" data-name="Trazado 121935" d="M637.528,252.553a31.015,31.015,0,0,1,7.466-17.5c2.026-2.111,3.951-2.929,5.422-2.3s2.213,2.583,2.091,5.506a31,31,0,0,1-7.465,17.5c-2.026,2.112-3.952,2.929-5.422,2.3S637.406,255.477,637.528,252.553ZM641,243.692c-2.9,6.8-2.8,12.441-.905,13.251s6.036-3.026,8.937-9.826,2.806-12.441.906-13.251S643.9,236.892,641,243.692Z" transform="translate(-631.273 -232.543)" fill="#fff"/>
            <path id="Trazado_121936" data-name="Trazado 121936" d="M647.4,255.821a31,31,0,0,1-12.466-14.377c-1.011-2.746-.9-4.835.305-5.882s3.291-.859,5.866.531a31,31,0,0,1,12.466,14.376c1.011,2.746.9,4.835-.305,5.883-1.028.892-2.692.888-4.753.008Q647.97,256.129,647.4,255.821ZM636.03,236.479c-.788.682-.773,2.34.039,4.545a29.814,29.814,0,0,0,11.9,13.727c2.069,1.117,3.706,1.366,4.494.682,1.56-1.353-.077-6.753-4.919-12.338a26.653,26.653,0,0,0-7.023-5.936q-.539-.29-1.037-.5C637.912,235.986,636.681,235.914,636.03,236.479Z" transform="translate(-630.504 -233.095)" fill="#fff"/>
            <path id="Trazado_121937" data-name="Trazado 121937" d="M629.359,248.318c-.08-1.6,1.353-3.122,4.034-4.292a31,31,0,0,1,19-.953c2.786.9,4.363,2.269,4.444,3.866s-1.353,3.121-4.034,4.291a31.009,31.009,0,0,1-19,.954q-.621-.2-1.16-.43C630.582,250.875,629.427,249.678,629.359,248.318Zm22.667-4.09a29.828,29.828,0,0,0-18.147.91c-2.155.941-3.36,2.077-3.307,3.119s1.366,2.051,3.6,2.771a26.614,26.614,0,0,0,9.144.96c7.384-.37,12.414-2.926,12.31-4.988-.044-.861-.947-1.7-2.523-2.372Q652.61,244.416,652.026,244.228Z" transform="translate(-629.356 -234.767)" fill="#fff"/>
          </g>
          <path id="Trazado_121938" data-name="Trazado 121938" d="M643.622,247.242a3.017,3.017,0,1,0,3.959-1.591A3.017,3.017,0,0,0,643.622,247.242Z" transform="translate(-632.427 -235.565)" fill="#fff"/>
          <path id="Trazado_121939" data-name="Trazado 121939" d="M636.076,235.31a1.772,1.772,0,1,0,2.325-.936A1.772,1.772,0,0,0,636.076,235.31Z" transform="translate(-616.795 -232.94)" fill="#fff"/>
          <path id="Trazado_121940" data-name="Trazado 121940" d="M661.09,246.67a1.772,1.772,0,1,0,2.326-.935A1.773,1.773,0,0,0,661.09,246.67Z" transform="translate(-660.948 -235.608)" fill="#fff"/>
          <path id="Trazado_121941" data-name="Trazado 121941" d="M633.335,255.669a1.772,1.772,0,1,0,2.325-.934A1.773,1.773,0,0,0,633.335,255.669Z" transform="translate(-611.957 -237.723)" fill="#fff"/>
        </g>
        <g id="Grupo_88839" data-name="Grupo 88839" transform="translate(212.364 49.973)">
          <g id="Grupo_88827" data-name="Grupo 88827" transform="translate(0 13.277)">
            <g id="Grupo_88826" data-name="Grupo 88826">
              <path id="Trazado_121942" data-name="Trazado 121942" d="M378.189,225.322a3.759,3.759,0,1,0,3.759-3.759A3.763,3.763,0,0,0,378.189,225.322Zm1.253,0a2.506,2.506,0,1,1,2.506,2.506A2.509,2.509,0,0,1,379.442,225.322Z" transform="translate(-378.189 -221.563)" fill="#fff"/>
            </g>
          </g>
          <g id="Grupo_88838" data-name="Grupo 88838" transform="translate(8.201)">
            <g id="Grupo_88832" data-name="Grupo 88832" transform="translate(4.679)">
              <g id="Grupo_88829" data-name="Grupo 88829" transform="translate(0 6.07)">
                <g id="Grupo_88828" data-name="Grupo 88828">
                  <path id="Trazado_121943" data-name="Trazado 121943" d="M370.28,212.143a.558.558,0,0,1,.558.559v3.288a.558.558,0,0,1-1.116,0V212.7A.559.559,0,0,1,370.28,212.143Z" transform="translate(-369.721 -212.143)" fill="#fff"/>
                </g>
              </g>
              <g id="Grupo_88831" data-name="Grupo 88831" transform="translate(0)">
                <g id="Grupo_88830" data-name="Grupo 88830">
                  <path id="Trazado_121944" data-name="Trazado 121944" d="M370.28,204.209a.558.558,0,0,1,.558.559v3.288a.558.558,0,0,1-1.116,0v-3.288A.559.559,0,0,1,370.28,204.209Z" transform="translate(-369.721 -204.209)" fill="#fff"/>
                </g>
              </g>
            </g>
            <g id="Grupo_88837" data-name="Grupo 88837" transform="translate(0 4.679)">
              <g id="Grupo_88834" data-name="Grupo 88834" transform="translate(6.07)">
                <g id="Grupo_88833" data-name="Grupo 88833">
                  <path id="Trazado_121945" data-name="Trazado 121945" d="M364.164,210.325h3.288a.559.559,0,0,1,0,1.117h-3.288a.559.559,0,1,1,0-1.117Z" transform="translate(-363.605 -210.325)" fill="#fff"/>
                </g>
              </g>
              <g id="Grupo_88836" data-name="Grupo 88836" transform="translate(0)">
                <g id="Grupo_88835" data-name="Grupo 88835">
                  <path id="Trazado_121946" data-name="Trazado 121946" d="M372.1,210.325h3.288a.559.559,0,1,1,0,1.117H372.1a.559.559,0,0,1,0-1.117Z" transform="translate(-371.539 -210.325)" fill="#fff"/>
                </g>
              </g>
            </g>
          </g>
        </g>
        <g id="Grupo_88853" data-name="Grupo 88853" transform="translate(73.247 2.197)">
          <g id="Grupo_88841" data-name="Grupo 88841" transform="translate(15.01)">
            <g id="Grupo_88840" data-name="Grupo 88840">
              <path id="Trazado_121947" data-name="Trazado 121947" d="M547.919,145.524a3.759,3.759,0,1,0-3.759,3.759A3.763,3.763,0,0,0,547.919,145.524Zm-1.253,0a2.506,2.506,0,1,1-2.506-2.506A2.508,2.508,0,0,1,546.666,145.524Z" transform="translate(-540.401 -141.765)" fill="#fff"/>
            </g>
          </g>
          <g id="Grupo_88852" data-name="Grupo 88852" transform="translate(0 6.794)">
            <g id="Grupo_88846" data-name="Grupo 88846" transform="translate(4.679)">
              <g id="Grupo_88843" data-name="Grupo 88843">
                <g id="Grupo_88842" data-name="Grupo 88842">
                  <path id="Trazado_121948" data-name="Trazado 121948" d="M562.828,155.05a.559.559,0,0,1-.558-.559V151.2a.559.559,0,0,1,1.117,0v3.288A.559.559,0,0,1,562.828,155.05Z" transform="translate(-562.27 -150.645)" fill="#fff"/>
                </g>
              </g>
              <g id="Grupo_88845" data-name="Grupo 88845" transform="translate(0 6.07)">
                <g id="Grupo_88844" data-name="Grupo 88844">
                  <path id="Trazado_121949" data-name="Trazado 121949" d="M562.828,162.984a.559.559,0,0,1-.558-.559v-3.288a.559.559,0,0,1,1.117,0v3.288A.559.559,0,0,1,562.828,162.984Z" transform="translate(-562.27 -158.579)" fill="#fff"/>
                </g>
              </g>
            </g>
            <g id="Grupo_88851" data-name="Grupo 88851" transform="translate(0 4.679)">
              <g id="Grupo_88848" data-name="Grupo 88848">
                <g id="Grupo_88847" data-name="Grupo 88847">
                  <path id="Trazado_121950" data-name="Trazado 121950" d="M567.936,157.877h-3.288a.559.559,0,1,1,0-1.117h3.288a.559.559,0,0,1,0,1.117Z" transform="translate(-564.089 -156.76)" fill="#fff"/>
                </g>
              </g>
              <g id="Grupo_88850" data-name="Grupo 88850" transform="translate(6.07)">
                <g id="Grupo_88849" data-name="Grupo 88849">
                  <path id="Trazado_121951" data-name="Trazado 121951" d="M560,157.877h-3.288a.559.559,0,0,1,0-1.117H560a.559.559,0,0,1,0,1.117Z" transform="translate(-556.155 -156.76)" fill="#fff"/>
                </g>
              </g>
            </g>
          </g>
        </g>
      </g>
      <g id="Grupo_88892" data-name="Grupo 88892" transform="translate(348.888 118.862)">
        <ellipse id="Elipse_4747" data-name="Elipse 4747" cx="87.115" cy="11.33" rx="87.115" ry="11.33" transform="translate(5.931 192.912)" fill="#dbd2c4"/>
        <g id="Grupo_88891" data-name="Grupo 88891" transform="translate(0 0)">
          <g id="Grupo_88860" data-name="Grupo 88860" transform="translate(36.409 13.295)">
            <g id="Grupo_88858" data-name="Grupo 88858">
              <rect id="Rectángulo_35575" data-name="Rectángulo 35575" width="26.177" height="40.337" rx="7.685" fill="#2a4351"/>
            </g>
            <g id="Grupo_88859" data-name="Grupo 88859" transform="translate(86.508)">
              <rect id="Rectángulo_35576" data-name="Rectángulo 35576" width="26.177" height="40.337" rx="7.685" fill="#2a4351"/>
            </g>
          </g>
          <g id="Grupo_88861" data-name="Grupo 88861" transform="translate(24.021 16.986)">
            <path id="Rectángulo_35577" data-name="Rectángulo 35577" d="M37.527,0h62.41a37.527,37.527,0,0,1,37.527,37.527V176.452a14.787,14.787,0,0,1-14.787,14.787H14.787A14.787,14.787,0,0,1,0,176.452V37.527A37.527,37.527,0,0,1,37.527,0Z" fill="#416675"/>
          </g>
          <g id="Grupo_88865" data-name="Grupo 88865" transform="translate(29.349 22.7)">
            <g id="Grupo_88862" data-name="Grupo 88862" transform="translate(124.598 42.688)">
              <path id="Trazado_121958" data-name="Trazado 121958" d="M566.164,213.887a1.073,1.073,0,0,1-1.073-1.066c0-.7-.024-1.4-.061-2.1a1.073,1.073,0,0,1,2.143-.112c.038.727.06,1.466.064,2.2a1.074,1.074,0,0,1-1.067,1.079Z" transform="translate(-565.029 -209.597)" fill="#2a4351"/>
            </g>
            <g id="Grupo_88863" data-name="Grupo 88863" transform="translate(0.326)">
              <path id="Trazado_121959" data-name="Trazado 121959" d="M573.907,211.51a1.073,1.073,0,0,1-1.064-.945c-.166-1.386-.4-2.779-.7-4.141a1.073,1.073,0,0,1,2.1-.458c.311,1.428.558,2.89.731,4.343a1.073,1.073,0,0,1-.938,1.193C573.993,211.507,573.95,211.51,573.907,211.51ZM449.9,211.469a1.071,1.071,0,0,1-1.066-1.2c.175-1.454.424-2.915.736-4.343a1.073,1.073,0,0,1,2.1.459c-.3,1.361-.535,2.755-.7,4.141A1.073,1.073,0,0,1,449.9,211.469Zm122.558-7.121a1.074,1.074,0,0,1-1.031-.774c-.388-1.341-.846-2.678-1.361-3.973a1.073,1.073,0,0,1,1.995-.792c.54,1.358,1.02,2.761,1.429,4.169a1.073,1.073,0,0,1-.733,1.328A1.031,1.031,0,0,1,572.454,204.348Zm-121.1-.038a1.074,1.074,0,0,1-1.031-1.372c.409-1.4.89-2.806,1.432-4.166a1.073,1.073,0,0,1,1.993.794c-.516,1.3-.975,2.633-1.365,3.971A1.073,1.073,0,0,1,451.357,204.31Zm118.5-6.8a1.071,1.071,0,0,1-.969-.611c-.6-1.257-1.269-2.5-1.99-3.7a1.073,1.073,0,0,1,1.841-1.1c.754,1.257,1.457,2.562,2.085,3.881a1.072,1.072,0,0,1-.506,1.43A1.058,1.058,0,0,1,569.853,197.515Zm-115.892-.03a1.072,1.072,0,0,1-.967-1.536c.632-1.321,1.335-2.625,2.089-3.879a1.073,1.073,0,0,1,1.838,1.107c-.719,1.195-1.389,2.438-1.992,3.7A1.071,1.071,0,0,1,453.961,197.485ZM566.177,191.2a1.072,1.072,0,0,1-.881-.46c-.8-1.145-1.659-2.265-2.561-3.33a1.073,1.073,0,0,1,1.637-1.387c.946,1.116,1.849,2.291,2.684,3.492a1.073,1.073,0,0,1-.879,1.685Zm-108.539-.025a1.072,1.072,0,0,1-.879-1.686c.836-1.2,1.74-2.374,2.686-3.489a1.073,1.073,0,1,1,1.636,1.388c-.9,1.063-1.765,2.184-2.562,3.328A1.071,1.071,0,0,1,457.638,191.171Zm103.893-5.62a1.068,1.068,0,0,1-.77-.326c-.97-1-2-1.969-3.063-2.875a1.073,1.073,0,0,1,1.393-1.633c1.113.951,2.193,1.964,3.21,3.015a1.073,1.073,0,0,1-.771,1.819Zm-99.244-.02a1.073,1.073,0,0,1-.771-1.819c1.019-1.05,2.1-2.064,3.213-3.014a1.073,1.073,0,0,1,1.392,1.633c-1.062.906-2.093,1.873-3.064,2.873A1.071,1.071,0,0,1,462.287,185.531Zm93.754-4.8a1.075,1.075,0,0,1-.641-.212c-1.12-.834-2.292-1.623-3.484-2.346a1.073,1.073,0,0,1,1.113-1.834c1.25.757,2.479,1.585,3.653,2.459a1.073,1.073,0,0,1-.642,1.933Zm-88.258-.018a1.072,1.072,0,0,1-.641-1.933c1.174-.874,2.4-1.7,3.655-2.457a1.073,1.073,0,1,1,1.111,1.836c-1.193.722-2.365,1.51-3.487,2.343A1.061,1.061,0,0,1,467.783,180.71Zm82.064-3.857a1.074,1.074,0,0,1-.493-.12c-1.237-.642-2.522-1.231-3.817-1.751a1.073,1.073,0,0,1,.8-1.991c1.357.545,2.7,1.164,4,1.836a1.073,1.073,0,0,1-.494,2.025Zm-75.863-.016a1.073,1.073,0,0,1-.493-2.025c1.3-.672,2.647-1.289,4-1.834a1.073,1.073,0,1,1,.8,1.991c-1.3.52-2.579,1.108-3.818,1.748A1.073,1.073,0,0,1,473.983,176.837Zm69.126-2.8a1.059,1.059,0,0,1-.332-.053c-1.325-.431-2.687-.8-4.051-1.107a1.073,1.073,0,1,1,.466-2.094c1.43.318,2.86.708,4.249,1.161a1.073,1.073,0,0,1-.333,2.093Zm-62.38-.014a1.073,1.073,0,0,1-.33-2.093c1.39-.451,2.82-.841,4.251-1.157a1.073,1.073,0,0,1,.463,2.1c-1.363.3-2.727.673-4.051,1.1A1.053,1.053,0,0,1,480.73,174.019ZM536,172.344a1.218,1.218,0,0,1-.164-.012c-1.375-.211-2.78-.357-4.177-.436a1.073,1.073,0,1,1,.122-2.142c1.463.082,2.937.236,4.379.457a1.073,1.073,0,0,1-.16,2.133Zm-48.161-.006a1.073,1.073,0,0,1-.159-2.133c1.441-.219,2.915-.371,4.38-.452a1.073,1.073,0,1,1,.119,2.142c-1.4.078-2.8.222-4.177.432A1.036,1.036,0,0,1,487.84,172.338Zm40.869-.513H524.4a1.073,1.073,0,1,1,0-2.145h4.305a1.073,1.073,0,1,1,0,2.145Zm-7.319,0h-4.3a1.073,1.073,0,1,1,0-2.145h4.3a1.073,1.073,0,0,1,0,2.145Zm-7.318,0h-4.3a1.073,1.073,0,1,1,0-2.145h4.3a1.073,1.073,0,1,1,0,2.145Zm-7.318,0h-4.3a1.073,1.073,0,0,1,0-2.145h4.3a1.073,1.073,0,1,1,0,2.145Zm-7.318,0h-4.305a1.073,1.073,0,1,1,0-2.145h4.305a1.073,1.073,0,1,1,0,2.145Z" transform="translate(-448.822 -169.679)" fill="#2a4351"/>
            </g>
            <g id="Grupo_88864" data-name="Grupo 88864" transform="translate(0 42.688)">
              <path id="Trazado_121960" data-name="Trazado 121960" d="M449.59,213.887h-.006a1.073,1.073,0,0,1-1.066-1.079c0-.729.026-1.468.064-2.2a1.072,1.072,0,0,1,2.142.112c-.035.694-.057,1.4-.06,2.1A1.074,1.074,0,0,1,449.59,213.887Z" transform="translate(-448.517 -209.597)" fill="#2a4351"/>
            </g>
          </g>
          <g id="Grupo_88867" data-name="Grupo 88867" transform="translate(64.679)">
            <g id="Grupo_88866" data-name="Grupo 88866">
              <path id="Trazado_121961" data-name="Trazado 121961" d="M490.391,168.448a21.546,21.546,0,0,1,38.474,0,10.239,10.239,0,0,0,8.837,0,29.705,29.705,0,0,0-56.147,0A10.246,10.246,0,0,0,490.391,168.448Z" transform="translate(-481.554 -148.452)" fill="#e6972d"/>
            </g>
          </g>
          <g id="Grupo_88870" data-name="Grupo 88870" transform="translate(84.456 24.783)">
            <g id="Grupo_88868" data-name="Grupo 88868" transform="translate(1.584)">
              <rect id="Rectángulo_35578" data-name="Rectángulo 35578" width="1.195" height="11.107" fill="#352a24"/>
            </g>
            <g id="Grupo_88869" data-name="Grupo 88869" transform="translate(0 9.963)">
              <rect id="Rectángulo_35579" data-name="Rectángulo 35579" width="4.363" height="11.444" rx="1.167" fill="#352a24"/>
            </g>
          </g>
          <g id="Grupo_88873" data-name="Grupo 88873" transform="translate(96.686 24.783)">
            <g id="Grupo_88871" data-name="Grupo 88871" transform="translate(1.584)">
              <rect id="Rectángulo_35580" data-name="Rectángulo 35580" width="1.195" height="11.107" fill="#352a24"/>
            </g>
            <g id="Grupo_88872" data-name="Grupo 88872" transform="translate(0 9.963)">
              <rect id="Rectángulo_35581" data-name="Rectángulo 35581" width="4.363" height="11.444" rx="1.167" fill="#352a24"/>
            </g>
          </g>
          <g id="Grupo_88877" data-name="Grupo 88877" transform="translate(36.409 108.468)">
            <g id="Grupo_88874" data-name="Grupo 88874" transform="translate(2.058 0.556)">
              <rect id="Rectángulo_35582" data-name="Rectángulo 35582" width="108.572" height="80.609" rx="8.628" fill="#2a4351"/>
            </g>
            <g id="Grupo_88875" data-name="Grupo 88875" transform="translate(2.058 23.086)" opacity="0.3" style="mix-blend-mode: multiply;isolation: isolate">
              <rect id="Rectángulo_35583" data-name="Rectángulo 35583" width="108.572" height="11.458" fill="#2a4351"/>
            </g>
            <g id="Grupo_88876" data-name="Grupo 88876">
              <path id="Rectángulo_35584" data-name="Rectángulo 35584" d="M7.068,0h98.549a7.068,7.068,0,0,1,7.068,7.068v16.6a2.762,2.762,0,0,1-2.762,2.762H2.762A2.762,2.762,0,0,1,0,23.664V7.068A7.068,7.068,0,0,1,7.068,0Z" fill="#e6972d"/>
            </g>
          </g>
          <g id="Grupo_88878" data-name="Grupo 88878" transform="translate(38.508 60.79)">
            <rect id="Rectángulo_35585" data-name="Rectángulo 35585" width="108.489" height="8.982" rx="2.402" fill="#e6972d"/>
          </g>
          <g id="Grupo_88879" data-name="Grupo 88879" transform="translate(42.676 64.208)">
            <path id="Trazado_121962" data-name="Trazado 121962" d="M561.182,210.638h-4.292a1.073,1.073,0,0,1,0-2.145h4.292a1.073,1.073,0,1,1,0,2.145Zm-7.3,0H549.6a1.073,1.073,0,1,1,0-2.145h4.291a1.073,1.073,0,1,1,0,2.145Zm-7.294,0H542.3a1.073,1.073,0,1,1,0-2.145h4.292a1.073,1.073,0,0,1,0,2.145Zm-7.3,0h-4.292a1.073,1.073,0,0,1,0-2.145H539.3a1.073,1.073,0,0,1,0,2.145Zm-7.3,0H527.71a1.073,1.073,0,1,1,0-2.145H532a1.073,1.073,0,0,1,0,2.145Zm-7.3,0h-4.292a1.073,1.073,0,0,1,0-2.145h4.292a1.073,1.073,0,0,1,0,2.145Zm-7.3,0h-4.292a1.073,1.073,0,0,1,0-2.145h4.292a1.073,1.073,0,0,1,0,2.145Zm-7.3,0h-4.292a1.073,1.073,0,1,1,0-2.145h4.292a1.073,1.073,0,0,1,0,2.145Zm-7.3,0h-4.29a1.073,1.073,0,1,1,0-2.145h4.29a1.073,1.073,0,1,1,0,2.145Zm-7.294,0h-4.292a1.073,1.073,0,1,1,0-2.145h4.292a1.073,1.073,0,0,1,0,2.145Zm-7.3,0h-4.292a1.073,1.073,0,1,1,0-2.145h4.292a1.073,1.073,0,0,1,0,2.145Zm-7.3,0h-4.292a1.073,1.073,0,0,1,0-2.145h4.292a1.073,1.073,0,0,1,0,2.145Zm-7.3,0h-4.292a1.073,1.073,0,0,1,0-2.145h4.292a1.073,1.073,0,0,1,0,2.145Zm-7.3,0h-4.292a1.073,1.073,0,0,1,0-2.145h4.292a1.073,1.073,0,0,1,0,2.145Z" transform="translate(-460.979 -208.493)" fill="#c36a25"/>
          </g>
          <g id="Grupo_88880" data-name="Grupo 88880" transform="translate(42.676 114.24)">
            <path id="Trazado_121963" data-name="Trazado 121963" d="M561.182,257.423h-4.292a1.073,1.073,0,1,1,0-2.145h4.292a1.073,1.073,0,1,1,0,2.145Zm-7.3,0H549.6a1.073,1.073,0,1,1,0-2.145h4.291a1.073,1.073,0,1,1,0,2.145Zm-7.294,0H542.3a1.073,1.073,0,1,1,0-2.145h4.292a1.073,1.073,0,1,1,0,2.145Zm-7.3,0h-4.292a1.073,1.073,0,1,1,0-2.145H539.3a1.073,1.073,0,0,1,0,2.145Zm-7.3,0H527.71a1.073,1.073,0,1,1,0-2.145H532a1.073,1.073,0,0,1,0,2.145Zm-7.3,0h-4.292a1.073,1.073,0,1,1,0-2.145h4.292a1.073,1.073,0,1,1,0,2.145Zm-7.3,0h-4.292a1.073,1.073,0,1,1,0-2.145h4.292a1.073,1.073,0,1,1,0,2.145Zm-7.3,0h-4.292a1.073,1.073,0,1,1,0-2.145h4.292a1.073,1.073,0,1,1,0,2.145Zm-7.3,0h-4.29a1.073,1.073,0,1,1,0-2.145h4.29a1.073,1.073,0,1,1,0,2.145Zm-7.294,0h-4.292a1.073,1.073,0,1,1,0-2.145h4.292a1.073,1.073,0,1,1,0,2.145Zm-7.3,0h-4.292a1.073,1.073,0,1,1,0-2.145h4.292a1.073,1.073,0,1,1,0,2.145Zm-7.3,0h-4.292a1.073,1.073,0,1,1,0-2.145h4.292a1.073,1.073,0,1,1,0,2.145Zm-7.3,0h-4.292a1.073,1.073,0,0,1,0-2.145h4.292a1.073,1.073,0,0,1,0,2.145Zm-7.3,0h-4.292a1.073,1.073,0,1,1,0-2.145h4.292a1.073,1.073,0,0,1,0,2.145Z" transform="translate(-460.979 -255.278)" fill="#c36a25"/>
          </g>
          <g id="Grupo_88881" data-name="Grupo 88881" transform="translate(95.033 78.258)">
            <path id="Trazado_121964" data-name="Trazado 121964" d="M509.938,221.631v24.952l12.476-12.476Z" transform="translate(-509.938 -221.631)" fill="#2a4351"/>
          </g>
          <g id="Grupo_88882" data-name="Grupo 88882" transform="translate(79.834 78.258)">
            <path id="Trazado_121965" data-name="Trazado 121965" d="M508.2,221.631v24.952l-12.476-12.476Z" transform="translate(-495.725 -221.631)" fill="#2a4351"/>
          </g>
          <g id="Grupo_88886" data-name="Grupo 88886" transform="translate(161.483 116.385)">
            <g id="Grupo_88883" data-name="Grupo 88883" transform="translate(0 0.002)">
              <path id="Trazado_121966" data-name="Trazado 121966" d="M572.076,257.286v65.882A20.468,20.468,0,0,0,592.547,302.7V277.755A20.467,20.467,0,0,0,572.076,257.286Z" transform="translate(-572.076 -257.286)" fill="#2a4351"/>
            </g>
            <path id="Trazado_121967" data-name="Trazado 121967" d="M572.077,279.744v41.863a20.377,20.377,0,0,0,7.257-1.326V279.746h-7.256" transform="translate(-572.076 -255.725)" fill="#2a4351"/>
            <g id="Grupo_88884" data-name="Grupo 88884" transform="translate(0.002 0.002)">
              <path id="Rectángulo_35586" data-name="Rectángulo 35586" d="M0,0H24.019a0,0,0,0,1,0,0V24.019a0,0,0,0,1,0,0H12.849A12.849,12.849,0,0,1,0,11.17V0A0,0,0,0,1,0,0Z" transform="translate(24.019 24.019) rotate(180)" fill="#e6972d"/>
            </g>
            <path id="Trazado_121968" data-name="Trazado 121968" d="M579.334,257.305v24h-7.257V257.284h6.467C578.806,257.284,579.072,257.293,579.334,257.305Z" transform="translate(-572.076 -257.284)" fill="#c36a25"/>
            <g id="Grupo_88885" data-name="Grupo 88885" transform="translate(0 24.021)" opacity="0.3" style="mix-blend-mode: multiply;isolation: isolate">
              <rect id="Rectángulo_35587" data-name="Rectángulo 35587" width="20.47" height="6.038" fill="#2a4351"/>
            </g>
          </g>
          <g id="Grupo_88890" data-name="Grupo 88890" transform="translate(0 116.385)">
            <g id="Grupo_88887" data-name="Grupo 88887" transform="translate(3.551 0.002)">
              <path id="Trazado_121969" data-name="Trazado 121969" d="M444.862,257.286v65.882A20.467,20.467,0,0,1,424.393,302.7V277.755A20.467,20.467,0,0,1,444.862,257.286Z" transform="translate(-424.393 -257.286)" fill="#2a4351"/>
            </g>
            <path id="Trazado_121970" data-name="Trazado 121970" d="M444,279.744v41.863a20.372,20.372,0,0,1-7.257-1.326V279.746H444" transform="translate(-419.985 -255.725)" fill="#2a4351"/>
            <g id="Grupo_88888" data-name="Grupo 88888" transform="translate(0 0.002)">
              <path id="Rectángulo_35588" data-name="Rectángulo 35588" d="M12.849,0h11.17a0,0,0,0,1,0,0V24.019a0,0,0,0,1,0,0H0a0,0,0,0,1,0,0V12.849A12.849,12.849,0,0,1,12.849,0Z" fill="#e6972d"/>
            </g>
            <path id="Trazado_121971" data-name="Trazado 121971" d="M436.748,257.305v24H444V257.284h-6.467C437.276,257.284,437.01,257.293,436.748,257.305Z" transform="translate(-419.985 -257.284)" fill="#c36a25"/>
            <g id="Grupo_88889" data-name="Grupo 88889" transform="translate(3.551 24.021)" opacity="0.3" style="mix-blend-mode: multiply;isolation: isolate">
              <rect id="Rectángulo_35589" data-name="Rectángulo 35589" width="20.47" height="6.038" fill="#2a4351"/>
            </g>
          </g>
        </g>
      </g>
      <g id="Grupo_88925" data-name="Grupo 88925" transform="translate(435.789 229.649)">
        <g id="Grupo_88924" data-name="Grupo 88924" transform="translate(0)">
          <path id="Trazado_121972" data-name="Trazado 121972" d="M667.749,360.264l-15.11,19.828a16.776,16.776,0,0,1-13.344,6.609H533.284L564.9,351.35l95.519-.738-5.9,8.571Z" transform="translate(-533.284 -284.846)" fill="#dbd2c4"/>
          <g id="Grupo_88923" data-name="Grupo 88923" transform="translate(18.177)">
            <g id="Grupo_88902" data-name="Grupo 88902" transform="translate(0.001 51.872)">
              <g id="Grupo_88893" data-name="Grupo 88893" transform="translate(0.001)">
                <path id="Trazado_121973" data-name="Trazado 121973" d="M665.155,351.532c-1.384,5.1-17.832,22.164-21.353,25.774a13.216,13.216,0,0,1-10,5.062c-.064.006-.129.009-.195.009H552.694a1.878,1.878,0,1,1,0-3.756H633.4a9.469,9.469,0,0,0,0-18.939H552.694a1.879,1.879,0,1,1,0-3.757h.117l-.315-.639,33.87-18.072h68.007S668.584,338.9,665.155,351.532Z" transform="translate(-550.814 -337.214)" fill="#e6972d"/>
              </g>
              <path id="Trazado_121974" data-name="Trazado 121974" d="M642.588,364.274c-.035-.078-.074-.152-.112-.228a9.469,9.469,0,0,0-8.126-5.1q-.468-.047-.947-.047H552.694a1.882,1.882,0,0,1-1.881-1.8H633.4A9.488,9.488,0,0,1,642.588,364.274Z" transform="translate(-550.813 -336.478)" opacity="0.2"/>
              <g id="Grupo_88894" data-name="Grupo 88894" transform="translate(1.88 22.468)">
                <path id="Trazado_121975" data-name="Trazado 121975" d="M634.007,377.818H552.626V358.88h81.381a9.47,9.47,0,0,1,8.4,5.1h0a9.471,9.471,0,0,1,0,8.738h0A9.47,9.47,0,0,1,634.007,377.818Z" transform="translate(-552.626 -358.88)" fill="#f0eae0"/>
              </g>
              <g id="Grupo_88901" data-name="Grupo 88901" transform="translate(1.88 26.929)">
                <g id="Grupo_88896" data-name="Grupo 88896">
                  <g id="Grupo_88895" data-name="Grupo 88895">
                    <path id="Trazado_121976" data-name="Trazado 121976" d="M552.626,364.445h80.363a.632.632,0,1,0,0-1.263H552.626Z" transform="translate(-552.626 -363.182)" fill="#b2a495"/>
                  </g>
                </g>
                <g id="Grupo_88898" data-name="Grupo 88898" transform="translate(0 4.376)">
                  <g id="Grupo_88897" data-name="Grupo 88897">
                    <path id="Trazado_121977" data-name="Trazado 121977" d="M552.626,368.665h80.363a.632.632,0,1,0,0-1.263H552.626Z" transform="translate(-552.626 -367.402)" fill="#b2a495"/>
                  </g>
                </g>
                <g id="Grupo_88900" data-name="Grupo 88900" transform="translate(0 8.752)">
                  <g id="Grupo_88899" data-name="Grupo 88899">
                    <path id="Trazado_121978" data-name="Trazado 121978" d="M552.626,372.886h80.363a.632.632,0,1,0,0-1.264H552.626Z" transform="translate(-552.626 -371.622)" fill="#b2a495"/>
                  </g>
                </g>
              </g>
            </g>
            <g id="Grupo_88912" data-name="Grupo 88912" transform="translate(0.001 25.265)">
              <g id="Grupo_88903" data-name="Grupo 88903" transform="translate(0.001)">
                <path id="Trazado_121979" data-name="Trazado 121979" d="M665.352,325.873c-1.453,5.346-19.466,23.853-21.769,26.2a13.215,13.215,0,0,1-9.779,4.788,1.726,1.726,0,0,1-.195.01H552.694a1.878,1.878,0,1,1,0-3.756H633.4a9.469,9.469,0,0,0,0-18.939H552.694a1.879,1.879,0,1,1,0-3.758h.392l-.392-.793,33.87-18.072h68.006S668.781,313.239,665.352,325.873Z" transform="translate(-550.814 -311.556)" fill="#7a703b"/>
              </g>
              <path id="Trazado_121980" data-name="Trazado 121980" d="M642.585,338.758c-.034-.075-.071-.147-.109-.221a9.466,9.466,0,0,0-8.228-5.1c-.279-.025-.56-.037-.845-.037H552.694a1.881,1.881,0,0,1-1.881-1.8H633.4A9.491,9.491,0,0,1,642.585,338.758Z" transform="translate(-550.813 -310.814)" opacity="0.2"/>
              <g id="Grupo_88904" data-name="Grupo 88904" transform="translate(1.88 22.622)">
                <path id="Trazado_121981" data-name="Trazado 121981" d="M634.007,352.31H552.626V333.371h81.381a9.469,9.469,0,0,1,8.4,5.1h0a9.471,9.471,0,0,1,0,8.738h0A9.47,9.47,0,0,1,634.007,352.31Z" transform="translate(-552.626 -333.371)" fill="#f0eae0"/>
              </g>
              <g id="Grupo_88911" data-name="Grupo 88911" transform="translate(1.88 27.083)">
                <g id="Grupo_88906" data-name="Grupo 88906">
                  <g id="Grupo_88905" data-name="Grupo 88905">
                    <path id="Trazado_121982" data-name="Trazado 121982" d="M552.626,338.936H632.99a.632.632,0,0,0,0-1.263H552.626Z" transform="translate(-552.626 -337.673)" fill="#b2a495"/>
                  </g>
                </g>
                <g id="Grupo_88908" data-name="Grupo 88908" transform="translate(0 4.377)">
                  <g id="Grupo_88907" data-name="Grupo 88907">
                    <path id="Trazado_121983" data-name="Trazado 121983" d="M552.626,343.157H632.99a.632.632,0,0,0,0-1.263H552.626Z" transform="translate(-552.626 -341.894)" fill="#b2a495"/>
                  </g>
                </g>
                <g id="Grupo_88910" data-name="Grupo 88910" transform="translate(0 8.753)">
                  <g id="Grupo_88909" data-name="Grupo 88909">
                    <path id="Trazado_121984" data-name="Trazado 121984" d="M552.626,347.377H632.99a.632.632,0,0,0,0-1.263H552.626Z" transform="translate(-552.626 -346.114)" fill="#b2a495"/>
                  </g>
                </g>
              </g>
            </g>
            <g id="Grupo_88922" data-name="Grupo 88922">
              <g id="Grupo_88913" data-name="Grupo 88913" transform="translate(1.881 21.435)">
                <path id="Trazado_121985" data-name="Trazado 121985" d="M634.007,326.8H552.626V307.863h81.381a9.47,9.47,0,0,1,8.4,5.1h0a9.471,9.471,0,0,1,0,8.738h0A9.469,9.469,0,0,1,634.007,326.8Z" transform="translate(-552.626 -307.863)" fill="#f0eae0"/>
              </g>
              <g id="Grupo_88914" data-name="Grupo 88914">
                <path id="Trazado_121986" data-name="Trazado 121986" d="M664.211,301.509c-.983,3.608-9.476,13.178-15.616,19.759-.054.054-.109.116-.17.178-.086.093-.171.178-.248.263-1.905,2.036-3.547,3.747-4.63,4.862a.509.509,0,0,1-.062.061c-.643.667-1.076,1.108-1.224,1.262l-.054.055-.007.007a13.114,13.114,0,0,1-8.393,3.353,1.532,1.532,0,0,1-.194.016H552.694a1.882,1.882,0,1,1,0-3.763H633.4a9.464,9.464,0,0,0,9.469-9.469,9.223,9.223,0,0,0-.387-2.671.026.026,0,0,0-.008-.023,9.485,9.485,0,0,0-9.074-6.775H552.694a1.884,1.884,0,0,1-1.882-1.8v-.077a1.9,1.9,0,0,1,.736-1.487l.007-.007a2.1,2.1,0,0,1,.558-.294l.023-.008,33.286-17.761h68S667.641,288.873,664.211,301.509Z" transform="translate(-550.812 -287.193)" fill="#ba4310"/>
              </g>
              <path id="Trazado_121987" data-name="Trazado 121987" d="M572.915,301.286h46.211l3.8-3.8H579.007Z" transform="translate(-549.994 -286.812)" fill="#961102"/>
              <path id="Trazado_121988" data-name="Trazado 121988" d="M642.872,315.6c0,.186-.007.371-.015.557a.555.555,0,0,0-.007.078,6.735,6.735,0,0,0-.364-1.51.026.026,0,0,0-.008-.023,9.485,9.485,0,0,0-9.074-6.775H552.694a1.884,1.884,0,0,1-1.882-1.8H633.4A9.484,9.484,0,0,1,642.872,315.6Z" transform="translate(-550.812 -286.492)" opacity="0.2"/>
              <g id="Grupo_88921" data-name="Grupo 88921" transform="translate(1.881 25.896)">
                <g id="Grupo_88916" data-name="Grupo 88916">
                  <g id="Grupo_88915" data-name="Grupo 88915">
                    <path id="Trazado_121989" data-name="Trazado 121989" d="M552.626,313.428h80.363a.632.632,0,1,0,0-1.263H552.626Z" transform="translate(-552.626 -312.165)" fill="#b2a495"/>
                  </g>
                </g>
                <g id="Grupo_88918" data-name="Grupo 88918" transform="translate(0 4.376)">
                  <g id="Grupo_88917" data-name="Grupo 88917">
                    <path id="Trazado_121990" data-name="Trazado 121990" d="M552.626,317.649h80.363a.632.632,0,1,0,0-1.264H552.626Z" transform="translate(-552.626 -316.385)" fill="#b2a495"/>
                  </g>
                </g>
                <g id="Grupo_88920" data-name="Grupo 88920" transform="translate(0 8.753)">
                  <g id="Grupo_88919" data-name="Grupo 88919">
                    <path id="Trazado_121991" data-name="Trazado 121991" d="M552.626,321.869h80.363a.632.632,0,1,0,0-1.263H552.626Z" transform="translate(-552.626 -320.606)" fill="#b2a495"/>
                  </g>
                </g>
              </g>
            </g>
          </g>
        </g>
      </g>
    </g>
  </g>
</svg>
