<svg xmlns="http://www.w3.org/2000/svg" width="48" height="48" viewBox="0 0 48 48">
  <g id="Grupo_140190" data-name="Grupo 140190" transform="translate(-293 -4228)">
    <circle id="Elipse_5009" data-name="Elipse 5009" cx="24" cy="24" r="24" transform="translate(293 4228)" fill="#fff"/>
    <g id="Grupo_139896" data-name="Grupo 139896" transform="translate(-584.076 3054.585)">
      <path id="Trazado_152602" data-name="Trazado 152602" d="M915.48,1199.265H911.8c-.088,1.557.088,3.1-.109,4.647h4.263v8.389H888.758a1.633,1.633,0,0,1-1.674-1.646c0-4.281-.018-8.562.007-12.842a4.038,4.038,0,0,1,2.109-3.591c.107-.064.219-.121.362-.2a2.822,2.822,0,0,1-1.068-2.495,2.71,2.71,0,0,1,.869-1.761,2.78,2.78,0,0,1,3.58-.205c1.2.894,1.429,2.281.623,3.876.185-.073.345-.133.5-.2,1.36-.566,2.715-1.143,4.081-1.693a5.575,5.575,0,0,1,.926-.206.785.785,0,0,0,.192-.041c1.137-.585,2.268-1.181,3.408-1.759a12.291,12.291,0,0,1,3.037-1.248,2.82,2.82,0,0,1-.907-2.39,2.727,2.727,0,0,1,.976-1.828,2.8,2.8,0,0,1,3.7.083,2.827,2.827,0,0,1,.089,4.043c.074.029.14.06.208.082a4.191,4.191,0,0,1,2.931,3.988c.005.454,0,.909,0,1.387h2.772Zm-.447,5.593c-.07-.005-.117-.011-.163-.011q-8.821,0-17.643,0a.51.51,0,0,0-.3.121c-.344.3-.656.638-1.016.916a1.122,1.122,0,0,0-.448,1.016,1.619,1.619,0,0,1-2.1,1.6.435.435,0,0,0-.349.074q-1.308,1.18-2.592,2.385a1.871,1.871,0,0,0-.243.381h24.859Zm-22.36-4.671h.375a2.331,2.331,0,0,1,2.42,2.422c0,.708,0,1.417,0,2.125,0,.08.012.16.021.28.356-.328.667-.635,1-.912a.789.789,0,0,1,.455-.18c2.086-.011,4.173-.008,6.26-.008h.289a6.234,6.234,0,0,1-.1-.776q-.012-2.751,0-5.5a2.259,2.259,0,0,1,1.3-2.112c.412-.216.827-.428,1.249-.623a.363.363,0,0,0,.251-.393c-.016-.553-.006-1.106-.006-1.659V1191.4c-.126.057-.213.094-.3.136q-2.288,1.144-4.575,2.291a2.049,2.049,0,0,1-1.137.3.311.311,0,0,0-.162.042c-.508.259-1.008.535-1.523.779-1.856.881-3.717,1.75-5.573,2.631-.1.048-.233.174-.235.266C892.665,1198.609,892.673,1199.375,892.673,1200.186Zm5.971-7.839c-.026.01-.116.042-.2.079-1.127.469-2.275.9-3.375,1.419a7.789,7.789,0,0,1-3.725.77,3.2,3.2,0,0,0-3.327,3.319c0,1.184,0,2.368,0,3.552a1.4,1.4,0,0,0,1.492,1.495c.864,0,1.728,0,2.591,0a.942.942,0,0,1,1.041,1.049q0,1.412,0,2.824a.737.737,0,0,0,.28.639.648.648,0,0,0,.713.077.7.7,0,0,0,.407-.684c0-1.427,0-2.853,0-4.28a1.4,1.4,0,0,0-1.5-1.489c-.424,0-.848,0-1.3,0v-.286c0-1.155,0-2.31,0-3.464a.363.363,0,0,1,.246-.392q3.412-1.591,6.815-3.2c.111-.052.22-.109.26-.129Zm8.448-1.928a.32.32,0,0,1,.021.07c0,1.562.006,3.124,0,4.687a.388.388,0,0,1-.194.267c-.574.3-1.157.589-1.739.876a1.431,1.431,0,0,0-.856,1.4c.006.961,0,1.921,0,2.882,0,.854,0,1.708,0,2.562a.7.7,0,1,0,1.394-.009c0-1.281,0-2.562,0-3.843a.974.974,0,0,1,.844-1.107c.493-.134.986-.27,1.5-.412v-4.133h1.828a3.388,3.388,0,0,0-.718-2.865l.62-.7a3.6,3.6,0,0,1,1.045,2.47c.019.815,0,1.63.007,2.445a.467.467,0,1,0,.928.01c0-.961.017-1.922-.006-2.882a3.175,3.175,0,0,0-2.417-3,7.266,7.266,0,0,0-3.908.2,49.581,49.581,0,0,0-5.476,2.615.614.614,0,0,0-.271.76.662.662,0,0,0,1.006.377c1.579-.785,3.167-1.554,4.727-2.375A2.8,2.8,0,0,1,907.092,1190.42Zm1.905,4.192v3.7h5.554v-3.694h-1.843c0,.177.005.339,0,.5a1.4,1.4,0,0,1-2.792-.011c-.005-.161,0-.323,0-.493Zm-17.719-.95a1.863,1.863,0,1,0-1.866-1.867A1.87,1.87,0,0,0,891.278,1193.662Zm18.168-7.44a1.863,1.863,0,1,0-1.9,1.848A1.867,1.867,0,0,0,909.446,1186.222Zm-21.433,17.306v.125q0,3.449,0,6.9a1.505,1.505,0,0,0,.007.2.7.7,0,0,0,1.381.008,1.823,1.823,0,0,0,.009-.262q0-3.143,0-6.287V1204Zm2.337,6.221c.7-.645,1.357-1.245,2.005-1.854.042-.04.041-.149.028-.219a6.077,6.077,0,0,1-.169-.844c-.025-.678-.008-1.357-.008-2.036v-.862h-1.856Zm16.3-10.6v.85c0,1.027.007,2.054,0,3.08a7.471,7.471,0,0,1-.093.814H908.6c-.028-.364-.074-.708-.078-1.052-.01-1.085,0-2.17,0-3.255v-.316l-.454-.022-.028-.478Zm2.8.119c0,1.356-.008,2.683.005,4.01a.674.674,0,0,0,.619.632.692.692,0,0,0,.732-.5.906.906,0,0,0,.035-.257q0-1.863,0-3.726a.9.9,0,0,0-.03-.163Z" transform="translate(0)"/>
      <path id="Trazado_152603" data-name="Trazado 152603" d="M991.053,1304.52h-.891v-.906h.891Z" transform="translate(-80.697 -94.093)"/>
      <path id="Trazado_152604" data-name="Trazado 152604" d="M999.657,1303.654v.886h-.906v-.886Z" transform="translate(-87.42 -94.125)"/>
      <path id="Trazado_152605" data-name="Trazado 152605" d="M1008.229,1304.539h-.885v-.906h.885Z" transform="translate(-94.147 -94.108)"/>
    </g>
  </g>
</svg>
