<svg xmlns="http://www.w3.org/2000/svg" width="400.043" height="394.069" viewBox="0 0 400.043 394.069">
  <g id="Grupo_139895" data-name="Grupo 139895" transform="translate(-835.5 -5910.188)">
    <g id="Grupo_137451" data-name="Grupo 137451" transform="translate(24.453 4949.174)">
      <g id="Grupo_78644" data-name="Grupo 78644" transform="translate(852.322 1006.008)">
        <path id="Trazado_114225" data-name="Trazado 114225" d="M1482.275,641.461c38.361,82.455,103.993,69.507,197.659,25.932s145.754-82.211,107.393-164.665S1634.684,325.221,1541.019,368.8,1443.916,559.006,1482.275,641.461Z" transform="translate(-1442.269 -353.736)" fill="none" stroke="#ef3c79" stroke-miterlimit="10" stroke-width="2"/>
        <path id="Trazado_114226" data-name="Trazado 114226" d="M1475,577.44c0,90.941,64.969,106.887,168.275,106.887s166.83-13.057,166.83-104S1746.581,355,1643.275,355,1475,486.5,1475,577.44Z" transform="translate(-1475 -355)" fill="#00cbae" stroke="rgba(0,0,0,0)" stroke-width="1"/>
        <path id="Trazado_114227" data-name="Trazado 114227" d="M1672.817,432.464c0,8.775,6.269,10.313,16.237,10.313s16.1-1.259,16.1-10.034S1699.021,411,1689.054,411,1672.817,423.689,1672.817,432.464Z" transform="translate(-1655.779 -330.113)" fill="#ef3c79" stroke="rgba(0,0,0,0)" stroke-width="1"/>
        <path id="Trazado_114228" data-name="Trazado 114228" d="M1459.307,461.464c0,8.775,6.27,10.313,16.237,10.313s16.1-1.26,16.1-10.034-6.13-21.743-16.1-21.743S1459.307,452.689,1459.307,461.464Z" transform="translate(-1133.869 -317.224)" fill="#0d4aad" stroke="rgba(0,0,0,0)" stroke-width="1"/>
      </g>
    </g>
    <g id="Grupo_139894" data-name="Grupo 139894" transform="translate(418.906 5829.133)">
      <g id="Grupo_139616" data-name="Grupo 139616" transform="translate(416.594 178.723)">
        <path id="Trazado_152526" data-name="Trazado 152526" d="M602.244,160.691l-1.832,2.769-1.777,2.626c-1.189,1.735-2.4,3.442-3.618,5.145-2.427,3.41-4.948,6.745-7.5,10.072-5.14,6.623-10.486,13.141-16.271,19.468a191.634,191.634,0,0,1-19,18.446,99.07,99.07,0,0,1-11.788,8.577,67.165,67.165,0,0,1-7.271,3.9,47.665,47.665,0,0,1-9.2,3.171,36.636,36.636,0,0,1-5.778.854,32.738,32.738,0,0,1-6.708-.238c-.6-.095-1.184-.187-1.788-.319s-1.208-.266-1.73-.416-1.108-.31-1.594-.474l-1.427-.507a40.536,40.536,0,0,1-4.719-2.165,59.163,59.163,0,0,1-7.046-4.474c-2.054-1.5-3.919-3-5.7-4.5-3.555-3-6.7-6.088-9.753-9.167-3.028-3.093-5.945-6.181-8.721-9.348s-5.492-6.334-8.143-9.531q-3.938-4.827-7.724-9.713-3.768-4.906-7.4-9.891l-3.585-5.027-1.76-2.549-1.781-2.628a13.231,13.231,0,0,1,20.516-16.565l.231.245,8.071,8.446q4.07,4.251,8.193,8.429,4.094,4.2,8.26,8.268c2.753,2.725,5.529,5.406,8.323,8.006s5.577,5.156,8.385,7.564c2.79,2.408,5.628,4.68,8.33,6.69,1.353,1,2.686,1.92,3.932,2.7a23.2,23.2,0,0,0,3.234,1.751,2.985,2.985,0,0,0,.784.254.035.035,0,0,0,0-.025.621.621,0,0,0-.148-.072c-.039-.009-.15-.051-.266-.079s-.2-.058-.3-.069c-.763-.148-.932-.062-.557-.211a16.922,16.922,0,0,0,2.084-.946,33.636,33.636,0,0,0,3.213-1.973,79.892,79.892,0,0,0,7.4-5.9c2.538-2.258,5.08-4.744,7.59-7.354s5.027-5.316,7.486-8.124c4.916-5.621,9.757-11.5,14.458-17.544,2.369-3,4.673-6.075,6.986-9.135l3.417-4.61,1.686-2.295,1.578-2.186.278-.386a18.5,18.5,0,0,1,30.44,21.032Z" transform="translate(-390.631 -111.853)" fill="#314fa5"/>
        <g id="Grupo_139584" data-name="Grupo 139584" transform="translate(57.155 47.415)">
          <path id="Trazado_152527" data-name="Trazado 152527" d="M460.918,144.366a24.147,24.147,0,0,1-18.987,15.7c-1.1.176-.634,1.848.46,1.672a25.861,25.861,0,0,0,20.2-16.907c.375-1.055-1.3-1.508-1.672-.463Z" transform="translate(-441.302 -143.774)" fill="#1c2b74"/>
        </g>
        <g id="Grupo_139587" data-name="Grupo 139587" transform="translate(116.27 88.871)">
          <g id="Grupo_139585" data-name="Grupo 139585" transform="translate(4.468)">
            <path id="Trazado_152528" data-name="Trazado 152528" d="M471.989,162.289a67.149,67.149,0,0,0-3.19,13.017c-.155,1.092,1.517,1.564,1.675.46a67.233,67.233,0,0,1,3.188-13.017c.373-1.055-1.3-1.508-1.672-.46Z" transform="translate(-468.789 -161.695)" fill="#1c2b74"/>
          </g>
          <g id="Grupo_139586" data-name="Grupo 139586" transform="translate(0 2.419)">
            <path id="Trazado_152529" data-name="Trazado 152529" d="M473.44,162.952a49.02,49.02,0,0,0-6.366,6.278c-.715.847.507,2.08,1.228,1.226a49.157,49.157,0,0,1,6.364-6.278c.863-.708-.37-1.929-1.226-1.226Z" transform="translate(-466.857 -162.741)" fill="#1c2b74"/>
          </g>
        </g>
        <g id="Grupo_139615" data-name="Grupo 139615">
          <g id="Grupo_139590" data-name="Grupo 139590">
            <g id="Grupo_139589" data-name="Grupo 139589">
              <g id="Grupo_139588" data-name="Grupo 139588">
                <path id="Trazado_152530" data-name="Trazado 152530" d="M484.364,168.728a18.7,18.7,0,0,0-4.4-22.7,57.5,57.5,0,0,0-6.366-4.712c-4.779-3.086-15.753-10.78-19.878-13.877s-6.486-6.01-8.265-2.709,11.7,17.072,11.7,17.072-27.8-10.336-32.309-6.428,5.485,6.454,5.485,6.454-12.348-1.8-13.375,1.809,11.689,5.933,11.689,5.933-10.618-.761-11.913,2.1,6.685,4.645,10.842,5.233c0,0-9.945.347-10.208,3.692s9.012,2.295,14.939,3,20.324,2.831,24.863,8.811a14.041,14.041,0,0,0,6.625,4.749,16.907,16.907,0,0,0,20.569-8.427Z" transform="translate(-416.594 -123.277)" fill="#eaad8f"/>
              </g>
            </g>
          </g>
          <g id="Grupo_139594" data-name="Grupo 139594" transform="translate(12.118 17.674)">
            <g id="Grupo_139593" data-name="Grupo 139593">
              <g id="Grupo_139592" data-name="Grupo 139592">
                <g id="Grupo_139591" data-name="Grupo 139591">
                  <path id="Trazado_152531" data-name="Trazado 152531" d="M422.506,132.391a43.964,43.964,0,0,1,15.018,2.586.739.739,0,0,0,.472-1.4,45.136,45.136,0,0,0-15.408-2.66c-.946,0-1.034,1.476-.081,1.474Z" transform="translate(-421.833 -130.917)" fill="#c6695d"/>
                </g>
              </g>
            </g>
          </g>
          <g id="Grupo_139598" data-name="Grupo 139598" transform="translate(9.803 25.249)">
            <g id="Grupo_139597" data-name="Grupo 139597">
              <g id="Grupo_139596" data-name="Grupo 139596">
                <g id="Grupo_139595" data-name="Grupo 139595">
                  <path id="Trazado_152532" data-name="Trazado 152532" d="M421.5,135.668c4.717.247,9.438.708,13.831,2.554.879.368,1.344-1.036.472-1.4-4.508-1.892-9.38-2.373-14.219-2.628a.74.74,0,0,0-.083,1.476Z" transform="translate(-420.832 -134.191)" fill="#c6695d"/>
                </g>
              </g>
            </g>
          </g>
          <g id="Grupo_139602" data-name="Grupo 139602" transform="translate(9.309 32.922)">
            <g id="Grupo_139601" data-name="Grupo 139601">
              <g id="Grupo_139600" data-name="Grupo 139600">
                <g id="Grupo_139599" data-name="Grupo 139599">
                  <path id="Trazado_152533" data-name="Trazado 152533" d="M421.288,139.02a34.72,34.72,0,0,1,12.665,1.747.739.739,0,0,0,.472-1.4,35.77,35.77,0,0,0-13.054-1.821c-.941.042-1.034,1.517-.083,1.474Z" transform="translate(-420.619 -137.508)" fill="#c6695d"/>
                </g>
              </g>
            </g>
          </g>
          <g id="Grupo_139606" data-name="Grupo 139606" transform="translate(40.02 17.519)">
            <g id="Grupo_139605" data-name="Grupo 139605">
              <g id="Grupo_139604" data-name="Grupo 139604">
                <g id="Grupo_139603" data-name="Grupo 139603">
                  <path id="Trazado_152534" data-name="Trazado 152534" d="M434.047,132.113a32.344,32.344,0,0,0,12.609,10.336c.863.4,1.325-1,.472-1.4a30.9,30.9,0,0,1-11.978-9.921c-.56-.768-1.659.222-1.1.985Z" transform="translate(-433.895 -130.85)" fill="#c6695d"/>
                </g>
              </g>
            </g>
          </g>
          <g id="Grupo_139610" data-name="Grupo 139610" transform="translate(42.958 23.666)">
            <g id="Grupo_139609" data-name="Grupo 139609">
              <g id="Grupo_139608" data-name="Grupo 139608">
                <g id="Grupo_139607" data-name="Grupo 139607">
                  <path id="Trazado_152535" data-name="Trazado 152535" d="M435.336,134.173a23.05,23.05,0,0,0,10.03,21.874.74.74,0,0,0,.817-1.233,21.568,21.568,0,0,1-9.373-20.558c.118-.944-1.358-1.022-1.474-.083Z" transform="translate(-435.165 -133.507)" fill="#c6695d"/>
                </g>
              </g>
            </g>
          </g>
          <g id="Grupo_139614" data-name="Grupo 139614" transform="translate(23.394 18.723)">
            <g id="Grupo_139613" data-name="Grupo 139613">
              <g id="Grupo_139612" data-name="Grupo 139612">
                <g id="Grupo_139611" data-name="Grupo 139611">
                  <path id="Trazado_152536" data-name="Trazado 152536" d="M432.327,131.587a19.964,19.964,0,0,0-5.059,18.575.739.739,0,0,0,1.443-.312,18.453,18.453,0,0,1,4.6-17.162c.655-.682-.326-1.788-.985-1.1Z" transform="translate(-426.707 -131.37)" fill="#c6695d"/>
                </g>
              </g>
            </g>
          </g>
        </g>
      </g>
      <g id="Grupo_139621" data-name="Grupo 139621" transform="translate(620.176 81.055)">
        <g id="Grupo_139620" data-name="Grupo 139620">
          <g id="Grupo_139619" data-name="Grupo 139619">
            <g id="Grupo_139618" data-name="Grupo 139618">
              <g id="Grupo_139617" data-name="Grupo 139617">
                <path id="Trazado_152537" data-name="Trazado 152537" d="M504.6,182.259c14.583,4.256,42.732,7.888,87.616,0,1.552-9.355,3.072-17.83,3.845-20.958,4.469-18.115,10.766-69.742-26.674-78.4s-68.553,14.011-63.008,48.869C507.887,141.252,506.772,163.4,504.6,182.259Z" transform="translate(-504.602 -81.055)" fill="#e59f3f"/>
              </g>
            </g>
          </g>
        </g>
      </g>
      <g id="Grupo_139626" data-name="Grupo 139626" transform="translate(571.217 189.326)">
        <g id="Grupo_139625" data-name="Grupo 139625">
          <g id="Grupo_139624" data-name="Grupo 139624">
            <g id="Grupo_139623" data-name="Grupo 139623">
              <g id="Grupo_139622" data-name="Grupo 139622">
                <path id="Trazado_152538" data-name="Trazado 152538" d="M644.917,178.453c-.444,2.8-4.224,8.42-8.564,16.084-.6,1.057-1.226,2.156-1.862,3.282-.289.5-.576,1.011-.872,1.527-11.379,20.06-27.9,49.556-34.213,71.345a65.626,65.626,0,0,0-2.429,11.929c-2.431,26.625,11.277,51.742,11.277,51.742-68.647,42.466-124.817,39.586-124.817,39.586s.955-22.718,15.131-66.767c2.538-7.872,5.288-17.715,7.4-27.372v0c.162-.745.324-1.485.472-2.225.713-3.387,1.33-6.731,1.828-9.935,1.115-7.194,1.594-13.7,1.029-18.43a35.579,35.579,0,0,0-.712-3.958c-.132-.567-.271-1.127-.428-1.693-1.578-5.769-4.263-11.582-6.611-17.449-.266-.664-.525-1.335-.78-2-.671-1.751-1.3-3.5-1.837-5.265-.169-.562-.335-1.11-.481-1.67a38.3,38.3,0,0,1-1.443-8.536,25.427,25.427,0,0,1,.035-3.065c.035-.56.093-1.115.162-1.647a27.313,27.313,0,0,1,3.5-10.067c.086-.15.173-.294.259-.44.213-.363.432-.722.664-1.073.134-.215.273-.423.412-.625,3.38-5.017,7.6-8.739,9.9-11.791,1.936-2.572,2.013-6.449,1.74-10.877-.266-4.289-.854-9.1-.386-13.731.058-.595.139-1.184.236-1.774.116-.71.261-1.416.446-2.114a15.285,15.285,0,0,1,2.739-5.855A10,10,0,0,1,518,144.245c3.618-3.137,8.894-3.167,15.078-3.56a28.632,28.632,0,0,0,6.021-1.138c.713-.2,1.416-.428,2.117-.671a71.107,71.107,0,0,0,12.714-6.075l42.415-4.941s1.693,4.5,10.454,10.039q.729.468,1.527.937a87.677,87.677,0,0,0,15.332,6.958q2.644.937,4.895,1.952c.664.3,1.3.6,1.913.907,7.185,3.59,11.148,7.779,13.206,12.168a17.494,17.494,0,0,1,.729,1.763,20.48,20.48,0,0,1,.911,3.525c.1.588.18,1.173.231,1.763A42.428,42.428,0,0,1,644.917,178.453Z" transform="translate(-483.437 -127.86)" fill="#fff"/>
              </g>
            </g>
          </g>
        </g>
      </g>
      <g id="Grupo_139629" data-name="Grupo 139629" transform="translate(588.487 215.021)">
        <g id="Grupo_139628" data-name="Grupo 139628">
          <g id="Grupo_139627" data-name="Grupo 139627">
            <path id="Trazado_152539" data-name="Trazado 152539" d="M523.277,165.1c-1.1,7.611-7.449,12.818-14.55,14.777-5.954,1.635-11.971.96-17.823-.6.086-.15.173-.294.259-.44.213-.363.432-.722.664-1.073a32.6,32.6,0,0,0,14.842.826c7.555-1.561,14.541-6.884,15.038-15.066.49-8.018-4.929-15.448-11.478-19.505a38.728,38.728,0,0,0-6.738-3.278c.058-.595.139-1.184.236-1.774a36.644,36.644,0,0,1,10.208,5.519C519.989,149.262,524.429,157.224,523.277,165.1Z" transform="translate(-490.903 -138.968)" fill="#dbccc1"/>
          </g>
        </g>
      </g>
      <g id="Grupo_139632" data-name="Grupo 139632" transform="translate(588.55 222.211)">
        <g id="Grupo_139631" data-name="Grupo 139631">
          <g id="Grupo_139630" data-name="Grupo 139630">
            <path id="Trazado_152540" data-name="Trazado 152540" d="M634.559,143.915q-5.177-.236-10.375.032c-15.818.856-30.213,6.486-43.4,15.08-13.218,8.617-24.777,19.436-37.051,29.283-10.865,8.709-23.014,18.147-37.185,20.28a32.9,32.9,0,0,1-14.842-1.145c-.266-.664-.525-1.335-.78-2,9.033,3.218,20.181,1.254,28.781-2.954,13.715-6.711,25.307-17.414,36.919-27.134,10.946-9.172,22.2-18.244,35.062-24.608a86.361,86.361,0,0,1,41.675-8.617l.463.018A17.494,17.494,0,0,1,634.559,143.915Z" transform="translate(-490.93 -142.076)" fill="#dbccc1"/>
          </g>
        </g>
      </g>
      <g id="Grupo_139635" data-name="Grupo 139635" transform="translate(593.752 300.334)">
        <g id="Grupo_139634" data-name="Grupo 139634">
          <g id="Grupo_139633" data-name="Grupo 139633">
            <path id="Trazado_152541" data-name="Trazado 152541" d="M527.311,191.321a127.491,127.491,0,0,1-34.132,25.464c.162-.745.324-1.485.472-2.225a133.842,133.842,0,0,0,26.412-18.638c3.456-3.132,9.049-7.2,9.5-12.138.972-10.708-22.429-4.883-27.884-3.4q-2.984.805-5.885,1.855c-.132-.567-.271-1.127-.428-1.693q2.661-.947,5.38-1.7a80.371,80.371,0,0,1,12.744-2.45c3.9-.428,8.23-.965,12.091-.023,2.908.706,5.281,2.635,5.716,5.716C531.8,185.693,529.652,188.825,527.311,191.321Z" transform="translate(-493.179 -175.848)" fill="#dbccc1"/>
          </g>
        </g>
      </g>
      <g id="Grupo_139638" data-name="Grupo 139638" transform="translate(626.801 332.038)">
        <g id="Grupo_139637" data-name="Grupo 139637">
          <g id="Grupo_139636" data-name="Grupo 139636">
            <path id="Trazado_152542" data-name="Trazado 152542" d="M561.677,190.97c-7.072-3.444-14.712-.039-20.657,4.161a78.748,78.748,0,0,0-16.785,16.227,82.359,82.359,0,0,0-16.764,42.406c-.106,1.11,1.629,1.1,1.733,0a80.52,80.52,0,0,1,14.8-39.2,78.773,78.773,0,0,1,14.518-15.367c5.952-4.8,14.465-10.537,22.283-6.727,1,.488,1.881-1.006.877-1.5Z" transform="translate(-507.466 -189.554)" fill="#dbccc1"/>
          </g>
        </g>
      </g>
      <g id="Grupo_139641" data-name="Grupo 139641" transform="translate(608.085 264.704)">
        <g id="Grupo_139640" data-name="Grupo 139640">
          <g id="Grupo_139639" data-name="Grupo 139639">
            <path id="Trazado_152543" data-name="Trazado 152543" d="M501.087,263.406c3.266-11.034,7.194-22.119,14.115-31.448a49.61,49.61,0,0,1,12.154-11.777c4.663-3.109,9.806-4.839,15.179-6.278,8.617-2.311,19.144-5.452,21.953-15.115,1.527-5.251.268-10.747.444-16.1a24.232,24.232,0,0,1,4.936-14.09c3.361-4.277,8.355-6.9,13.856-6.341,5.216.53,10.109,3.687,11.656,8.846a.868.868,0,0,0,1.672-.46c-2.3-7.666-10.972-11.476-18.5-9.808-9.086,2.015-14.449,11.529-15.253,20.2-.613,6.618,1.772,13.907-1.619,20.056-2.931,5.318-8.927,8.032-14.469,9.718-5.813,1.767-11.788,2.905-17.206,5.774a46.8,46.8,0,0,0-12.667,10.046c-9.225,10.2-14.078,23.327-17.925,36.318a.868.868,0,0,0,1.672.46Z" transform="translate(-499.375 -160.446)" fill="#dbccc1"/>
          </g>
        </g>
      </g>
      <g id="Grupo_139644" data-name="Grupo 139644" transform="translate(711.295 227.335)">
        <g id="Grupo_139643" data-name="Grupo 139643">
          <g id="Grupo_139642" data-name="Grupo 139642">
            <path id="Trazado_152544" data-name="Trazado 152544" d="M546,165.394a14.786,14.786,0,0,0,8.964,10.847c-.289.5-.576,1.011-.872,1.527a16.517,16.517,0,0,1-10.039-13.9c-1.027-12.471,10.449-21.152,21.73-19.336.1.588.18,1.173.231,1.763C555.01,144.1,543.827,153.4,546,165.394Z" transform="translate(-543.992 -144.291)" fill="#dbccc1"/>
          </g>
        </g>
      </g>
      <g id="Grupo_139647" data-name="Grupo 139647" transform="translate(691.169 199.365)">
        <g id="Grupo_139646" data-name="Grupo 139646">
          <g id="Grupo_139645" data-name="Grupo 139645">
            <path id="Trazado_152545" data-name="Trazado 152545" d="M562.366,142.954a69.424,69.424,0,0,1-13.4,6.07c-4.641,1.5-12.732,3.5-13.576-3.6-.52-4.374,1-9.079,3.306-13.222q.729.468,1.527.937a28.559,28.559,0,0,0-1.346,2.982c-1.1,2.873-2.993,7.946-1.277,10.865,1.89,3.213,6.75,1.612,9.517.791a60.828,60.828,0,0,0,9.2-3.572c1.4-.675,2.778-1.4,4.131-2.156C561.117,142.348,561.753,142.649,562.366,142.954Z" transform="translate(-535.292 -132.2)" fill="#dbccc1"/>
          </g>
        </g>
      </g>
      <g id="Grupo_139650" data-name="Grupo 139650" transform="translate(604.495 200.341)">
        <g id="Grupo_139649" data-name="Grupo 139649">
          <g id="Grupo_139648" data-name="Grupo 139648">
            <path id="Trazado_152546" data-name="Trazado 152546" d="M522.322,132.622c-2.295,5.311-5.017,10.178-10.918,11.7-5.3,1.365-9.877-1.1-13.581-4.987a10,10,0,0,1,1.284-1.342c4.275,4.559,9.593,7.12,15.2,3.04a19.16,19.16,0,0,0,5.9-7.738C520.918,133.092,521.621,132.865,522.322,132.622Z" transform="translate(-497.823 -132.622)" fill="#dbccc1"/>
          </g>
        </g>
      </g>
      <g id="Grupo_139656" data-name="Grupo 139656" transform="translate(631.357 215.66)">
        <g id="Grupo_139655" data-name="Grupo 139655">
          <g id="Grupo_139654" data-name="Grupo 139654">
            <g id="Grupo_139653" data-name="Grupo 139653">
              <g id="Grupo_139652" data-name="Grupo 139652">
                <g id="Grupo_139651" data-name="Grupo 139651">
                  <path id="Trazado_152547" data-name="Trazado 152547" d="M509.726,139.847a7.246,7.246,0,0,0,3.5,8.256c4.048,2.417,9.572,1.832,14.053,1.522a88.229,88.229,0,0,0,30.821-7.978c1.009-.465.132-1.952-.872-1.49a86.5,86.5,0,0,1-23.9,7.1,76.879,76.879,0,0,1-12.265.835c-4.286-.076-11.467-1.913-9.674-7.789.326-1.066-1.339-1.52-1.663-.46Z" transform="translate(-509.435 -139.244)" fill="#dbccc1"/>
                </g>
              </g>
            </g>
          </g>
        </g>
      </g>
      <g id="Grupo_139662" data-name="Grupo 139662" transform="translate(670.586 265.328)">
        <g id="Grupo_139661" data-name="Grupo 139661">
          <g id="Grupo_139660" data-name="Grupo 139660">
            <g id="Grupo_139659" data-name="Grupo 139659">
              <g id="Grupo_139658" data-name="Grupo 139658">
                <g id="Grupo_139657" data-name="Grupo 139657">
                  <path id="Trazado_152548" data-name="Trazado 152548" d="M565.909,161.126a304.984,304.984,0,0,0-39.5,103.6c-.2,1.087,1.464,1.552,1.663.46A303.678,303.678,0,0,1,567.4,162a.864.864,0,0,0-1.49-.872Z" transform="translate(-526.394 -160.716)" fill="#dbccc1"/>
                </g>
              </g>
            </g>
          </g>
        </g>
      </g>
      <g id="Grupo_139847" data-name="Grupo 139847" transform="translate(622.254 90.46)">
        <g id="Grupo_139840" data-name="Grupo 139840">
          <g id="Grupo_139839" data-name="Grupo 139839">
            <g id="Grupo_139838" data-name="Grupo 139838">
              <g id="Grupo_139837" data-name="Grupo 139837">
                <g id="Grupo_139672" data-name="Grupo 139672" transform="translate(3.547 41.483)">
                  <g id="Grupo_139671" data-name="Grupo 139671">
                    <g id="Grupo_139670" data-name="Grupo 139670">
                      <g id="Grupo_139669" data-name="Grupo 139669">
                        <g id="Grupo_139668" data-name="Grupo 139668">
                          <g id="Grupo_139667" data-name="Grupo 139667">
                            <g id="Grupo_139666" data-name="Grupo 139666">
                              <g id="Grupo_139665" data-name="Grupo 139665">
                                <g id="Grupo_139664" data-name="Grupo 139664">
                                  <g id="Grupo_139663" data-name="Grupo 139663">
                                    <path id="Trazado_152549" data-name="Trazado 152549" d="M513.551,103.054s-4.472-.139-5.994,5.408.2,15.309,6.056,14.832S513.551,103.054,513.551,103.054Z" transform="translate(-507.034 -103.054)" fill="#c6695d"/>
                                  </g>
                                </g>
                              </g>
                            </g>
                          </g>
                        </g>
                      </g>
                    </g>
                  </g>
                </g>
                <g id="Grupo_139679" data-name="Grupo 139679" transform="translate(0 55.452)">
                  <g id="Grupo_139678" data-name="Grupo 139678">
                    <g id="Grupo_139677" data-name="Grupo 139677">
                      <g id="Grupo_139676" data-name="Grupo 139676">
                        <g id="Grupo_139675" data-name="Grupo 139675">
                          <g id="Grupo_139674" data-name="Grupo 139674">
                            <g id="Grupo_139673" data-name="Grupo 139673">
                              <path id="Trazado_152550" data-name="Trazado 152550" d="M512.786,124.761a7.844,7.844,0,1,1,8.383-7.266A7.851,7.851,0,0,1,512.786,124.761Zm.953-13.361a5.551,5.551,0,1,0,5.142,5.931A5.556,5.556,0,0,0,513.739,111.4Z" transform="translate(-505.5 -109.092)" fill="#fff"/>
                            </g>
                          </g>
                        </g>
                      </g>
                    </g>
                  </g>
                </g>
                <g id="Grupo_139698" data-name="Grupo 139698" transform="translate(16.504 68.872)">
                  <g id="Grupo_139688" data-name="Grupo 139688" transform="translate(3.997 18.325)">
                    <g id="Grupo_139687" data-name="Grupo 139687">
                      <g id="Grupo_139686" data-name="Grupo 139686">
                        <g id="Grupo_139685" data-name="Grupo 139685">
                          <g id="Grupo_139684" data-name="Grupo 139684">
                            <g id="Grupo_139683" data-name="Grupo 139683">
                              <g id="Grupo_139682" data-name="Grupo 139682">
                                <g id="Grupo_139681" data-name="Grupo 139681">
                                  <g id="Grupo_139680" data-name="Grupo 139680">
                                    <line id="Línea_255" data-name="Línea 255" y2="0.004" fill="#eaad8f"/>
                                  </g>
                                </g>
                              </g>
                            </g>
                          </g>
                        </g>
                      </g>
                    </g>
                  </g>
                  <g id="Grupo_139697" data-name="Grupo 139697">
                    <g id="Grupo_139696" data-name="Grupo 139696">
                      <g id="Grupo_139695" data-name="Grupo 139695">
                        <g id="Grupo_139694" data-name="Grupo 139694">
                          <g id="Grupo_139693" data-name="Grupo 139693">
                            <g id="Grupo_139692" data-name="Grupo 139692">
                              <g id="Grupo_139691" data-name="Grupo 139691">
                                <g id="Grupo_139690" data-name="Grupo 139690">
                                  <g id="Grupo_139689" data-name="Grupo 139689">
                                    <path id="Trazado_152551" data-name="Trazado 152551" d="M561.588,154.411s-9.436,13.641-26.253,14.085c-21.365.564-22.7-8.772-22.7-8.772a40.08,40.08,0,0,0,2.693-8.508c.229-1.138.423-2.311.583-3.528a97.113,97.113,0,0,0,.7-11.238c.016-.995.023-2.031.021-3.1l0-.125c14.955-1.74,27.618-6.8,37.026-16.577l2.336-1.046,1.573-.71.171.881-.594,2.672C554.308,131,555.939,141.871,561.588,154.411Z" transform="translate(-512.635 -114.894)" fill="#eaad8f"/>
                                  </g>
                                </g>
                              </g>
                            </g>
                          </g>
                        </g>
                      </g>
                    </g>
                  </g>
                </g>
                <g id="Grupo_139708" data-name="Grupo 139708" transform="translate(19.78 80.628)">
                  <g id="Grupo_139707" data-name="Grupo 139707">
                    <g id="Grupo_139706" data-name="Grupo 139706">
                      <g id="Grupo_139705" data-name="Grupo 139705">
                        <g id="Grupo_139704" data-name="Grupo 139704">
                          <g id="Grupo_139703" data-name="Grupo 139703">
                            <g id="Grupo_139702" data-name="Grupo 139702">
                              <g id="Grupo_139701" data-name="Grupo 139701">
                                <g id="Grupo_139700" data-name="Grupo 139700">
                                  <g id="Grupo_139699" data-name="Grupo 139699">
                                    <path id="Trazado_152552" data-name="Trazado 152552" d="M540.405,119.976c-3.888,6.586-12.461,18.032-26.354,21.039a97.113,97.113,0,0,0,.7-11.238c.016-.995.023-2.031.021-3.1.282.067.574.127.865.18C523.5,128.313,532.6,125.236,540.405,119.976Z" transform="translate(-514.051 -119.976)" fill="#171612"/>
                                  </g>
                                </g>
                              </g>
                            </g>
                          </g>
                        </g>
                      </g>
                    </g>
                  </g>
                </g>
                <g id="Grupo_139718" data-name="Grupo 139718" transform="translate(6.141 2.172)">
                  <g id="Grupo_139717" data-name="Grupo 139717">
                    <g id="Grupo_139716" data-name="Grupo 139716">
                      <g id="Grupo_139715" data-name="Grupo 139715">
                        <g id="Grupo_139714" data-name="Grupo 139714">
                          <g id="Grupo_139713" data-name="Grupo 139713">
                            <g id="Grupo_139712" data-name="Grupo 139712">
                              <g id="Grupo_139711" data-name="Grupo 139711">
                                <g id="Grupo_139710" data-name="Grupo 139710">
                                  <g id="Grupo_139709" data-name="Grupo 139709">
                                    <path id="Trazado_152553" data-name="Trazado 152553" d="M583.6,133.875c-.428,7.944-7.675,17.31-18.083,17.039l-.053,0h0l-.222,0c-.19.446-.409.886-.636,1.332-.1.192-.2.389-.3.581-.012.019-.021.035-.035.053-7.2,13.146-26.854,20.053-37.269,19.776a23.707,23.707,0,0,1-6.963-1.288c-10.9-2.986-12.156-17.992-9.815-29.286a43.5,43.5,0,0,1,1.233-4.631l.1-.294s-2.838-16.126-3.331-23.121c-.944-13.556,7.516-26.822,37.192-27.925s35.772,17.608,37.324,27.444c.261,1.638-.583,11.275-2.283,12.744C583.182,127.872,583.747,131.205,583.6,133.875Z" transform="translate(-508.155 -86.06)" fill="#eaad8f"/>
                                  </g>
                                </g>
                              </g>
                            </g>
                          </g>
                        </g>
                      </g>
                    </g>
                  </g>
                </g>
                <g id="Grupo_139730" data-name="Grupo 139730" transform="translate(9.878 44.256)">
                  <g id="Grupo_139723" data-name="Grupo 139723" transform="translate(2.925 0.865)">
                    <g id="Grupo_139722" data-name="Grupo 139722">
                      <g id="Grupo_139721" data-name="Grupo 139721">
                        <g id="Grupo_139720" data-name="Grupo 139720">
                          <g id="Grupo_139719" data-name="Grupo 139719">
                            <path id="Trazado_152554" data-name="Trazado 152554" d="M511.074,108.861c.224,2.218,1.342,3.923,2.494,3.805s1.906-2.008,1.682-4.226-1.339-3.923-2.494-3.808S510.852,106.642,511.074,108.861Z" transform="translate(-511.035 -104.627)" fill="#171612"/>
                          </g>
                        </g>
                      </g>
                    </g>
                  </g>
                  <g id="Grupo_139729" data-name="Grupo 139729">
                    <g id="Grupo_139728" data-name="Grupo 139728">
                      <g id="Grupo_139727" data-name="Grupo 139727">
                        <g id="Grupo_139726" data-name="Grupo 139726">
                          <g id="Grupo_139725" data-name="Grupo 139725">
                            <g id="Grupo_139724" data-name="Grupo 139724">
                              <path id="Trazado_152555" data-name="Trazado 152555" d="M520.165,107.016a.605.605,0,0,0,.285-.229.588.588,0,0,0-.169-.817c-.227-.15-5.626-3.639-10.269-.224a.59.59,0,1,0,.7.951c3.986-2.933,8.871.227,8.92.259A.6.6,0,0,0,520.165,107.016Z" transform="translate(-509.771 -104.252)" fill="#171612"/>
                            </g>
                          </g>
                        </g>
                      </g>
                    </g>
                  </g>
                </g>
                <g id="Grupo_139741" data-name="Grupo 139741" transform="translate(30.39 42.612)">
                  <g id="Grupo_139734" data-name="Grupo 139734" transform="translate(1.784 0.885)">
                    <g id="Grupo_139733" data-name="Grupo 139733">
                      <g id="Grupo_139732" data-name="Grupo 139732">
                        <g id="Grupo_139731" data-name="Grupo 139731">
                          <path id="Trazado_152556" data-name="Trazado 152556" d="M519.448,108.159c.224,2.218,1.339,3.923,2.491,3.808s1.906-2.01,1.682-4.229-1.339-3.923-2.491-3.808S519.224,105.94,519.448,108.159Z" transform="translate(-519.409 -103.925)" fill="#171612"/>
                        </g>
                      </g>
                    </g>
                  </g>
                  <g id="Grupo_139740" data-name="Grupo 139740">
                    <g id="Grupo_139739" data-name="Grupo 139739">
                      <g id="Grupo_139738" data-name="Grupo 139738">
                        <g id="Grupo_139737" data-name="Grupo 139737">
                          <g id="Grupo_139736" data-name="Grupo 139736">
                            <g id="Grupo_139735" data-name="Grupo 139735">
                              <path id="Trazado_152557" data-name="Trazado 152557" d="M528.851,107.054a.6.6,0,0,0,.312-.19.59.59,0,0,0-.062-.833c-.208-.178-5.121-4.321-10.16-1.52a.59.59,0,1,0,.574,1.032c4.328-2.408,8.772,1.346,8.816,1.383A.592.592,0,0,0,528.851,107.054Z" transform="translate(-518.638 -103.542)" fill="#171612"/>
                            </g>
                          </g>
                        </g>
                      </g>
                    </g>
                  </g>
                </g>
                <g id="Grupo_139742" data-name="Grupo 139742" transform="translate(16.364 64.852)">
                  <path id="Trazado_152558" data-name="Trazado 152558" d="M517.7,119.031a8.515,8.515,0,0,0,1.055-.069c3.583-.463,6.035-3.9,6.139-4.046a1.118,1.118,0,0,0-1.83-1.286c-.028.042-2.006,2.778-4.6,3.114a3.954,3.954,0,0,1-3.849-1.284,1.127,1.127,0,0,0-1.55-.294,1.114,1.114,0,0,0-.312,1.534A5.94,5.94,0,0,0,517.7,119.031Z" transform="translate(-512.575 -113.156)" fill="#c6695d"/>
                </g>
                <g id="Grupo_139753" data-name="Grupo 139753" transform="translate(61.666 47.681)">
                  <g id="Grupo_139752" data-name="Grupo 139752">
                    <g id="Grupo_139751" data-name="Grupo 139751">
                      <g id="Grupo_139750" data-name="Grupo 139750">
                        <g id="Grupo_139749" data-name="Grupo 139749">
                          <g id="Grupo_139748" data-name="Grupo 139748">
                            <g id="Grupo_139747" data-name="Grupo 139747">
                              <g id="Grupo_139746" data-name="Grupo 139746">
                                <g id="Grupo_139745" data-name="Grupo 139745">
                                  <g id="Grupo_139744" data-name="Grupo 139744">
                                    <g id="Grupo_139743" data-name="Grupo 139743">
                                      <path id="Trazado_152559" data-name="Trazado 152559" d="M533.349,118.826a1.07,1.07,0,0,0,.925-.81c1.832-7.4,10.923-10.153,11.016-10.178a1.074,1.074,0,1,0-.6-2.061c-.421.123-10.363,3.118-12.5,11.723a1.072,1.072,0,0,0,.784,1.3A1.034,1.034,0,0,0,533.349,118.826Z" transform="translate(-532.158 -105.733)" fill="#c6695d"/>
                                    </g>
                                  </g>
                                </g>
                              </g>
                            </g>
                          </g>
                        </g>
                      </g>
                    </g>
                  </g>
                </g>
                <g id="Grupo_139764" data-name="Grupo 139764" transform="translate(65.843 51.976)">
                  <g id="Grupo_139763" data-name="Grupo 139763">
                    <g id="Grupo_139762" data-name="Grupo 139762">
                      <g id="Grupo_139761" data-name="Grupo 139761">
                        <g id="Grupo_139760" data-name="Grupo 139760">
                          <g id="Grupo_139759" data-name="Grupo 139759">
                            <g id="Grupo_139758" data-name="Grupo 139758">
                              <g id="Grupo_139757" data-name="Grupo 139757">
                                <g id="Grupo_139756" data-name="Grupo 139756">
                                  <g id="Grupo_139755" data-name="Grupo 139755">
                                    <g id="Grupo_139754" data-name="Grupo 139754">
                                      <path id="Trazado_152560" data-name="Trazado 152560" d="M540.527,112.716a1.024,1.024,0,0,0,.393-.123,1.074,1.074,0,0,0,.435-1.455,7.376,7.376,0,0,0-6.3-3.549,1.073,1.073,0,1,0-.028,2.147,5.226,5.226,0,0,1,4.441,2.422A1.074,1.074,0,0,0,540.527,112.716Z" transform="translate(-533.964 -107.59)" fill="#c6695d"/>
                                    </g>
                                  </g>
                                </g>
                              </g>
                            </g>
                          </g>
                        </g>
                      </g>
                    </g>
                  </g>
                </g>
                <g id="Grupo_139774" data-name="Grupo 139774" transform="translate(8.209 53.559)" opacity="0.5">
                  <g id="Grupo_139773" data-name="Grupo 139773">
                    <g id="Grupo_139772" data-name="Grupo 139772">
                      <g id="Grupo_139771" data-name="Grupo 139771">
                        <g id="Grupo_139770" data-name="Grupo 139770">
                          <g id="Grupo_139769" data-name="Grupo 139769">
                            <g id="Grupo_139768" data-name="Grupo 139768">
                              <g id="Grupo_139767" data-name="Grupo 139767">
                                <g id="Grupo_139766" data-name="Grupo 139766">
                                  <g id="Grupo_139765" data-name="Grupo 139765">
                                    <path id="Trazado_152561" data-name="Trazado 152561" d="M515.214,110.95c-.086,1.177-2.73,1.976-6.165,1.955a43.5,43.5,0,0,1,1.233-4.631C513.22,108.811,515.292,109.875,515.214,110.95Z" transform="translate(-509.049 -108.274)" fill="#c6695d"/>
                                  </g>
                                </g>
                              </g>
                            </g>
                          </g>
                        </g>
                      </g>
                    </g>
                  </g>
                </g>
                <g id="Grupo_139784" data-name="Grupo 139784" transform="translate(32.713 55.417)" opacity="0.5">
                  <g id="Grupo_139783" data-name="Grupo 139783">
                    <g id="Grupo_139782" data-name="Grupo 139782">
                      <g id="Grupo_139781" data-name="Grupo 139781">
                        <g id="Grupo_139780" data-name="Grupo 139780">
                          <g id="Grupo_139779" data-name="Grupo 139779">
                            <g id="Grupo_139778" data-name="Grupo 139778">
                              <g id="Grupo_139777" data-name="Grupo 139777">
                                <g id="Grupo_139776" data-name="Grupo 139776">
                                  <g id="Grupo_139775" data-name="Grupo 139775">
                                    <path id="Trazado_152562" data-name="Trazado 152562" d="M519.644,111.036c-.1,1.344,3.174,2.674,7.305,2.97s7.557-.555,7.652-1.9-3.174-2.674-7.3-2.97S519.741,109.689,519.644,111.036Z" transform="translate(-519.642 -109.078)" fill="#c6695d"/>
                                  </g>
                                </g>
                              </g>
                            </g>
                          </g>
                        </g>
                      </g>
                    </g>
                  </g>
                </g>
                <g id="Grupo_139795" data-name="Grupo 139795" transform="translate(56.207 63.198)">
                  <g id="Grupo_139794" data-name="Grupo 139794">
                    <g id="Grupo_139793" data-name="Grupo 139793">
                      <g id="Grupo_139792" data-name="Grupo 139792">
                        <g id="Grupo_139791" data-name="Grupo 139791">
                          <g id="Grupo_139790" data-name="Grupo 139790">
                            <g id="Grupo_139789" data-name="Grupo 139789">
                              <g id="Grupo_139788" data-name="Grupo 139788">
                                <g id="Grupo_139787" data-name="Grupo 139787">
                                  <g id="Grupo_139786" data-name="Grupo 139786">
                                    <g id="Grupo_139785" data-name="Grupo 139785">
                                      <path id="Trazado_152563" data-name="Trazado 152563" d="M537.1,116.27l-.056,0h0l-.22,0c-.192.446-.409.886-.638,1.332-.1.192-.2.389-.3.581a.256.256,0,0,1-.032.053,9.572,9.572,0,0,1-3.928-1.8,7.623,7.623,0,0,1-1.994-2.41,1.075,1.075,0,0,1,1.9-1.006,5.779,5.779,0,0,0,2.436,2.376,7.749,7.749,0,0,0,1.841.685A9.142,9.142,0,0,0,537.1,116.27Z" transform="translate(-529.798 -112.441)" fill="#c6695d"/>
                                    </g>
                                  </g>
                                </g>
                              </g>
                            </g>
                          </g>
                        </g>
                      </g>
                    </g>
                  </g>
                </g>
                <g id="Grupo_139802" data-name="Grupo 139802" transform="translate(60.827 59.922)">
                  <g id="Grupo_139801" data-name="Grupo 139801">
                    <g id="Grupo_139800" data-name="Grupo 139800">
                      <g id="Grupo_139799" data-name="Grupo 139799">
                        <g id="Grupo_139798" data-name="Grupo 139798">
                          <g id="Grupo_139797" data-name="Grupo 139797">
                            <g id="Grupo_139796" data-name="Grupo 139796">
                              <path id="Trazado_152564" data-name="Trazado 152564" d="M531.862,117.738a9.821,9.821,0,0,0,2.255.488c0,.037-.012.074-.016.113a5.552,5.552,0,1,0,6.806-5,1.56,1.56,0,0,1,.167-2.313,7.843,7.843,0,1,1-9.258,7.152C531.825,118.029,531.843,117.884,531.862,117.738Z" transform="translate(-531.795 -111.025)" fill="#fff"/>
                            </g>
                          </g>
                        </g>
                      </g>
                    </g>
                  </g>
                </g>
                <g id="Grupo_139812" data-name="Grupo 139812" transform="translate(21.277 73.366)">
                  <g id="Grupo_139811" data-name="Grupo 139811">
                    <g id="Grupo_139810" data-name="Grupo 139810">
                      <g id="Grupo_139809" data-name="Grupo 139809">
                        <g id="Grupo_139808" data-name="Grupo 139808">
                          <g id="Grupo_139807" data-name="Grupo 139807">
                            <g id="Grupo_139806" data-name="Grupo 139806">
                              <g id="Grupo_139805" data-name="Grupo 139805">
                                <g id="Grupo_139804" data-name="Grupo 139804">
                                  <g id="Grupo_139803" data-name="Grupo 139803">
                                    <path id="Trazado_152565" data-name="Trazado 152565" d="M517.362,119.273A4.192,4.192,0,0,0,519.838,118a.7.7,0,0,0-1.062-.923,2.856,2.856,0,0,1-3.134.6A.7.7,0,0,0,515.16,119,4.587,4.587,0,0,0,517.362,119.273Z" transform="translate(-514.698 -116.837)" fill="#c6695d"/>
                                  </g>
                                </g>
                              </g>
                            </g>
                          </g>
                        </g>
                      </g>
                    </g>
                  </g>
                </g>
                <g id="Grupo_139813" data-name="Grupo 139813" transform="translate(3.762)">
                  <path id="Trazado_152566" data-name="Trazado 152566" d="M576.689,97.7c-6-6.9-14.55-12.635-25.2-12.582-14.941.074-28.989,4.546-37.035,12.2a21.023,21.023,0,0,0-6.894,13.1c-1.635,15.436,1.858,12.593,1.858,12.593a19.443,19.443,0,0,1,.571-3.627h0c.379-1.966,1.018-4.99,2.089-9.616,2.556-11.039,38.106-10.428,35.423-3.361a12.814,12.814,0,0,0-.132,2.279,15.323,15.323,0,0,0,1.163,5.658c.28.058.551.12.805.178a32.162,32.162,0,0,1,8.742,3.377l.012.014c.294.234,5.457,4.441,4.386,10.046-1.094,5.774-3.639,13.25.391,12.024s5.6-5.883,5.6-5.883l0,0a18.508,18.508,0,0,1,8.9-6.012C579.245,117.958,580.17,107.566,576.689,97.7Z" transform="translate(-507.126 -85.121)" fill="#e59f3f"/>
                </g>
                <g id="Grupo_139814" data-name="Grupo 139814" transform="translate(44.011 17.965)">
                  <path id="Trazado_152567" data-name="Trazado 152567" d="M555.558,94.226c-10.428-4.215-27.935,2.73-31.032,4.268a15.323,15.323,0,0,0,1.163,5.658c.28.058.551.12.805.178a32.162,32.162,0,0,1,8.742,3.377l.012.014c.294.234,5.457,4.441,4.386,10.046-1.094,5.774-8.224,36.491-2.489,41.65,11.631,10.467,10.072-35.462,10.072-35.462h0c2.237-2.484,3.387-4.994,7.317-6.063C558.984,109.889,557.973,101.971,555.558,94.226Z" transform="translate(-524.526 -92.887)" fill="#e59f3f"/>
                </g>
                <g id="Grupo_139815" data-name="Grupo 139815" transform="translate(71.524 7.872)">
                  <path id="Trazado_152568" data-name="Trazado 152568" d="M537.591,99.213s5.922,9.6,1.323,24.409c0,0,5.2-1.018,7.592,0s5.408-7.761,3.394-16.1-13.093-18.994-13.093-18.994S535.541,96.4,537.591,99.213Z" transform="translate(-536.42 -88.524)" fill="#e59f3f"/>
                </g>
                <g id="Grupo_139826" data-name="Grupo 139826" transform="translate(16.313 46.595)">
                  <g id="Grupo_139825" data-name="Grupo 139825">
                    <g id="Grupo_139824" data-name="Grupo 139824">
                      <g id="Grupo_139823" data-name="Grupo 139823">
                        <g id="Grupo_139822" data-name="Grupo 139822">
                          <g id="Grupo_139821" data-name="Grupo 139821">
                            <g id="Grupo_139820" data-name="Grupo 139820">
                              <g id="Grupo_139819" data-name="Grupo 139819">
                                <g id="Grupo_139818" data-name="Grupo 139818">
                                  <g id="Grupo_139817" data-name="Grupo 139817">
                                    <g id="Grupo_139816" data-name="Grupo 139816">
                                      <path id="Trazado_152569" data-name="Trazado 152569" d="M517.36,119.007a.9.9,0,0,1-.481-.148l-3.921-2.586a.9.9,0,0,1,.079-1.552c3.292-1.709,5.374-4.5,6.551-8.795a.9.9,0,1,1,1.737.479c-1.164,4.233-3.139,7.18-6.167,9.163l2.713,1.786a.9.9,0,0,1-.511,1.654Z" transform="translate(-512.552 -105.264)" fill="#c6695d"/>
                                    </g>
                                  </g>
                                </g>
                              </g>
                            </g>
                          </g>
                        </g>
                      </g>
                    </g>
                  </g>
                </g>
                <g id="Grupo_139835" data-name="Grupo 139835" transform="translate(28.604 31.706)">
                  <g id="Grupo_139834" data-name="Grupo 139834">
                    <g id="Grupo_139833" data-name="Grupo 139833">
                      <g id="Grupo_139832" data-name="Grupo 139832">
                        <g id="Grupo_139831" data-name="Grupo 139831">
                          <g id="Grupo_139830" data-name="Grupo 139830">
                            <g id="Grupo_139829" data-name="Grupo 139829">
                              <g id="Grupo_139828" data-name="Grupo 139828">
                                <g id="Grupo_139827" data-name="Grupo 139827">
                                  <path id="Trazado_152570" data-name="Trazado 152570" d="M521.274,104.765a2.188,2.188,0,0,1-2.979-3.1,6.349,6.349,0,0,1,3.757-2.392,15.88,15.88,0,0,1,13.75,3.252s-8.422-.437-12.343,1.115A12.3,12.3,0,0,0,521.274,104.765Z" transform="translate(-517.866 -98.827)" fill="#171612"/>
                                </g>
                              </g>
                            </g>
                          </g>
                        </g>
                      </g>
                    </g>
                  </g>
                </g>
                <g id="Grupo_139836" data-name="Grupo 139836" transform="translate(6.798 33.277)">
                  <path id="Trazado_152571" data-name="Trazado 152571" d="M520.426,104.976A2.189,2.189,0,0,0,523,101.534a6.354,6.354,0,0,0-4.023-1.906c-8.2-.983-10.537,4.319-10.537,4.319s5.6-.867,9.681.187A12.22,12.22,0,0,1,520.426,104.976Z" transform="translate(-508.439 -99.506)" fill="#171612"/>
                </g>
              </g>
            </g>
          </g>
        </g>
        <g id="Grupo_139846" data-name="Grupo 139846" transform="translate(0 43.17)">
          <g id="Grupo_139841" data-name="Grupo 139841" transform="translate(0.655 1.094)" opacity="0.6">
            <ellipse id="Elipse_5015" data-name="Elipse 5015" cx="10.467" cy="7.505" rx="10.467" ry="7.505" fill="#fff"/>
          </g>
          <g id="Grupo_139842" data-name="Grupo 139842" transform="translate(24.714)" opacity="0.6">
            <path id="Trazado_152572" data-name="Trazado 152572" d="M516.184,111.919c0,4.492,5.08,8.136,11.346,8.136s11.349-3.643,11.349-8.136-5.082-8.136-11.349-8.136S516.184,107.424,516.184,111.919Z" transform="translate(-516.184 -103.783)" fill="#fff"/>
          </g>
          <g id="Grupo_139843" data-name="Grupo 139843" transform="translate(19.994 6.431)">
            <path id="Trazado_152573" data-name="Trazado 152573" d="M514.8,108.923a.652.652,0,0,0,.43-.162,2.726,2.726,0,0,1,3.969-.049.655.655,0,1,0,.96-.891,4.009,4.009,0,0,0-5.79-.049.655.655,0,0,0,.43,1.15Z" transform="translate(-514.144 -106.563)" fill="#fff"/>
          </g>
          <g id="Grupo_139844" data-name="Grupo 139844" transform="translate(45.391 1.425)">
            <path id="Trazado_152574" data-name="Trazado 152574" d="M525.778,110.106a.665.665,0,0,0,.345-.1c6.854-4.242,15.438-4.3,15.526-4.3a.656.656,0,0,0,0-1.312c-.365,0-9.033.053-16.213,4.495a.655.655,0,0,0,.345,1.212Z" transform="translate(-525.123 -104.399)" fill="#fff"/>
          </g>
          <g id="Grupo_139845" data-name="Grupo 139845" transform="translate(0 5.128)">
            <path id="Trazado_152575" data-name="Trazado 152575" d="M506.154,110.125a.651.651,0,0,0,.518-.252c1.309-1.684,5.566-2.422,7.095-2.565a.655.655,0,1,0-.123-1.3c-.248.023-6.086.595-8.006,3.065a.656.656,0,0,0,.116.921A.645.645,0,0,0,506.154,110.125Z" transform="translate(-505.5 -106)" fill="#fff"/>
          </g>
        </g>
      </g>
      <path id="Trazado_152576" data-name="Trazado 152576" d="M490.738,284.54c1.517.247,7.717,1.069,8.448,1.21,5.839.659,11.689,1.233,17.551,1.663,12.376.909,24.789,1.293,37.194,1.064,12.82-.238,25.675-1.087,38.469-1.934,6.26-.412,12.514-.9,18.755-1.543.257-.025.516-.067.775-.1.426-.065,1.321-.192,2.408-.331.615-.09,1.3-.192,2.177-.324,6.229-.942,12.468-1.742,18.712-2.464-.384-1.559-.791-3.088-1.238-4.566-9.579-31.7-29.232-67.62-29.232-67.62-37.22,12.255-63.2,12.577-80.056,9.692-.631-.111-1.254-.224-1.858-.345-16.382-3.148-23.475-9.262-23.475-9.262a264.828,264.828,0,0,0-12.582,41.085c-.125.541-.245,1.083-.368,1.626-2.216,9.9-4.09,20.127-5.679,30.442Q485.73,283.725,490.738,284.54Z" transform="translate(84.238 168.807)" fill="#c04d3a"/>
      <g id="Grupo_139853" data-name="Grupo 139853" transform="translate(565.087 387.752)">
        <g id="Grupo_139848" data-name="Grupo 139848" transform="translate(5.57)">
          <path id="Trazado_152577" data-name="Trazado 152577" d="M483.2,247.091c9.438-2.912,19.88-4.2,27.967-9.348,5.6-3.569,10.417-9,11.2-15.816a17.538,17.538,0,0,0-.888-7.944c-.631-.111-1.254-.224-1.858-.345a16.164,16.164,0,0,1-.495,13.539c-6.651,13-22.7,14.469-35.561,18.284C483.438,246,483.315,246.545,483.2,247.091Z" transform="translate(-483.195 -213.639)" fill="#7e231a"/>
        </g>
        <g id="Grupo_139849" data-name="Grupo 139849" transform="translate(0 1.182)">
          <path id="Trazado_152578" data-name="Trazado 152578" d="M483.641,277.366c.222-.1.453-.185.673-.289,21.11-9.938,36.382-28.749,54.5-42.869,18.069-14.078,43.181-25.279,65.455-13.805.921.474,1.735-.914.814-1.393C594.186,213.4,581.533,213,569.807,216c-22.4,5.721-39.207,22.926-55.906,37.828-8.924,7.962-18.288,15.843-29.054,21.215-1.321.655-2.676,1.272-4.06,1.839C481.738,277.049,482.691,277.2,483.641,277.366Z" transform="translate(-480.787 -214.15)" fill="#7e231a"/>
        </g>
        <g id="Grupo_139850" data-name="Grupo 139850" transform="translate(47.308 22.774)">
          <path id="Trazado_152579" data-name="Trazado 152579" d="M503.435,269.936c6.556-6.6,12.815-13.553,19.353-19.929,16.375-15.975,39.563-31.2,63.3-22.471-.21-.539-.428-1.076-.648-1.612a.939.939,0,0,1-.074-.342c-11.43-3.8-23.863-2.128-34.814,2.54-20.243,8.619-34.081,26.556-49.318,41.724C501.971,269.88,502.7,269.906,503.435,269.936Z" transform="translate(-501.238 -223.484)" fill="#7e231a"/>
        </g>
        <g id="Grupo_139851" data-name="Grupo 139851" transform="translate(85.581 33.897)">
          <path id="Trazado_152580" data-name="Trazado 152580" d="M519.661,263.418q.833-.038,1.668-.079c-1.936-6.886-3.5-13.8,1.339-20.009,4.393-5.635,11.413-8.654,18.087-10.6a72,72,0,0,1,25.337-2.63c1.036.074,1.027-1.538,0-1.61A73.072,73.072,0,0,0,537.98,231.9c-6.759,2.23-13.808,5.836-17.717,12.045-3.842,6.1-2.538,12.825-.638,19.346Z" transform="translate(-517.783 -228.293)" fill="#7e231a"/>
        </g>
        <g id="Grupo_139852" data-name="Grupo 139852" transform="translate(119.057 49.512)">
          <path id="Trazado_152581" data-name="Trazado 152581" d="M534.258,252.434a41.121,41.121,0,0,1,18.506-15.774c.944-.4.525-1.952-.428-1.552a42.694,42.694,0,0,0-18.184,14.59c-.673.937-1.3,1.9-1.9,2.885C532.921,252.529,533.592,252.487,534.258,252.434Z" transform="translate(-532.255 -235.043)" fill="#7e231a"/>
        </g>
      </g>
      <g id="Grupo_139854" data-name="Grupo 139854" transform="translate(582.218 361.698)">
        <path id="Trazado_152582" data-name="Trazado 152582" d="M550.469,258.808q3.345,11.447,5.614,23.167c.437-.06.874-.125,1.309-.185a263.042,263.042,0,0,0-24.715-70.78c-.4-.768-1.557-.088-1.159.675A258.879,258.879,0,0,1,550.469,258.808Z" transform="translate(-431.403 -191.481)" fill="#171612"/>
        <path id="Trazado_152583" data-name="Trazado 152583" d="M597.836,224.5s-1.45-16.172-6.181-19.267c0,0-48.64,19.845-97.193-2.861,0,0-7.451,6.817-6.107,19.864C488.355,222.24,522.718,247.963,597.836,224.5Z" transform="translate(-488.193 -202.376)" fill="#7e231a"/>
      </g>
      <g id="Grupo_139858" data-name="Grupo 139858" transform="translate(640.086 180.857)">
        <path id="Trazado_152584" data-name="Trazado 152584" d="M555.428,124.2s11.687,2.875,15.008,20.139c0,0,21.006,6.25,26.658,10.743s12.413,9.271,11.969,16.667c-1.45,24.058-37.361,77.366-41.041,91.727s18.494,66.554,18.494,66.554q-24.094,19.858-73.306,17.791s5.633-139.983,15.991-162.592S549.281,145.673,555.428,124.2Z" transform="translate(-513.209 -124.199)" fill="#314fa5"/>
        <g id="Grupo_139855" data-name="Grupo 139855" transform="translate(25.456 20.211)">
          <path id="Trazado_152585" data-name="Trazado 152585" d="M556.977,134.352a51.666,51.666,0,0,1-31.414,38.865c-1.344.544-1.929-1.638-.6-2.177A49.428,49.428,0,0,0,554.8,133.752c.241-1.43,2.415-.824,2.174.6Z" transform="translate(-524.213 -132.936)" fill="#1c2b74"/>
        </g>
        <g id="Grupo_139856" data-name="Grupo 139856" transform="translate(13.779 57.622)">
          <path id="Trazado_152586" data-name="Trazado 152586" d="M535.63,150.5A373.4,373.4,0,0,0,521.813,270.79q.815,17.592,3.239,35.055c.2,1.42-1.976,2.033-2.174.6a384.747,384.747,0,0,1,2.452-122q3.2-17.464,8.126-34.541a1.129,1.129,0,0,1,2.174.6Z" transform="translate(-519.166 -149.109)" fill="#1c2b74"/>
        </g>
        <g id="Grupo_139857" data-name="Grupo 139857" transform="translate(1.768 197.305)">
          <path id="Trazado_152587" data-name="Trazado 152587" d="M581.581,211.651a90.342,90.342,0,0,1-66.792,15.792c-1.429-.227-.821-2.4.6-2.174A88.1,88.1,0,0,0,580.443,209.7c1.18-.851,2.306,1.1,1.138,1.948Z" transform="translate(-513.973 -209.493)" fill="#1c2b74"/>
        </g>
      </g>
      <g id="Grupo_139863" data-name="Grupo 139863" transform="translate(560.796 184.699)">
        <path id="Trazado_152588" data-name="Trazado 152588" d="M561.107,125.86s-2.963,24.252-5.163,39.993c-2.359,16.873-21.846,64.99-24.127,96.651s-9.947,76.006-9.947,76.006-25.971-1.839-42.938-18.9c0,0,22.505-48.141,27.03-67.445s-9.422-44.039-5.94-54.678,14.335-14.654,15.228-24.2-3.574-24.652,3.572-29.242,26.579-3.382,29.066-5.431C547.887,138.62,553.679,126.718,561.107,125.86Z" transform="translate(-478.932 -125.86)" fill="#314fa5"/>
        <g id="Grupo_139859" data-name="Grupo 139859" transform="translate(21.337 31.437)">
          <path id="Trazado_152589" data-name="Trazado 152589" d="M505.658,140.535c-.495,8.395-1.173,17.173-6.151,24.275-2.69,3.833-5.913,7.169-7.578,11.633a25.181,25.181,0,0,0-.921,14.344c.315,1.416-1.86,2.019-2.174.6a27.886,27.886,0,0,1,5.45-23.463c3.118-4.074,5.822-7.712,7.208-12.741a70.32,70.32,0,0,0,1.911-14.65c.083-1.441,2.341-1.453,2.255,0Z" transform="translate(-488.156 -139.45)" fill="#1c2b74"/>
        </g>
        <g id="Grupo_139860" data-name="Grupo 139860" transform="translate(66.434 16.178)">
          <path id="Trazado_152590" data-name="Trazado 152590" d="M510.283,133.933c-.935,10-.44,21.08,4.735,29.961a1.129,1.129,0,0,1-1.948,1.138c-5.371-9.218-6.012-20.7-5.043-31.1.134-1.432,2.392-1.446,2.255,0Z" transform="translate(-507.651 -132.853)" fill="#1c2b74"/>
        </g>
        <g id="Grupo_139861" data-name="Grupo 139861" transform="translate(37.32 41.529)">
          <path id="Trazado_152591" data-name="Trazado 152591" d="M529.238,145.192a655.417,655.417,0,0,0-28.878,132.84c-1.127,10.139-2.087,20.3-3.033,30.456-.134,1.432-2.392,1.448-2.255,0,3.8-40.706,9.01-81.019,19.248-120.679,3.757-14.546,8.048-28.945,12.744-43.216.451-1.372,2.63-.784,2.174.6Z" transform="translate(-495.065 -143.813)" fill="#1c2b74"/>
        </g>
        <g id="Grupo_139862" data-name="Grupo 139862" transform="translate(3.606 187.557)">
          <path id="Trazado_152592" data-name="Trazado 152592" d="M519.446,228.03a91.443,91.443,0,0,1-38.58-19.214c-1.11-.937.49-2.524,1.6-1.594a89.05,89.05,0,0,0,37.583,18.633c1.413.324.814,2.5-.6,2.174Z" transform="translate(-480.491 -206.94)" fill="#1c2b74"/>
        </g>
      </g>
      <g id="Grupo_139891" data-name="Grupo 139891" transform="translate(696.093 212.419)">
        <path id="Trazado_152593" data-name="Trazado 152593" d="M611.975,275.825l-.018-.979-.016-.477-.023-.379-.049-.759c-.035-.541-.079-.932-.12-1.362s-.086-.865-.134-1.221l-.143-1.131-.153-1.046c-.1-.71-.208-1.335-.315-1.994-.432-2.563-.9-4.9-1.386-7.192s-.99-4.52-1.5-6.729c-2.04-8.809-4.349-17.273-6.672-25.73s-4.8-16.8-7.275-25.143c-1.24-4.168-2.531-8.318-3.81-12.468s-2.577-8.293-3.907-12.422-2.649-8.265-4.016-12.383c-1.353-4.134-2.741-8.214-4.168-12.378a20.986,20.986,0,0,0-39.785,13.37l.007.025,8.031,24.358,8.066,24.365c2.706,8.106,5.311,16.227,7.934,24.3,2.6,8.066,5.1,16.163,7.416,24.037.569,1.964,1.117,3.914,1.629,5.818s.985,3.773,1.362,5.443l.257,1.187.113.551.09.467.118.627.016.046.009.023a.712.712,0,0,0,0-.072,1.352,1.352,0,0,1,.007-.169l.009-.086,0,.069a14.462,14.462,0,0,1-.058,2.989,39.976,39.976,0,0,1-2.223,8.7,89.7,89.7,0,0,1-4.254,9.958c-1.689,3.38-3.525,6.819-5.524,10.234s-4.122,6.831-6.331,10.227c-2.225,3.384-4.506,6.78-6.877,10.118q-1.044,1.475-2.1,2.942a231.81,231.81,0,0,0,11.1,28.932,14.027,14.027,0,0,0,4.328-2.718l2.649-2.445c.842-.786,1.679-1.571,2.494-2.369,1.633-1.6,3.25-3.2,4.835-4.83,3.16-3.276,6.266-6.614,9.26-10.09,3.01-3.468,5.945-7.037,8.763-10.773s5.589-7.587,8.173-11.7a124.771,124.771,0,0,0,7.314-13.155,77.982,77.982,0,0,0,5.579-15.91,53.39,53.39,0,0,0,1.286-9.854l.011-.333Z" transform="translate(-537.42 -137.843)" fill="#314fa5"/>
        <g id="Grupo_139864" data-name="Grupo 139864" transform="translate(36.601 137.252)">
          <path id="Trazado_152594" data-name="Trazado 152594" d="M554.282,200.8a24.56,24.56,0,0,1,14.256-1.427c1.092.215,1.557-1.457.46-1.672a26.18,26.18,0,0,0-15.179,1.427c-1.02.414-.574,2.093.463,1.672Z" transform="translate(-553.243 -197.177)" fill="#1c2b74"/>
        </g>
        <g id="Grupo_139865" data-name="Grupo 139865" transform="translate(40.405 132.611)">
          <path id="Trazado_152595" data-name="Trazado 152595" d="M562.435,195.285a38.564,38.564,0,0,0-7.273,5.2c-.828.749.4,1.973,1.228,1.226a36.468,36.468,0,0,1,6.919-4.927c.979-.539.1-2.038-.874-1.5Z" transform="translate(-554.887 -195.17)" fill="#1c2b74"/>
        </g>
        <g id="Grupo_139890" data-name="Grupo 139890" transform="translate(2.641 187.533)">
          <g id="Grupo_139871" data-name="Grupo 139871">
            <g id="Grupo_139870" data-name="Grupo 139870">
              <g id="Grupo_139869" data-name="Grupo 139869">
                <g id="Grupo_139868" data-name="Grupo 139868">
                  <g id="Grupo_139867" data-name="Grupo 139867">
                    <g id="Grupo_139866" data-name="Grupo 139866">
                      <path id="Trazado_152596" data-name="Trazado 152596" d="M540.068,219.117s8.825-1.67,11.048,4.543-6.287,19.265-9.586,23.644-3.972-8.515-1.393-13.636,1.515-8.5,1.515-8.5Z" transform="translate(-538.562 -218.913)" fill="#eaad8f"/>
                    </g>
                  </g>
                </g>
              </g>
            </g>
          </g>
          <g id="Grupo_139877" data-name="Grupo 139877" transform="translate(8.887 20.08)">
            <g id="Grupo_139876" data-name="Grupo 139876">
              <g id="Grupo_139875" data-name="Grupo 139875">
                <g id="Grupo_139874" data-name="Grupo 139874">
                  <g id="Grupo_139873" data-name="Grupo 139873">
                    <g id="Grupo_139872" data-name="Grupo 139872">
                      <path id="Trazado_152597" data-name="Trazado 152597" d="M545.372,255.749c3.3-4.377,11.807-17.428,9.586-23.641s-11.686-4.205-11.686-4.205l1.876,6.341s1.409,2.75-1.168,7.872S542.075,260.128,545.372,255.749Z" transform="translate(-542.404 -227.593)" fill="#eaad8f"/>
                    </g>
                  </g>
                </g>
              </g>
            </g>
          </g>
          <g id="Grupo_139883" data-name="Grupo 139883" transform="translate(14.828 29.075)">
            <g id="Grupo_139882" data-name="Grupo 139882">
              <g id="Grupo_139881" data-name="Grupo 139881">
                <g id="Grupo_139880" data-name="Grupo 139880">
                  <g id="Grupo_139879" data-name="Grupo 139879">
                    <g id="Grupo_139878" data-name="Grupo 139878">
                      <path id="Trazado_152598" data-name="Trazado 152598" d="M545.057,253.752q2.373-.295,4.747-.576c3.35-5.11,7.817-13.327,6.25-17.705-1.962-5.489-10.322-3.715-10.322-3.715l1.656,5.6s1.245,2.431-1.032,6.954C545.18,246.646,544.777,250.8,545.057,253.752Z" transform="translate(-544.972 -231.482)" fill="#eaad8f"/>
                    </g>
                  </g>
                </g>
              </g>
            </g>
          </g>
          <g id="Grupo_139889" data-name="Grupo 139889" transform="translate(3.664 10.394)">
            <g id="Grupo_139888" data-name="Grupo 139888">
              <g id="Grupo_139887" data-name="Grupo 139887">
                <g id="Grupo_139886" data-name="Grupo 139886">
                  <g id="Grupo_139885" data-name="Grupo 139885">
                    <g id="Grupo_139884" data-name="Grupo 139884">
                      <path id="Trazado_152599" data-name="Trazado 152599" d="M541.013,223.716s9.463-2.008,11.686,4.206-6.287,19.265-9.586,23.641-3.972-8.513-1.393-13.634,1.168-7.874,1.168-7.874Z" transform="translate(-540.146 -223.406)" fill="#eaad8f"/>
                    </g>
                  </g>
                </g>
              </g>
            </g>
          </g>
        </g>
      </g>
      <g id="Grupo_139892" data-name="Grupo 139892" transform="translate(697.535 244.27)">
        <path id="Trazado_152600" data-name="Trazado 152600" d="M538.09,152.676q6.266,19.438,12.538,38.876c.34,1.057,2.015.6,1.672-.463q-6.27-19.438-12.538-38.874c-.342-1.059-2.017-.606-1.672.46Z" transform="translate(-538.044 -151.612)" fill="#1c2b74"/>
      </g>
      <g id="Grupo_139893" data-name="Grupo 139893" transform="translate(697.339 255.628)">
        <path id="Trazado_152601" data-name="Trazado 152601" d="M538.206,158.011a82.741,82.741,0,0,1,5.734,6.632c.682.879,1.9-.356,1.226-1.228a82.215,82.215,0,0,0-5.734-6.63c-.775-.805-2,.421-1.226,1.226Z" transform="translate(-537.959 -156.522)" fill="#1c2b74"/>
      </g>
    </g>
  </g>
</svg>
