<svg xmlns="http://www.w3.org/2000/svg" width="48" height="48" viewBox="0 0 48 48">
  <g id="Grupo_140191" data-name="Grupo 140191" transform="translate(-528 -4228)">
    <circle id="Elipse_5010" data-name="Elipse 5010" cx="24" cy="24" r="24" transform="translate(528 4228)" fill="#fff"/>
    <g id="Grupo_139897" data-name="Grupo 139897" transform="translate(-334.185 3234.178)">
      <path id="Trazado_152606" data-name="Trazado 152606" d="M873.2,1010.846a.434.434,0,0,0,.854.064,1.253,1.253,0,0,0,.022-.321c0-2.206,0-4.411,0-6.617,0-.216.045-.274.269-.273q7.426.011,14.851,0c.212,0,.279.038.276.267-.014,1.176-.008,2.353-.006,3.529a.928.928,0,0,0,1.037,1.031c1.186,0,2.372.007,3.558-.005.226,0,.275.061.269.277-.015.617,0,1.235-.007,1.853a.456.456,0,0,0,.246.462c.317.157.632-.072.635-.474.006-.715-.012-1.432.008-2.146a1.257,1.257,0,0,0-.414-.989q-2.153-2.13-4.286-4.282a1.445,1.445,0,0,0-.595-.4H873.788a.98.98,0,0,0-.6,1.024c.017,2.245.008,4.49.008,6.735A2.34,2.34,0,0,0,873.2,1010.846Zm17.141-6.437,3.239,3.239h-2.272c-.265,0-.529,0-.794,0-.119,0-.176-.026-.176-.161C890.34,1006.454,890.338,1005.419,890.338,1004.409Z" transform="translate(0)"/>
      <path id="Trazado_152607" data-name="Trazado 152607" d="M943.652,1031.972q-.235-.12-.473-.234a1.179,1.179,0,0,0-1.7.577q-4.323,8.772-8.642,17.546a.959.959,0,0,0-.1.511c.021.264.025.529.037.793h-.007c.016.284.042.568.046.852a.633.633,0,0,0,.343.631.658.658,0,0,0,.715-.1q.658-.47,1.324-.925a1.2,1.2,0,0,0,.408-.486c.521-1.073,1.051-2.141,1.579-3.21.246-.5.5-1,.738-1.5a.45.45,0,0,0-.219-.658c-.235-.086-.442.017-.585.306q-.625,1.261-1.241,2.527c-.074.154-.136.2-.3.1a4.756,4.756,0,0,0-.709-.35c-.2-.079-.231-.155-.129-.358.843-1.688,1.671-3.382,2.5-5.075q1.625-3.3,3.246-6.606c.093-.19.168-.241.362-.121a4.816,4.816,0,0,0,.684.335c.181.076.218.152.122.342-.452.888-.887,1.786-1.327,2.68q-1.147,2.328-2.292,4.657c-.154.314-.095.553.157.679s.474.019.635-.293c.018-.035.035-.07.052-.1l2.694-5.472q1.321-2.683,2.641-5.367A1.179,1.179,0,0,0,943.652,1031.972Zm-9.98,19.64v-1.1l.925.454Zm1.576-2.09a.91.91,0,0,1,.129.1c-.105.2-.192.386-.3.559-.037.06-.106-.008-.154-.031-.28-.134-.553-.284-.838-.407-.157-.067-.138-.137-.079-.263.219-.46.215-.462.665-.24C934.866,1049.333,935.058,1049.425,935.248,1049.523Zm6.917-13.715c-.031.057-.091.015-.131,0-.307-.15-.611-.307-.92-.452-.1-.046-.1-.084-.06-.177.2-.535.205-.539.719-.286.175.086.348.177.524.262.061.029.12.054.14.118C942.343,1035.46,942.259,1035.637,942.165,1035.808Zm1.313-2.694a1.438,1.438,0,0,1-.064.171c-.156.324-.323.644-.472.971-.069.151-.137.175-.285.092-.254-.142-.519-.267-.785-.385-.134-.06-.176-.111-.1-.257.18-.334.344-.676.508-1.018a.324.324,0,0,1,.5-.166c.165.084.332.164.5.248A.318.318,0,0,1,943.478,1033.114Z" transform="translate(-45.152 -21.805)"/>
      <path id="Trazado_152608" data-name="Trazado 152608" d="M895.192,1053.03a.4.4,0,0,0-.412-.313.4.4,0,0,0-.408.277,1.129,1.129,0,0,0-.03.348c0,2.647-.006,5.3.006,7.942,0,.28-.059.351-.346.35q-9.781-.014-19.562,0c-.274,0-.352-.05-.352-.341q.015-9.4.007-18.8a1.452,1.452,0,0,0-.024-.35.433.433,0,0,0-.853.065c-.007.078,0,.157,0,.235q0,9.531,0,19.062c0,.726.281,1,1.018,1h19.974c.724,0,1.015-.289,1.015-1.013q0-4.074,0-8.149A1.223,1.223,0,0,0,895.192,1053.03Z" transform="translate(-0.022 -29.56)"/>
      <path id="Trazado_152609" data-name="Trazado 152609" d="M881.946,1068.414a.843.843,0,0,0,.867.879q1.161.019,2.323,0a.86.86,0,0,0,.877-.905q.009-1.132,0-2.264a.827.827,0,0,0-.816-.895q-1.219-.038-2.439,0a.811.811,0,0,0-.813.863c-.009.382,0,.764,0,1.146S881.937,1068.022,881.946,1068.414Zm.875-2.135c0-.139.043-.187.184-.185q.983.009,1.966,0c.131,0,.165.048.164.172,0,.655-.008,1.311,0,1.966,0,.172-.074.187-.211.184-.323-.007-.646,0-.968,0s-.626-.008-.939,0c-.157.006-.2-.051-.2-.2Q882.831,1067.248,882.821,1066.279Z" transform="translate(-6.639 -47.302)"/>
      <path id="Trazado_152610" data-name="Trazado 152610" d="M881.945,1046.436a.824.824,0,0,0,.834.877q1.2.032,2.41,0a.833.833,0,0,0,.824-.889q.009-1.132,0-2.264a.855.855,0,0,0-.869-.911c-.783-.015-1.568-.016-2.352,0a.832.832,0,0,0-.847.866c-.01.392,0,.784,0,1.176S881.937,1046.054,881.945,1046.436Zm.876-2.135c0-.141.044-.184.185-.183.646.007,1.293.008,1.939,0,.163,0,.193.057.191.2q-.01.97,0,1.939c0,.14-.038.189-.181.185-.323-.009-.646,0-.969,0s-.627-.006-.94,0c-.153,0-.229-.022-.226-.2C882.83,1045.593,882.827,1044.946,882.821,1044.3Z" transform="translate(-6.639 -30.64)"/>
      <path id="Trazado_152611" data-name="Trazado 152611" d="M881.948,1090.427a.837.837,0,0,0,.865.847q1.161.011,2.323,0a.852.852,0,0,0,.878-.871q.014-1.161,0-2.323a.839.839,0,0,0-.872-.871q-1.161-.012-2.323,0a.828.828,0,0,0-.872.866c-.01.382,0,.764,0,1.147h0C881.945,1089.624,881.935,1090.026,881.948,1090.427Zm.873-2.145c0-.15.035-.206.194-.2.323.012.646,0,.969,0s.647.006.969,0c.139,0,.185.035.183.179-.007.656-.006,1.312,0,1.968,0,.126-.031.169-.163.168q-.984-.01-1.969,0c-.136,0-.186-.031-.184-.177Q882.832,1089.252,882.82,1088.283Z" transform="translate(-6.639 -63.977)"/>
      <path id="Trazado_152612" data-name="Trazado 152612" d="M886.006,1022.152a.836.836,0,0,0-.842-.844q-1.19-.019-2.381,0a.822.822,0,0,0-.839.84q-.019,1.19,0,2.381a.826.826,0,0,0,.865.843c.382.007.764,0,1.147,0h1.205a.843.843,0,0,0,.845-.839Q886.025,1023.343,886.006,1022.152Zm-1.055,2.342c-.323-.01-.646,0-.969,0s-.666,0-1,0c-.126,0-.169-.034-.168-.164q.009-.983,0-1.967c0-.142.041-.181.181-.18.656.007,1.311.006,1.967,0,.125,0,.169.03.168.162q-.01.983,0,1.967C885.133,1024.453,885.093,1024.5,884.951,1024.494Z" transform="translate(-6.634 -14.008)"/>
      <path id="Trazado_152613" data-name="Trazado 152613" d="M911.778,1054.44a.4.4,0,0,0-.293-.451,1.058,1.058,0,0,0-.318-.032q-4.54,0-9.079,0a1.263,1.263,0,0,0-.263.014.433.433,0,0,0-.339.532.466.466,0,0,0,.517.336c1.548,0,3.1,0,4.643,0h4.5a1.612,1.612,0,0,0,.264-.006A.4.4,0,0,0,911.778,1054.44Z" transform="translate(-21.446 -38.768)"/>
      <path id="Trazado_152614" data-name="Trazado 152614" d="M902.171,1045.813a2.176,2.176,0,0,0-.294.01.4.4,0,0,0-.378.415.4.4,0,0,0,.326.428,1.374,1.374,0,0,0,.32.029q4.5,0,9,0a1.244,1.244,0,0,0,.377-.042.431.431,0,0,0-.059-.823,1.706,1.706,0,0,0-.322-.016h-8.972Z" transform="translate(-21.468 -32.595)" fill="#010101"/>
      <path id="Trazado_152615" data-name="Trazado 152615" d="M910.921,1076.786a.422.422,0,0,0,.461-.481c-.025-.275-.211-.4-.613-.4q-4.324,0-8.648,0a1.094,1.094,0,0,0-.347.041.4.4,0,0,0-.28.433.4.4,0,0,0,.339.389,1.655,1.655,0,0,0,.322.017h7.265C909.92,1076.789,910.421,1076.8,910.921,1076.786Z" transform="translate(-21.463 -55.412)" fill="#010101"/>
      <path id="Trazado_152616" data-name="Trazado 152616" d="M901.982,1068.642c.049,0,.1,0,.147,0h8a.954.954,0,0,0,.349-.031.431.431,0,0,0,.258-.595.49.49,0,0,0-.514-.258c-1.363,0-2.726,0-4.089,0h-1.765c-.794,0-1.589,0-2.383,0a.446.446,0,0,0-.5.42C901.474,1068.448,901.668,1068.628,901.982,1068.642Z" transform="translate(-21.456 -49.233)"/>
      <path id="Trazado_152617" data-name="Trazado 152617" d="M909.365,1090.578a.427.427,0,0,0,.411-.421.434.434,0,0,0-.408-.454,2.354,2.354,0,0,0-.264,0h-6.91a2.772,2.772,0,0,0-.294,0,.432.432,0,0,0-.41.451.425.425,0,0,0,.408.423,1.791,1.791,0,0,0,.235,0h7A1.933,1.933,0,0,0,909.365,1090.578Z" transform="translate(-21.46 -65.867)"/>
      <path id="Trazado_152618" data-name="Trazado 152618" d="M902.041,1032.9q3.4,0,6.794,0c.363,0,.576-.167.576-.444s-.21-.438-.577-.438q-1.691,0-3.382,0t-3.412,0c-.349,0-.549.155-.558.424S901.683,1032.9,902.041,1032.9Z" transform="translate(-21.455 -22.132)" fill="#010101"/>
      <path id="Trazado_152619" data-name="Trazado 152619" d="M901.842,1024.7a1.66,1.66,0,0,0,.293.012h5.027c.6,0,1.2,0,1.793,0a.436.436,0,0,0,.46-.431.455.455,0,0,0-.429-.441.992.992,0,0,0-.118,0q-3.425,0-6.85,0a.7.7,0,0,0-.258.041.431.431,0,0,0,.081.823Z" transform="translate(-21.461 -15.927)" fill="#010101"/>
      <path id="Trazado_152620" data-name="Trazado 152620" d="M908.087,1097.9a1.715,1.715,0,0,0-.322-.017h-5.143c-.245,0-.491-.006-.734.011a.394.394,0,0,0-.387.4.4.4,0,0,0,.342.445,1.188,1.188,0,0,0,.262.022q2.866,0,5.731,0a.944.944,0,0,0,.317-.041.429.429,0,0,0-.066-.822Z" transform="translate(-21.468 -72.076)" fill="#010101"/>
    </g>
  </g>
</svg>
